<svg xmlns="http://www.w3.org/2000/svg" viewBox="0 0 35.93 32.54"><defs><style>.cls-1{fill:#0034a0;}</style></defs><title>Asset 1</title><g id="Layer_2" data-name="Layer 2"><g id="Layer_1-2" data-name="Layer 1"><path class="cls-1" d="M4.71,32.54h0a1.9,1.9,0,0,1-1.1-3.43,8,8,0,0,0,2.33-2.59A14.28,14.28,0,0,1,0,15.11C.07,6.69,8.19-.08,18.1,0S36,7,35.93,15.42s-8.19,15.19-18.1,15.1a21.31,21.31,0,0,1-4.18-.46A15.51,15.51,0,0,1,4.71,32.54Zm13.36-30C9.55,2.43,2.56,8.09,2.5,15.13a12,12,0,0,0,5.34,9.73A1.79,1.79,0,0,1,8.43,27a10.08,10.08,0,0,1-2,2.94,12,12,0,0,0,6.05-2.13,1.73,1.73,0,0,1,1.44-.3,18.63,18.63,0,0,0,4,.47c8.53.08,15.52-5.59,15.58-12.63S26.6,2.57,18.07,2.5ZM6.37,26.89h0Z"/></g></g></svg>