<?xml version="1.0" encoding="utf-8"?>
<!-- Generator: Adobe Illustrator 22.0.1, SVG Export Plug-In . SVG Version: 6.00 Build 0)  -->
<svg version="1.1" id="Layer_1" xmlns="http://www.w3.org/2000/svg" xmlns:xlink="http://www.w3.org/1999/xlink" x="0px" y="0px"
	 viewBox="0 0 696.1 106.2" style="enable-background:new 0 0 696.1 106.2;" xml:space="preserve">
<style type="text/css">
	.st0{fill:#0034A0;}
</style>
<path class="st0" d="M536.8,88.6c0,0.7-0.1,1.3-0.1,1.9c0,0.7-0.2,1.2-0.9,1.5c-0.3,0.1-0.4,0.4-0.4,0.7c0.1,0.8-0.4,1.2-0.9,1.6
	c-1,0.6-2,1.3-3.3,1.1c-0.5-0.1-1,0-1.4,0.2c-0.3,0.2-0.7,0.2-1,0.2c-0.7,0-1.4-0.1-2.1,0c-1.1,0.2-2.1-0.3-3.1-0.5
	c-0.9-0.2-1.6-0.8-2.4-1.2c-1.8-0.9-2.6-2.7-3.4-4.4c-0.4-0.8-0.4-1.8-0.5-2.6c-0.2-1,0-2,0-3c0-0.1,0.1-0.3,0.1-0.4
	c0.9-2.3,2.5-3.9,4.8-4.7c0.6-0.2,1.4-0.1,2-0.2c0.4-0.3,0.3-0.7,0.3-1c0-1.3,0.1-2.7,0-4c0-0.7,0.4-1.3,0.4-2
	c-0.1-0.7-0.4-1.4-0.4-2c0-4.7,0-9.5,0-14.2c0-0.3-0.1-0.6,0-0.8c0.4-0.7,0.3-1.5,0.4-2.3c0.1-1.3,0-2.5,0.3-3.8
	c0.3-0.9,0.1-2,0.1-3c0-0.9-0.1-1.8,0.3-2.7c0.2-0.3,0.1-0.8,0.1-1.3c0-3.3,0-6.6,0-10c0-0.2,0-0.4,0-0.6c-0.6-1.6-0.3-3.3-0.4-5
	c0-0.4,0-0.8,0-1.1c-0.5-0.5-0.9-0.3-1.3-0.3c-2-0.1-3.6-1.1-5-2.4c-0.5-0.4-0.8-1.2-1-1.8c-0.6-1.4-1.1-2.7-0.3-4.2
	c0-1.2,0.6-2.3,0.9-3.4c0.9-2.7,2.7-4.8,5.1-6.2c0.7-0.4,1.5-0.7,2.4-0.7c0.8,0,1.6,0,2.3,0c1.8-0.1,3.3,0.6,4.8,1.4
	c0.8,0.4,1.5,1,2.2,1.6c1.2,1.1,2,2.4,2.4,4.1c0.2,1.1,0.5,2,0,3c-0.2,0.4,0,0.8-0.1,1.3c-0.1,0.3-0.3,0.6-0.4,1
	c1.4,1.5,2.9,3,4.4,4.3c0.5,0.4,1,0.7,1.3,1.3c0.3,0.5,0.8,1,1.3,1.4c1.6,1.2,3,2.5,4.8,3.4c0.4,0.2,0.8,0.5,1.2,0.9
	c0.7,0.6,1.3,1.3,2,1.9c0.7,0.7,1.4,1.4,2.3,1.9c0.9,0.5,1.6,1.1,2.3,1.8c0.6,0.6,1.3,1.3,2.1,1.8c0.8,0.5,1.3,1.2,2,1.9
	c0.6-0.1,1.2-0.3,1.9-0.4c1.3,0,2.6-0.2,3.8,0.1c1.5,0.3,3,0.8,4.1,2c0.8,0.8,1.7,1.5,2.3,2.6c1.3-0.5,2.6-0.9,3.9-1.5
	c2.1-0.8,4.2-1.3,6.4-1.8c1.7-0.4,3.4-0.7,5-1.3c1.6-0.6,3.2-1.1,4.6-2c0.2-1,0.8-1.9,1.2-2.9c0.4-0.8,0.9-1.6,1.1-2.5
	c0.2-0.7,0.6-1.2,1.1-1.8c1.3-1.4,2.8-2.6,4.7-3c0.1,0,0.3-0.2,0.4-0.2c1.1,0.1,2.2-0.4,3.3-0.5c1.1-0.1,2.1-0.1,3.2,0
	c1.9,0.2,3.7,0.9,5.2,2c1.3,1,1.9,2.4,2.4,3.8c0.2,0.7,0.3,1.5,0.5,2.3c1.7,1.2,3.4,2.4,5.2,3.6c0.8,0.6,1.6,1.1,2.5,1.6
	c2,0.9,3.7,2.2,5.8,3c1.5,0.6,3,1.2,4.2,2.3c0.3,0.3,0.7,0.4,1,0.7c0.8,0.9,1.8,1.3,2.9,1.6c1,0.3,2,0.7,3,1c0.3,0.1,0.7,0,1.1,0
	c0.3-0.6,0.7-1.2,1.1-1.8c0.4-0.5,0.9-0.9,1.3-1.4c1.6-1.5,3.5-2.3,5.7-2.3c1.4,0,2.6,0.1,3.9,0.7c0.4,0.2,0.9,0.4,1.4,0.5
	c0.6,0.1,1.1,0.1,1.6-0.3c0.9-0.9,1.8-1.8,2.7-2.7c1.4-1.4,3-2.6,4.5-3.8c1.5-1.1,2.7-2.5,3.6-4.1c0.7-1.2,1.6-2.3,2.6-3.3
	c0.7-0.7,1.2-1.5,1.9-2.3c0.7-0.7,1.4-1.4,1.9-2.3c0.3-0.7,0.7-1.4,1.2-2c0.8-0.9,0.7-1.3-0.2-2.3c-1.2-1.4-1.9-3.1-1.8-5
	c0-0.6,0-1.3,0-1.9c-0.1-1.5,0.6-2.8,1.2-4.2c0.6-1.4,1.5-2.5,2.6-3.2c1.4-0.9,2.9-1.7,4.5-2.1c1.5-0.4,2.9-0.4,4.4-0.3
	c0.8,0,1.6,0.4,2.4,0.7c2.3,1,3.4,2.9,4.3,4.9c0.1,0.1,0.1,0.3,0.1,0.4c-0.2,1.8,0.5,3.6,0.5,5.4c-0.1,2.4-0.9,4.9-2.5,6.7
	c-1,1.2-2.3,2-3.8,2.5c-0.7,0.2-0.9,0.5-0.9,1.2c0,2.6,0,5.2,0,7.8c0,0.3-0.1,0.6,0.1,0.8c0.4,0.7,0.3,1.5,0.3,2.3
	c0,2.3,0,4.5,0,6.8c0,1.2,0.2,2.4,0.6,3.5c0.5,1.3,0.9,2.6,0.6,3.9c-0.7,2.9-0.2,5.9-0.3,8.8c0,0.8,0,1.6,0.3,2.5
	c0.3,0.9,0.3,2,0,2.9c-0.4,1.5-0.2,3.1-0.3,4.6c-0.1,0.9,0.1,1.8-0.3,2.7c-0.2,0.3,0,0.7,0.2,1c0.3,0.6,0.2,1.2-0.1,1.8
	c1.9,1.4,3.5,3,4.8,5c0.4,0.6,0.7,1.2,0.6,2c0,1.2,0.1,2.4,0,3.6c-0.1,1.4-0.6,2.7-1.6,3.8c-0.8,0.9-1.7,1.6-2.9,2.1
	c-1,0.4-2,1-3,1.5c-0.6,0.3-1.3,0.5-2,0.5c-0.9,0-1.8,0-2.8,0c-0.9,0-1.7-0.2-2.5-0.5c-1.5-0.6-2.9-1.4-4.1-2.5
	c-1.3-1.1-2-2.5-2-4.2c0-0.1-0.1-0.2-0.2-0.5c-1.8,0.1-3.7-0.4-5.6,0.3c-0.3,0.1-0.7,0.1-1.1,0.1c-1.2,0-2.4,0-3.6,0
	c-0.7,0-1.4-0.1-2.1,0.3c-0.1,0.1-0.3,0.1-0.4,0.1c-1.5-0.2-2.9,0.4-4.4,0.5c-2.3,0.7-4.8,0.3-7.1,0.4c-1,0-2.1-0.2-3.1,0.3
	c-0.3,0.2-0.8,0.1-1.3,0.1c-5.7,0-11.5,0-17.2,0c-0.6,0-1.1,0.1-1.7-0.2c-0.2-0.1-0.5-0.1-0.8-0.1c-2,0-4,0-6,0
	c-0.1,0.4-0.3,0.8-0.4,1.2c-0.7,1.9-2.2,3.2-3.7,4.5c-0.3,0.2-0.6,0.4-0.9,0.5c-1.7,0.4-3.4,1-5.1,0.3c-0.7-0.3-1.6,0.1-2.2-0.5
	c-3.1-0.8-4.4-1.5-6.5-3.6c-0.2-0.2-0.3-0.5-0.5-0.7c-1.6,0.1-3-0.3-4.5,0.3c-0.5,0.2-1.1,0-1.7,0.1c-1.2,0.1-2.4-0.2-3.5,0.4
	c-0.4,0.2-1,0-1.5,0.1c-0.9,0.1-1.8-0.1-2.7,0.3c-0.4,0.2-1,0.1-1.5,0.1c-2.9,0-5.8,0-8.7,0c-1.3,0-2.7,0.2-4-0.3
	c-0.4-0.2-0.8,0-1.3,0c-1.8,0-3.5,0-5.3,0c-0.7,0-1.4,0.1-2.1-0.3c-0.3-0.2-0.8-0.1-1.2-0.1c-1.9,0-3.8,0-5.7,0
	c-1,0-1.9,0.1-2.9-0.3c-0.6-0.3-1.4-0.1-2.1-0.1c-1.2-0.1-2.4,0.1-3.5-0.3c-0.9-0.3-2-0.1-3-0.1c-0.6,0-1.2,0-1.9-0.2
	C539,88.4,538,88.5,536.8,88.6z M597.4,78.6c-0.3-0.7-0.7-1.3-1.2-1.8c-1.2-1.1-2.3-2.3-3.5-3.4c-0.3-0.3-0.6-0.7-0.9-0.9
	c-0.9-0.4-1.4-1.1-2.1-1.8c-0.7-0.6-1.3-1.3-2.1-1.7c-1.1-0.5-1.9-1.5-2.8-2.3c-1.2-1.1-2.4-2.2-3.7-3.2c-1.3-1-2.6-1.9-3.8-3
	c-1.2-1.1-2.6-2.1-3.8-3.4c-0.6-0.6-1.2-1.2-1.8-1.8c-1,1.3-2.4,1.6-3.6,2.4c-1.3,0.8-2.7,0.6-4.1,0.6c-0.5,0-1,0-1.5,0
	c-0.5,0-1-0.2-1.4-0.3c-1.1-0.2-2-0.9-3.1-1.3c-1.4,1.4-2.8,2.8-4.4,4c-1.7,1.3-3.1,2.9-4.7,4.3c-3.1,2.7-5.6,5.9-8.5,8.9
	c-0.1,0.1-0.2,0.2-0.3,0.3c-1.1,1.5-2.3,2.8-3.5,4.2c-0.5,0.6-1.1,1.1-1.5,1.8c-0.3,0.7-1.1,1-1.4,1.7c0.3,0.7,0.6,1.2,0.9,1.8
	c0.2,0.3,0.5,0.5,0.9,0.5c0.4,0,0.8,0,1.3,0c2.2,0.1,4.4-0.3,6.5,0.4c0.4,0.1,0.8,0,1.3,0c0.9,0,1.8,0,2.8,0c0.3,0,0.7,0,1,0.1
	c0.5,0.3,1.1,0.2,1.7,0.2c2.9,0,5.8,0,8.7,0.1c0.4,0,0.9-0.1,1.3,0c1,0.5,2.1,0.3,3.1,0.3c2.1,0.1,4.2,0,6.4,0
	c0.6,0,1.1,0.1,1.7,0.2c1.3,0.3,2.7,0.3,4,0c0.6-0.1,1.2-0.2,1.9-0.2c2.8,0,5.5,0,8.3,0c0.5,0,1.1,0.1,1.5-0.1
	c1.1-0.5,2.2-0.3,3.3-0.4c0.5,0,1.1,0.1,1.5-0.1c0.8-0.4,1.5-0.2,2.3-0.3c0.4,0,0.8,0,1.3-0.1C595.8,82.6,596.1,80.4,597.4,78.6z
	 M531.2,79.5c0.6-0.7,1.4-1.3,1.9-2.2c0.1-0.2,0.4-0.4,0.5-0.6c1-1.1,2-2.2,2.9-3.4c0.7-0.9,1.5-1.7,2.2-2.6
	c0.8-0.9,1.5-1.9,2.3-2.7c2.8-2.9,5.7-5.7,8.5-8.6c0.3-0.3,0.6-0.6,0.9-0.9c1.8-1.2,3.1-2.9,4.6-4.3c0.4-0.4,0.4-0.9,0.1-1.3
	c-0.6-0.9-0.7-2-0.7-3c0-0.1,0-0.3,0-0.4c-0.1-2.1,0.7-4,2-5.6c0.3-0.4,0.6-0.8,0.8-1.2c0.3-0.6,0.3-0.9-0.1-1.3
	c-1.7-1.5-3.3-3-5-4.5c-1.1-0.5-1.9-1.5-2.7-2.4c-1.1-1.2-2.4-2.2-3.7-3.1c-1.4-1-2.7-2-3.9-3.2c-0.7-0.7-1.4-1.4-2.1-2.1
	c-1.5-1.5-3-3-4.5-4.5c0,0-0.1,0-0.2-0.1c-0.7,0.2-1.3,0.7-2,1.1c-0.6,0.4-1.3,0.6-1.9,1c-0.7,0.4-1.5,0.3-2.2,0.7
	c0.2,1.7-0.2,3.3,0.4,4.9c0.2,0.6,0.1,1.4,0.1,2.1c-0.1,0.7,0.4,1.3,0.4,2c0,2.4,0,4.8,0,7.2c0,0.7-0.2,1.2-0.4,1.8
	c-0.1,0.4-0.1,0.8-0.1,1.3c0,1.2,0,2.4,0,3.6c0,0.4,0.1,0.8-0.1,1c-0.5,0.9-0.3,1.8-0.3,2.7c0,0.7,0.1,1.5-0.1,2.1
	c-0.5,1.5-0.3,3.1-0.4,4.6c0,0.4,0.1,0.9-0.1,1.3c-0.4,0.8-0.3,1.7-0.3,2.5c0,1.2,0,2.4,0,3.6c0,0.4-0.1,0.8,0,1
	c0.5,0.9,0.3,1.9,0.3,2.9c0,2.7,0,5.4,0,8.1c0,0.3,0,0.6,0,0.8c0,0.9,0.2,1.1,1,1.3C530.2,79.3,530.7,79.4,531.2,79.5z M616.8,83.9
	c0.8,0,1.8,0,2.7,0c0.8,0,1.7-0.1,2.5,0.3c0.3,0.2,0.7,0.1,1,0.1c6,0,12,0,18,0c0.4,0,0.9,0,1.2-0.1c0.5-0.3,1.1-0.3,1.6-0.3
	c1.6,0,3.1,0,4.7,0c1.4,0,2.8,0.2,4.2-0.4c1.5,0.1,2.9-0.6,4.4-0.5c0.3,0,0.6,0,0.8-0.1c0.6-0.4,1.2-0.3,1.9-0.3c1.2,0,2.4,0,3.6,0
	c0.4,0,0.9,0.1,1.2-0.1c0.8-0.6,1.8-0.3,2.7-0.6c0.9-0.3,1.9-0.1,2.9-0.2c0.4,0,0.8,0,1.3-0.1c0.4-0.6,0.7-1.2,1.1-1.8
	c0.4-0.6,0.8-1.1,1.3-1.7c-0.8-0.7-1.3-1.5-2.2-2c-0.4-0.2-0.8-0.6-1.1-1c-2.9-3.1-6.1-5.8-9.2-8.8c-0.6-0.5-1.2-1-1.8-1.5
	c-1.2-0.9-2.5-1.8-3.5-3c-0.2-0.3-0.5-0.4-0.8-0.7c-1.1,0.3-2,0.7-3.1,0.8c-1,0.2-2.1-0.1-3.1-0.3c-1.1-0.2-2.2-0.4-3.2-1
	c-0.9-0.5-1.7-1.1-2.5-1.6c-2.8,1.5-5,3.6-7.5,5.2c-1.1,0.7-2.2,1.5-3.2,2.4c-2.6,2.1-5.5,3.8-8.5,5.4c-0.7,0.4-1.5,0.8-2.2,1.3
	c-1.5,0.9-2.8,2-4.3,3c-0.9,0.6-1.7,1.2-2.6,1.8c-0.4,0.3-0.9,0.6-1.1,1.3c0.5,0.7,0.9,1.4,1.4,2C615.9,82.3,616,83.3,616.8,83.9z
	 M678.1,23.6c-0.4,0.6-0.7,0.9-0.9,1.4c-0.8,1.4-1.7,2.7-2.9,3.9c-1.2,1.3-2.4,2.6-3.5,3.9c-0.1,0.2-0.3,0.3-0.4,0.5
	c-0.4,0.9-1.1,1.6-1.6,2.4c-1.2,1.5-2.1,2.5-3.7,3.7c-1.4,1.1-2.8,2.1-4,3.4c-0.7,0.7-1.3,1.4-2.2,1.9c-0.1,0.1-0.1,0.2-0.2,0.3
	c0.1,0.1,0.2,0.3,0.3,0.3c1.3,0.5,1.9,1.7,2.3,2.8c0.4,1.2,1,2.3,0.3,3.6c-0.1,0.2-0.1,0.6-0.1,0.8c0.1,1.1-0.3,2-0.8,3
	c-0.4,0.8-0.9,1.6-1.5,2.3c-0.4,0.4-0.7,1-1.1,1.5c0.8,0.7,1.5,1.4,2.3,2c2.1,1.5,4.1,3.2,6,5c3.3,3.2,6.4,6.7,10.4,9.3
	c0.1-0.1,0.3-0.1,0.5-0.2c1.2-0.9,2.5-1.6,4.1-1.4c0.2,0,0.4-0.1,0.6-0.2c0-1.1,0-2.1,0-3.2c0-0.3,0-0.7,0.1-1
	c0.3-0.5,0.2-1.1,0.2-1.7c0-6.1,0-12.2,0-18.2c0-0.6-0.1-1.1-0.3-1.6c-0.3-1.1-0.6-2.1-0.6-3.3c0-4.5,0-8.9,0-13.4
	c0-0.4-0.1-0.9,0.1-1.2c0.4-0.7,0.3-1.4,0.3-2.1c0-0.5,0-1,0-1.5c0.1-0.5,0.2-1.1,0.3-1.6C681,24.3,679.5,24.4,678.1,23.6z
	 M611.5,77.5c2.1-1.5,4-3.1,6.1-4.6c2.3-1.7,4.8-3.2,7.3-4.5c1.8-0.9,3.3-2.1,4.9-3.2c3.3-2.5,6.7-5.1,10.2-7.3
	c0.5-0.3,1-0.6,1.1-1.3c-0.3-0.7-0.6-1.5-0.8-2.3c-0.2-0.8-0.1-1.7-0.2-2.5c-0.5-0.2-1-0.4-1.4-0.6c-1.2-0.4-2.5-0.9-3.8-1.3
	c-0.8-0.2-1.4-0.6-2-1.1c-1.4-1.1-2.9-2.2-4.6-2.9c-0.9-0.4-1.8-0.9-2.6-1.3c-1.1-0.5-2.2-1-3.2-1.6c-2.4-1.6-4.9-2.9-7.1-4.8
	c-0.2-0.2-0.5-0.1-0.7-0.2c-0.9,1.3-1.7,2.5-2.4,3.7c-0.4,0.7-1,1.3-1.7,1.8c-1.2,0.8-2.3,1.5-3.8,1.9c0,2,0,3.9,0,5.8
	c0,0.3,0.1,0.6,0.2,0.8c0.5,0.8,0.1,1.8,0.6,2.7c0.2,0.4,0.1,1,0.1,1.5c0,3.7,0,7.5,0,11.2c0,0.6-0.1,1.3,0.1,1.9
	c0.3,0.7,0.3,1.4,0.3,2.1c0,1.6,0,3.1,0,4.6C609.2,76.4,610.3,76.9,611.5,77.5z M574.1,52.5c1.9,2.4,4.3,4,6.4,6.1
	c0.1,0.1,0.4,0.2,0.5,0.3c2,1.7,4.2,3,6,5c0.4,0.4,0.9,0.7,1.3,1c1.1,0.8,2.4,1.5,3.4,2.5c2,1.9,4.2,3.5,6.1,5.6
	c0.9,1,1.9,1.9,2.9,2.8c0.6,0,1.3,0,1.9,0c0.7,0,1.4,0.2,2.1-0.2c0-1.8,0-3.6,0-5.3c0-0.2,0-0.4-0.1-0.6c-0.5-1.5-0.4-3,0-4.6
	c0.2-1,0.2-1.9-0.1-2.9c-0.3-0.9-0.3-3.6,0-4.6c0.4-1.3,0.2-2.7,0.2-4c-0.6-0.9-0.4-1.9-0.4-2.9c0-1.5,0-3,0-4.5
	c0-0.3,0.1-0.7-0.5-1c-0.5,0-1.1-0.1-1.8,0c-0.7,0.1-1.3-0.4-2-0.4c-0.9,0.1-1.7-0.2-2.4-0.5c-1.8-0.8-3.5-1.8-4.3-3.7
	c-0.1-0.3-0.4-0.6-0.6-0.8c-1.7,1-3.4,1.5-5.1,2c-2.4,0.7-4.9,1.1-7.3,1.7c-2.2,0.6-4.3,1.5-6.5,2.3c0,0.5,0,0.9,0.1,1.3
	c0.1,0.5,0.3,1.1,0.6,1.6c0.2,0.5,0.3,1,0,1.4C574,50.9,574.1,51.7,574.1,52.5z M534.6,91.7c-0.1-0.2-0.1-0.3-0.2-0.5
	c-0.2,0.2-0.4,0.3-0.6,0.5c-0.1,0.1,0,0.3,0,0.4c0,0,0.1,0.1,0.1,0.1C534.3,92,534.5,91.9,534.6,91.7z M521,21.1
	c-0.1-0.1-0.1-0.2-0.2-0.3c0,0.1-0.1,0.1-0.1,0.2c0,0.1,0.1,0.2,0.1,0.4C520.9,21.2,521,21.2,521,21.1z"/>
<path class="st0" d="M15.4,93.7c0.1,0.6,0.1,1.2,0.2,1.7c0.1,0.4,0.4,0.7,0.2,1.1c-0.2,0.2-0.4,0.5-0.6,0.6
	c-2.2,0.9-4.5,1.6-6.9,1.3c-0.6-0.1-1.1-0.4-1.6-0.7C5.8,97.3,5.4,96,6,95.2c0.4-0.6,0.9-1.2,1.5-1.3c1-0.2,1.8-0.5,2.7-1
	c0.8-0.5,1.7-0.9,2.6-1.4c0.6-0.4,1.3-0.9,2.2-0.7c0.3,0.1,0.6-0.1,0.8-0.2c1-1,2.3-1,3.5-1.6c1.4-0.6,2.9-1.3,4.3-2
	c1-0.5,2-0.9,3-1.3c0.7-0.2,1.3-0.5,2-0.1c0.3,0.2,0.5,0,0.8-0.1c1.7-0.6,3.3-0.2,4.8,0.8c2.8,1.8,5.3,3.8,8,5.6
	c1.3,0.9,2.3,0.8,3.5,0c2.9-1.9,5.7-3.9,8.5-6c0.3-0.2,0.7-0.4,1-0.6c1.3-0.8,2.6-1.3,3.8-2.3c0.7-0.5,1.6-0.7,2.5-0.8
	c2-0.1,3.7,0.7,5.2,1.9c2.1,1.7,4,3.6,6,5.3c1.5,1.3,3,2.6,4.6,3.8c1.4,1.1,3,1.8,4.7,2.8c1-0.5,2-1.1,3.1-1.6
	c0.8-0.4,1.6-0.7,2.5-1c1.2-0.4,2.5-0.6,3.3-1.8c0.1-0.2,0.3-0.3,0.5-0.4c2.9-1.1,5.2-3.2,7.7-5c1.8-1.3,3.7-1.3,5.7-1.1
	c0.6,0.1,1.3,0.5,1.9,0.9c0.9,0.6,1.8,1.3,2.6,1.9c1-0.3,1.8-0.9,2.4-1.6c1.7-1.9,3.9-3.5,5.3-5.7c1.6-0.9,2.6-2.4,4-3.5
	c1.2-0.9,2.7-1.3,4.1-1.6c1.3-0.2,2.3,0.3,3.3,1.1c0.5,0.4,0.9,0.8,1.2,1.3c1.7,2.8,3.9,5.2,5.7,8c1.3,2,2.5,4,3.8,6
	c0.3,0.4,0.7,0.7,1,1.1c0.4-0.2,0.7-0.3,0.9-0.5c1.6-1.6,3.2-3.3,4.9-4.9c1.1-1,2-2.2,2.8-3.5c1-1.6,2-3.2,2.9-4.8
	c1.8-3.3,2.4-4,5.7-6.3c0.5-0.3,0.9-0.7,1.5-1.1c1.1,0,2.2,0,3.3,0c1.3,1.2,2.6,2.5,4.3,3.1c1.6,1.5,3.3,2.9,4.5,4.7
	c1.2,1.7,2.4,3.4,3.5,5.2c0.5,0.8,1,1.6,1.7,2c2.1,1.3,3.7,3.3,5.5,5c0.1,0.1,0.2,0.1,0.4,0.2c0.8-0.8,1.6-1.6,2.5-2.4
	c1.1-1.1,2.2-2.3,3.6-3.1c1-0.6,1.8-1.6,2.5-2.6c0.5-0.8,1.2-1.4,2-1.7c1.6-0.5,3.3-0.7,4.9,0.2c1.1,0.6,2.2,1.4,3.2,2.1
	c1.1,0.7,2.1,1.5,3.2,2.2c1,0.6,2.1,1.2,2.9,2c0.7,0.7,1.4,0.6,2.1-0.1c1.1-1.2,2.4-2,3.9-2.7c1.2-0.6,2.2-1.3,3.3-1.9
	c2-1.1,4.2-1,6.3-0.5c1.9,0.4,3.4,1.5,4.9,2.6c1,0.7,1.9,0.8,3,0.4c2.8-0.9,5.6-1.7,8.6-2.1c1.3-0.8,3-0.3,4.3-1.1
	c0.2-0.1,0.4-0.1,0.6-0.1c1.2-0.1,2.4,0.1,3.5-0.4c1-0.5,2.2,0.1,3.1-0.7c1.9-0.1,3.7-0.7,5.5-1.2c1.2-0.3,2.6-0.3,3.9-0.1
	c1.9,0.2,3.2,1.4,3.3,3.6c0.1,1.5-1.1,3-2.6,3.6c-1.3,0.5-2.7,0.5-4,1.1c-1.3-0.2-2.5,0.7-3.8,0.6c-1.3,0-2.4,0.9-3.8,0.6
	c-1.3,0.7-2.7,0.4-4.1,0.6c-1.2,0.2-2.4,0.3-3.5,0.6c-2.4,0.6-4.8,1-7.2,1.7c-0.4,0.1-0.8,0.1-1.1,0.3c-1.7,1.1-3.6,1-5.5,0.8
	c-1-0.1-1.9-0.4-2.8-0.9c-1.1-0.5-2.1-1.1-3-1.8c-1.5-1.2-3-1.1-4.7-0.3c-1.5,0.7-2.7,1.6-3.8,2.8c-1,1-2.1,1.7-3.5,2.2
	c-2,0.8-3.7,0.3-5.3-0.8c-1.4-0.9-2.7-2-4.1-2.9c-1.8-1.1-3.5-2.5-5.4-3.5c-1.6,1.4-2.8,3-4.6,4c-0.3,0.2-0.6,0.5-0.9,0.8
	c-0.7,0.8-1.2,1.9-2.1,2.5c-0.8,0.6-1.6,1.2-2.3,1.9c-0.9,0.9-1.9,1.6-3.1,1.4c-1.3-0.2-2.7-0.4-3.7-1.6c-0.7-0.8-1.5-1.6-2.3-2.3
	c-1.1-1-2.1-2.1-3.3-3c-1.5-1.1-2.8-2.5-3.9-4.1c-0.8-1.2-1.7-2.4-2.5-3.7c-0.9-1.6-2.1-3.1-3.3-4.6c-0.4-0.5-0.9-0.8-1.4-1.1
	c-1.3-0.9-1.9-0.8-3,0.5c-0.6,0.7-0.8,1.6-1.3,2.3c-1.1,1.5-2,3.1-3,4.8c-1.2,2.1-2.9,3.8-4.4,5.6c-0.4,0.5-0.9,0.8-1.4,1.1
	c-0.8,0.5-1.3,1.1-1.9,1.9c-1.4,1.9-2.9,3.5-5.2,4.4c-1,0.4-1.9,0.5-2.8,0c-1.1-0.6-2.5-0.9-2.9-2.3c-2.7-2.7-4.3-6.1-6.4-9.2
	c-1.2-1.7-2.4-3.4-3.6-5.1c-0.3-0.4-0.7-0.7-1-0.9c-0.9,0.1-1.2,0.6-1.6,1.1c-2.3,2.3-4.6,4.7-7,7c-1.4,1.3-2.8,2.6-4.3,3.6
	c-1.9,1.3-3.4,1.3-5.5-0.2c-1.1-0.8-2.2-1.7-3.3-2.6c-0.9,0.6-1.8,1-2.6,1.6c-2.4,1.9-5.1,3.4-7.6,5.1c-0.8,0.6-1.7,1.1-2.7,1.1
	c-1,0-1.8,0.7-2.7,1.1c-0.3,0.1-0.6,0.2-0.8,0.4c-2.1,1.8-4.5,2.4-7.4,1.9c-1.5-1.2-3.3-2.5-5.2-3.6c-1.7-1-3.2-2.4-4.6-3.8
	c-1.2-1.1-2.5-2-3.7-3.1c-1.2-1.1-2.3-2.2-3.4-3.3c-2,0.7-3.6,1.8-5.2,3c-2.6,1.8-5.2,3.6-7.8,5.4c-0.2,0.2-0.5,0.4-0.7,0.5
	c-3.3,2-6.6,1.7-9.8-0.2c-1.7-1-3.2-2.3-4.8-3.5c-1.1-0.8-2.3-1.5-3.4-2.3c-0.7-0.5-1.4-0.6-2.2,0c-0.2,0.1-0.4,0.1-0.6,0.2
	c-0.6,0.1-1-0.1-1-0.7c0-0.5-0.1-1-0.1-1.6c-0.7,0.3-1.2,0.6-1.6,0.8c-0.2,0.9-0.2,1.7,0.5,2.5c-0.5,0.1-0.8,0.1-1.2,0.2l0,0
	c-0.1-0.5-0.4-0.6-0.9-0.5c-0.4,0.2-0.3,1.3-1.2,0.7c-0.1,0.2-0.2,0.5-0.3,0.7c-0.3,0.8-0.3,0.8-1.7,0.7c-0.3-1.2-0.1-2.5-0.2-3.8
	c-1,1.1-1.5,2.3-1.4,3.4c0.1,1.3-0.1,1.5-1.3,1.7c-0.2,0-0.4-0.1-0.6-0.1c-0.4-0.4-0.3-0.9-0.3-1.4C16.5,94.4,16.2,93.9,15.4,93.7
	c0-0.3,0-0.7,0-1.1c-0.1-0.4,0.7-0.8,0.1-1.3c-0.2,0.1-0.6,0.3-0.6,0.4c-0.1,0.6,0,1.1,0.1,1.7C15,93.5,15.3,93.6,15.4,93.7z
	 M35.5,92c-0.2,0.7-0.4,1.4-0.6,2.1c0.5,0.3,0.9,0.5,1.3,0.7c0.3,0.2,0.8-0.1,0.8-0.5c0-0.4-0.1-1-0.3-1C36,93.1,35.9,92.4,35.5,92z
	 M32.3,91c0.7,0.3,1.3,0.6,1.9,0.9c0,0,0.2-0.1,0.2-0.2c0-0.1,0-0.2,0-0.2C33.9,90.7,33.2,90.5,32.3,91z M24.3,90.9
	c-0.1,0-0.2,0-0.3,0c0,0.3-0.1,0.7-0.1,1c0,0.1,0.2,0.2,0.3,0.3c0.1-0.1,0.2-0.2,0.2-0.2C24.4,91.7,24.3,91.3,24.3,90.9z M13.3,95
	l-0.1,0.2l0.2,0L13.3,95z"/>
<path class="st0" d="M33.4,66.7c-0.1,0.4-0.1,0.9-0.3,1.1c-0.6,0.7-1.3,1.3-1.9,1.9c-0.3-0.1-0.6-0.3-0.9-0.3
	c-0.3-0.1-0.6-0.2-0.8-0.1c-0.4,0.2-0.4,0.7-0.1,1c0.2,0.3,0.1,0.5-0.1,0.7c-0.3,0.3-0.7,0.6-1.2,1c-0.1-0.4-0.2-0.7-0.3-1
	c-0.2-0.7-0.7-1-1.3-0.6c-0.2,0.1-0.2,0.5-0.3,0.7c0,0.1,0.1,0.1,0.2,0.2c1,0.9,1,1,0.2,1.7c-1,0.8-1.9,1.7-3,2.4
	c-1,0.6-1.8,1.3-2.5,2.1c-1.8,1.8-3.8,3.2-5.8,4.6c-1,0.7-2.1,1-3.2,1.4c-0.6,0.2-1.1,0.3-1.7,0.4c-1.8,0.5-3.2-0.1-4.2-1.9
	c-0.1-0.3-0.3-0.5-0.4-0.8c0.3-1.7,1.4-2.7,2.9-3c1.2-0.2,1.9-1,2.8-1.6c1.4-0.9,2.6-2.1,3.9-3.2c2.1-1.8,4.1-3.7,6.2-5.5
	c1.7-1.5,3.5-2.9,5.5-4.1c0.9-0.6,1.5-1.3,2.2-1.9c0.3-0.2,0.7-0.4,1-0.6l0,0c0,0.6,0.1,1.2,0.9,1.2c0.4,0,0.8-0.1,1.1-0.1
	c0.8-1,0.1-2.2,0.6-3.2c0.5-0.2,1-0.4,1.6-0.5c0.2-0.1,0.5,0,0.8,0.1c0.6,0.1,1.1,0.1,1.7,0.2c0.2,0.3,0.4,0.6,0.6,0.9
	c0.1,0.1,0.4,0,0.4-0.1c0.1-0.2,0-0.5,0-0.5c-0.3-0.1-0.7-0.2-1.1-0.3c-0.2-0.8-1.4-0.7-1.6-1.7c2.2-1.7,4.6-3.3,6.8-5.1
	c1.2-1,2.5-2,3.7-3c1.5-1.3,3-1.9,4.9-1.6c0.3,0,0.6,0.1,1,0.1c2.5,2.3,4.9,4.8,6.9,7.7c1.2,1.7,2.2,3.5,3.9,4.8
	c0.1,0.1,0.1,0.1,0.2,0.2c0.9,0.7,1.8,1.3,2.5,2.1c0.6,0.7,1,1.7,1.5,2.5c0.1,0.2,0.5,0.3,0.7,0.5c0.9-0.6,1.8-1.2,2.7-1.9
	c0.8-0.6,1.5-1.3,2.2-2.1c1.4-1.6,3.2-2.7,5-3.7c1.5-0.8,3-1.5,4.5-2.2c0.8-0.4,1.5-0.4,2.3-0.1c1,0.4,2.1,0.7,3,1.2
	c2.3,1.3,4.6,2.6,6.9,4.1c0.8,0.5,1.5,1.3,2.2,2c0.8,0.7,1.5,1.6,2.8,1.9c2.8-1.4,5.8-2.7,8.5-4.5c1.5-1,3.2-1.6,4.7-2.6
	c2.4-1.6,4.6-3.4,6.9-5.1c3.3-2.3,6.6-4.7,10-6.9c3.5-2.2,7.2-4.1,10.7-6.4c1.5-1,2.7-2.1,3.7-3.5c1.1-1.5,2.4-2.9,4-4
	c0.6-0.4,1.1-0.9,1.6-1.4c1.5-1.5,3-2.9,4.4-4.3c0.3-0.1,0.5-0.2,0.7-0.2c2.5-0.4,4.5,0.5,6.1,2.4c1.1,1.2,2.2,2.3,3.4,3.4
	c1.3,1.2,2.4,2.7,4,3.6c0.6,0.3,1,0.9,1.5,1.4c1.6,1.6,3.3,3.2,4.9,4.9c1.5,1.6,3.3,2.9,5.1,4.1c1.6,1.1,2.9,2.5,4,4
	c1.2,1.5,2.4,2.8,4,4c1.3,0.9,2.4,2.1,3.3,3.4c1.4,1.9,3.3,3.5,4.9,5.2c0.4,0.4,0.9,0.4,1.4,0.2c1.9-0.8,3.8-1.7,5.7-2.5
	c2-0.9,3.8-2.1,5.7-3.2c2.5-1.6,5.1-3,8-3.9c1.4-0.5,2.6-0.5,4,0c4,1.2,7.7,3.1,11.2,5.3c0.5,0.3,1,0.6,1.6,0.9
	c1.2,0.7,2.5,0.7,3.8,0.6c1.2-0.9,2.7-0.3,4-0.9c0.6-0.3,1.4-0.1,2.1-0.2c1.3-0.1,2.6-0.1,3.9-0.2c1.1-0.9,2.6,0,3.7-0.9
	c1.3,0,2.5-0.4,3.8-0.7c0.7-0.2,1.3-0.3,2-0.5c0.5,0.2,0.4,0.6,0.5,1c0.1,0.8-0.2,1.6,0.3,2.4c0.4-1,0.1-2,0.3-3
	c0.1-0.4,0.6-0.6,0.9-0.3c1,0.7,1.6,1.5,1.4,2.7c-0.1,0.5-0.1,1-0.1,1.4c-0.7,1-1.5,1.5-2.7,1.8c-1.8,0.3-3.6,0.9-5.4,1.3
	c-2.1,0.5-4.2,1.1-6.4,1c-2.5-0.1-4.9,0.5-7.3,1c-1.6,0.3-3.3,0.3-5-0.2c-1.8-0.5-3.5-1.3-5-2.4c-0.9-0.6-1.8-1.1-2.9-1.5
	c-1.1-0.4-2.1-1.1-3.2-1.5c-3.8-1.6-3.2-1.7-6.9,0.1c-2.1,1-4.1,2.4-6.1,3.7c-2.1,1.3-4.3,2.5-6.6,3.3c-1.1,0.4-2.2,1-3.2,1.6
	c-1.1,0.6-2.2,1-3.4,0.8c-0.7-0.1-1.4,0-2,0c-1.4-1.2-2.6-2.3-3.5-3.8c-0.4-0.6-0.9-1.1-1.4-1.6c-2.3-2.3-4.7-4.7-7-7
	c-1.4-1.4-2.9-2.7-4-4.5c-0.2-0.4-0.6-0.8-1.1-1c-0.9-0.4-1.5-1.3-2.3-1.8c-2.7-1.9-4.9-4.4-7.3-6.7c-1.3-1.2-2.5-2.5-4-3.6
	c-1.3-0.9-2.3-2.2-3.4-3.3c-1.1-1.1-2.2-2.3-3.5-3.5c-0.5,0.3-0.9,0.6-1.2,0.9c-1.5,1.3-2.8,2.9-4.5,3.9c-0.7,0.4-1.1,1.1-1.7,1.7
	c-0.5,0.6-1,1.3-1.5,1.9c-1.9,2.2-4.3,3.8-6.8,5.2c-4.5,2.5-8.9,5.1-13.1,8.2c-2.5,1.8-5.1,3.4-7.4,5.5c-1.8,1.6-3.8,2.9-5.9,4
	c-4,2-7.7,4.5-11.8,6.2c-0.4,0.1-0.7,0.4-1.1,0.5c-2.8,1-4.6,0.7-6.8-1.3c-0.6-0.5-1.2-1.1-1.7-1.7c-0.9-0.9-1.9-1.8-3-2.4
	c-1.5-0.8-2.9-1.7-4.3-2.6c-0.9-0.6-1.8-0.5-2.8-0.1c-2.3,1.1-4.3,2.4-6,4.3c-1.9,2.1-4.4,3.7-6.9,5.2c-1.2,0.7-2.5,1.2-4,1
	c-0.4,0-0.8,0-1.3-0.1c-0.7-0.7-1.4-1.3-2.1-2.1c-0.3-0.3-0.5-0.7-0.6-1c-0.5-2.1-1.9-3.5-3.5-4.6c-1.5-1-2.7-2.3-3.6-3.9
	c-0.1-0.2-0.1-0.4-0.2-0.5c-1.4-1.8-2.9-3.5-4.3-5.2c-1.3,0.2-2.2,0.8-2.9,1.6c-0.8,0.9-1.7,1.6-2.7,2.3c-2,1.4-4,2.9-5.8,4.6
	c-1.4,1.2-3.1,1.8-4.5,2.9C33.8,66.8,33.6,66.7,33.4,66.7c-0.1-0.7-1-0.6-1.4-0.9c-0.3-0.2-0.6,0.4-1,0c-0.3-0.3-0.6-0.5-0.9-0.8
	c-0.5,1.4-0.5,1.4,0.5,1.8c0.3,0.1,0.6,0.4,1,0.2C32.2,66.7,32.8,66.8,33.4,66.7z M28,66.1c0.1,0.2,0,0.7,0.4,0.3
	C28.3,66.3,28.1,66.2,28,66.1c-0.1-0.5,0.2-1.1-0.3-1.6C27.4,65.5,27.4,65.5,28,66.1z M30.5,63.6c0,0.4,0.3,0.7,0.7,0.6
	c0.1,0,0.2-0.1,0.2-0.2c0.1-0.3-0.2-0.7-0.6-0.8C30.7,63.3,30.6,63.5,30.5,63.6z M27.8,68.8c-0.1-0.1-0.3-0.3-0.4-0.3
	c-0.1,0-0.3,0.1-0.5,0.2c0.1,0.1,0.3,0.3,0.4,0.3C27.5,69.1,27.7,68.9,27.8,68.8z M256.3,61.1c0.1-0.2,0.2-0.3,0.2-0.5
	c0-0.1-0.1-0.2-0.2-0.2c-0.1,0.1-0.3,0.2-0.3,0.3C256.1,60.8,256.2,61,256.3,61.1z M24,69.4c0,0.2-0.1,0.4-0.1,0.5
	c0.1,0.3,0.3,0.3,0.4,0c0.1-0.2,0-0.3-0.1-0.5C24.2,69.4,24.1,69.4,24,69.4z M13.9,81.2c-0.1,0.1-0.2,0.1-0.2,0.2
	c0.1,0.3,0.2,0.3,0.3,0C14.1,81.4,14,81.3,13.9,81.2z"/>
<path class="st0" d="M257.8,30.7c-0.5,1-0.8,1.8-1.2,2.6c-0.2,0.5-0.7,0.5-1.1-0.1c-0.1-0.2,0-0.6-0.5-0.5c-0.6,0.1-1.2,0.2-1.8,0.1
	c-1.2-0.2-2.5-0.6-3.7-1c-2-0.6-3.9-1.4-5.9-1.8c-1.3-0.3-2.6-1-3.8-1.5c-2.7-1.2-5.5-2-8.4-2.6c-0.4-0.1-0.8-0.2-1.1-0.4
	c-0.7-0.3-1.3-0.2-1.9,0.3c-1.6,1.4-3.1,2.8-4.7,4.1c-2.2,1.8-4.7,3-7.2,4.1c-0.9,0.4-1.9,0.3-2.9,0c-1.7-0.5-3.4-1.2-4.8-2.2
	c-2.4-1.6-4.9-2.9-7.1-4.9c-2.8-2.5-5.9-4.7-8.8-7c-0.7-0.1-1.4-0.1-2,0.3c-1.3,0.7-2.6,1.5-3.6,2.5c-0.8,0.8-1.5,1.6-2.4,2.3
	c-1.7,1.5-3.6,1.9-5.8,0.9c-1.3-0.7-2.6-1.3-3.9-2.1c-3.1-2-6-4.1-9.1-6.2c-0.6-0.4-1.1-0.8-1.8-1.1c-2.5-1.2-4.9-2.6-7.2-4.2
	c-0.5-0.3-1-0.6-1.6-0.8c-0.7-0.2-1.3-0.2-2,0.3c-1.2,0.9-2.4,1.8-3.4,2.9c-2.1,2.2-4.3,4.1-6.1,6.6c-0.9,1.2-2.1,2.2-3.1,3.2
	c-1.8,1.9-5.4,2-7.3,0.2c-0.9-0.8-1.7-1.7-2.6-2.5c-0.4-0.4-0.7-1-1.4-1.1c-0.2,0.1-0.4,0.1-0.5,0.2c-2.1,2.4-4.9,4.1-7.4,6
	c-1,0.8-2,1.6-3,2.5c-0.9,0.8-1.6,1.7-2.7,2.3c-0.7,0.4-1.3,1-1.7,1.7c-2.3,3.4-5.5,5.7-8.8,8c-1.8,1.3-3.9,1.4-5.9,0.3
	c-1.1-0.5-2-1.2-2.9-2c-2.9-2.3-5.4-5-8.6-6.9c-1.8-1.1-3.7-1.9-5.5-2.9c-0.6-0.4-1.3-0.3-2,0c-0.3,0.1-0.5,0.3-0.8,0.4
	c-3.6,1.7-7.2,3.4-10.7,5.1c-0.6,0.3-1.1,0.5-1.8,0.1c1.3-2.3,2.1-4.8,2.8-7.3c0.2-0.6,0.5-1.1,1.1-1.3c2.5-1.2,5-2.3,7.5-3.4
	c0.3-0.2,0.8-0.2,1.2-0.2c0.5,0,1,0,1.5,0c1.7-0.1,3.3,0.3,4.8,1.2c2.2,1.2,4.5,2.1,6.5,3.6c1.6,1.2,3.2,2.3,4.7,3.6
	c1.4,1.3,2.9,2.4,4.3,3.6c1.2-0.2,2.1-1,3-1.8c2.3-2.3,4.7-4.7,7-7c2.4-2.5,5.3-4.5,8.1-6.6c1.1-0.9,2.1-1.8,3.1-2.8
	c1.2-1.2,2.3-2.5,3.9-3.3c0.2-0.1,0.3-0.3,0.5-0.4c1.7-0.8,3.3-1.2,4.9,0.2c1.4,1.1,3,2,3.8,3.7c0.1,0.2,0.4,0.4,0.8,0.7
	c0.3-0.2,0.7-0.3,0.9-0.6c1.3-1.4,2.6-2.7,3.8-4.2c1.5-1.8,3.1-3.6,5.2-4.9c0.7-0.4,1.3-1,1.8-1.6c0.9-1.1,2.2-1.6,3.5-2.2
	c0.1,0,0.2-0.1,0.3-0.1c2.4-0.3,4.8-0.4,6.9,0.9c3.1,2,6.2,3.8,9.4,5.6c1.8,1,3.4,2.3,5.1,3.5c1.5,1.1,3.2,2,4.6,3.3
	c0.7,0.6,1.7,1,2.7,1.5c0.8-0.8,1.7-1.6,2.5-2.5c2-2.2,4.6-3.1,7.2-3.9c2.2-0.7,4.3,0.1,6.2,1.5c2.2,1.7,4.4,3.4,6.5,5.2
	c3.5,2.9,7.2,5.5,11.4,7.6c1.8-0.8,3.5-1.9,4.9-3.3c1.4-1.4,2.9-2.7,4.5-3.9c1.1-0.8,2.2-1.3,3.6-1.2c0.9,0,1.8,0.1,2.7,0
	c2.6-0.2,5.1,0.6,7.5,1.5c1.8,0.7,3.7,1.4,5.5,2c1.1,0.4,2.1,1.1,3.3,1.3c1.3,0.2,2.5,0.7,3.7,1.1c1.1,0.4,2.2,0.7,3.4,1
	c1.1,0.3,2.3,0.6,3.4,1c0.4,0.1,0.7,0.3,1,0.5c0.4,0.2,0.5,0.7,0.3,1c-0.1,0.2-0.2,0.3-0.4,0.5C256.9,29.2,257.3,29.9,257.8,30.7z
	 M237.7,25.2c0.4-0.7,0.4-1.4,0-2.2C237.3,23.8,237.3,24.4,237.7,25.2z M237.6,21.4c0,0.2-0.1,0.4-0.1,0.5c0.1,0.3,0.3,0.3,0.4,0
	c0-0.2,0-0.4-0.1-0.5C237.8,21.4,237.6,21.4,237.6,21.4z M254.5,31.4c-0.1,0.1-0.2,0.1-0.2,0.2c0.1,0.3,0.2,0.3,0.3,0
	C254.7,31.6,254.6,31.5,254.5,31.4z"/>
<path class="st0" d="M496.1,33.9c-2.3-0.1-4.4,0.4-6.4-0.5c-1.4,0.2-2.6-0.7-4-0.6c-0.9,0-1.7-0.5-2.6-0.7c-1-0.1-1.9-0.5-2.9-0.4
	c-0.7,0-1.2-0.3-1.5-1c-0.1-0.2-0.3-0.5-0.3-0.7c-0.4-2-2-3-3.3-4.2c-0.3-0.2-0.6-0.3-0.9-0.6c-0.5-0.4-0.9-1-1.5-1.1
	c-1-0.3-2.1-0.5-3.2-0.6c-0.8-0.1-1.6,0.1-2.4-0.3c-0.2-0.1-0.5,0.1-0.7,0.1c-2.3,0.6-4.3,1.8-6.3,3.2c-1.5,1.1-2.1,2.7-2.3,4.5
	c-0.1,0.7,0,1.5-0.1,2.2c-0.1,1.4,0.4,2.5,1.4,3.4c0.7,0.7,1.5,1.2,2.4,1.9c-2.5,4.6-5.1,9.1-7.8,13.5c-1.6-0.2-2.5-1.4-3.7-1.9
	c-2-2-4.2-3.8-5.7-6.3c-1-1.6-1.8-3.4-2.4-5.2c-0.2-0.5-0.2-1.1-0.2-1.6c0-2.1,0.1-4.2,0-6.3c-0.1-1.3,0.7-2.4,0.6-3.7
	c-0.1-1.3,0.5-2.5,1.1-3.6c0.6-1.1,1.1-2.3,1.9-3.3c1.4-2,2.5-4.2,3.9-6.2c0.6-0.9,1.3-1.8,2.1-2.5c2.6-2,5.2-4,8.1-5.4
	c2.9-1.4,6-2.1,9.2-1.8c0.9,0.1,1.8,0.3,2.6,0.8c1.3,0.8,2.8,0.7,4.1,1.4c2.7,0.3,4.9,1.8,7.3,2.9c1.1,0.5,1.6,1.7,2.8,2.2
	c0.2,0.1,0.4,0.3,0.6,0.5c1.2,1.1,2.5,2.1,3.7,3.2c1.4,1.4,2.2,3.1,3,4.8c0,1.3,1,2.3,1.3,3.6c0.2,1.1,1,2.1,1.3,3.3
	c0.4,1.3,0.9,2.6,0.8,4C496.1,31.7,496.1,32.6,496.1,33.9z"/>
<path class="st0" d="M371.4,19.6c0-0.5-0.1-1,0.1-1.3c0.6-1,0.6-2.2,0.3-3.2c-0.4-1.1-0.3-2.1-0.4-3.3c0.7-1,1.6-1.8,2.8-2.4
	c2.4-1.1,4.7-2.3,7.2-3.2c1.2-0.5,2.6-0.9,3.9-0.8c0.5,0,0.9,0,1.4,0c2.2-0.3,4.4,0.4,6.3,1.3c1.7,0.7,3.5,1.5,5.2,2.3
	c1.1,0.5,2.1,1.1,3.1,1.8c1.2,0.8,2.3,1.7,3.8,2c0.9,0.2,1.1,1,0.4,1.6c-2.6,2.6-4.8,5.5-7.4,8c-1.4,1.4-3.2,2.4-4.6,3.9
	c-0.9-0.4-1.8-0.9-2.7-1.3c-0.9-0.4-1.8-0.7-2.8-1.1c-0.3-0.1-0.7-0.4-1-0.4c-1.6,0-3.3-0.1-4.9,0c-0.7,0.1-1.4,0.5-2,0.9
	c-2.1,1.3-2.1,1.4-2.7,4c-0.2,0.8-0.4,1.6-0.5,2.4c-0.1,0.8,0,1.6,0,2.5c0,0.6,0,1.3,0,2.1c-1.1,0.9-2.2,1.8-3.3,2.7
	c-1,0.9-2,1.9-3.2,2.6c-1.2,0.7-2.5,1.6-3.5,2.5c-1,0.9-2.2,1.6-3.2,2.4c-1.3-1.3-1.6-2.8-2.1-4.2c-0.4-1-0.4-2.2,0.7-3
	c0.5-0.4,0.7-1,0.9-1.6c0.2-0.9,0.7-1.7,0.9-2.5c0.2-0.5,0.1-1-0.5-1.4c-0.6-0.4-0.7-1.4-0.3-1.9c0.3-0.3,0.8-0.3,1.3-0.5
	c0.3-1.2-0.1-2.5,0.6-3.7c-0.2-0.5-0.3-0.9-0.2-1.5c0.1-0.2-0.3-0.5-0.5-0.8c-0.3,0.7-0.4,1.2-0.7,2c-0.3-1.7-0.3-2.9,0.3-4.1
	c-0.1-1.5,1.6-1.4,2.2-2.4c0,0.4,0.2,0.8,0,1.1c-0.6,1.5-0.5,3-0.5,4.6c0,0.6,0.2,1.4-0.1,1.9c-0.4,0.6,0,1.2-0.3,1.7
	c-0.2,0.5-0.1,1.1-0.2,1.6c-0.1,0.6-0.3,1.2-0.5,1.8c0.6,0.2,0.9-0.3,1-0.7c0.1-0.6,0-1.3,0-2c1.1-0.7,2.2-1.3,3.3-2
	c0.3-0.2,0.6-0.3,0.9-0.6c0.7-0.6,0.9-1.6,1.8-1.9c0.7-1.3,0.8-2.6,0.4-3.9C371.6,21,372.3,19.9,371.4,19.6L371.4,19.6z M370.2,30.9
	c-0.2-0.1-0.2-0.2-0.3-0.2c-0.4-0.1-0.7,0.3-0.6,0.6c0,0.1,0.2,0.2,0.2,0.2C369.7,31.3,369.9,31.1,370.2,30.9z"/>
<path class="st0" d="M283.4,18c0.4-0.7,0.9-1.3,1.3-2.1c0.5-1,1.2-1.9,2-2.6c2.3-1.9,4.6-3.9,7.3-5.1c1.3-0.6,2.6-1.3,4-1.8
	c1.3-0.4,2.6-0.6,3.9-1c0.4-0.1,0.9-0.1,1.4-0.1c1.4,0,2.7,0,4.1,0c0.7,0,1.4,0,2.1,0.3c0.4,0.2,0.9,0.1,1.3,0.2
	c4.4,0.2,8.5,1.6,12.4,3.4c0.2,0.1,0.4,0.3,0.7,0.6c-3.1,4.6-7.1,8.4-10.5,13c-0.6,0-1.4,0.2-2,0c-1.1-0.5-2.1-0.4-3.2-0.4
	c-1.7,0-3.5,0-5.2,0c-0.5,0-0.9-0.1-1.4,0c-1.6,0.3-3.2,0.7-3.8,2.5c-0.3,0.8-0.7,1.4-1.1,2.2c0,0.1-0.1,0.1-0.2,0.2
	c-0.6,0.4-1-0.2-1.5-0.4c-2-0.5-4-1-6-1.7c-0.9-0.3-1.2-0.7-1.2-1.6c0-0.7,0-1.5,0-2.4c-0.2-0.3-0.5-0.6-0.7-1
	c-0.2-0.3-0.4-0.6-0.6-0.9c-0.4,0.2-0.8,0.4-1.2,0.6c-0.6,0.9,0.4,2.5-1.3,3.1c-1-0.4-2.1-0.8-3.3-1.3C281.8,20.5,282.3,19,283.4,18
	c0.1,0.1,0,0.6,0.4,0.2C283.7,18.1,283.6,18.1,283.4,18z M286.5,15.2c-0.3,0.4-0.6,0.6-0.7,0.8c-0.1,0.7-0.1,1.4-0.1,2.1
	c0,0.3,0.6,0.4,0.9,0.2c0.6-0.5,0.7-0.7,0.5-1.4C286.9,16.5,286.7,16,286.5,15.2z M293,15.1c0.4-0.4,0.4-0.9,0-1.4
	C292.7,14.2,292.7,14.6,293,15.1z M288.3,14.2c-0.1-0.2-0.1-0.3-0.2-0.5c-0.1,0.1-0.2,0.1-0.2,0.2c0,0.2,0,0.3,0.1,0.5
	C288.1,14.3,288.2,14.3,288.3,14.2z"/>
<path class="st0" d="M464.5,75.7c0.8,1.6,1.4,3,1.4,4.7c0,0.9,0.4,1.8,0.5,2.6c0.1,0.8,0,1.6,0,2.5c0,0.6-0.2,1.2-0.3,1.9
	c-0.2,1.2-0.3,2.5-0.2,3.8c0,1.6-0.6,3-1.1,4.4c-0.2,0.6-0.8,1-1.5,1c-1.9-0.1-3.7,0.7-5.7,0.6c-2-0.2-4,0-6,0c-1.9,0-3.8,0-5.8,0
	c-1.3,0-1.3,0-2.8-0.8c-0.4-1.1,0.2-2.4-0.6-3.4c0-1.1,0-2.2-0.1-3.3c0-1.2,0-2.4,0-3.6c0-2.8,0-5.7,0-8.5c0-0.5,0-1.1,0.1-1.6
	c1.1-0.2,1.7,0.7,2.6,0.8c0.5-0.2,1-0.4,1.5-0.4c1.5-0.2,3.1,0.2,4.6-0.3c1.5-0.5,3.1-0.2,4.6-0.2c1.6-0.1,3.1,0,4.7,0
	C461.8,75.7,463.1,75.7,464.5,75.7z"/>
<path class="st0" d="M296.6,96.6c-2.3,0-4.2,0-6.1,0c-0.8,0-1.6-0.1-2.4,0.4c-0.4,0.2-0.9,0.2-1.3,0.2c-2.7,0-5.5,0-8.2,0
	c-0.3,0-0.5,0-0.8-0.1c-0.3-0.1-0.9-0.6-0.9-1c0-1,0-2,0-3c0-0.7,0-1.4-0.3-2.1c-0.2-0.5-0.2-1.1-0.2-1.6c0-1.6,0-3.3,0-4.9
	c0-1.4,0.3-2.9-0.5-4.3c0-1.3,0-2.6,0-3.8c0-0.3,0.3-0.7,0.6-0.9c1.3-0.6,2.6-1.3,4.1-1.3c1.6,0,3.3,0,4.9,0c1,0.1,1.9,0.4,2.9,0.5
	c1,0.1,2.1-0.2,3,0.1c1.9,0.6,3.8,0.3,5.5,0.5c0.5,0.5,0.3,1,0.3,1.5c0,3.1,0,6.2,0,9.3c0,1.3,0.2,2.7-0.4,4
	c-0.3,0.6-0.1,1.4-0.1,2.2C296.6,93.5,296.6,94.9,296.6,96.6z"/>
<path class="st0" d="M357.7,96.3c0-1.6-0.3-3.2,0.4-4.7c0.2-0.4,0.1-0.9,0.1-1.4c0-1.9,0-3.8,0-5.8c0-0.6-0.1-1.2-0.3-1.9
	c-0.3-0.9-0.1-2-0.4-2.9c-0.3-0.9-0.4-1.7-0.2-2.8c0.3-0.1,0.6-0.1,1-0.2c0.8-0.1,1.6,0.1,2.4-0.4c0.4-0.2,0.9-0.1,1.3-0.1
	c5.4,0,10.8,0,16.2,0c0.3,0,0.6,0,0.8,0c0.5,0.1,1.1,0.6,1.1,1.1c0,1.8,0.9,3.5,0.6,5.4c-0.1,0.6,0,1.2-0.3,1.9
	c-0.2,0.6-0.2,1.2-0.2,1.9c0,2.7,0,5.3,0,8c0,1-0.4,1.5-1.5,1.5c-1,0-2.1-0.2-3,0.1c-2.9,0.8-5.8,0.4-8.7,0.4c-2.8,0.1-5.7,0-8.5,0
	C358.3,96.5,358.1,96.4,357.7,96.3z"/>
<path class="st0" d="M334.5,79c0.8-0.4,1.4-1,1.8-1.9c0.1-0.3,0.6-0.3,0.9,0c0.5,0.5,0.7,1,0.4,1.7c-0.2-0.1-0.4-0.3-0.7-0.3
	c-0.2,0-0.7,0.2-0.7,0.3c0,1.2-1,1.9-1.7,2.6c-0.4,0.4-0.7,0.8-0.6,1.4c-0.3,0-0.5,0.2-0.6,0.5c-0.1,0.1-0.3,0.1-0.4,0.2
	c0.1,0.1,0.1,0.1,0.2,0.2c0.1-0.1,0.1-0.3,0.2-0.4c0.4,0,0.5-0.2,0.5-0.6c0.5,0,0.9-0.7,1.4,0c0.5,0.8,1.5,0.4,2.3,0.7
	c-0.1,0.4-0.3,0.9-0.2,1.2c0.2,0.5,0.3,0.9-0.1,1.1c-0.6,0.4-0.7,1.6-1.9,1c-0.6,0.5-1.4,0.9-1.4,1.8c-0.1,0.7-0.5,1.2-1.1,1.3
	c-0.4,0.1-0.4,0.6-0.6,0.8c-0.2,0.1-0.6-0.1-0.9,0c-0.3,0.1-0.6,0.4-0.4,0.8c0.1,0.1,0,0.4-0.1,0.4c-0.7,0.2-0.8,0.6-0.7,1.2
	c0,0.8,0.3,1.4,1.1,1.6l0,0c0.2,0.5,0.5,0.7,1,0.4c0.2-0.1,0.5-0.3,0.7-0.4c0.1,0.1,0,0.6,0.4,0.3c-0.1-0.1-0.3-0.1-0.4-0.2
	c0.6-0.7,0.6-1.6,0.6-2.7c0.8,0.4,0.4,1.1,0.6,1.5c0.1,0.2,0.2,0.4,0.2,0.4c0.2,0,0.6,0,0.7-0.2c0.6-0.8,1.2-1.5,1.8-2.3
	c0.7,0.2,0.9,0.7,1,1.3c0.1,1.1,0.2,2.1,0.4,3.3c-0.6,0.6-1.4,0.8-2.4,0.8c-3.4,0-6.8,0-10.2,0c-0.2,0-0.4,0-0.5,0
	c-2.9-0.8-5.8-0.4-8.7-0.5c-1.9-0.1-2.6-0.6-2.1-2.5c0.3-1.3,0.4-2.5,0.4-3.8c0-1,0.2-2-0.4-2.9c-0.2-0.3-0.1-0.9-0.1-1.4
	c0-3.1,0-6.2,0-9.3c0-0.3,0.1-0.5,0.2-0.9c0.4,0,0.7-0.1,1.1-0.1c1.4-0.1,2.9,0.2,4.3-0.5c0.4-0.2,0.9-0.1,1.4-0.1
	c1.8,0,3.7,0,5.5,0c1.2,0,2.3-0.1,3.5,0.4c0.5,0.3,1.2,0.1,1.9,0.2c0.2,1-0.9,1.5-0.7,2.6c0.6-0.4,1.1-0.7,1.6-1l0,0
	c0.1,0.5,0,0.9-0.4,1.2c-0.6,0.6-1,1.2-1.1,2c0.5,0.6,1,0.9,1.7,0.5c0.2-0.1,0.2-0.6,0.3-0.9c0.3,0,0.5-0.2,0.6-0.6l0,0
	C334.3,79.5,334.5,79.3,334.5,79L334.5,79z M334.6,84c-0.5,0.3-1.1,0.6-1.6,0.8c0,0.5,0,0.9,0,1.4c0,0.3,0.5,0.5,0.8,0.4
	c0.7-0.3,0.8-1.1,1.1-1.7C335,84.6,334.7,84.2,334.6,84c0.2-0.1,0.6,0,0.2-0.4C334.7,83.7,334.6,83.8,334.6,84z M329.1,87.8
	c-0.1,0.1-0.3,0.2-0.4,0.4c0.1,0.1,0.3,0.1,0.4,0.2c0.1,1.1,0.1,1.2,1.2,0.7c0.6-0.2,0.8,0,1,0.5c0,0.1,0.2,0.1,0.4,0.2
	c0.2-0.2,0.4-0.4,0.7-0.7c-0.5-0.4-1-0.7-1.5-1.1c0.1-0.1,0.3-0.2,0.4-0.3c0.7-0.4,0.7-0.4-0.1-1.1l0,0c-0.1-0.6,0.2-1,0.5-1.5
	c0.1-0.1,0-0.4-0.1-0.5c-0.2-0.1-0.6-0.2-0.7-0.1c-0.6,0.8-1.2,1.7-1.8,2.6C329,87.4,329.1,87.6,329.1,87.8z M328.8,85.7
	c-0.1,0.1-0.2,0.1-0.2,0.2c0.1,0.3,0.2,0.3,0.3,0C329,85.8,328.8,85.7,328.8,85.7z M329.3,95.6l-0.1,0.2l0.2,0L329.3,95.6z"/>
<path class="st0" d="M321.6,55c-0.6,0.4-0.9,0.7-1.3,0.8c-1.6,0.6-3.2,1.2-4.9,1.6c-2.3,0.6-4.5,1.2-6.9,1.1c-1.6-0.1-3.1,0-4.7,0
	c-1.1,0-2.2,0.2-3.2-0.4c-0.3-0.2-0.9-0.1-1.4-0.1c-3.4-0.3-6.5-1.4-9.4-3.2c-0.3-0.2-0.6-0.4-1-0.7c0.5-0.5,0.8-0.9,1.1-1.2
	c2.2-2,3.9-4.6,6-6.7c0.8-0.8,1.6-1.8,2.2-2.8c0.9-1.5,2.1-2.5,3.2-3.6c1.4-0.2,2.4,0.5,3.5,0.8c0.5,0.1,0.8,0.1,1.3,0
	c1.3-0.4,2.5-1,3.7-1.6c0.4-0.2,0.8-0.3,1.2-0.4c1.2,0.8,1.9,1.8,2.5,3c1.6,2.8,3.2,5.4,4.7,8.3C319,51.7,320.3,53.2,321.6,55z"/>
<path class="st0" d="M400.6,76.8c0.4-0.2,0.8-0.5,1.2-0.5c0.6-0.1,1.3-0.1,1.9-0.1c5.9,0,11.9,0,17.7,0c0.8,0.6,0.4,1.3,0.6,1.9
	c0.2,0.5,0.4,1,0.4,1.6c0,0.5,0,1.1-0.3,1.6c-0.2,0.4-0.2,0.9-0.1,1.3c0.6,1.8,1.1,3.6,1,5.6c0.8,1.8,0.4,3.8,0.5,5.7
	c0,0.3,0,0.5-0.1,0.8c-0.6,0.6-1.4,0.2-2.1,0.4c-0.7,0.2-1.3,0.4-2.1,0.4c-5.1,0-10.3,0-15.4,0c-0.3,0-0.7-0.1-0.9-0.1
	c-0.5-0.5-0.3-1-0.3-1.4c-0.1-0.9,0.1-1.8-0.4-2.7c-0.2-0.4-0.1-1.1-0.1-1.6c0-2.2-0.1-4.4,0-6.6c0.1-1.6-0.3-3.1-0.6-4.6
	C401.5,78,401,77.5,400.6,76.8z"/>
<path class="st0" d="M486.9,51.6c-2,2.4-4.7,3.6-7.3,4.8c-0.8,0.4-1.8,0.5-2.6,0.9c-0.8,0.4-1.8,0.1-2.6,0.7
	c-0.2,0.1-0.5,0.1-0.8,0.1c-2.6,0-5.1,0.1-7.7-0.1c-1.2-0.1-2.5-0.3-3.6-0.9c-1.5-0.8-3.1-1.5-4.6-2.3c-1.1-0.6-1.3-1.1-0.7-2.2
	c0.6-1.2,1.3-2.4,2-3.5c1.6-2.5,2.9-5.2,4.2-7.9c0.3-0.5,0.6-0.9,1.1-1.3c0.7,0.4,1.4,0.9,2.1,1.3c1.5,0.8,2.9,1.2,4.7,0.7
	c2-0.5,3.7-1.2,5.2-2.4c0.8,0.1,1,0.6,1.3,1.1c1.5,2.4,3.4,4.4,5.7,6.2c1,0.7,1.7,1.9,2.4,2.9C486,50.2,486.4,50.8,486.9,51.6z"/>
<path class="st0" d="M503.3,94.6c-0.8,0.7-1.6,0.9-2.6,0.9c-1.6-0.1-3.3,0-4.9,0c-0.3,0-0.6,0.1-0.8,0c-2.5-0.8-5.1-0.3-7.6-0.5
	c-0.3,0-0.5-0.1-0.9-0.2c-0.2-0.6-0.7-1.3-0.6-2c0-1.2-0.4-2.3-0.7-3.4c-0.5-1.7-1.1-3.4-1-5.3c0-1.1-0.8-2-0.6-3.2
	c-0.7-1.3-0.3-2.9-1-4.2c-0.3-0.6,0.3-1.2,0.8-1c1.5,0.8,3.3,0.1,4.8,0.8c3.1-0.7,6.2-0.2,9.2-0.4c0.8-0.1,1.6-0.4,2.4-0.5
	c0.7-0.1,1.5,0,2.2,0c0.8,0,1.3,0.5,1.4,1.4c0,0.2,0,0.4,0,0.5c0,0.8,0,1.6,0.1,2.5c0,4.4,0,8.8,0,13.2
	C503.3,93.7,503.3,94.2,503.3,94.6z"/>
<path class="st0" d="M395,39.1c1.3-1.2,2.1-2.6,2.7-4.1c0.3-0.6,0.6-1.1,0.8-1.7c0.3-0.6-0.5-1.1-0.2-1.9c5.4-2.6,11-5.3,16.5-7.9
	c0.7,0.7,1,1.5,1,2.4c0,2,0,4,0,6c0,0.9-0.4,1.8-0.5,2.6c-0.1,0.8,0.1,1.7-0.1,2.5c-0.2,1-0.6,2.1-1.1,3c-1.2,2.4-2.4,4.7-3.8,6.9
	c-0.9,1.5-2.3,2.6-3.6,3.7c-0.3,0.3-1,0.2-1.3-0.1c-1.1-1.2-2.3-2.4-3.4-3.6c-0.3-0.3-0.5-0.8-0.8-1.1C399,44,397.3,41.4,395,39.1z"
	/>
<path class="st0" d="M324.8,53.3c-1.9-2.3-3.3-4.4-4.5-6.7c-1.3-2.4-2.7-4.7-4.2-7c-0.6-1-1.6-1.7-2.2-2.7c0.9-1.2,1.7-2.5,2.1-4.1
	c0.2-0.7,0.6-1.1,1.3-1.2c0.8-0.1,1.6-0.4,2.4-0.5c1-0.1,2,0,3-0.1c1.4-0.1,2.9,0.2,4.3-0.4c0.5-0.2,1.3,0,1.9-0.1
	c1.3-0.1,2.7,0.2,4-0.5c1.2,0,2.4,0,3.5,0c0.4,0.4,0.5,0.9,0.2,1.3c-0.4,0.7-0.4,1.4-0.4,2.1c0.1,3-0.8,5.7-2.1,8.3
	c-0.4,0.7-0.7,1.5-1.1,2.2c-0.7,1.4-1.6,2.6-2.7,3.7C328.5,49.5,326.7,51.3,324.8,53.3z"/>
<path class="st0" d="M386.2,42.3c0,1.9,0,3.6,0,5.3c-0.1,1.7,0.3,3.4,0.5,5.1c0.2,1.7,0.7,3.3,0.9,5.1c-0.6,0.4-1.3,0.2-2,0.2
	c-1.2,0-2.4,0.2-3.5-0.2c-1-0.3-2-0.2-2.9-0.5c-3.1-1.2-5.9-2.6-8.6-4.6c-1.5-1.2-2.9-2.5-4.3-3.8c-0.2-0.2-0.3-0.4-0.5-0.7
	c2-1.6,3.8-3.3,6-4.6c1.3-0.8,2.5-1.8,3.6-2.9c0.3-0.3,0.6-0.6,1-1c1.5-1.4,1.9-2,3.7,0c0.9,1.1,2.3,1.5,3.5,2
	C384.4,41.9,385.2,42,386.2,42.3z"/>
<path class="st0" d="M315.1,24.6c1.5-1.6,2.8-2.9,4.1-4.3c1.2-1.3,2.6-2.6,3.6-4.1c1.1-1.5,2.5-2.8,3.9-4.3c0.3,0.2,0.6,0.3,0.8,0.6
	c2.2,2,4.3,4.2,5.8,6.8c0.3,0.6,0.8,1.1,0.9,1.6c0.3,1.3,1,2.3,1.5,3.5c0.3,0.7,0.3,0.7,0.2,2.2c-0.8,0.2-1.8,0.2-2.6,0.5
	c-0.9,0.3-1.8,0-2.7,0.3c-2,0.6-4.1,0.4-6.2,0.6c-1.2,0.1-2.3,0.5-3.5,0.5c-1.1,0-2.2-0.2-3.2,0.3c-0.1,0.1-0.8-0.5-0.7-0.6
	c0.4-0.8-0.1-1.4-0.5-1.9C316.3,25.7,315.8,25.3,315.1,24.6z"/>
<path class="st0" d="M279.1,41.6c0.1-0.9-0.4-1.6-0.9-2.2c-0.4-0.6-0.2-1.2-0.5-1.6c-0.6-1.1-0.1-1.7,0.7-2.5c-0.6-1.5-1-3.1-1-4.9
	c0-1.3,0.4-2.5,0.9-3.7c0.3-0.9,0.8-1.8,1.2-2.7c2.3,0.4,4.2,1.6,6.2,2.6c0.5,0.2,0.5,0.7,0.8,1c0.5,0.5,0,1.5,0.9,1.8
	c0,0.2,0,0.4,0,0.5c0,0.2,0.2,0.3,0.3,0.4c0.1-0.1,0.2-0.1,0.2-0.2c0-0.2,0-0.4,0-0.5c-0.1-0.1-0.3-0.2-0.4-0.2c0.5-0.5,1-1,1.5-1.5
	c1.7,0.5,3.5,1,5.3,1.6c0.5,0.2,1,0.5,1,1.2c-0.1,1.6,0.2,3,1.1,4.2c-0.3,0.3-0.4,0.4-0.5,0.5c-1.9,0.5-3.7,1.3-5.5,2.2
	c-2.2,1.1-4.4,2.2-6.5,3.3c-1,0.5-2.3,0.6-3.1,1.5c-0.1,0.1-0.6-0.2-0.9-0.4l0,0C279.6,41.8,279.4,41.6,279.1,41.6L279.1,41.6z
	 M280.7,31.8c-0.3-0.6-0.6-1.1-0.9-1.5c-0.1-0.1-0.3-0.1-0.5-0.1c-0.1,0-0.2,0.1-0.2,0.2c0.6,0.8-0.3,1.1-0.5,1.6
	c0.2,0.6,0.4,1.2,0.5,1.8c0,0,0.1,0,0.3,0C279.9,33.1,280.3,32.5,280.7,31.8z M282.1,35.4c0.5-0.5,0.3-1.2,0.1-1.7
	c-0.1-0.2-0.3-0.4-0.5-0.6c-0.1-0.1-0.4-0.2-0.5-0.1c-0.2,0.1-0.4,0.3-0.5,0.5c-0.1,0.3-0.1,0.7,0,1.1c0,0.1,0.2,0.2,0.3,0.4
	C281.7,34.2,281.7,35.2,282.1,35.4z M284.2,28.3c0.4-0.4,0.4-0.9,0-1.4C283.8,27.4,283.9,27.8,284.2,28.3z M285.1,31.1
	c0,0.4,0.3,0.7,0.6,0.6c0.1,0,0.2-0.3,0.2-0.3c-0.1-0.2-0.3-0.4-0.5-0.5C285.4,30.8,285.2,31,285.1,31.1z M278.7,29.2
	c0.1,0.1,0.2,0.3,0.3,0.3c0.1,0,0.3-0.1,0.4-0.1c-0.1-0.1-0.1-0.3-0.2-0.3C279,29,278.8,29.1,278.7,29.2z M279.3,36.5
	c0.1,0,0.1-0.1,0.2-0.1c0-0.1-0.1-0.1-0.1-0.2c-0.1,0-0.1,0.1-0.1,0.1C279.2,36.4,279.2,36.5,279.3,36.5z"/>
<path class="st0" d="M58,33.1c-1.7-0.1-2.3-1.3-2.6-2.8c-0.6,0.2-0.5,1-0.9,1.3c-0.6,0.3-1.1,0.8-1.7,1.1c-0.5,0.3-1,0.6-1.6,0.8
	c-0.5,0.3-1.1,0.5-1.6,0.8c-2.9,1.1-6.6,3-9,4.5c-1.3,0.8-2.6,1.4-3.9,2.1c-0.6,0.3-1,0.2-1.5-0.5c-0.2-0.2-0.3-0.6-0.6-0.5
	c-0.2,0.1-0.4,0.3-0.5,0.6c-0.1,0.3,0,0.8-0.5,1c-0.1,0-0.2,0.1-0.3,0c-0.1,0-0.2-0.1-0.2-0.2c0.5-1,0.3-2.1,0.3-3.2
	c0-1.1,0-2.2,0-3.3c4.8-3,9.8-5.5,15-7.7c1.2,0.1,1.8-1.2,2.9-1.4c0.2,0,0.3-0.2,0.5-0.3c0.3-0.2,0.7,0.2,0.8,0.6
	c0.1,0.5-0.1,1-0.4,1.4c0,0,0.1,0.2,0.2,0.2c0.2,0,0.5,0,0.5-0.1c0.2-0.4,0.3-0.9,0.5-1.4c0.3,0.1,0.5,0.2,0.8,0.3
	c0.1-0.3,0.1-0.5,0.2-0.8c0.1-0.2,0.1-0.4,0.2-0.6c2.5-0.9,4,0.9,5.8,2.1c0,0.7,0.3,1.5,0,2c-1,1.6,0.1,3.7-1.5,5.1
	C58.6,33.8,58.3,33.5,58,33.1c0.9-0.4,0.7-1,0.2-1.8C57.9,32,58.1,32.6,58,33.1z M55.5,28.9c-0.1-0.2-0.1-0.3-0.2-0.5
	c-0.1,0.2-0.2,0.3-0.2,0.5c0,0.2,0.1,0.3,0.2,0.5C55.4,29.2,55.5,29.1,55.5,28.9z M34.9,38.6c-0.1,0.1-0.2,0.1-0.2,0.2
	c0.1,0.3,0.2,0.3,0.3,0C35.1,38.8,35,38.7,34.9,38.6z M52.3,29c-0.1,0.1-0.2,0.1-0.2,0.2c0.1,0.3,0.2,0.3,0.3,0
	C52.5,29.2,52.4,29.1,52.3,29z M58.9,29.6c-0.1,0.1-0.2,0.1-0.1,0.2c0.1,0.2,0.2,0.3,0.3,0C59.1,29.8,59,29.7,58.9,29.6z"/>
<path class="st0" d="M32,42.4c-2.1,1.7-4.3,2.6-6.7,3.3c-2,0.6-3.9,1.5-5.8,2.2c-2.5,1-4.9,2-7.5,2.8c-2.4,0.8-4.5,0.8-5.6-2.7
	c0.3-0.5,0.5-1.2,0.9-1.7c0.3-0.5,0.8-1,1.4-1.1c2.2-0.6,4.1-1.8,6.3-2.6c2-0.7,4-1.8,6-2.6c1.3-0.5,2.6-1.1,3.9-1.4
	c1.1-0.2,2-0.8,3.2-1.3c0.2,0.1,0.6,0.4,0.9,0.5c0.2,0.1,0.6-0.1,0.7-0.3c0.2-0.2,0-0.6,0.2-0.8c0.3-0.4,0.6-0.8,1-1
	c0.3-0.1,0.8,0,1.1,0.1c0.2,0.1,0.3,0.6,0.2,0.8c-0.7,1.5-0.6,3.1-0.5,4.7C31.6,41.6,31.9,42,32,42.4z"/>
<path class="st0" d="M403.3,53.5c-1.2,0.9-2.3,1.5-3.6,2c-1.7,0.7-3.4,1.5-5.3,2.1c-1.2,0.4-2.3,0.5-3.4,0.4
	c-0.6-0.6-0.3-1.4-0.4-2.1c-0.2-0.6-0.6-1.1-0.5-1.8c0.1-1.2-0.7-2.2-0.6-3.4c0.1-1.1,0-2.2,0-3.3c0-0.5-0.2-1-0.3-1.6
	c-0.2-1.2-0.3-2.3,0-3.5c0.1-0.5,1.1-0.8,3.2-1.3c0.2,0.2,0.5,0.4,0.8,0.7c0.8,1,1.6,2,2.4,2.9c0.7,0.9,1.7,1.6,2.3,2.7
	c0.3,0.6,0.9,1.1,1.5,1.6C400.9,50.3,401.9,52,403.3,53.5z"/>
<path class="st0" d="M489,49.6c-1-1.4-1.9-2.4-2.7-3.5c-0.3-0.5-0.6-0.8-1.1-1.2c-2.1-1.7-4.2-3.5-5.7-5.8c-0.4-0.6-1-1.1-1.5-1.8
	c0.1-0.4,0.3-0.9,0.4-1.4c0.1-0.4,0.3-0.8,0.4-1.4c0.4,0,0.8-0.1,1,0c0.9,0.7,2,0.3,2.9,0.6c1,0.4,2,0.9,3.1,1
	c1,0.1,1.9,0.7,2.9,0.6c1.5,0.7,3,0.5,4.6,0.5c0.4,0,0.7,0.1,1.1,0.2c0.4,0.1,0.8,0.7,0.7,1.1c-0.1,0.4-0.4,0.8-0.5,1.3
	c-0.7,2.8-2.1,5.2-3.5,7.6C490.6,48.1,489.8,48.7,489,49.6z"/>
<path class="st0" d="M299.3,38.1c-0.8,1-1.5,1.9-2.3,2.9c-0.8,1-1.6,2-2.4,3c-0.9,1-1.7,2.1-2.6,3.1c-0.9,0.9-1.7,1.9-2.7,2.7
	c-0.9,0.8-1.5,2-2.4,2.9c-2.9-1.7-5.1-3.7-6.6-6.6c1-0.6,1.9-1.3,3-1.8c4.4-2.3,8.9-4.4,13.3-6.7C297.6,37,298.4,37,299.3,38.1z"/>
<path class="st0" d="M408.9,15.2c0.8,0.5,1.6,1.3,2.2,2.2c0.5,0.9,1.2,1.6,1.8,2.4c0.4,0.5,0.3,1.3-0.3,1.7
	c-0.4,0.2-0.8,0.5-1.2,0.6c-3.1,1.5-6.1,3.2-9.3,4.5c-1.5,0.6-2.9,1.4-4.4,2.1c-0.2,0.1-0.5,0.1-0.8,0.2c-0.3-0.6-0.6-1.1-0.9-1.7
	c0.4-0.3,0.8-0.5,1.2-0.8c0.4-0.3,0.8-0.8,1.2-1.1c0.6-0.5,1.1-0.9,1.7-1.3c0.4-0.3,0.9-0.7,1.2-1.1c2-2.9,4.7-5.1,7.2-7.5
	C408.5,15.3,408.7,15.3,408.9,15.2z"/>
<path class="st0" d="M64.6,34.9c-0.2,0-0.4,0-0.6,0c0-0.7-0.1-1.4,0-2.1c0.1-0.7,0.4-1.3,0.5-1.9c0-0.2-0.2-0.6-0.4-0.6
	c-0.2-0.1-0.6,0.2-0.6,0.4c-0.2,0.7,0,1.6-0.6,2.3c-0.2,0.2-0.1,0.8-0.1,1.2c0,0.3,0.1,0.6,0.3,0.8c0.2,0.1,0.6,0.1,0.9,0.1
	c0,0.5,0,1,0,1.5c-0.8,0.1-0.6-0.7-1-0.8c-0.4-0.1-0.8-0.1-1.1-0.2c-0.1-0.3-0.2-0.5-0.2-0.6c0.3-0.7,0.5-1.4,0.5-2.3
	c0-0.5,0.2-1.1,0.3-1.7c-0.2-0.1-0.4-0.3-0.8-0.5c0.4-0.4,0.8-0.8,1.2-1.3c0.7,0.2,1.4,0.4,2.1,0.6c0.3,0.9,0.3,1.8-0.1,2.6
	C64.5,33.2,64.7,34.1,64.6,34.9L64.6,34.9z"/>
<path class="st0" d="M64.6,34.9c0.2-0.2,0.5-0.3,0.6-0.6c0.1-0.3,0.1-0.7,0.3-1.1c0.3,1,0.4,2.1,0.1,3.1c0,0.1-0.3,0.2-0.5,0.2
	c-0.2,0-0.4-0.1-0.5-0.2C64.6,35.9,64.6,35.4,64.6,34.9L64.6,34.9z"/>
<path class="st0" d="M332.9,77.3c-0.1-0.7,0.2-1.2,0.8-1.5c0.4,0.3,0.8,0.4,0.5,1c-0.2,0.3-0.2,0.7-0.2,1l0,0
	C333.6,77.7,333.3,77.5,332.9,77.3L332.9,77.3z"/>
<path class="st0" d="M279.6,42.1c0,0.3,0,0.6-0.1,0.8c-0.1,0.1-0.5,0.2-0.7,0.1c-0.2-0.1-0.3-0.4-0.3-0.7c-0.1-0.4,0.1-0.7,0.5-0.8
	l0,0C279.1,41.9,279.3,42.1,279.6,42.1L279.6,42.1z"/>
<path class="st0" d="M259.9,32.4c-0.5-0.9-0.3-1.7-0.2-2.7C260.2,30.7,260.3,30.7,259.9,32.4z"/>
<path class="st0" d="M367.3,19.7c0.3,0.8,0.4,1.4,0,2C366.8,21.1,366.9,20.5,367.3,19.7z"/>
<path class="st0" d="M334,77.9c0.7,0.1,0.5,0.7,0.5,1.1l0,0c-0.4,0-0.6,0.2-0.6,0.6l0,0c-0.2,0-0.4,0-0.6,0
	C333.3,78.9,333.8,78.4,334,77.9L334,77.9z"/>
<path class="st0" d="M337,80.5c-0.2-0.3-0.3-0.7,0.1-0.9c0.1-0.1,0.3,0,0.5,0c0.1,0,0.1,0.3,0,0.4C337.4,80.2,337.2,80.4,337,80.5z"
	/>
<path class="st0" d="M371.4,19.6c0,0.5,0.1,1.1-0.2,1.6C370.7,20.5,370.5,20,371.4,19.6L371.4,19.6z"/>
<path class="st0" d="M362.4,33.7c0,0-0.1,0.1-0.1,0.1c0-0.1-0.1-0.1-0.1-0.2c0-0.1,0.1-0.1,0.1-0.1
	C362.4,33.5,362.4,33.6,362.4,33.7z"/>
<path class="st0" d="M24.4,93.7c-0.1,0.2-0.2,0.3-0.3,0.5C23.7,93.7,24.2,93.8,24.4,93.7L24.4,93.7z"/>
<path class="st0" d="M367.8,16.4c0,0.1,0.2,0.1,0.1,0.2c-0.1,0.2-0.2,0.2-0.3,0C367.6,16.5,367.8,16.5,367.8,16.4z"/>
<path class="st0" d="M371.7,22.5c0,0.1,0.1,0.1,0.1,0.2c-0.1,0.2-0.2,0.2-0.3,0C371.5,22.6,371.6,22.5,371.7,22.5z"/>
<polygon class="st0" points="366.7,25 366.6,24.8 366.8,24.8 "/>
<polygon class="st0" points="370,25.5 369.9,25.3 370.1,25.3 "/>
<path class="st0" d="M362.9,27.4c0,0.1,0.1,0.1,0.1,0.2c-0.1,0.2-0.2,0.2-0.3,0C362.7,27.5,362.8,27.5,362.9,27.4z"/>
<path class="st0" d="M363,28.7c-0.1,0-0.1,0.1-0.2,0.1c-0.1,0-0.1-0.1-0.1-0.1c0-0.1,0.1-0.1,0.1-0.1C362.9,28.6,363,28.6,363,28.7z
	"/>
<path class="st0" d="M331.3,94.9c0.1-0.1,0.2-0.3,0.2-0.4C331.8,94.9,331.4,94.8,331.3,94.9L331.3,94.9z"/>
<path class="st0" d="M66.9,32.2c-0.1,0-0.1,0.2-0.2,0.1c-0.2-0.1-0.2-0.2,0-0.3C66.8,32.1,66.8,32.2,66.9,32.2z"/>
<path class="st0" d="M257.7,33.4c-0.1,0.1-0.1,0.2-0.2,0.1c-0.1,0-0.1-0.1-0.2-0.2c0.1-0.1,0.1-0.2,0.2-0.2
	C257.6,33.3,257.6,33.4,257.7,33.4z"/>
<path class="st0" d="M30.4,61.3c0.1-0.2,0.2-0.3,0.2-0.5C31.1,61.3,30.5,61.2,30.4,61.3L30.4,61.3z"/>
<path class="st0" d="M53.7,25.1c-0.1,0.1-0.1,0.1-0.2,0.1c-0.1,0-0.2-0.1-0.1-0.2c0-0.1,0.1-0.1,0.2-0.2
	C53.6,24.9,53.6,25,53.7,25.1z"/>
<path class="st0" d="M69.1,28.5c0.1,0.1,0.1,0.1,0.2,0.2c-0.1,0-0.2,0-0.3,0C69,28.5,69.1,28.5,69.1,28.5z"/>
<path class="st0" d="M329,88.3c0-0.2,0-0.4,0-0.6c0.2-0.1,0.4-0.2,0.7-0.3c0.1,0,0.3,0.1,0.4,0.1c0,0.1,0,0.4-0.1,0.4
	C329.7,88.2,329.4,88.3,329,88.3z"/>
<path class="st0" d="M331.2,86.7c-0.1,0.1-0.2,0.3-0.2,0.4C330.6,86.7,331.1,86.8,331.2,86.7L331.2,86.7z"/>
<path class="st0" d="M333.5,79.5c0,0.2,0,0.4,0,0.6c-0.1-0.1-0.3-0.1-0.4-0.2C333.2,79.8,333.3,79.6,333.5,79.5z"/>
</svg>
