<?xml version="1.0" encoding="utf-8"?>
<!-- Generator: Adobe Illustrator 21.0.2, SVG Export Plug-In . SVG Version: 6.00 Build 0)  -->
<svg version="1.1" id="Layer_1" xmlns="http://www.w3.org/2000/svg" xmlns:xlink="http://www.w3.org/1999/xlink" x="0px" y="0px"
	 viewBox="0 0 111 200" style="enable-background:new 0 0 111 200;" xml:space="preserve">
<path d="M104.8,76.8C104,96,100,114,92.9,131.4c-0.8,2-1.7,3.9-2.5,5.9c-1.7,3.9-3.4,7.8-5.2,11.7c-5.7,12.2-13.6,22.3-23.9,29.6
	c-8.5,6-17.1,6.3-25.5,3.1c-2.8-1.1-5.6-2.5-8.3-4.2C1,161,4,123,10.7,96.9c0.7-2.6,1.4-5.2,2.1-7.8c1.5-5.2,3.2-10.3,5-15.4
	c5.7-15.5,11.5-31.2,21.8-43.8c6.1-7.5,13.9-12,22.8-13.5c3.2-0.6,6.1,1,8.3,3.5c1.6,1.8,3.2,2.4,5.3,2c10.6-1.8,16.5,5.5,21.3,14.5
	c1.8,3.4,3.4,6.8,4.5,10.4C104,54,103,61,103.9,67.6C104.2,70.6,104.6,73.7,104.8,76.8z M63.7,37.9c-8.7,2.5-13.1,10.7-17,19.1
	c-6.5,14-11.6,28.6-15.6,43.6c-0.8,3-1.6,6-2.3,9C24,126,22,148,38.1,157.6c2.2,1.4,5.1,1.8,8,1.3s5.6-1.7,7.5-3.7
	c7-7,11.7-15.6,14.8-25.6c1.8-5.6,3.6-11.1,5.3-16.7c0.8-2.8,1.6-5.6,2.2-8.4c3-13.6,4-26.6,0.2-41c-0.6-2.3-1.4-4.6-2.4-6.8
	c-1-2.2-2.3-4.3-4-6.3C67,47.2,65.8,42.4,63.7,37.9z"/>
</svg>
