<?xml version="1.0" encoding="utf-8"?>
<!-- Generator: Adobe Illustrator 21.0.2, SVG Export Plug-In . SVG Version: 6.00 Build 0)  -->
<svg version="1.1" id="Layer_1" xmlns="http://www.w3.org/2000/svg" xmlns:xlink="http://www.w3.org/1999/xlink" x="0px" y="0px"
	 viewBox="0 0 109 200" style="enable-background:new 0 0 109 200;" xml:space="preserve">
<path d="M6.9,140.4C7,120,11,100,16,79.8c0.8-2.4,1.7-4.8,2.6-7.1c1.9-4.7,4.1-9.2,6.8-13.7c2.4-4,4.2-8.3,6.4-12.5
	c5.7-10.8,13.6-19.1,24-24.6c2.1-1.1,4.3-2.1,6.6-3C80,15,97,34,101,50c3,11,4,23,3.3,33.9c-0.1,2.7-0.1,5.4-0.3,8.1
	s-0.3,5.4-0.6,8.1c-1.2,12.6-5.8,24.7-10.5,36.5c-5.1,12.9-11.8,24.9-21.3,35.2c-4.5,4.8-9.6,8.5-16,11c-12.6,4.9-25.3,3.2-34.8-3.8
	c-2.4-1.8-4.6-3.9-6.5-6.3C9,165,6,156,7.1,147.3C7.1,145.1,7,142.8,6.9,140.4z M62.9,46.3c-2.1,3-4.4,5.6-5.9,8.6
	c-3.7,7.5-7.2,15.2-10.5,23c-2.1,4.9-4.1,9.8-5.2,14.9c-0.5,2.1-0.9,4.2-1.4,6.3C38,117,28,137,37,154.4c1.3,2.1,3,3.6,5,4.2
	c1.9,0.6,4,0.4,6-0.9c2.9-1.8,5.7-4.1,7.6-6.9c7.4-10.5,12.7-22.1,16.3-34.5c4.3-14.5,6.2-29.2,4.9-44.2c-0.2-2.6-0.6-5.2-1.3-7.8
	C73,60,74,54,68.4,51.6C66.7,49.9,64.7,48.2,62.9,46.3z"/>
</svg>
