<?xml version="1.0" encoding="utf-8"?>
<!-- Generator: Adobe Illustrator 21.0.2, SVG Export Plug-In . SVG Version: 6.00 Build 0)  -->
<svg version="1.1" id="Layer_1" xmlns="http://www.w3.org/2000/svg" xmlns:xlink="http://www.w3.org/1999/xlink" x="0px" y="0px"
	 viewBox="0 0 104 200" style="enable-background:new 0 0 104 200;" xml:space="preserve">
<path d="M42.7,185.1c-1.1-0.4-2.2-1.3-3.3-1.2c-11.2,0.5-19.3-5.1-25.7-13.3c-8.8-11.2-10-24.3-8.2-37.9
	c2.6-20.6,8.4-40.5,14.8-60.2c3.5-10.7,8.6-21,13.6-31.2C40,29.1,50.2,21,63.2,17.2c5.9-1.7,12.5-2,18.7-1.5
	c8.9,0.7,16.1,11.1,14.5,20.4c-0.4,2.2,0.1,3.9,0.3,5.9c1.1,11.9,3.6,23.8,1.6,35.9c-0.2,1.1-0.1,2.2,0,3.3
	c0.7,8.2-0.7,16.2-1.8,24.2c-1.4,10.4-2.9,20.8-6.1,30.8c-3.9,12-8.6,23.4-17.5,32.7c-5.1,5.4-11.1,9.5-17.7,12.8
	c-1.9,0.9-4.2,0.8-6.3,1.4c-1.1,0.3-2.1,1.1-3.1,1.7C44.9,185,43.8,185,42.7,185.1z M41.6,155.1c5.5-1,8.8-4.2,11.6-7.9
	c5.2-6.8,8.4-14.7,9.9-22.9c2.7-15.1,5-30.2,5.6-45.7c0.3-7.7-0.2-15.2-0.5-22.8c-0.1-4-1.6-7.3-5.4-9.9c-1,1.2-2.1,2-2.8,3.1
	c-6.5,11.3-11.2,23.4-14.3,36c-3.8,15.1-6.8,30.4-9.9,45.6c-0.8,4.2-0.8,8.6-0.9,12.9C34.8,148.7,36.9,152.6,41.6,155.1z"/>
</svg>
