<?xml version="1.0" encoding="utf-8"?>
<!-- Generator: Adobe Illustrator 21.0.2, SVG Export Plug-In . SVG Version: 6.00 Build 0)  -->
<svg version="1.1" id="Layer_1" xmlns="http://www.w3.org/2000/svg" xmlns:xlink="http://www.w3.org/1999/xlink" x="0px" y="0px"
	 viewBox="0 0 80 200" style="enable-background:new 0 0 80 200;" xml:space="preserve">
<path d="M40.9,50.9c-3.5,3.1-7,6.3-10.5,9.4c-4.2,3.6-8.3,7.1-13.9,8.4c-6.9,1.6-12.2-2.5-10.6-9.3c0.5-2.2,1.7-4.7,3.4-6
	C22,43.3,32.3,30.7,44,19.7c2.5-2.4,4.6-5.2,7.4-7.2c3.9-2.8,7.7-5.9,13.5-3.5c4.8,2,7.3,5.2,7.7,9.8c0.3,4.4-0.4,8.9-1,13.3
	c-0.5,4.4-1.4,8.7-2.1,13.1c-0.7,4.4-1.1,8.8-2.2,13.1C64.9,67.1,63.8,76,63,85.2c-0.7,8-0.6,16.2-2.8,24.1c-0.2,0.7,0,1.6-0.1,2.4
	c-0.6,8.6-1,17.3-1.9,25.9c-0.5,5.4-1.9,10.7-2.7,16.1c-0.3,2.1-0.1,4.2-0.3,6.3c-0.5,5.2-0.5,10.6-1.9,15.5
	c-3.5,11.7-11,15.5-21.4,13.7c-2.8-0.5-5.9-2.6-7.8-4.8c-4.2-4.9-6.8-10.5-4.8-17.3c0.4-1.5,0.7-3.1,0.7-4.6
	c0.2-11.3,3.2-22.1,5.3-33.1c1.5-7.7,2.9-15.3,4.3-23c1.5-8.2,3-16.4,4.3-24.6c0.6-3.4,0.4-6.8,1.2-10.1c1.6-7,3.7-14,5.5-21
	c0.3-0.4,0.6-0.8,0.8-1.2C41.3,50,41.1,50.4,40.9,50.9z"/>
</svg>
