<?xml version="1.0" encoding="utf-8"?>
<!-- Generator: Adobe Illustrator 21.0.2, SVG Export Plug-In . SVG Version: 6.00 Build 0)  -->
<svg version="1.1" id="Layer_1" xmlns="http://www.w3.org/2000/svg" xmlns:xlink="http://www.w3.org/1999/xlink" x="0px" y="0px"
	 viewBox="0 0 82 200" style="enable-background:new 0 0 82 200;" xml:space="preserve">
<path d="M28.8,66.2c-8.2,2.4-15.5,2.5-20.4-6C7,52.3,9.6,46.4,16.7,42c4.2-2.6,7.7-6.6,11.1-10.3c5.8-6.4,13.1-10.5,20.4-15
	c10.4-6.4,25.3-1.1,26.6,15.5c0.5,6.4-1.3,12.3-3.1,18.3c-3.1,10.4-5.3,21-6.7,31.8c-2,15.2-2.7,30.5-3.9,45.8
	c-0.8,11-1,21.9-1.6,32.9c-0.5,8.5-4,15.8-11,20.9c-5.1,3.8-10.9,4.8-16.7,1.5c-5.6-3.2-10.5-6.8-10.4-14.3
	c0.2-9.2-0.8-18.5,0.4-27.5c1.5-11,0.9-22,1.9-32.9C25,95.5,27.2,82.3,29,69C29.2,68.2,28.9,67.2,28.8,66.2z"/>
</svg>
