<?xml version="1.0" encoding="utf-8"?>
<!-- Generator: Adobe Illustrator 21.0.2, SVG Export Plug-In . SVG Version: 6.00 Build 0)  -->
<svg version="1.1" id="Layer_1" xmlns="http://www.w3.org/2000/svg" xmlns:xlink="http://www.w3.org/1999/xlink" x="0px" y="0px"
	 viewBox="0 0 78 200" style="enable-background:new 0 0 78 200;" xml:space="preserve">
<path d="M37.1,52.4c-6.6,3-12.4,5.9-18.4,8.3c-3.7,1.5-9-0.4-10.8-3.3c-1.8-2.8-0.7-8.1,3.1-10.7c4.6-3.2,6.9-7.8,10.1-12.1
	c4.5-6.1,10.1-11.3,15.6-16.5c3.6-3.5,7.5-6.7,11.7-9.4C56.2,3.9,66.7,10,67.9,18c1,7.5,4.2,15.2,0.6,23c-0.8,1.8-0.2,4.4-0.2,6.6
	c0,2.7,0,5.4,0,8.1c0,2.7,0,5.4,0,8.1c-0.8,40.9,3.1,84.6-14.5,122.2c-2.3,2.5-5.4,4.4-9.3,5.5c-5.3,1.5-10.6,0.6-14.7-2.1
	s-7-7.1-7.5-12.6c1.5-36.1,11.7-69.5,12.4-105.7c0.6-5.2,1.6-10.5,2.7-15.7C37.7,54.6,37.2,53.6,37.1,52.4z"/>
</svg>
