<?xml version="1.0" encoding="utf-8"?>
<!-- Generator: Adobe Illustrator 21.0.2, SVG Export Plug-In . SVG Version: 6.00 Build 0)  -->
<svg version="1.1" id="Layer_1" xmlns="http://www.w3.org/2000/svg" xmlns:xlink="http://www.w3.org/1999/xlink" x="0px" y="0px"
	 viewBox="0 0 100 200" style="enable-background:new 0 0 100 200;" xml:space="preserve">
<path d="M53.5,34c-8.5,3.1-16.1,6.6-20.4,15.2c-1.8,3.6-5.2,3.5-8.4,2.9c-3.4-0.6-5.7-3.1-6.3-6.6c-0.8-5.1-0.2-9.9,3.3-14
	c7.4-8.5,16.4-15,27-17c11.4-2.1,23.5,1.1,28.6,17.8c2.9,9.7,2.8,19.5-0.5,29.1c-4.1,12-7.9,24.2-12.9,35.8c-4.8,11-11,21.3-16.5,32
	c-2.8,5.4-5.2,11-8.2,17.2c2.6,0,4.5,0.4,6.2-0.1c9-2.3,18-4.9,27-7.2c7-1.7,17.1,4.7,19.6,12c2.6,7.7-0.8,15.5-8,20.1
	c-6.8,4.3-14.4,3.9-21.7,5.2c-7,1.3-14.1,2.1-20.9,4.9c-6.4,2.7-13.2,3.8-20.2,3.5c-9.2-0.4-15-8.7-13.3-18.3
	c2.2-12.6,5.3-24.9,10.5-36.6c2.1-4.7,4.4-9.4,6.8-14c9.5-17.4,20-34.2,25.6-53.6c1.3-4.4,3.8-8.4,4.8-12.8
	C56.7,44.7,58.3,39.3,53.5,34z"/>
</svg>
