<?xml version="1.0" encoding="utf-8"?>
<!-- Generator: Adobe Illustrator 21.0.2, SVG Export Plug-In . SVG Version: 6.00 Build 0)  -->
<svg version="1.1" id="Layer_1" xmlns="http://www.w3.org/2000/svg" xmlns:xlink="http://www.w3.org/1999/xlink" x="0px" y="0px"
	 viewBox="0 0 100 200" style="enable-background:new 0 0 100 200;" xml:space="preserve">
<path d="M56.6,49.9c-8.5-1-16.3,0.7-23.5,6.8c-4.8,4-10.3,3.8-15.2,0c-4.4-3.4-5.8-8.7-5.6-14.8c0.1-7.2,3.4-12.2,8.1-15.6
	c7-5.2,14.6-9,22.9-10.6c7-1.3,13.8-2.5,21.2-0.4C78.6,19.2,91.7,36.3,91,53c-0.3,7.3-0.1,14.6-3.1,21.4c-1.2,2.9-1.7,6.3-2.3,9.5
	c-1.2,6.9-3.5,13.2-6.9,19c-6.2,10.7-12.5,21.4-18.7,32.2c-1.5,2.7-2.5,5.7-4.2,9.7c3-0.6,5.1-1,7.3-1.4c8.5-1.8,16.6-1.6,23.1,6.6
	c4.7,6,4.1,17.4-1.4,22.3c-3.6,3.3-7.9,5.2-12.3,6.5c-8.8,2.6-17.9,3.8-26.3,8c-4.7,2.4-9.4,4.9-14.2,6.8c-10.3,4-20.6-4.5-21.3-17
	c-0.9-15,3.6-27.9,11.1-39.7c0.9-1.3,2.2-2.4,2.7-3.9c7.2-18.5,18.2-34.4,27.4-51.5c1-1.9,1.8-4.1,2.3-6.3
	c1.4-5.7,2.3-11.5,3.9-17.2C58.8,54.7,58.5,52.3,56.6,49.9z"/>
</svg>
