<?xml version="1.0" encoding="utf-8"?>
<!-- Generator: Adobe Illustrator 21.0.2, SVG Export Plug-In . SVG Version: 6.00 Build 0)  -->
<svg version="1.1" id="Layer_1" xmlns="http://www.w3.org/2000/svg" xmlns:xlink="http://www.w3.org/1999/xlink" x="0px" y="0px"
	 viewBox="0 0 100 200" style="enable-background:new 0 0 100 200;" xml:space="preserve">
<path d="M38.6,158.1c5.4-1.2,9.2-1.9,12.9-2.7c7.5-1.8,14.9-3.7,22.4-5.4c4.5-1,9.1,0.1,13.1,2.1c8,3.9,9.3,16.7,3.1,23.3
	c-3.6,3.8-8.3,5.4-12.8,6.2c-14.5,2.7-28.9,6.2-43.3,9.6c-3.9,0.9-8.5,0.6-12.5-0.5c-9.2-2.8-12.9-8.4-13.1-18.8
	c-0.2-10.3-1-20.8,3.7-30.5c2.3-4.7,4.9-9.2,7.1-14c3-6.4,5.7-13,8.5-19.6c3.8-9.2,8.6-17.9,14.2-26c6.2-9,8.9-19.6,13-29.6
	c1.5-3.6,0.9-7.3-1-10.8c-2.8-5.4-3.6-5.9-9.8-4.5c-1.2,0.3-2.4,0.4-3.5,0.5c-5.5,0.3-9.4,2.8-12.2,8c-2.8,5.1-9.1,5.1-12.8,0.6
	c-3.5-4.3-3.5-10.4,0.2-15.2c5.5-7.3,13.2-10.3,21.5-12.2c2.9-0.7,5.8-1.4,8.7-1.7c7.4-0.7,14.4,0.8,20,6
	c7.2,6.6,11.5,15.1,11.5,25.5c0,8.1-0.9,15.9-2.7,24c-2.6,11.5-7.5,21.5-12.7,31.6c-5.6,11-10.2,22.5-15.3,33.7
	c-2,4.5-4.3,8.9-6.2,13.5C39.8,152.9,39.5,154.7,38.6,158.1z"/>
</svg>
