<?xml version="1.0" encoding="utf-8"?>
<!-- Generator: Adobe Illustrator 21.0.2, SVG Export Plug-In . SVG Version: 6.00 Build 0)  -->
<svg version="1.1" id="Layer_1" xmlns="http://www.w3.org/2000/svg" xmlns:xlink="http://www.w3.org/1999/xlink" x="0px" y="0px"
	 viewBox="0 0 112 200" style="enable-background:new 0 0 112 200;" xml:space="preserve">
<path d="M41.5,29.3c-0.3,2.8-0.2,5-0.8,7.1c-1.4,5.2-8.7,7.9-13.6,5c-6.8-4.1-8.6-10.2-6-17.7c2.3-6.8,7.3-11.1,13.2-14
	c9.5-4.7,19.9-6.2,30.2-4.2c7,1.4,14,4.5,18.4,10.5c4.9,6.7,6.7,14.7,4.8,23c-2.1,9.4-5,18.6-9.7,27.1c-0.6,1-0.8,2.3-1.3,3.7
	c4.7,3.3,9.2,6.5,13.8,9.5c5.6,3.6,9.4,8.8,11,14.8c3.1,11.7,6.5,23.4,2.3,35.8c-2.3,6.7-2.2,14.2-6.1,20.4
	c-2.6,4.3-5.1,8.7-8.4,12.4c-7.7,8.6-15.3,17.5-25.3,23.6c-14,8.6-29.4,10.3-45.3,8.6c-6.4-0.7-13.9-10.8-13.8-17.1
	c0.1-7.2,5.8-14.8,13-16.7c4.2-1.1,8.6-1.7,12.9-2c8.4-0.7,15.7-3.6,22.1-9.1c3.3-2.9,6.8-5.6,10-8.6c7.5-7,8.8-16.9,12-25.9
	c0.7-2.1-2.1-14.7-3.2-16.2c-4.9-6.1-10.3-7.7-18.2-5c-3.8,1.3-7.5,2.9-11.3,4.1c-6.2,2.1-11.3,0.9-14.2-3.1
	c-3.3-4.6-3.2-11.2,0.5-15.8c1.5-1.9,3.8-3.1,5.9-4.5c2.1-1.4,4.2-2.8,6.4-3.9c10.7-5.4,16.4-14.9,20.8-25.4
	c1.1-2.6,1.7-5.3,2.9-7.9c1.5-3.3,2.7-6.9,0.3-9.7c-2.7-3.1-7.1-4.4-11.1-3.6C49.4,25.5,45.5,27.6,41.5,29.3z"/>
</svg>
