<?xml version="1.0" encoding="utf-8"?>
<!-- Generator: Adobe Illustrator 21.0.2, SVG Export Plug-In . SVG Version: 6.00 Build 0)  -->
<svg version="1.1" id="Layer_1" xmlns="http://www.w3.org/2000/svg" xmlns:xlink="http://www.w3.org/1999/xlink" x="0px" y="0px"
	 viewBox="0 0 116 200" style="enable-background:new 0 0 116 200;" xml:space="preserve">
<path d="M41.4,64.9c3.1-2.8,6.8-6.2,10.6-9.5c4.8-4.2,7.3-9.4,6.3-16.3C46.6,35.3,41.9,45.5,34,51.7c-1.2,0-3.4,0.1-5.6,0
	c-4.6-0.4-7.6-3.2-8.1-7.5c-0.7-6.2,0.3-11.4,5.4-16.1C38.1,16.6,52.1,12.9,68,17.7c8.6,2.6,16.5,12.2,15.1,20.5
	c-0.5,3.4-0.7,6.8-1.4,10.2c-0.9,4.5-0.7,5.6,3.8,6.9c6.5,2,11.9,5.3,16.4,10.4c5,5.6,7.8,11.8,7.9,19.5c0.2,13.9-1.1,27.3-5.6,40.6
	c-3.6,10.5-9.4,19.1-17.8,26c-8.3,6.7-16.6,13.4-25.3,19.5c-7.4,5.1-15,10.4-23.9,12.5c-8.8,2.1-17.2,2.2-24.4-5.3
	c-9.9-10.2-4.9-25,6.8-27.4c13.8-2.9,24.6-10.3,35.8-17.6c2.1-1.4,4-3.1,6.2-4.2C71.7,124.2,76,115,79,104.9c1.3-4.5,2-9.1,3.3-13.6
	c2.4-8.2-1.4-13.9-10.2-13.3c-4.5,0.3-8.5,1.1-12.4,3.6c-8.8,5.7-18.3,0.6-18.6-9.6C41.1,70.1,41.3,68.2,41.4,64.9z"/>
</svg>
