<?xml version="1.0" encoding="utf-8"?>
<!-- Generator: Adobe Illustrator 21.0.2, SVG Export Plug-In . SVG Version: 6.00 Build 0)  -->
<svg version="1.1" id="Layer_1" xmlns="http://www.w3.org/2000/svg" xmlns:xlink="http://www.w3.org/1999/xlink" x="0px" y="0px"
	 viewBox="0 0 112 200" style="enable-background:new 0 0 112 200;" xml:space="preserve">
<path d="M73.7,87.6c-6,1.5-10.1,2.7-14.3,3.4c-5.5,1-9-2.5-11.5-6.6c-2.3-3.6-0.6-11.4,2.5-14.9c3.5-4,6.4-8.7,10.6-11.9
	c5.3-4,5-9.9,6.5-15.1c1.3-4.4-2.8-8.9-7.3-8.6c-6,0.3-11.5,2.2-16.3,6.1c-5.3,4.3-9.3,4.6-13.3,1c-4.9-4.3-5.5-8.1-2.5-14.2
	c1.9-3.8,4.5-6.8,8.5-8.4c6.6-2.5,13.2-5.7,20.1-7.1c17.4-3.6,34,10.3,34.5,28c0.3,8.5-0.5,16.8-4.3,24.6c2.8,2.6,5.6,4.6,7.8,7.1
	c5.5,6.1,10.3,12.4,9.9,21.5c-0.3,6.5,1.5,13.1,1.5,19.6c-0.1,7.5-0.7,15-2.1,22.4c-1.3,6.8-4.7,12.9-9.3,18.1
	c-13.4,14.8-29,26.9-47.8,34.2c-8.2,3.2-16.8,4.4-25.6,1.1c-5.6-2.1-10-5.5-13.2-10.2c-6.8-9.9-0.6-25.9,14.3-27.9
	c1.6-0.2,3.2-0.2,4.7,0c7.9,1.2,14.8-1.5,21.4-5.5c4.5-2.8,8.8-5.9,13.6-8.3c10-5,12.7-13.9,13.6-23.9c0.5-5.3,1.3-10.6,1.1-15.9
	C76.6,93.1,74.7,90.1,73.7,87.6z"/>
</svg>
