<?xml version="1.0" encoding="utf-8"?>
<!-- Generator: Adobe Illustrator 21.0.2, SVG Export Plug-In . SVG Version: 6.00 Build 0)  -->
<svg version="1.1" id="Layer_1" xmlns="http://www.w3.org/2000/svg" xmlns:xlink="http://www.w3.org/1999/xlink" x="0px" y="0px"
	 viewBox="0 0 152 200" style="enable-background:new 0 0 152 200;" xml:space="preserve">
<path d="M91.3,107c-17.9,5.1-34.8,10.3-51.9,14.6c-5.2,1.3-11,0.8-16.5,0.3c-8.2-0.9-13.4-9.8-10.8-18.1c0.9-3.1,2.9-5.8,4.2-8.8
	c8.7-18.8,21.2-35.1,31.9-52.6c3.9-6.3,8.7-12,13.2-18c1.8-2.4,4.2-4.2,4.3-7.7c0-1,1.2-2.1,2-2.9C70.5,10.8,73,7,77.8,8.3
	c4,1.1,8.1,7.7,8.7,12.5c0.9,7.9-2.7,14.2-6.4,20.2c-9.1,15-18.7,29.7-28,44.6c-0.4,0.7-0.5,1.6-1,3.5c18.3-3.9,35.6-9.6,54.2-13.7
	c1.1-4.1,2.4-9,3.8-13.8c1.4-4.9,3.4-9.6,6.5-13.6c3.9-5.1,8.7-6.2,13.7-3.5c3.9,2.1,5.4,5.1,4.7,10c-0.6,4.1-1.6,8.2-2.1,12.4
	c-0.3,3-0.1,6.1-0.1,9.7c4.2,1.8,7.1,5.3,8.1,9c-0.2,11.2-8.1,13.2-15.3,16.9c-5.7,14.9-11.6,30.2-17.3,45.6
	c-3.8,10.3-7.1,20.8-10.5,31.3c-1.9,6-4.6,10.7-11,12.6c-8.8,2.6-16.2-2.3-17-11.8c-0.7-8.6,0.7-16.9,3.7-24.8
	C78.5,139.6,84.8,123.8,91.3,107z"/>
</svg>
