<?xml version="1.0" encoding="utf-8"?>
<!-- Generator: Adobe Illustrator 21.0.2, SVG Export Plug-In . SVG Version: 6.00 Build 0)  -->
<svg version="1.1" id="Layer_1" xmlns="http://www.w3.org/2000/svg" xmlns:xlink="http://www.w3.org/1999/xlink" x="0px" y="0px"
	 viewBox="0 0 120 200" style="enable-background:new 0 0 120 200;" xml:space="preserve">
<path d="M76.3,96.4c-5.7,0.5-10.3-0.9-14.9,1.3c-1,0.5-2.5,0.3-3.7,0.3c-11,0-21.6,2.4-32.2,5.3c-5.4,1.5-11.2,2.2-15.6-3.3
	c-2.5-3.1-3.3-6-1.5-9.5c0.7-1.4,1.3-2.9,2.3-4c12-12.8,21.4-27.7,32.2-41.5c3.1-4,6.3-7.8,9.7-11.5c3-3.3,5.9-6.6,6.4-11.3
	c0.1-0.6,0.5-1.2,0.8-1.7c2.6-4.3,6.5-6.6,9.9-6c3.6,0.7,6.3,4.9,6.2,10.4c0,7.8-3,14.6-7.4,20.8C60.9,56,53.3,66.2,45.4,77
	c13.1,0,25.7,0,39.4,0c0.8-2.4,1.8-5.2,2.5-8.1C88.8,62.8,91,57,95,52.1c1.5-1.8,3.7-3.4,5.8-4.5c5.1-2.4,9-0.1,11.4,5.5
	c2.9,6.5,0.9,13,1,19.5c0,1.2-1,2.3-1.1,3.5c-0.3,6.9-1.4,13.4-3.4,20.1c-2.2,7.6-4.7,15.4-6.2,23.3c-2.5,12.8-6.5,25.2-8.1,38.2
	c-1,7.9-2.9,15.6-6.5,23.1c-4.2,8.6-20.6,8.8-24.1,0c-1.6-4.1-3.2-7.9-3.5-12.4c-0.9-14.3,3-27.8,6.8-41.4
	C69.9,117.2,72.9,107.5,76.3,96.4z"/>
</svg>
