<?xml version="1.0" encoding="utf-8"?>
<!-- Generator: Adobe Illustrator 21.0.2, SVG Export Plug-In . SVG Version: 6.00 Build 0)  -->
<svg version="1.1" id="Layer_1" xmlns="http://www.w3.org/2000/svg" xmlns:xlink="http://www.w3.org/1999/xlink" x="0px" y="0px"
	 viewBox="0 0 130 200" style="enable-background:new 0 0 130 200;" xml:space="preserve">
<path d="M54.7,58.4c12.6,2.7,23,5.9,31.8,13.1c9.3,7.6,15.1,18.1,20.5,28.9c0.1,0.3,0.2,0.6,0.2,1c-0.3,10.5,0.7,21.2-1.2,31.4
	c-3.1,16.8-14.2,27.8-28.1,36.1C61,179,42.7,182.2,23.6,180.3C10.9,179,3,168.9,4.5,156c0.6-5,4.3-7.5,9.3-6.5
	c22.8,4.6,44.4,2.3,63.9-12.2c1.3-0.9,3-1.5,3.8-2.8c5.6-9.4,8.8-19.8,4.3-30.4c-4.5-10.7-11.7-19.1-23.1-23
	c-4.7-1.6-8.6-0.9-12.2,1.3c-3.8,2.2-7.1,5.4-10.4,8.3c-3.2,2.9-6.6,4.8-11,4.6C22.5,95,18.9,90,20.6,83.5c1-3.9,2.5-7.4,5.7-9.9
	c5.5-4.3,7.9-10.9,11.5-16.6c1.1-1.8,1-5.2,0.1-7.3c-1.8-4.4-0.7-7.5,2.2-10.6c3.6-3.7,7.2-7.1,11.9-9.5c11-5.5,22.6-8.8,34.4-11.7
	c6.3-1.6,12.7-2.9,18.8-5.2c5.1-1.9,9.6,0.1,13.3,2.4c10.1,6.2,6.6,19.1-0.7,23.7c-4.7,3-10.1,5.1-15.5,6.5
	c-7.2,1.9-14.7,2.7-22,4.2c-7,1.4-13.7,4.3-21,4.3C58.1,53.8,56.9,56.2,54.7,58.4z"/>
</svg>
