<?xml version="1.0" encoding="utf-8"?>
<!-- Generator: Adobe Illustrator 21.0.2, SVG Export Plug-In . SVG Version: 6.00 Build 0)  -->
<svg version="1.1" id="Layer_1" xmlns="http://www.w3.org/2000/svg" xmlns:xlink="http://www.w3.org/1999/xlink" x="0px" y="0px"
	 viewBox="0 0 108 200" style="enable-background:new 0 0 108 200;" xml:space="preserve">
<path d="M5.3,159.4c3.7-7.5,10.9-8.3,17.7-8.8c7.4-0.6,13.2-3.6,18.2-8.6c2.7-2.7,5.2-5.5,8-8.1c5.3-4.8,8.4-10.8,10.1-17.6
	c1-4.2,2.1-8.4,2.6-12.7c0.3-2.3-0.7-4.8-1.2-7.2c-0.8-3.6-3.3-4.7-6.9-5.1c-6.1-0.6-11.9,1.1-17.4,2.9c-6.2,2-11.1-0.2-15.9-2.8
	c-5-2.8-6.5-14-2.3-19.1c4.1-5,6.5-10.5,8.7-16.4c4-10.6,11.6-17.8,22.4-21.3c10.3-3.3,20.7-6.4,31.2-9.1c3.6-0.9,7.6-0.7,11.3-0.4
	c5,0.5,9.8,4.5,10.4,8.3c0.9,5.6-0.2,10.6-5,14.3c-4.6,3.6-10.1,4.8-15.6,5.7C71.6,54.8,62,58,51.9,57.5c-4.5-0.2-5.7,2.4-6.3,10.9
	c4.6,0.2,9.5-0.3,13.9,0.8c17.2,4.3,23.8,13.9,25.2,30.6c0.9,11.6-0.8,23.5-4.9,34.9c-1.9,5.2-5,9.4-8.1,13.5
	c-6.3,8.6-12.5,17.3-21.8,23.1c-7.9,4.9-16.1,7.9-25.6,7.7C11.2,178.7,5,172.4,5.3,159.4z"/>
</svg>
