<?xml version="1.0" encoding="utf-8"?>
<!-- Generator: Adobe Illustrator 21.0.2, SVG Export Plug-In . SVG Version: 6.00 Build 0)  -->
<svg version="1.1" id="Layer_1" xmlns="http://www.w3.org/2000/svg" xmlns:xlink="http://www.w3.org/1999/xlink" x="0px" y="0px"
	 viewBox="0 0 138 200" style="enable-background:new 0 0 138 200;" xml:space="preserve">
<path d="M61.8,59.9c-1.1,4-1.8,7.4-2.9,10.5c-1,2.9-2.5,5.6-3.9,8.9c2.9,2.1,6.1,1.2,9,1c7.3-0.5,12.9,2.5,17.1,8.1
	c4.3,5.7,6.9,12.2,8.7,19.4c2.4,9.6,0,18.7-0.7,27.8c-0.5,5.3-2.9,10.8-5.6,15.6c-8.1,14.4-20.8,23.8-36.6,27.3
	c-11.8,2.6-24.4,3.4-35.3-4.7c-8.2-6.1-10.1-16.6-3.8-24.7c1.5-2,4.5-3.6,7-3.8c4-0.4,8.3-0.1,12.1,1.1c10.4,3.2,27.1-2.1,34.3-12.3
	c2-2.9,2.8-6.9,3.3-10.5c0.6-4.4,0.4-8.9,0.1-13.3c-0.3-4.2-3-6.6-7.5-6.7c-7-0.2-13.9,0-20.9-0.1c-6.6-0.1-11.6-3-13.8-9.3
	c-1-2.8-1.6-6.4-0.7-9c1.8-4.9,4.3-9.9,7.7-13.8C34.3,66,37.5,59.8,39.9,53c2.8-8,7.5-13.4,16.7-14.2c3.6-0.3,6.9-2.8,10.5-3.5
	c10.6-2.2,21.3-4.1,32-6c4.6-0.8,9.2-1.2,13.9-1.7c5.7-0.6,10.3,2.2,14.8,5.1c4,2.7,4.1,4.3,2.1,8.7c-3.8,8.6-11.4,11.4-19.6,12.5
	c-13.6,1.8-27.4,2.7-41,4.2C66.6,58.4,64,59.4,61.8,59.9z"/>
</svg>
