<?xml version="1.0" encoding="utf-8"?>
<!-- Generator: Adobe Illustrator 21.0.2, SVG Export Plug-In . SVG Version: 6.00 Build 0)  -->
<svg version="1.1" id="Layer_1" xmlns="http://www.w3.org/2000/svg" xmlns:xlink="http://www.w3.org/1999/xlink" x="0px" y="0px"
	 viewBox="0 0 100 200" style="enable-background:new 0 0 100 200;" xml:space="preserve">
<path d="M29.2,125.4c5.7-2.8,10.5-4,15.8-4.2c10.4-0.3,19.3,3.5,27.7,8.8c5.7,3.6,9.2,8.7,8.4,16c-0.1,1.4-0.1,2.8,0,4.2
	c0.6,18.3-9.8,30.1-23.8,39.1c-6.3,4-14.5,3.6-21.8,2.4c-16.9-2.8-25.4-15-31.1-29.8c0-8.4-1.2-17,0.3-25.1
	c2.1-11.8,6-23.3,9.4-34.7C19.7,83.3,28.9,66.6,41,51.3c7.4-9.4,15.2-18.3,23.8-26.6c5.5-5.3,11-10.6,16.9-15.4
	c4.2-3.4,9.8-2.7,12.6,0.6c2.2,2.6,2.2,3.9,0,6.6c-5,6.2-10,12.3-15,18.5c-4.9,6-10,11.8-14.6,18c-8.4,11.3-17.1,22.3-23.1,35.1
	C36.3,99.5,32.4,111.5,29.2,125.4z M26.1,159.4c1.5,2.2,2.8,4.3,4.3,6.3c4,5.3,12.6,8.2,18.3,5.5c7.8-3.7,13-10,15-18.6
	c0.7-3-1.9-6.8-4.9-7.5c-2.9-0.7-5.8-1.4-8.8-1.8c-3.8-0.4-7.5,0.1-11.3,1.6C32.3,147.6,29.7,153.3,26.1,159.4z"/>
</svg>
