<?xml version="1.0" encoding="utf-8"?>
<!-- Generator: Adobe Illustrator 21.0.2, SVG Export Plug-In . SVG Version: 6.00 Build 0)  -->
<svg version="1.1" id="Layer_1" xmlns="http://www.w3.org/2000/svg" xmlns:xlink="http://www.w3.org/1999/xlink" x="0px" y="0px"
	 viewBox="0 0 106 200" style="enable-background:new 0 0 106 200;" xml:space="preserve">
<path d="M34.2,130.6c8.9-7.9,17.1-13.9,27.4-15c14.4-1.6,33.7,3.3,38.3,19.7c3.4,12.3,1.5,24.3-5.8,34.9
	c-9,13.1-21.5,19.1-37.5,18.9c-10.7-0.1-20.4-2-29.2-8.3c-9.7-6.8-14.8-16.7-19.1-27.1c-1.5-3.6-1.6-7.9-2.2-11.9
	c-0.5-3.1-0.9-6.1-1.3-9.2c-0.2-1.2-0.4-2.5-0.2-3.7C6.4,115.1,6.4,101,12.7,88c7-14.4,15.1-27.9,25-40.6
	c7.3-9.5,14.9-18.7,23.7-26.8c2.7-2.5,5.8-4.7,8.8-7c1-0.7,2.2-1.1,3.3-1.6c4-1.7,8.2-1.1,11,1.8c2.9,2.9,2.2,6.9,0,10.4
	c-3.4,5.2-6.7,10.6-10.3,15.6C63.1,55.3,52.1,70.9,44.1,88.3c-3.5,7.6-6.6,15.5-8.8,23.5C33.9,117.1,34.6,123,34.2,130.6z
	 M74.1,143.4c-3-0.5-6.3-2-8.8-1.2c-8.3,2.6-15.5,6.9-19,15.7c4.5,3.9,9.4,1.9,13.9,2.5c5.5,0.7,8.6-2.8,12-6.1
	C75.3,151.2,74.8,147.6,74.1,143.4z"/>
</svg>
