<?xml version="1.0" encoding="utf-8"?>
<!-- Generator: Adobe Illustrator 21.0.2, SVG Export Plug-In . SVG Version: 6.00 Build 0)  -->
<svg version="1.1" id="Layer_1" xmlns="http://www.w3.org/2000/svg" xmlns:xlink="http://www.w3.org/1999/xlink" x="0px" y="0px"
	 viewBox="0 0 100 200" style="enable-background:new 0 0 100 200;" xml:space="preserve">
<path d="M77.6,24.4c0.7,12.6-5.7,21.9-12.2,30c-8,9.9-13.7,21.2-19.5,32.6c4.1-0.2,8.2-0.5,12.2-0.7c9.8-0.5,18.5,3.2,25.9,9.6
	c6.9,6,10.6,14.7,9.5,26.5c-0.3,3.5-0.9,7-1,10.4c-0.6,13.8-6.6,25.4-14.3,35c-6.4,8-14.5,13.3-23.7,13.6
	c-8.9,0.3-17.4-0.2-25.3-4.4c-12.8-6.9-19.3-20-22.6-36.4c-1.1-5.1-0.3-10.4-0.1-15.7c0.4-13.3,4.7-25.4,10.3-37.1
	C22.7,75,29.9,63.1,37.2,51.3c1.5-2.4,3.4-4.3,5.2-6.3c6.4-7.2,12.9-14.4,19.4-21.5c1.2-1.3,2.4-2.7,3.8-3.7c4.4-3.1,6.9-2.7,10,1.3
	C76.4,22.2,77,23.5,77.6,24.4z M34.5,136.4c3.5,8.2,9.1,11.7,16,12.6c8.1,1,12-2.3,15.6-12.3c0.3-0.9,0.6-1.8,0.9-2.7
	c2-6.2,1.1-11-3.7-12.2c-5.1-1.3-10.8-0.9-16.3-0.6c-1.3,0.1-3,2.3-4.2,3.9C39.9,128.7,37.3,132.4,34.5,136.4z"/>
</svg>
