<?xml version="1.0" encoding="utf-8"?>
<!-- Generator: Adobe Illustrator 21.0.2, SVG Export Plug-In . SVG Version: 6.00 Build 0)  -->
<svg version="1.1" id="Layer_1" xmlns="http://www.w3.org/2000/svg" xmlns:xlink="http://www.w3.org/1999/xlink" x="0px" y="0px"
	 viewBox="0 0 117 200" style="enable-background:new 0 0 117 200;" xml:space="preserve">
<path d="M78.9,87.1c4.6,0,8,0.3,11.4-0.1c5.4-0.5,10,1.6,14.2,4.2c9.5,6,9.6,19.2,0.6,25.5c-4.3,3-9.2,5.1-14.9,4.9
	c-9.8-0.4-19.6-0.1-29.6-0.1c-5.9,8.6-10.5,17.7-13.8,27.5c-3.2,9.4-6.5,18.7-9.3,28.2c-1.1,3.7-2.7,7-5.5,9.6
	c-4.7,4.4-11.3,4.4-16,0c-7.1-6.5-6.7-15-4.5-22.8c3.8-13.4,9.1-26.3,14-40.4c-1.2-0.5-3-1.5-4.8-2.1c-2.3-0.7-4.9-0.8-7.2-1.8
	c-4.5-1.9-8.3-4.6-8.5-10.1c-0.3-6,2.5-10.5,7.8-12.9c5.3-2.4,11-4.1,16.7-5.7C33.6,90,38,89.8,42.3,89c3.1-0.6,5.5-2,7.2-5.2
	C55.3,73.1,61.4,62.6,67.4,52c2.5-4.3,4.8-8.7,7.5-13.6c-5.8-2.1-10.9,1-16,2.1c-14,3-28,3.6-42.1,3c-6-0.3-8.5-2.6-10.1-7.8
	c-1.6-5.3,1-9,6.4-9.5c4.6-0.4,8.8,1.1,13.6,0.8c19.4-1.6,38-6.4,56.6-11.2c3.9-1,7.2-1,10.8,0.9c4,2.1,6,5,6.1,9.7
	c0.2,9.9-2.6,19.1-6.5,28C89,65.1,84.1,75.7,78.9,87.1z"/>
</svg>
