<?xml version="1.0" encoding="utf-8"?>
<!-- Generator: Adobe Illustrator 21.0.2, SVG Export Plug-In . SVG Version: 6.00 Build 0)  -->
<svg version="1.1" id="Layer_1" xmlns="http://www.w3.org/2000/svg" xmlns:xlink="http://www.w3.org/1999/xlink" x="0px" y="0px"
	 viewBox="0 0 100 200" style="enable-background:new 0 0 100 200;" xml:space="preserve">
<path d="M32.3,126.3c-3.7-1.1-6.2-2.1-8.6-2.6c-7.8-1.6-10.2-3.9-14.1-14c1.4-10,6.7-14.1,13.5-15.5c5.3-1.1,10.7-1.9,16.1-2.2
	c4.5-0.3,8-2.3,10.6-7.2C56.3,72.6,62.3,60.1,67,46.5c0.4-1.1,0.2-2.6,0.3-4C45,44,38.8,51.7,8.8,45.3c-0.6-2.3-2.9-3.5-1.5-7.1
	c1.2-3,2.3-5.2,5.1-5.5c3.8-0.4,7.6-1.3,11.5-1.9c4.9-0.8,9.8-0.9,14.5-2.4c10.5-3.3,21.3-4.6,32-6.3c2.5-0.4,5.1-1.5,7.4-1
	c3,0.6,6.7,1.9,7.6,6.2c0.9,4.4,2.5,8.6,1.8,13.9c-1.9,14.8-5.3,28.7-10.3,42c-0.3,0.8,0,2.1,0,3.1c3.7,1.5,7.3,3,10.9,4.6
	c7.3,3.3,8.6,16.9,2.1,23.8c-4.3,4.6-9,7.7-14.9,7.2c-4.3-0.4-8.7,1.1-13.1,1.7c-5.2,14.7-10.2,29.5-15.7,43.9
	c-2.6,6.7-5.7,13.2-9.2,19.2c-3.3,5.7-7.9,7.1-13,4.5c-4.9-2.5-8-8.9-8.4-15.9c-0.4-6.3,1.4-11.6,3.5-16.8
	C23.2,148.2,27.5,138,32.3,126.3z"/>
</svg>
