<?xml version="1.0" encoding="utf-8"?>
<!-- Generator: Adobe Illustrator 21.0.2, SVG Export Plug-In . SVG Version: 6.00 Build 0)  -->
<svg version="1.1" id="Layer_1" xmlns="http://www.w3.org/2000/svg" xmlns:xlink="http://www.w3.org/1999/xlink" x="0px" y="0px"
	 viewBox="0 0 110 200" style="enable-background:new 0 0 110 200;" xml:space="preserve">
<path d="M38.8,120.4c-5,0.4-9.2,0.8-13.5,1.1c-3.7,0.2-6.3-2.4-7.2-5.6c-1.1-3.5-1.3-8,2.2-10.4c3.9-2.6,8.1-5.2,12.5-6.7
	c4.7-1.6,9.8-1.8,14.5-2.6c4.8-13.8,9.4-27.2,13.9-40.3c-7,0.3-14.1,0.6-21.1,1c-2.5,0.1-4.9,0.5-7.4,1.2
	c-7.6,1.9-14.9,0.1-22.1-2.2c-2.9-0.9-5.9-2.6-6.1-7c-0.2-5.2-1-10.7,3.9-14c4.8-3.3,10.2-4.6,15.9-5.3c15.4-1.7,31.1-2.3,45.9-8.3
	c3.5-1.4,6.9-3,10.5-4.2c2.9-1,6-1.8,9-2.2c9.4-1.1,15.4,8.2,14.3,19.8c-1.1,12.2-6.9,22.5-10.6,33.7c-3,8.9-6.1,17.8-9.3,26.9
	c2.7,2.4,5.2,4.5,7.8,6.9c0.9,5.4-3.1,8.9-6.3,10c-8.8,3-10,11.3-12.4,18.8c-4.9,15.4-9.2,31.1-14.2,46.5
	c-3.2,9.8-10.5,14.6-19,13.1c-4.1-0.7-7.5-2.7-9.4-7.5c-3.4-8.5-4.5-17.2-2.1-26.1c2.8-10.4,6.2-20.7,9.2-31
	C38.3,124.4,38.5,122.4,38.8,120.4z"/>
</svg>
