<?xml version="1.0" encoding="utf-8"?>
<!-- Generator: Adobe Illustrator 21.0.2, SVG Export Plug-In . SVG Version: 6.00 Build 0)  -->
<svg version="1.1" id="Layer_1" xmlns="http://www.w3.org/2000/svg" xmlns:xlink="http://www.w3.org/1999/xlink" x="0px" y="0px"
	 viewBox="0 0 118 200" style="enable-background:new 0 0 118 200;" xml:space="preserve">
<path d="M73.7,95.7c4.3,5.7,9.4,11.7,13.6,18.4c8.6,13.8,11.9,28.9,6.7,45c-4.4,13.6-14.1,22.1-26,26c-11.6,3.8-23.7,4.5-36,2
	c-10.8-2.2-22.1-12.9-23.7-29.2c-1.4-13.5,3.4-24.5,10.9-34.3c7.9-10.3,16.5-19.8,26.3-27.8c1.3-1.1,2.4-2.6,3.8-4.2
	c-0.9-2.3-1.8-4.6-2.7-6.8C44,79.1,41.7,73.4,38.9,68c-3.3-6.6-3.8-13.7-4-20.9C34.5,36.9,38.7,29.3,45,22.6
	c4.4-4.6,9.4-7.9,14.7-10.8c9.5-5.1,19-5.3,28,1.5c2.9,2.2,5.2,5.4,8.1,7.7c2.7,2.2,5.9,3.7,8.5,6.1c5.2,4.9,6.6,11,5.2,18.5
	c-2.1,10.7-6.7,19.9-13.5,27.5C88.9,81,81.1,88.2,73.7,95.7z M60.8,105.9c-2.2,1.7-4.2,2.9-5.8,4.5c-4.8,4.8-9.2,10.3-14.4,14.5
	c-5.9,4.8-9.3,11.4-13.1,18c-2.4,4.2-2.7,8.8-2.1,13.6c0.7,5.6,3,10,8.5,11.4c12.5,3.2,24.7,2.2,36-4.4c6.6-3.8,9.7-10.5,10-19.1
	c0.3-8.7-2.4-16.1-6.7-22.7C69.4,116.1,65,111.2,60.8,105.9z M90.8,47.3c-3.5-1.3-5.7-2.8-7.7-2.7c-4.7,0.3-7.2-3-10.1-6
	c-3.6-3.7-2.3-8.3-1.6-13.2c-7.5,1.8-13.1,6.5-17.9,12c-2.1,2.4-2.9,5.8-3,9.4C50,60.4,56.6,70.5,62.4,81.2
	C73.8,71.7,85,62.7,90.8,47.3z"/>
</svg>
