<?xml version="1.0" encoding="utf-8"?>
<!-- Generator: Adobe Illustrator 21.0.2, SVG Export Plug-In . SVG Version: 6.00 Build 0)  -->
<svg version="1.1" id="Layer_1" xmlns="http://www.w3.org/2000/svg" xmlns:xlink="http://www.w3.org/1999/xlink" x="0px" y="0px"
	 viewBox="0 0 119 200" style="enable-background:new 0 0 119 200;" xml:space="preserve">
<path d="M50.4,80.4c-3.5-8.7-7.7-17.5-10.5-26.8c-3.2-10.6-3.4-21.2,4.5-30.5c3.2-3.8,5.4-8.3,9.6-11.6c9-7,21.5-10.7,33-3.1
	c2.8,1.9,5.3,2.4,8.9,1.3c5.4-1.6,13.3,2.6,15.7,7.7c2.3,5.1,3.3,10.3,3.2,16.2c-0.2,14.8-7.3,26-16.1,36.8
	c-5.5,6.7-10.5,13.8-16.1,21.2c1.3,3.1,2.9,6.5,4.3,10c5.1,12.3,6.9,25.3,7,38.5c0.1,11.4-1.8,22.4-8.9,31.9
	c-3.6,4.7-6,10.1-11.1,13.8c-7.1,5.2-15.1,6.4-23.5,7.3c-8.4,0.9-16-1-23.2-4.8C17.5,183.4,10.8,175.1,8,165
	c-2.4-8.8-3.5-18.1-1.5-27.5c2.4-11.5,8-21.2,15.8-29.5C31,98.6,40.5,90,50.4,80.4z M61.2,110.3c-8.6,6.4-15.1,14.2-21.5,22
	c-5.8,7.2-5.8,15.5-4,23.8c0.8,3.8,3.6,7.2,7.9,7.6c4.1,0.4,8.5,0.6,12.3-0.6c2.3-0.7,3.7-4.3,5.5-6.6c4.6-5.7,5-12.6,4.9-19.4
	C66.2,128.3,65.7,119.3,61.2,110.3z M83.4,21.9c-7.3-0.7-13.2,1.1-17.1,7.3c-2,3.2-3.9,6.6-5.2,10.2c-0.6,1.7-0.4,4,0.2,5.8
	c1.9,5.2,4.2,10.3,7,17.1c2.6-3.7,4.5-6.7,6.7-9.5c5.3-7,10.1-14,7.8-23.6C82.2,27,83.1,24.6,83.4,21.9z"/>
</svg>
