<?xml version="1.0" encoding="utf-8"?>
<!-- Generator: Adobe Illustrator 21.0.2, SVG Export Plug-In . SVG Version: 6.00 Build 0)  -->
<svg version="1.1" id="Layer_1" xmlns="http://www.w3.org/2000/svg" xmlns:xlink="http://www.w3.org/1999/xlink" x="0px" y="0px"
	 viewBox="0 0 100 200" style="enable-background:new 0 0 100 200;" xml:space="preserve">
<path d="M61.1,70.5c-3.3,2.1-5.8,3.6-8.1,5.3c-2.1,1.5-4.2,2.7-6.5,3.5c-6.6,2.5-13.8,2.3-20.9,1.6c-8.5-0.9-17.3-11-18.2-19.6
	c-0.3-2.8-0.3-5.6-0.1-8.2C7.5,50.5,8,48,8.8,45.6C19,24,42,6,67,9c9,1,17,8,20,16c5,12,6,24,5,36.6c0,2.2,0,4.3,0,6.5
	c0,2.2,0,4.3,0,6.5c0.1,12.5-3.1,24.2-7.4,35.7c-4.2,11.1-8.3,22.3-13.5,32.9c-6.2,12.5-13.3,24.5-20.6,36.3
	c-3.9,6.3-9.7,10.2-17.9,9.9c-11.7-0.5-19.4-10.3-16.4-21.8c0.7-2.9,2.1-5.8,3.7-8.3c12.7-19.8,23.1-40.8,33-62.1
	c1.9-4.1,3.7-8.2,5.2-12.6c0.7-2.2,1.4-4.4,1.9-6.8C60.5,75.4,60.9,73,61.1,70.5z M63.5,34.8C50,26,35,42,30,54c0,2,1,4,3,5
	c13,5,22-9,29.8-17.4C64,40.2,63.3,36.9,63.5,34.8z"/>
</svg>
