<?xml version="1.0" encoding="utf-8"?>
<!-- Generator: Adobe Illustrator 21.0.2, SVG Export Plug-In . SVG Version: 6.00 Build 0)  -->
<svg version="1.1" id="Layer_1" xmlns="http://www.w3.org/2000/svg" xmlns:xlink="http://www.w3.org/1999/xlink" x="0px" y="0px"
	 viewBox="0 0 100 200" style="enable-background:new 0 0 100 200;" xml:space="preserve">
<path d="M63.2,70.9c-2,1.3-4.4,2.2-6,4c-1.6,1.8-3.3,3.3-5.1,4.6c-5.3,3.9-11.4,6-17.4,7.5c-14,3.4-27.1-6-28.2-25.2
	C5.2,37,16.3,22.4,33.4,12.4c13.3-7.9,27.3-7.7,40.2,1.5c1.9,1.3,3.6,2.7,5.3,4.2C101,43,90,81,80.4,108.9c-1,2.7-1.9,5.4-2.7,8.2
	c-5.3,19.6-14.1,37.3-22.2,55.3c-2.9,6.5-7.3,12.8-14,15.3c-13.1,4.9-22.4-5.2-22-17c0.2-6,2.1-10.9,4.8-15.3
	c7.7-12.8,14.2-26.4,20.6-40c3.9-8.3,6.9-17,10.4-25.5c0.9-2.1,1.8-4.2,2.8-6.3C61,79,61,74,63.9,69.1
	C63.7,69.7,63.5,70.3,63.2,70.9z M68.8,39.2c-1.9-1.9-3.9-4-6-5.9c-2.1-1.8-4.5-3.3-6.9-4.1c-2.4-0.8-4.9-0.9-7.4,0
	c-7.7,2.9-15,7.5-19.7,15.6c-1.9,3.3-2.8,7.6-3.2,11.6c-0.2,2.7,1.3,5.6,2,7.9c4.3,0,8.2,1.3,10.8-0.2c3.6-2.1,7.4-4.1,11-6.3
	c1.8-1.1,3.6-2.3,5.4-3.5c3.3-3.3,7.3-5.3,9.8-9C66,43.4,67.4,41.4,68.8,39.2z"/>
</svg>
