<?xml version="1.0" encoding="utf-8"?>
<!-- Generator: Adobe Illustrator 21.0.2, SVG Export Plug-In . SVG Version: 6.00 Build 0)  -->
<svg version="1.1" id="Layer_1" xmlns="http://www.w3.org/2000/svg" xmlns:xlink="http://www.w3.org/1999/xlink" x="0px" y="0px"
	 viewBox="0 0 100 200" style="enable-background:new 0 0 100 200;" xml:space="preserve">
<path d="M73.2,63.5c-2.7,2.1-4.2,3.1-5.6,4.3c-9,7.5-19,12.3-30.6,13.3c-5.2,0.5-10.1,2.2-15.5,0c-10.7-4.3-18-18.8-15-30.4
	c3.1-11.8,10-20.7,18.6-28.1C35.2,13.8,47.2,8.2,59.8,6.7c18.1-2.2,27.6,4.1,32.4,24.5c3.5,15.1,3,30.6,1.7,45.9
	c-0.8,9-4.3,17.7-6.8,26.5c-1.3,4.7-3.1,9.3-4.4,14c-3.5,12.8-10,24.1-16.1,35.6c-3.2,6.1-6.5,12.1-10.3,17.8
	c-2.9,4.3-6.1,8.7-10.1,11.8c-6.7,5.3-15.5,3.9-21.2-2.8c-4.5-5.3-5.1-15.7-0.9-21.7c7.8-11.2,15.8-22.3,23.5-33.6
	c2.5-3.7,4.6-7.8,6.7-11.9c2.9-5.9,5.5-11.9,8.4-17.8C67.4,85.7,71.4,76.2,73.2,63.5z M24.7,66.3c3.8,0.8,7.3,2.4,10.5,1.9
	c10.1-1.5,20.1-3.9,28.9-9.9c5.1-3.4,9.8-7.7,10.7-14.4c0.8-5.9,0.4-11.9-1.6-17.7c-1-2.9-2.7-4.2-5.7-4.2c-5.6,0-11.1,0-16.6,2.2
	c-12.6,4.9-22.2,13.3-28.9,25.5c-2.6,4.6-3.4,9.3,1,13.5C23.8,63.9,24.1,65,24.7,66.3z"/>
</svg>
