<?xml version="1.0" encoding="UTF-8"?>
<svg width="183px" height="71px" viewBox="0 0 183 71" version="1.1" xmlns="http://www.w3.org/2000/svg" xmlns:xlink="http://www.w3.org/1999/xlink">
    <!-- Generator: Sketch 42 (36781) - http://www.bohemiancoding.com/sketch -->
    <title>6100</title>
    <desc>Created with Sketch.</desc>
    <defs></defs>
    <g id="Page-1" stroke="none" stroke-width="1" fill="none" fill-rule="evenodd">
        <g id="Home-desktop" transform="translate(-1156.000000, -5969.000000)" fill="#FFFFFF">
            <g id="CLIENTS-&amp;-REFERENCES" transform="translate(51.000000, 5533.000000)">
                <g id="6100" transform="translate(1105.000000, 436.000000)">
                    <path d="M108.19465,51.1916961 C118.679838,43.9121078 123.014124,33.0797353 126.209199,21.8366765 C123.911305,20.3999706 122.046004,19.2333431 119.960929,17.9288922 C112.656906,27.7923235 108.628635,38.7931471 108.19465,51.1916961 M110.898711,64.7318137 C100.099162,64.2027941 94.2765301,58.1232451 95.4032218,49.6533627 C97.3144248,35.2821275 103.348485,22.8640882 114.988184,13.8220294 C119.361417,10.4251667 124.103259,7.05893137 129.224838,5.17255882 C136.590064,2.46202941 144.047094,9.31283333 142.565703,17.1005588 C139.355327,33.9762843 132.556229,49.1173824 119.155553,60.4606765 C116.406981,62.7855784 112.615177,63.8728529 110.898711,64.7318137" id="Fill-4"></path>
                    <path d="M168.556812,18.2176255 C159.820083,24.4711941 154.331286,41.217449 159.023053,46.8167039 C166.060008,43.7859784 172.600383,24.5073902 168.556812,18.2176255 M146.450008,44.5697627 C146.280308,29.9841353 157.465158,15.4611549 170.513917,12.2049 C178.919594,10.1083118 184.440383,15.7702137 182.274632,24.2943902 C180.826624,29.9966647 179.871023,35.9063706 177.685797,41.3149 C175.916474,45.698802 173.088617,49.8697039 169.926925,53.4210961 C165.859707,57.9929392 160.44185,60.2941745 154.343805,57.4416451 C148.576812,54.7436451 146.854782,49.3894098 146.450008,44.5697627" id="Fill-6"></path>
                    <path d="M67.2096391,22.9923059 C65.7532857,22.7862667 65.1635113,22.8085412 64.6571955,22.6150314 C59.7804286,20.7425804 59.199,18.4483059 62.6055038,14.8161686 C66.5405789,10.6202078 70.8985113,6.81822745 75.1479474,2.92436471 C77.7143008,0.573011765 82.2906165,1.92758039 82.5799398,5.39544314 C82.8595263,8.74914902 82.6369699,12.3673647 81.646594,15.5637569 C78.3054662,26.3627176 74.8461053,37.1519333 70.7802782,47.6919529 C68.5602782,53.4457373 66.5697895,59.132698 65.799188,65.2512275 C65.4347519,68.1469137 63.6083985,69.9636784 60.7221203,70.0374627 C57.8636617,70.1098549 56.1346767,68.4754627 55.3918947,65.5658549 C53.9174586,59.7967569 56.8691128,54.9423059 58.4464812,49.8372667 C61.170015,41.0235216 64.1578346,32.2933059 67.2096391,22.9923059" id="Fill-8"></path>
                    <path d="M17.4470038,57.3884647 C24.0179812,57.4789549 32.416703,48.3338765 31.6614023,42.9490137 C31.5501241,42.1596608 30.2022669,40.927602 29.4733947,40.9596216 C27.5774925,41.0459353 25.447906,41.2909549 23.8872293,42.250151 C20.8562895,44.1114647 18.173094,46.5338176 15.3076805,48.6693863 C13.2643346,50.1910137 13.0362143,52.3460725 14.0780564,54.2115627 C14.9293346,55.7359745 16.7181316,56.7327588 17.4470038,57.3884647 M18.7016654,33.2944059 C23.7314398,31.5388961 28.2173421,29.8655235 33.3055376,31.2479353 C38.9598609,32.7793078 42.6501241,37.1520725 42.837906,42.9698961 C43.1717406,53.344249 34.0524925,68.1317392 21.5225677,70.5513078 C11.9651617,72.3973078 -0.930590226,64.6109745 0.499334586,51.7961706 C1.95290602,38.7795039 7.26226692,27.0965235 15.2520414,16.7319157 C18.7086203,12.2449941 22.2973421,7.80958235 26.2880564,3.8127 C28.1825677,1.91240588 31.0521541,0.460386275 33.6824925,0.0274254902 C35.2598609,-0.2343 38.0501617,1.4697 38.7818158,3.01081765 C39.5148609,4.55750392 39.0447105,7.5144451 37.9374925,8.95811176 C32.4486955,16.1165824 26.559297,22.9687784 20.8521165,29.9629745 C20.023094,30.9806412 19.4124549,32.1806804 18.7016654,33.2944059" id="Fill-1"></path>
                </g>
            </g>
        </g>
    </g>
</svg>