<?xml version="1.0" encoding="UTF-8"?>
<svg width="203px" height="84px" viewBox="0 0 203 84" version="1.1" xmlns="http://www.w3.org/2000/svg" xmlns:xlink="http://www.w3.org/1999/xlink">
    <!-- Generator: Sketch 42 (36781) - http://www.bohemiancoding.com/sketch -->
    <title>8000</title>
    <desc>Created with Sketch.</desc>
    <defs></defs>
    <g id="Page-1" stroke="none" stroke-width="1" fill="none" fill-rule="evenodd">
        <g id="Home-desktop" transform="translate(-846.000000, -6091.000000)" fill="#0D2B5C">
            <g id="CLIENTS-&amp;-REFERENCES" transform="translate(51.000000, 5533.000000)">
                <g id="8000" transform="translate(795.000000, 558.000000)">
                    <path d="M85.8710944,10.5785077 C76.9552056,13.9627385 69.1977056,44.9005846 70.7814278,54.3295846 C78.7032611,49.8711231 88.1443722,22.5000462 85.8710944,10.5785077 M100.778706,18.3888923 C98.4409833,32.6979692 95.4797611,49.4656615 84.2938167,63.2820462 C80.0308167,68.5482 74.61265,71.9954308 67.4770389,70.2572769 C59.2603722,68.2574308 54.08065,61.9364308 54.8539833,53.5218923 C56.3023722,37.7476615 60.8908167,23.0008154 72.0832056,11.1148154 C73.7233167,9.37181538 75.6937056,7.92281538 77.6109278,6.46896923 C83.7557056,1.80212308 90.4015389,4.45135385 96.7122611,5.70004615 C99.9505944,6.33973846 100.907594,9.96950769 100.778706,18.3888923" id="Fill-1"></path>
                    <path d="M118.860367,52.5738231 C123.819367,53.8515923 124.7232,53.3653615 127.371867,48.6161308 C133.315256,37.9675154 135.574033,26.3319 136.577756,14.3651308 C136.679256,13.1665154 136.245867,11.9242846 136.026756,10.4704385 C125.739811,16.9594385 116.280978,40.6781308 118.860367,52.5738231 M104.651978,48.6775154 C105.750756,31.2572077 114.350867,17.8640538 127.149533,6.72113077 C131.312644,3.09782308 136.431144,2.02520769 141.667256,1.62943846 C145.7047,1.32251538 150.230311,6.27528462 150.003144,10.7967462 C149.368367,23.4888231 146.9517,35.8368231 141.7027,47.4675923 C139.782256,51.7176692 137.631422,55.9661308 134.918311,59.7299769 C129.748256,66.8958231 121.871533,68.6937462 113.053922,65.3369769 C106.910756,62.9995154 104.286256,57.7592077 104.651978,48.6775154" id="Fill-3"></path>
                    <path d="M174.593211,47.6740385 C175.132933,47.7338077 175.674267,47.7935769 176.213989,47.8533462 C181.292211,39.8006538 184.849544,30.9741923 186.2061,21.5936538 C186.911767,16.7119615 186.971378,12.2858077 192.4846,10.1438077 C189.429933,6.86780769 187.185656,8.59303846 185.1476,10.3134231 C176.624822,17.5051154 174.552933,27.3815769 174.129211,37.8282692 C173.995489,41.0994231 174.422433,44.3915769 174.593211,47.6740385 M202.131933,20.5371923 C201.252267,24.1669615 200.6626,27.8985 199.439767,31.4087308 C195.916267,41.5258846 192.668267,51.8142692 185.163711,59.9558077 C179.0141,66.6257308 169.774378,67.0489615 165.437267,60.4129615 C163.207489,56.9964231 161.182322,53.0419615 160.510489,49.0826538 C158.401544,36.6538846 163.312211,14.2226538 178.907767,5.59811538 C180.9861,4.44796154 183.241656,3.24773077 185.529433,2.95534615 C187.744711,2.67265385 191.472822,2.76957692 192.163989,4.0215 C195.2251,9.5445 202.441267,12.7268077 202.131933,20.5371923" id="Fill-5"></path>
                    <path d="M30.6753176,24.8762425 C28.4809843,22.2286272 26.8328176,20.2417041 25.0315954,18.0706272 C27.9138732,14.3374733 31.3552065,12.7980118 37.045651,13.8625502 C34.8045954,17.7362425 32.9260398,20.984781 30.6753176,24.8762425 M28.9675398,63.7003964 C25.5922621,69.0941656 19.6859287,70.8888579 12.4278732,70.8129349 C15.1345398,60.9752425 20.7170398,54.1340887 28.1797065,47.8260118 C29.7795398,53.4540118 31.9593732,58.9220887 28.9675398,63.7003964 M49.7718176,18.3339349 C52.2110398,8.65131947 46.9588176,1.21893485 37.103651,0.125319466 C31.0249287,-0.549911303 25.9160954,1.57270408 20.9345398,4.8260887 C12.2619287,10.4880118 12.7565398,17.2823195 16.238151,24.6969349 C17.6527065,27.7112425 19.5892621,30.4816272 21.4629843,33.6590887 C19.413651,35.8657041 17.6333732,37.8639349 15.7693176,39.779781 C8.63048429,47.1136272 3.35087318,55.5669349 0.663539849,65.4918579 C-2.12368237,75.7867041 4.12420652,83.8054733 14.6367065,83.8555502 C22.023651,83.8878579 28.6533732,81.5923964 34.5419843,77.3503964 C41.2538732,72.5139349 45.412151,66.1202425 43.9315398,57.4327041 C42.8778732,51.2635502 41.4359287,45.1380118 39.7474843,39.1093964 C39.1513732,36.9770887 39.2899287,35.7994733 40.8607621,34.2761656 C45.3944287,29.8839349 48.2332065,24.4368579 49.7718176,18.3339349" id="Fill-1"></path>
                </g>
            </g>
        </g>
    </g>
</svg>