<?xml version="1.0" encoding="UTF-8"?>
<svg width="227px" height="82px" viewBox="0 0 227 82" version="1.1" xmlns="http://www.w3.org/2000/svg" xmlns:xlink="http://www.w3.org/1999/xlink">
    <!-- Generator: Sketch 42 (36781) - http://www.bohemiancoding.com/sketch -->
    <title>9000</title>
    <desc>Created with Sketch.</desc>
    <defs></defs>
    <g id="Page-1" stroke="none" stroke-width="1" fill="none" fill-rule="evenodd">
        <g id="Home-desktop" transform="translate(-534.000000, -5912.000000)" fill="#FFFFFF">
            <g id="CLIENTS-&amp;-REFERENCES" transform="translate(361.000000, 5533.000000)">
                <g id="9000" transform="translate(173.000000, 379.000000)">
                    <path d="M73.1969897,23.5649778 C71.5176069,25.2544381 70.0466811,26.2332317 69.2584526,27.6038032 C62.8913897,38.6646921 58.4043497,50.1824381 61.9181554,63.9285016 C62.9656526,63.583581 64.8899726,63.5445333 65.6573554,62.5839619 C67.7067497,60.0185333 69.8799154,57.2643746 70.8896297,54.2160571 C73.8106354,45.3886921 74.0868411,36.1552317 73.8940183,26.9269778 C73.8770811,26.1186921 73.5709097,25.3182159 73.1969897,23.5649778 M87.1154126,31.2209143 C86.9421326,42.1165016 85.7812869,52.9118667 80.6623611,62.7050095 C77.4117326,68.9252952 72.9325097,74.2552952 65.278224,75.4826921 C57.5275269,76.7231048 49.5253783,70.4299302 48.6641897,62.6438349 C47.2271383,49.6526921 48.9872983,37.4216762 56.5256297,26.3855175 C58.8890126,22.9272 60.7260411,19.0367556 63.4659497,15.9259619 C67.4057897,11.4524063 72.7683497,10.5438984 78.3550011,12.3205651 C84.1175383,14.1545016 86.5499726,18.7139619 87.0802354,24.4071048 C87.2912983,26.6601524 87.1154126,28.9496444 87.1154126,31.2209143" id="Fill-1"></path>
                    <path d="M123.482846,19.2014063 C122.216469,19.7649937 121.707051,19.9459143 121.240629,20.2049302 C115.547143,23.3729937 113.264537,29.1142952 111.549977,34.6955016 C110.021726,39.6675651 109.866686,45.1212159 109.642594,50.3848349 C109.59048,51.6200413 111.590366,53.099946 112.921886,54.1008667 C113.188971,54.3026127 114.956949,53.0270571 115.607074,52.1263587 C122.615143,42.4100095 122.143509,30.9482317 123.482846,19.2014063 M135.437863,22.5386762 C134.631394,33.8494698 134.422937,45.2904222 128.729451,55.5963905 C126.48984,59.6508349 124.186389,63.5516921 120.018549,66.2160413 C112.146686,71.2466762 96.3977486,64.7205175 96.4524686,52.7055651 C96.4746171,47.8207079 97.6185257,42.8369302 98.9357143,38.0874381 C100.775349,31.4558508 102.665794,24.7995333 106.7268,18.9853429 C110.033451,14.2501683 114.474891,11.1458825 119.717589,9.23775556 C127.551669,6.38727937 136.155737,11.4790889 135.446983,20.2674063 C135.385749,21.0197238 135.437863,21.7811524 135.437863,22.5386762" id="Fill-4"></path>
                    <path d="M159.517529,55.6306222 C167.214809,52.3180825 174.635883,28.2569397 172.226901,18.8698921 C167.333369,18.0446857 161.787106,21.0070984 160.449072,25.5665587 C158.158649,33.3695746 156.709872,41.3457016 157.531975,49.522273 C157.732615,51.5228127 158.780112,53.4387492 159.517529,55.6306222 M181.302603,24.7986222 C181.117598,36.550654 178.812843,47.7872571 172.853575,58.0645905 C170.712981,61.7571937 168.111175,65.1985905 163.837803,66.5418286 C156.876638,68.7310984 149.778672,64.9291619 146.633575,57.4814794 C144.418718,52.2386857 144.266283,46.7069397 145.166558,41.2194476 C146.895449,30.6896063 150.219038,20.828781 158.539083,13.4500825 C161.136981,11.1449714 163.884706,8.85287619 167.672112,9.09627302 C177.094375,9.70151111 181.022489,13.8119238 181.299998,23.1755429 C181.315632,23.7157016 181.302603,24.2571619 181.302603,24.7986222" id="Fill-6"></path>
                    <path d="M210.205577,15.5050286 C210.04272,15.2941714 209.881166,15.0846159 209.718309,14.8750603 C210.13392,13.7700127 210.550834,12.6662667 210.966446,11.5625206 C210.703269,11.3724889 210.441394,11.1824571 210.178217,10.9924254 C208.741166,12.3148381 206.639657,13.3691238 205.979109,15.0039175 C202.194309,24.3740444 200.620457,34.1008063 202.574743,44.1737905 C203.18448,47.3210286 205.407154,48.013473 207.81744,45.7890603 C208.750286,44.9274095 209.472069,43.7963302 210.136526,42.6964889 C214.545394,35.4102032 215.087383,27.1529333 215.78832,18.9971873 C215.949874,17.1189968 214.871109,15.1340762 214.273097,12.8549968 C212.382651,14.0876 211.293463,14.7956635 210.205577,15.5050286 M190.791703,36.8888063 C190.5168,27.655346 194.774537,20.0801079 199.047909,12.485346 C200.292137,10.2739492 200.924023,7.65906032 202.415794,5.66112381 C206.397326,0.324615873 214.366903,-0.11271746 219.334697,4.34782222 C224.46144,8.95023492 227.322514,14.3153778 226.661966,21.4936317 C225.746057,31.4533778 224.7624,41.3116 219.238286,50.0608698 C214.786423,57.1128698 208.037623,60.0856952 200.456297,58.2543619 C195.725623,57.1115683 192.863246,54.125727 192.111497,49.4087746 C191.452251,45.269727 191.215131,41.0642984 190.791703,36.8888063" id="Fill-8"></path>
                    <path d="M26.2398034,14.5836349 C23.6145463,15.3398571 21.337152,15.3489683 20.0460206,16.4813492 C15.0756206,20.8416667 13.6164206,27.1335397 11.5709349,33.2418889 C13.010592,33.1104286 14.2313691,32.8019524 15.2046034,32.1329365 C17.2539977,30.724619 19.002432,28.7995714 21.1782034,27.675 C26.5186149,24.9143333 25.8710949,20.1349048 26.2398034,14.5836349 M19.6994606,42.009381 C16.3823863,42.696619 13.1148206,44.1283651 9.98926629,43.8654444 C3.11278629,43.2849365 -1.216608,36.635127 0.303826286,28.9583651 C1.85813486,21.1189048 4.04693486,13.451254 9.35738057,7.01490476 C14.6561006,0.591571429 27.9361234,-2.3057619 34.9559177,2.13785714 C40.3758034,5.56884127 42.0356434,11.3973492 41.4480549,17.1868095 C40.7471177,24.1125556 39.3843291,31.1489365 37.0652434,37.6959206 C32.3423863,51.0215714 26.8599634,64.0816984 21.5260663,77.1847778 C19.9626377,81.0244603 16.9517349,82.309127 13.7883977,81.1259841 C10.7331977,79.9818889 9.78341486,77.3175397 10.3136777,73.3802381 C11.6855863,63.1940159 15.4873234,53.766619 19.0219749,44.2442063 C19.3424777,43.3838571 19.5574491,42.4857619 19.6994606,42.009381" id="Fill-1"></path>
                </g>
            </g>
        </g>
    </g>
</svg>