<svg id="Layer_1" data-name="Layer 1" xmlns="http://www.w3.org/2000/svg" viewBox="0 0 345 151"><defs><style>.cls-1{fill:#00349f;}</style></defs><title>fi_korjattu</title><path class="cls-1" d="M42.24,60.4C37.59,67.7,32.83,75.25,28,82.74,26.56,85,25.4,87.59,22,88a11.43,11.43,0,0,1-1.63-.77c-2.61-1.69-2.82-2.31-1.94-5.28,1.85-6.24,4.93-11.87,8.25-17.38,5.65-9.36,12.2-18.05,18.75-26.75,5.37-7.13,10.66-14.31,16-21.43A27.3,27.3,0,0,1,65.41,12c4.42-3.76,10.15-2.24,11.75,3.35a31.67,31.67,0,0,1,1,9.58c-.1,3.37-1,6.72-1.48,10.08-.14.88-.29,1.77-.41,2.66-1.34,10.23-1,20.52-1.07,30.8,0,.54,0,1.09,0,1.63s0,1.09-.05,1.63c-.44,4.07-3.86,7.81-7,7.63-2.5-.14-5.47-3.94-5.69-7.6-.18-2.89-.07-5.79-.08-8.68,0-2,0-3.92,0-6.16Zm20.3-15,1.76-13.35-.59-.27L52.14,48.2Z"/><path class="cls-1" d="M149.37,43c-4.56,9.72-8.81,18.4-11,27.85-.68,2.89-1.83,4.49-4.48,5.19-3.31-.69-4.81-2.76-4.41-6.19.36-3,.32-6.21,1.34-9,3.53-9.55,7.39-19,11.24-28.39,1.17-2.87,3-5.42,6.14-6.25,4.44-1.16,7.54.53,8.93,5.21,2,6.66,3.59,13.44,5.3,20.18.57,2.24.93,4.54,1.51,7.42.67-1.19,1.4-1.93,1.51-2.76a73.35,73.35,0,0,1,5-18.58c1.5-3.61,2.44-7.46,3.72-11.18,1.18-3.44,2.83-6.61,5.72-8.9a6.21,6.21,0,0,1,8.87,1.23c1.35,1.78,1.24,3.55.5,5.57-2.4,6.53-4.42,13.22-7.09,19.63-2.5,6-3.45,12.36-4.84,18.62-.85,3.83-1.31,7.75-2.19,11.57a18.93,18.93,0,0,1-2.18,5.44c-3.55,5.9-11.61,5.83-14.61-.38A63.43,63.43,0,0,1,154,66.2C152.27,58.91,151,51.51,149.37,43Z"/><path class="cls-1" d="M103.28,131.46c-1,2.73-1.77,5.1-2.64,7.45-.68,1.83-1.66,2.43-3.24,2.15a3.22,3.22,0,0,1-2.29-3.14,9.54,9.54,0,0,1,.51-3.18c1.94-5.79,4-11.54,5.93-17.32.75-2.2,1.38-4.45,2.09-6.67a10.5,10.5,0,0,1,.72-1.73,1.89,1.89,0,0,1,2.27-1.13,2.18,2.18,0,0,1,1.64,2.09,32,32,0,0,1-.18,4.38,32.19,32.19,0,0,1-.81,3.51c1.47-.9,2.71-1.66,3.94-2.42,2.12-1.32,4.23-2.67,6.36-4a1.56,1.56,0,0,1,2,.16,2.27,2.27,0,0,1,.79,2.17,4.61,4.61,0,0,1-1.94,3c-3.42,2.43-6.81,4.94-10.21,7.41-1.36,1-1.4,1.86,0,2.75,1.76,1.11,3.6,2.07,5.38,3.12a28.36,28.36,0,0,1,2.52,1.64,3.55,3.55,0,0,1,1.4,3.54,3.06,3.06,0,0,1-2.69,2.38,5.88,5.88,0,0,1-2.6-.43A26.21,26.21,0,0,1,103.28,131.46Z"/><path class="cls-1" d="M239.62,36.09H246c3,4.15,2.83,6.17-1.4,7.09-5.31,1.16-6.28,4.83-6.94,9.22-.61,4.07-1.34,8.12-2,12.18a11.13,11.13,0,0,1-.35,2.13c-.72,1.9-3.77,4.19-5.36,3.82-2.12-.49-4.26-1.61-4.77-3.82-.45-2-1.3-3.94-.7-6.28.79-3.08.85-6.37,1.27-10a9.56,9.56,0,0,0-2.78-.22c-6.17,1.32-12.13,2.51-14.35,10.28-1.41,4.9-4.34,9.37-6.78,13.92A15.26,15.26,0,0,1,198.17,79c-1.29,1.05-3,2.14-4.85,1.06a4.44,4.44,0,0,1-2.48-4.94c.84-4,1.43-8.19,3.05-11.86,3.1-7,7-13.7,10.3-20.62a53.47,53.47,0,0,1,9-13.89c1.7-1.79,2.86-4.1,4.45-6s3-3.74,4.85-4.92c6.87-4.31,11.29-3,14.19,4.4a24.11,24.11,0,0,1,2.06,8.29A44.79,44.79,0,0,0,239.62,36.09ZM226.89,30.7,221,37.77l.43.69,5.72-1.6Z"/><path class="cls-1" d="M144.44,120.67l1.83,1.7a2.52,2.52,0,0,1-1.72,2.58,1.78,1.78,0,0,0-1.05,1.65,25.52,25.52,0,0,1-1.84,7,12.73,12.73,0,0,0-.66,2.61c-.3,1.55-1,2.7-2.44,3-2.23-1.19-2.83-2.43-2.16-4.92.56-2.08,1.3-4.11,1.94-6.17a6.45,6.45,0,0,0,.1-1l-7.89,1.33c-1.33,2.06-2.74,4.28-4.19,6.46a19.86,19.86,0,0,1-1.93,2.46c-.86.93-1.66,1.06-2.41.58a2.37,2.37,0,0,1-.9-2.83,10,10,0,0,1,.92-2.52c2.62-4.28,5-8.73,8.3-12.48,2.21-2.54,4.17-5.36,6.32-8a16.81,16.81,0,0,1,2.78-2.66c2.59-2,5.36-.43,5.46,3.11.06,1.9-.23,3.81-.35,5.71C144.5,119.16,144.48,120,144.44,120.67Zm-5,.79c-.14-1.71.91-3,.35-4.86l-4.42,5.34C137,122.56,138,121.61,139.43,121.46Z"/><path class="cls-1" d="M204.79,115c2.17-1.38,4.58-2.26,6-4.83a1.45,1.45,0,0,1,.16-.21c1.21-1.5,2.59-1.89,3.63-1s1.11,2,.37,3.94a9.09,9.09,0,0,1-3.35,4.55c-2.44,1.61-4.82,3.35-7.29,4.88a3.79,3.79,0,0,0-2,2.87c1.19,1.31,2.86,1,4.28,1.36a27.77,27.77,0,0,1,6.1,2.49,2.17,2.17,0,0,1,1.26,2.16,1.84,1.84,0,0,1-1.55,1.85c-1.88.32-3.67,1.14-5.71.39a49.74,49.74,0,0,0-6.72-1.51,13.19,13.19,0,0,1-.74,1.49,2.63,2.63,0,0,1-3,1.39,3.19,3.19,0,0,1-2.37-2.8,12.51,12.51,0,0,1,0-1.92,10.66,10.66,0,0,0-.32-3.48,3.76,3.76,0,0,1,1.33-4.33c2.18-1.63,3.08-4,3.55-6.84a26.85,26.85,0,0,1,2.19-6,2.16,2.16,0,0,1,2.63-1.41,2.81,2.81,0,0,1,1.92,2.57C205.09,112,204.9,113.43,204.79,115Z"/><path class="cls-1" d="M320.28,128c-1.87.17-3.22.33-4.58.4a1.77,1.77,0,0,0-1.6,1c-1.11,1.91-2.28,3.76-3.44,5.63a12,12,0,0,1-.88,1.31c-.66.81-1.66,1.17-2.15.71a2.47,2.47,0,0,1-.8-2.44,12.79,12.79,0,0,1,1.11-3.3c2.85-4.87,5.17-10.17,8.63-14.56,2.2-2.79,4.07-5.94,6.86-8.11,1.84-1.43,3.58-.94,4.07,1.53a22.18,22.18,0,0,1,.13,4.62,21.33,21.33,0,0,1-.31,2.42c-.56,4.22-.7,8.52-2,12.59-.73,2.31-1.6,4.56-2.42,6.84a3.2,3.2,0,0,1-.37.7c-.8,1.18-1.88,1.78-2.7,1.31a3.21,3.21,0,0,1-1.89-2.93,9.13,9.13,0,0,1,.7-4C319.18,130.62,319.64,129.47,320.28,128ZM322,117.88c-1.86,1.2-2.94,3.12-4,5.32h3.49l.49-5.38.22-.39Z"/><path class="cls-1" d="M177.9,124.88c1.27.3,2.08.54,2.92.7,2,.38,4,.66,6,1.11a6.83,6.83,0,0,1,2.21,1.09,1.88,1.88,0,0,1,.18,3.16,6.5,6.5,0,0,1-5,1.56c-2.71-.4-5.41-.87-8.16-1.31a8.89,8.89,0,0,0-1.26,4.23c-.05,1.89-1.07,3.21-2.3,3.43-1.82.32-3.26-1-3.49-3.2a11.33,11.33,0,0,1,.6-4.84c.68-2,1.19-4.14,1.87-6.18.59-1.79,1.24-3.56,2-5.27a22.07,22.07,0,0,0,1.36-4.93,8.32,8.32,0,0,1,.4-1.27c.34-1,.94-1.49,1.88-1.37a2.2,2.2,0,0,1,1.66,2.07c.11,1.08.11,2.17.17,3.43a10.6,10.6,0,0,0,3.11-1.62c1.61-1,3.19-2.16,4.78-3.23a4.81,4.81,0,0,1,1.08-.62c1.2-.4,2.06.33,2.17,1.77a3.3,3.3,0,0,1-1,2.94c-1.36,1.15-2.73,2.28-4.15,3.34C182.69,121.47,180.5,123,177.9,124.88Z"/><path class="cls-1" d="M264.49,131.64c3.18.19,6.07.4,9,.5a5,5,0,0,1,3,.88,2.16,2.16,0,0,1,.38,3.44,6.12,6.12,0,0,1-4.26,2.36,30.88,30.88,0,0,1-4.83.4,34.6,34.6,0,0,1-6-.93c-3.46-.82-4.92-4.61-3.46-8.66,1-2.87,2.46-5.56,3.62-8.37s2.21-5.66,3.31-8.5c.1-.25.22-.49.33-.73a2.88,2.88,0,0,1,2.48-1.85c1,.14,2,1.58,2.1,3,.29,3.61-1,6.8-2.16,10C267,125.92,265.76,128.59,264.49,131.64Z"/><path class="cls-1" d="M288.26,131.14a4.46,4.46,0,0,0,4,.33c3.07-.81,6.15-.25,9.22-.41a1.66,1.66,0,0,1,1.13,2.76c-1.09,1.4-2.1,3-4.15,2.94a9.75,9.75,0,0,0-3.72,1,14.62,14.62,0,0,1-6.43,1.09,6.69,6.69,0,0,1-6-6.33,12.15,12.15,0,0,1,1-6.64c1.26-2.43,2.32-5,3.4-7.53.42-1,.6-2.08,1-3.05a11.11,11.11,0,0,1,1.65-3,1.88,1.88,0,0,1,3.32.89A9.06,9.06,0,0,1,293,117a22.51,22.51,0,0,1-1.82,6.17C290,125.63,289.27,128.33,288.26,131.14Z"/><path class="cls-1" d="M248.6,125c-2,.62-3.76,1.13-5.52,1.74a2.69,2.69,0,0,0-1.64,1.5c-.75,1.61-1.69,3.12-2.5,4.7a8.21,8.21,0,0,1-2.76,3.27,6.82,6.82,0,0,1,.17-5.1c1.14-2.62,2.21-5.3,3.53-7.81,2.14-4.08,4.44-8.06,6.73-12a5.07,5.07,0,0,1,1.73-1.82c2.33-1.34,4-.22,4.66,2a12.51,12.51,0,0,1,.49,3.21c0,4.4,0,8.81-.09,13.21a25.26,25.26,0,0,1-.86,5.07c-.36,1.47-1.29,2.15-2.28,2s-1.68-1.19-1.72-2.62c0-1.19,0-2.38.06-3.58S248.6,126.38,248.6,125Zm.21-4a22,22,0,0,0,.58-7.94L245,121.05Z"/><path class="cls-1" d="M96.34,67.62c.5-2.62.66-5.38,1.58-7.85a119.16,119.16,0,0,0,4.38-15.45c1.18-5.22,2.85-10.32,4.25-15.49.33-1.2.41-2.47.72-3.67a29.42,29.42,0,0,1,1.49-5.1c1.36-3,4-4.28,6.35-3.4s3.61,3.65,3.23,6.63a16.11,16.11,0,0,0-.31,2.67c.48,11.33-3.65,21.83-5.54,32.73a10.41,10.41,0,0,1-.81,2c-1.34,3.33-2.49,6.67-2.3,10.41.15,3.08-1.4,5.54-3.71,7.42a3.79,3.79,0,0,1-5.29-.08,9.4,9.4,0,0,1-3.64-6.93c-.06-1.26,0-2.53,0-3.8Z"/><path class="cls-1" d="M164,114.87c.21,3.48-.87,6.62-2,9.74q-1.93,5.29-3.95,10.55c-.45,1.17-.92,2.37-2.28,2.57-1.72.26-3.16-.91-3.44-3a7.16,7.16,0,0,1,.43-3.75c1.48-3.64,2.87-7.33,4.36-11a47.18,47.18,0,0,0,2-7.84c.06-.26,0-.56.07-.82.33-1.44,1.22-2.33,2.33-2.35a2.94,2.94,0,0,1,2.52,2.54A30.48,30.48,0,0,1,164,114.87Z"/><path class="cls-1" d="M231,111.32c1.82.75,1.55,2.3,1.35,3.75a54.23,54.23,0,0,1-2.72,10.16c-.58,1.7-1.31,3.33-1.91,5-.3.84-.47,1.73-.71,2.59-.4,1.42-1.67,2.67-2.55,2.55-1.09-.15-2.11-1.58-2.28-3.2a9.07,9.07,0,0,1,.69-4.25q2.61-6.91,5.21-13.83A4.29,4.29,0,0,1,231,111.32Z"/></svg>