<svg id="Layer_1" data-name="Layer 1" xmlns="http://www.w3.org/2000/svg" viewBox="0 0 396 145"><defs><style>.cls-1{fill:#00349f;}</style></defs><title>fi_korjattu</title><path class="cls-1" d="M306.21,120.35c1-3.18,1.9-6.39,3-9.53,1.19-3.33,2.36-6.69,4.44-9.59,1.14-1.58,2.3-3.15,4.35-3.66a2.61,2.61,0,0,1,3.5,2.68,5,5,0,0,1-1,3.15c-3.43,4.85-5.22,10.41-6.9,16.06-1,3.38-2.3,6.68-3.63,9.95a9.57,9.57,0,0,1-2.1,2.92,3.28,3.28,0,0,1-5.24-.42c-1.46-1.91-1.83-4.23-2.26-6.51-.56-2.91-1.07-5.83-1.72-9.34-2.08,3.64-3.91,6.71-5.58,9.86a17.15,17.15,0,0,0-1,3.45c-.84,3-2.63,3.69-5.39,2-.77-3.7.48-6.95,2.25-10.09s3.41-6.19,5.13-9.27a23.59,23.59,0,0,1,1.3-2.14,4.08,4.08,0,0,1,6.6-.55,9.78,9.78,0,0,1,2.32,5l1.34,6.14Z"/><path class="cls-1" d="M108.18,118.28c1.59-1.9,3.15-3.81,4.76-5.69,2.16-2.53,3.89-5.48,6.77-7.33.31-.2.59-.45.91-.64a3.63,3.63,0,0,1,3.92-.23,3.94,3.94,0,0,1,1.61,4A34.28,34.28,0,0,1,122.92,121c-1.88,3.64-3.7,7.31-5.59,10.94-.85,1.63-2.16,2.36-3.29,2a3.79,3.79,0,0,1-2.2-3.55,6.59,6.59,0,0,1,1.08-3.41c2.13-3.92,4.21-7.88,6.26-11.85.45-.88,1.13-1.73.79-3.06-2.19,2.65-4.27,5.2-6.38,7.71-1.14,1.35-2.3,2.68-3.52,4a3.74,3.74,0,0,1-3.77,1.18,3.06,3.06,0,0,1-2.39-2.11c-.35-1.34-.63-2.7-.92-4.06-.15-.69-.25-1.39-.49-2.77-2.26,4.25-4.56,7.66-6.27,11.44-1.22,2.71-2.83,5.24-4.27,7.84a1.75,1.75,0,0,1-2.1.94c-1-.24-1.22-1-1.26-1.92a9.72,9.72,0,0,1,1.33-4.51q1.1-2.4,2.31-4.75c1.45-2.81,2.92-5.62,4.43-8.4,1.15-2.12,2.37-4.22,3.59-6.3a9.25,9.25,0,0,1,1.16-1.56c1.65-1.81,3.22-1,4.09.42a15.47,15.47,0,0,1,1.37,3.62,18.06,18.06,0,0,1,.49,2.74c.11.83.16,1.67.23,2.5Z"/><path class="cls-1" d="M277,31a56.57,56.57,0,0,0-11.82,23c-1.26,4.76-2.44,9.54-3.78,14.28a16.88,16.88,0,0,1-2,4.48,4.72,4.72,0,0,1-5.33,2.3,5.09,5.09,0,0,1-3.85-5,52.17,52.17,0,0,1,1.3-9.12,130.89,130.89,0,0,1,3.75-14.27c3.14-9,6.75-17.83,14.36-24.17a16.29,16.29,0,0,1,5.78-3.38c5-1.37,8.59.29,11.62,4.78,3.63,5.39,5.53,11.47,6.72,17.75.88,4.63,1.26,9.35,1.94,14.62A65.46,65.46,0,0,0,298.61,49c3.55-13.31,10.6-24.95,17.26-36.79a8.34,8.34,0,0,1,8.75-4.52,4.92,4.92,0,0,1,4.57,6.47,20.4,20.4,0,0,1-1.77,4.59c-3.07,5.61-6.56,11-9.3,16.77-2.64,5.55-4.57,11.44-6.76,17.2S307.19,64.3,304.8,70a20.05,20.05,0,0,1-4.17,6.08c-3.23,3.29-7,3.55-10.63.8a12.51,12.51,0,0,1-5.19-7.41,95.08,95.08,0,0,1-2.45-17.67C282.1,44.87,281.58,37.83,277,31Z"/><path class="cls-1" d="M247.13,124.31c.27-1.06.51-2,.73-2.86a71.22,71.22,0,0,1,5.2-15,6,6,0,0,1,2.71-3.06,2.07,2.07,0,0,1,3.16,1.76,7.55,7.55,0,0,1-.5,2.71c-.84,2.27-1.84,4.47-2.7,6.73a98.73,98.73,0,0,0-3.88,14,7.85,7.85,0,0,1-.31,1.35c-.52,1.23-1.15,2.36-2.7,2.45s-3.16-.11-4.15-1.63a26.5,26.5,0,0,1-4-10.05c-.49-2.84-.84-5.7-1.27-8.61-3.43,3.27-10.08,17-11.21,21.13-3.06-.95-3.47-1.76-2.79-4.83,1-4.36,3.1-8.18,5.18-12a38.62,38.62,0,0,1,4.86-7.47c.9-1,1.33-2.45,2.12-3.59s1.64-2.26,3.3-2a3.17,3.17,0,0,1,2.82,3,53.81,53.81,0,0,1,.85,6.09,65.53,65.53,0,0,0,1.8,10.46A7,7,0,0,0,247.13,124.31Z"/><path class="cls-1" d="M178.56,51.47c-6.27-.39-11,2.08-16,2.78-.59.08-1.14.74-1.69.72-7.71-.27-11.84,4.35-14.8,10.66-1.4,3-2.88,5.93-4.35,8.88-1,2.1-2.43,3.83-5,4-3.67-1.41-4.18-4.52-3.45-7.67a58,58,0,0,1,3.47-9.83,41.66,41.66,0,0,1,3.88-7c9.17-13.4,16.62-28.08,28.7-39.35,2.56-2.39,5.25-4.66,7.93-6.93,5.28-4.48,11.08-3.44,14.42,2.66a19.16,19.16,0,0,1,2.62,9.42c-.05,7.87.08,15.75-.07,23.62a33,33,0,0,1-1.25,7.25C191.4,56.86,189.8,63,188,69.09a11.08,11.08,0,0,1-2.49,4.16c-2.53,2.77-4.58,3.25-7,2a7.13,7.13,0,0,1-4-7.63c.59-3,1.58-5.94,2.34-8.92C177.41,56.58,177.88,54.4,178.56,51.47Zm2.84-13.13V19.42c-7.71,6.45-13.77,13.08-18.32,21.25Z"/><path class="cls-1" d="M144.27,123.77l-8.44,1.39a11.76,11.76,0,0,0-.78,1.15,40.52,40.52,0,0,1-7.23,9.13c-.55.54-1.11,1-1.93.64a1.62,1.62,0,0,1-.79-1.92,7.25,7.25,0,0,1,.73-2.33,20.25,20.25,0,0,1,2.1-2.93c2.36-2.8,3.59-6.28,5.37-9.42a57.9,57.9,0,0,1,6.75-9.85,39.09,39.09,0,0,1,5.33-4.86c1.95-1.52,4.23-.78,5.13,1.58a10,10,0,0,1,.62,3.27c.08,3.38.09,6.76,0,10.14a20.93,20.93,0,0,1-.6,4.69c-.7,2.68-.44,5.39-.57,8.09a17,17,0,0,1-.51,3.58,3.15,3.15,0,0,1-2.78,2.33,3.38,3.38,0,0,1-2.75-2.4c-.78-2.18-.52-4.45-.42-6.68C143.57,127.61,144,125.87,144.27,123.77Zm1.16-12.41a34,34,0,0,0-6,7.4l6-.81Z"/><path class="cls-1" d="M271.7,114.56a17.55,17.55,0,0,1,2.63.27,2.27,2.27,0,0,1,1.76,1.93,2.12,2.12,0,0,1-1,2.15,8.09,8.09,0,0,1-2.25,1c-1.15.31-2.33.47-3.66.72l-3,6a7.5,7.5,0,0,0,4-.3,37.55,37.55,0,0,1,3.7-1,3.78,3.78,0,0,1,1.06-.21c1.39.06,3.23,1.14,3.36,2.06a3.64,3.64,0,0,1-1.48,3.46c-3.68,2.79-7.82,4.36-12.39,3.27a6,6,0,0,1-5-6.47A11.42,11.42,0,0,1,261,121a89.7,89.7,0,0,0,4.64-8.27c.64-1.22,1-2.61,1.55-3.87a16.67,16.67,0,0,1,1.63-2.86,1.76,1.76,0,0,1,2.22-.68c1.2.68,2.14,0,3.1-.37,2.88-1.19,5.7-2.52,8.58-3.73a5.46,5.46,0,0,1,2.37-.52,2.47,2.47,0,0,1,1.9,4,6.88,6.88,0,0,1-2.54,2.06c-2.65,1.25-5.35,2.42-8.11,3.4C274.32,110.93,273.4,112.64,271.7,114.56Z"/><path class="cls-1" d="M336.45,74.86c-5.35-2.2-5.48-2.47-5.57-7.4a19.6,19.6,0,0,1,3.2-10.5C340,47.07,346,37.17,352.39,27.6c3.78-5.62,8.39-10.71,12.83-15.85C366.81,9.92,369,8.58,371,7.08c5.18-4,10.83-1.49,12.48,3.6a43.27,43.27,0,0,1,2.3,11.4c.35,8.69.31,17.4.12,26.1-.12,5.54-.87,11.06-1.16,16.61-.15,2.85-1.83,4.64-3.9,6-3.12,2-8.21-.93-8.48-5.3-.29-4.7.25-9.46.48-14.18.07-1.39.34-2.77.48-3.88C367,48.4,361,49.46,355,50.22a6.15,6.15,0,0,0-4.65,2.64c-2.83,4.05-5.69,8.1-8.35,12.26a17.55,17.55,0,0,0-2.08,5.06C339.29,72.57,339.37,72.58,336.45,74.86ZM373.25,21c-5.17,5.26-9.51,9.86-12.43,15.89L373.25,36Z"/><path class="cls-1" d="M54,119.94l-10,1.15-7.15,9.74c-.22.3-.34.76-.62.9a2.8,2.8,0,0,1-1.75.42,2,2,0,0,1-1.15-1.34,4.84,4.84,0,0,1,.6-3.48,100.91,100.91,0,0,1,8.79-12.18c3.29-4,7-7.69,10.57-11.47a8.7,8.7,0,0,1,2-1.51c2.26-1.31,4-.48,4.68,2.07.73,3,.49,6,.33,9-.15,2.69-.58,5.36-.92,8a20.8,20.8,0,0,1-.53,2.73c-.43,1.61-.93,3.21-1.4,4.81-.11.36-.2.72-.34,1.07-.57,1.46-2,2.51-3.09,2.27a3.11,3.11,0,0,1-2.36-3.62,57.37,57.37,0,0,1,1.55-5.62C53.46,122,53.69,121.12,54,119.94Zm.84-11.51c-2.1,2.42-4.47,4.08-6.15,7.09,2.3-.86,4.4-.4,6.15-1.61Z"/><path class="cls-1" d="M8.92,110.33c-1.5-1.77-1.46-2.46.33-3.5a37.47,37.47,0,0,1,11.19-4.44c3.75-.78,7.43-2,11.33-1.82a8.22,8.22,0,0,0,1.58-.4,2.58,2.58,0,0,1,2.77,1.39,2.2,2.2,0,0,1-.49,2.77,5.53,5.53,0,0,1-3.23,2c-.53.09-1,.38-1.57.43-1.1.11-1.57.81-1.83,1.79-1.54,5.73-3,11.49-4.67,17.17a94.57,94.57,0,0,1-3.55,9.06,3.1,3.1,0,0,1-3.07,1.91,3.94,3.94,0,0,1-3.09-2.84,6.13,6.13,0,0,1,.49-3.83c2.6-4.95,4.2-10.3,6-15.57.76-2.19,1.7-4.31,2.54-6.47a12.38,12.38,0,0,0,.36-1.54C18.69,107.14,13.88,109.15,8.92,110.33Z"/><path class="cls-1" d="M66.21,128.47a1.92,1.92,0,0,1,2.45.78,17.28,17.28,0,0,0,1.91,2.38,1.83,1.83,0,0,0,3.24-.71,8.74,8.74,0,0,0,.3-3.84c-.65-3.56-1.6-7.05-2.3-10.6a47.81,47.81,0,0,1-.83-6.35c-.34-5.53,3.28-8,7.68-8.85a9.48,9.48,0,0,1,5.4.59,4.8,4.8,0,0,1,2.21,2c.89,1.57,0,3-1.79,3-1.47.06-2.95,0-4.41.06a9.62,9.62,0,0,0-2.12.43,2,2,0,0,0-1.47,2.08,25.41,25.41,0,0,0,.82,6.92c.74,3.16,1.77,6.27,2.28,9.47a29,29,0,0,1,.13,7.57c-.3,2.79-3.13,5.16-6.18,5.59A11.84,11.84,0,0,1,70,139a6.43,6.43,0,0,1-4.52-9.06C65.67,129.41,66,128.93,66.21,128.47Z"/><path class="cls-1" d="M166.46,130.1c4-.57,7.68-1.67,11.38-.54.31.1.54.48.89.8-1,3.23-3.5,4.86-6.35,5.6-2.53.66-5.06,1.55-7.78,1.45-4.67-.16-7.14-3.9-5.22-8.32,1.11-2.56,2.38-5.06,3.73-7.5a27.32,27.32,0,0,0,3.53-10.2,8.94,8.94,0,0,1,.81-2.36c.82-1.94,1.89-1.78,3.38-1.56a2.66,2.66,0,0,1,1.79,2.84c-.39,4.84-1.09,9.61-3.41,14C168.27,126.07,167.48,127.93,166.46,130.1Z"/><path class="cls-1" d="M200.25,129.32c-.53,1.66-.74,3.37-2.56,4.36a10.21,10.21,0,0,1-7.41,1.24,13.92,13.92,0,0,1-4.4-2.15,5.17,5.17,0,0,1-2.25-4.26,13.45,13.45,0,0,1,1.56-7.25c1.54-2.84,2.67-5.92,4-8.86a11.08,11.08,0,0,1,1.49-2.3,2.11,2.11,0,0,1,2.7-.75,3,3,0,0,1,1.93,2.54,10.11,10.11,0,0,1-.08,2.24,32.73,32.73,0,0,1-3.17,9.46c-.09.16-.13.35-.21.52-1.62,3.32-1.41,3.79,2.09,3.64A10.39,10.39,0,0,1,200.25,129.32Z"/><path class="cls-1" d="M240.38,23.4C239.25,30.3,239,37,236.25,43,233,50.35,229.45,57.57,226,64.81a22.4,22.4,0,0,1-2.25,3.68,6.66,6.66,0,0,1-7.68,2.61,7.58,7.58,0,0,1-5.66-6.66,12.43,12.43,0,0,1,1.66-7.71c4.07-7.63,8.12-15.27,11.92-23,1.24-2.53,1.69-5.45,2.51-8.19.7-2.35,1.37-4.71,2.13-7a5.55,5.55,0,0,1,5.66-4A5.79,5.79,0,0,1,239.63,19C240,20.55,240.18,22.19,240.38,23.4Z"/><path class="cls-1" d="M218.61,114a15.54,15.54,0,0,1-1.55,6.74c-1.64,3.54-3.14,7.14-4.69,10.71-.84,1.94-1.94,2.75-3.5,2.52-1.75-.26-2.88-1.7-3-3.79a10.14,10.14,0,0,1,1.5-5.3c1.41-2.71,2.81-5.44,4.12-8.2a29.19,29.19,0,0,0,1-3.16,14.75,14.75,0,0,1,.92-2.32,2.94,2.94,0,0,1,3.5-1.5c1,.32,1.64,1.32,1.69,2.9C218.63,113.06,218.61,113.53,218.61,114Z"/><path class="cls-1" d="M68.83,95c0,2-1.11,3.4-2.8,3.43a2.9,2.9,0,0,1-2.81-3.1,3.32,3.32,0,0,1,3.21-3.13C67.83,92.21,68.8,93.36,68.83,95Z"/><path class="cls-1" d="M160.57,93.39a23.13,23.13,0,0,1-.75,3c-.46,1.26-2.61,1.33-3.49.2a4.22,4.22,0,0,1,.38-5.37,2,2,0,0,1,2.5-.53A2.4,2.4,0,0,1,160.57,93.39Z"/><path class="cls-1" d="M151.74,91.36c0,.71,0,.8,0,.89-.08,1.67-.65,2.5-2,2.93a2.68,2.68,0,0,1-2.74-1.3,3.8,3.8,0,0,1,.3-3.69c1.09-1.31,2.81-1.63,3.78-.51A4.25,4.25,0,0,1,151.74,91.36Z"/><path class="cls-1" d="M57.1,92.17c1.65,0,2.76,1,2.57,2.51a3.05,3.05,0,0,1-3,2.71c-1.74-.06-2.4-.57-2.41-2.24C54.28,93.24,55.27,92.19,57.1,92.17Z"/></svg>