<svg id="Layer_1" data-name="Layer 1" xmlns="http://www.w3.org/2000/svg" viewBox="0 0 309 154"><defs><style>.cls-1{fill:#00349f;}</style></defs><title>fi_korjattu</title><path class="cls-1" d="M76.25,40.35a12.89,12.89,0,0,0-4.78,11.42c.13,2.51-.8,5.06-1.12,7.61-.49,3.82-.88,7.66-1.29,11.49-.09.86,0,1.74-.1,2.6-.59,4.3-3.78,7.4-7.63,7.46a7.86,7.86,0,0,1-7.75-7.29,54.45,54.45,0,0,1,0-9.08,46.39,46.39,0,0,1,1.1-5.67c.36-1.88.69-3.78,1.11-6.11L38.21,55.52a7.68,7.68,0,0,0-5.54,3.87c-5.36,8.33-10.94,16.52-16.46,24.74a24.23,24.23,0,0,1-3.06,4.11c-2.83,2.72-5.92,2.16-8-1.17a7.14,7.14,0,0,1-.4-7.39,123.43,123.43,0,0,1,6.14-11.35c4.85-7.63,10.07-15,14.93-22.66,4.74-7.45,9.11-15.13,13.83-22.59A67.12,67.12,0,0,1,54.4,6.1c8.33-6.64,17.26-1.78,18.52,8.52A85,85,0,0,1,73.17,27C73.06,31.49,72.69,36,76.25,40.35ZM59,21.21c-5.13,3.36-5.88,4.4-14.19,19.75,3.52-.77,6.62-1.36,9.67-2.16,2.78-.72,4.35-2.3,4.21-5.56C58.49,29.25,58.84,25.24,59,21.21Z"/><path class="cls-1" d="M207.54,118.83c0,1.14,0,2.29,0,3.43a16.73,16.73,0,0,1-4.55,12,26.22,26.22,0,0,1-4.39,4.05,9,9,0,0,1-8.54,1.17,12.61,12.61,0,0,1-7-5.71,6.55,6.55,0,0,1-.15-6.48,44.93,44.93,0,0,1,5.91-9.72,47.55,47.55,0,0,1,5.25-5.63,33.43,33.43,0,0,1,5.16-3.33,21.32,21.32,0,0,1,2.42-1.06,3.19,3.19,0,0,1,4.39,1.31,7.75,7.75,0,0,1,1.44,4.5c0,.19,0,.38,0,.57q0,2.43,0,4.87Zm-18.65,11.7c.84.66,1.61,1.25,2.37,1.86a2.9,2.9,0,0,0,3.69,0,13.69,13.69,0,0,0,5.71-7.83c.79-3.08.39-6.22.37-9.34,0-.3-.35-.61-.65-1.09C195.92,119,191.67,123.86,188.89,130.53Z"/><path class="cls-1" d="M163,124.48l9-1.87a17.11,17.11,0,0,0,2.72-8.68c.12-1.89,1.26-3.18,2.7-3.28a2.23,2.23,0,0,1,2.58,2.21c.22,3.28.43,6.55-.64,9.78-1.48,4.45-2.81,8.95-4.17,13.44-.24.8-.28,1.66-.49,2.47a14.21,14.21,0,0,1-1,3.17,2.93,2.93,0,0,1-5.25.08,6.26,6.26,0,0,1-.86-5.15c.69-2.44,1.43-4.86,2.22-7.55-2.83.07-5.57.94-8.59,1.28-.72,2-1.52,4.07-2.23,6.19-.48,1.41-.82,2.87-1.25,4.31-.58,1.94-1.82,2.83-3.56,2.61-1.54-.2-2.56-1.64-2.7-3.64a9.72,9.72,0,0,1,.71-4.16c1.42-3.77,2.94-7.49,4.34-11.27.55-1.48.82-3.08,1.32-4.59.58-1.78,1.26-3.51,1.91-5.27a2.72,2.72,0,0,1,.24-.51c.71-1.13,1.76-1.64,2.62-1.28a2.52,2.52,0,0,1,1.49,2.71c-.15,1.6-.43,3.18-.62,4.78C163.3,121.56,163.18,122.86,163,124.48Z"/><path class="cls-1" d="M112.38,113.16c-4.06.92-7.87,1.83-11.7,2.64a46.17,46.17,0,0,1-4.68.59,2,2,0,0,1-2.07-1.44,2,2,0,0,1,.5-2.34,5.27,5.27,0,0,1,1.72-1.24c5.63-1.61,11.09-3.88,16.91-4.74,3-.44,6-1.32,8.94-2a9.75,9.75,0,0,1,2.08-.26,2.94,2.94,0,0,1,3.07,2.15,3.52,3.52,0,0,1-1.48,4.16,28.22,28.22,0,0,1-3.58,1.73,8.18,8.18,0,0,0-4.84,4.82c-2.46,6.57-5,13.11-7.53,19.66q-1.37,3.53-2.89,7c-.65,1.47-2.33,2.42-3.39,2.09a3.9,3.9,0,0,1-2.7-3.75,7.37,7.37,0,0,1,.59-3.6c1.22-2.51,2.42-5,3.53-7.61C107.36,125.19,109.79,119.32,112.38,113.16Z"/><path class="cls-1" d="M138.11,117.63l-1.18,7.29,1.29-.14c1-.12,2.08-.26,3.12-.34a2,2,0,0,1,2.06,1.47,2.86,2.86,0,0,1-.38,2.94,5.22,5.22,0,0,1-2.86,1.91c-1.95.48-3.91.91-6.14,1.43l-2.88,6.73c.91-.44,1.39-.72,1.91-.92a19,19,0,0,1,2.73-.9,2.37,2.37,0,0,1,2.75,1.18,2.85,2.85,0,0,1-.3,2.95,11.41,11.41,0,0,1-3.57,4.1c-2.29,1.54-4.77,1.31-7.14.74-2.12-.52-3.62-3.74-3.33-6.45a16.78,16.78,0,0,1,1.57-6c1.7-3.32,3.25-6.73,4.78-10.14a23,23,0,0,0,2-5.8,6.81,6.81,0,0,1,3.53-5,36.36,36.36,0,0,1,8.81-3.51,14.46,14.46,0,0,1,3.93-.15,3.06,3.06,0,0,1,2.46,1.92c.72,1.35-.51,3.37-2.25,3.76-.68.15-1.42,0-2.08.24C144,115.82,141,116.76,138.11,117.63Z"/><path class="cls-1" d="M177.46,56.32C180.2,48.53,183,40,186.23,31.59c1.93-5,5.84-8.52,10.55-11a6.16,6.16,0,0,1,7.69,1.15c1.61,1.8,1.75,4.58.32,7.22a10.79,10.79,0,0,1-1.15,1.57c-6.51,8.09-9,17.9-11.8,27.58-.82,2.87-.87,6-1.83,8.78a36.15,36.15,0,0,1-4.19,8.64c-4.73,6.92-12.64,6.17-16.31-1.33-2.79-5.71-3.3-12-4.31-18.08a110.79,110.79,0,0,0-5.78-21.72c-.22-.56-.84-1-2.23-2.49-.35.91-.63,1.7-1,2.48C151.47,45.65,146.6,56.9,142,68.25c-1.16,2.87-2.35,5.53-4.72,7.57a4.66,4.66,0,0,1-5.4.92c-2-1-3.62-2.79-3-5.22A68.32,68.32,0,0,1,132,61.77q6.2-15.2,12.71-30.28a41.08,41.08,0,0,1,4.22-7.26c3.75-5.32,12.85-7,17.68-.14a47.11,47.11,0,0,1,6.26,12.63C174.88,43.25,176,50.06,177.46,56.32Z"/><path class="cls-1" d="M250.5,125.2c-1.38,1.67-2.79,3.49-4.31,5.19a32.12,32.12,0,0,1-3,2.73,1.68,1.68,0,0,1-2.4.09,2.61,2.61,0,0,1-.22-2.9,7.52,7.52,0,0,1,.66-.89c2.79-3.78,5.73-7.45,8.34-11.37A75,75,0,0,1,261.25,105c1-.92,2.14-1.51,3.39-1a3.42,3.42,0,0,1,2,3.39c0,3.6.41,7.22-.37,10.82-.32,1.46-.05,3.07-.4,4.52-.66,2.73-1.53,5.41-2.38,8.08a3,3,0,0,1-3,2.3,3.24,3.24,0,0,1-2.32-3.34c.09-1.68.45-3.33.72-5.16a14.07,14.07,0,0,0-4.09.27A25.89,25.89,0,0,1,250.5,125.2Zm10.19-6.51.67-6.21a18.36,18.36,0,0,0-5.71,6.21Z"/><path class="cls-1" d="M228,114.28c2.93-1.81,5.42-3.39,7.95-4.89a28.5,28.5,0,0,1,2.66-1.2,1.7,1.7,0,0,1,2.28.81,3.15,3.15,0,0,1,.23,2.12,4.75,4.75,0,0,1-2.46,2.79c-3.91,2.52-7.75,5.16-11.63,7.75-.22.15-.46.25-.9.47a33.48,33.48,0,0,0,5.41,3.66,19.22,19.22,0,0,1,2.9,1.94,3,3,0,0,1,.89,3.54,2.52,2.52,0,0,1-3,1.27,6,6,0,0,1-1.95-.77c-2.36-1.42-4.7-2.91-7.21-4.47a15.07,15.07,0,0,0-1.47,3.21,37.22,37.22,0,0,1-2,4.33,3,3,0,0,1-3.34,1.73,2.53,2.53,0,0,1-2.12-2.19,7.34,7.34,0,0,1,.46-3.89c2.69-6.07,5.3-12.18,7.92-18.29a16.69,16.69,0,0,0,1-2.92,4.61,4.61,0,0,1,3.41-3.65c1.34.88,2.38,1.75,1.65,3.85A28.28,28.28,0,0,0,228,114.28Z"/><path class="cls-1" d="M242.76,53.85c-4.4.91-8.56,1.64-12.63,2.73a5.2,5.2,0,0,0-2.57,2.62c-2.47,4.74-4.76,9.57-7.15,14.34a23.85,23.85,0,0,1-1.61,2.39c-1.44,0-2.95.12-4.43,0-2.22-.22-3.69-1.57-3.67-3.79,0-2.76-.15-5.79.88-8.23,2.68-6.3,6.13-12.26,9-18.49,5.14-11.25,13.22-20.63,19.55-31.12A25,25,0,0,1,244,9.19c4.47-4.31,10.77-3.31,13.35,2.28A24.7,24.7,0,0,1,260,20.68c.2,6.43-.36,12.88-.63,19.32-.07,1.72-.39,3.44-.32,5.15a28.35,28.35,0,0,1-3.26,13.66c-1.79,3.68-3.43,7.39-3.37,11.63,0,3-2,4.76-4.24,6.1-3.33,2-8.3-1.24-8.71-5.84-.3-3.39-.61-6.86,1-10.18A57.77,57.77,0,0,0,242.76,53.85Zm3.75-25.33-8.92,12.76L245.32,43C246.4,38.41,247.95,34,246.51,28.52Z"/><path class="cls-1" d="M298,107.08c-.94,2-2,2.24-3.5,1.6a9.32,9.32,0,0,0-4.08-.86,5.07,5.07,0,0,0-4.17,2c-.73.95-1.42,1.92-2.19,3,.85,1.85,1.71,3.6,2.47,5.41.54,1.29.94,2.64,1.38,4,1.71,5.17-1.86,11.67-6.33,13.45a8.56,8.56,0,0,1-5.7.08,5,5,0,0,1-3.22-3.54,3.69,3.69,0,0,1,1-4.14c1-.91,1.36-1.07,2.58-.26,2.76,1.85,4.62.36,5.4-2a3.1,3.1,0,0,0,0-1.87c-.79-2.11-1.67-4.17-2.58-6.22a11.25,11.25,0,0,1-1.28-5.73,5.33,5.33,0,0,1,.4-1.92c2.08-3.94,4.53-7.45,8.91-8.66,3.25-.89,6.08-.39,8.35,2.47C296.3,104.89,297.13,106,298,107.08Z"/><path class="cls-1" d="M86.8,74.08c0-6.19,3.46-11.17,5.3-16.61,1.24-3.65,3.21-7.06,4.9-10.55a131.79,131.79,0,0,0,9.83-27.18,29.33,29.33,0,0,1,3.29-7.64,5,5,0,0,1,5.53-2.59,6,6,0,0,1,5,4.53,8.63,8.63,0,0,1,.3,3.19c-1.14,11.13-3,22.07-7.56,32.43-3,6.88-5.79,13.88-8.42,20.93a44,44,0,0,0-2,8.72c-.64,4.19-2.69,7.41-5.48,8-3.2.72-7.55-1.79-9.12-5.79C87.4,79.23,87.28,76.59,86.8,74.08Z"/></svg>