<?xml version="1.0" encoding="UTF-8"?>
<svg width="18px" height="14px" viewBox="0 0 18 14" version="1.1" xmlns="http://www.w3.org/2000/svg" xmlns:xlink="http://www.w3.org/1999/xlink">
    <!-- Generator: Sketch 42 (36781) - http://www.bohemiancoding.com/sketch -->
    <title>Fill 1 Copy</title>
    <desc>Created with Sketch.</desc>
    <defs></defs>
    <g id="Page-1" stroke="none" stroke-width="1" fill="none" fill-rule="evenodd" opacity="0.300000012">
        <g id="Home-desktop" transform="translate(-361.000000, -5251.000000)" fill="#0D2B5C">
            <g id="COURSES" transform="translate(-12.000000, 4369.000000)">
                <g id="Arrows" transform="translate(373.000000, 882.000000)">
                    <path d="M17.6834716,6.63281749 C17.7568602,6.72471283 17.806956,6.83096682 17.8168475,6.95540842 C17.8174856,6.96817167 17.826739,6.97838226 17.8264199,6.99146458 C17.8264199,6.99465539 17.8286535,6.99688896 17.8286535,6.99976069 C17.8286535,7.00358966 17.8270581,7.00646139 17.826739,7.0096522 C17.8270581,7.01794831 17.82291,7.02401085 17.8225909,7.03166879 C17.8146139,7.18291321 17.7552648,7.31820357 17.6598596,7.4238194 C17.6518826,7.43243459 17.6557116,7.44615507 17.6474154,7.45445118 C17.6381621,7.46338545 17.6247607,7.45955648 17.6158264,7.46721442 C17.6078494,7.47487237 17.5941289,7.47327696 17.5851946,7.48029675 L10.6123165,13.8178845 C10.3694959,14.0607052 9.97574984,14.0607052 9.73292916,13.8178845 C9.49010849,13.5750638 9.49010849,13.181956 9.73292916,12.9397735 L15.5676452,7.6360083 L0.636566688,7.6360083 C0.285258456,7.6360083 0,7.35074984 0,6.99976069 C0,6.64877154 0.285258456,6.36383216 0.636566688,6.36383216 L15.5676452,6.36383216 L9.73292916,1.06070517 C9.49010849,0.817884493 9.49010849,0.425095724 9.73292916,0.181636886 C9.97574984,-0.0605456286 10.3694959,-0.0605456286 10.6123165,0.181636886 L17.5504148,6.48795469 C17.5606254,6.49529355 17.5657307,6.50773772 17.5756222,6.51539566 C17.5970006,6.53230696 17.6273133,6.52528717 17.6474154,6.5450702 C17.6713465,6.56995852 17.6636886,6.6056956 17.6834716,6.63281749" id="Fill-1-Copy" transform="translate(8.914327, 7.000000) scale(-1, 1) translate(-8.914327, -7.000000) "></path>
                </g>
            </g>
        </g>
    </g>
</svg>