<?xml version="1.0" encoding="UTF-8"?>
<svg width="19px" height="45px" viewBox="0 0 19 45" version="1.1" xmlns="http://www.w3.org/2000/svg" xmlns:xlink="http://www.w3.org/1999/xlink">
    <!-- Generator: Sketch 42 (36781) - http://www.bohemiancoding.com/sketch -->
    <title>Arrow</title>
    <desc>Created with Sketch.</desc>
    <defs></defs>
    <g id="Page-1" stroke="none" stroke-width="1" fill="none" fill-rule="evenodd">
        <g id="Home-desktop" transform="translate(-1086.000000, -1070.000000)" fill="#0034A0">
            <g id="INTRO" transform="translate(360.000000, 128.000000)">
                <path d="M746.437185,960.806652 C745.346551,961.441365 744.319308,961.790823 743.42372,962.471047 C742.555765,963.13014 741.532585,963.580372 740.60449,964.165511 C739.052247,965.145618 737.521946,966.159859 735.982706,967.160283 C734.295556,968.257418 732.607594,969.352928 730.923695,970.454939 C729.533178,971.365155 728.173543,972.324945 726.752956,973.183961 C725.811858,973.752846 724.795179,974.201452 723.797193,974.671189 C722.35954,975.348974 720.911321,976.004005 719.461478,976.654159 C718.765813,976.966233 718.326146,976.86871 717.808461,976.321768 C717.375296,975.863409 717.492323,975.339222 717.719064,974.856483 C717.864536,974.546034 718.08884,974.243712 718.350527,974.024285 C718.986865,973.491972 719.62808,972.94828 720.335122,972.521617 C721.576916,971.772314 722.891041,971.144103 724.13446,970.398051 C725.522539,969.564228 726.877298,968.675142 728.22393,967.776304 C729.78755,966.73362 731.317038,965.640548 732.877408,964.594613 C734.802677,963.304057 736.731196,962.017564 738.684909,960.770894 C739.721093,960.110175 740.814164,959.539664 741.879604,958.924456 C742.283513,958.691213 742.764627,958.570935 743.213233,958.016678 C742.858086,958.019116 742.67523,958.006926 742.495625,958.02318 C740.971014,958.160525 739.448028,958.332816 737.920978,958.427901 C737.416296,958.459596 736.845786,958.407583 736.402056,958.195471 C735.771406,957.893149 735.242343,957.433978 735.261848,956.574962 C735.282978,955.651743 735.616995,954.882935 736.41831,954.504221 C737.278951,954.097062 738.219237,953.776048 739.157084,953.631389 C740.970201,953.351823 742.805261,953.208789 744.633007,953.03406 C747.159668,952.793503 749.687955,952.578139 752.215429,952.348147 C752.87046,952.288821 753.533617,952.163666 754.148013,952.507435 C755.81322,953.437155 755.592167,955.226704 754.525102,956.142609 C753.698593,956.852902 753.121582,957.70623 752.604709,958.618884 C751.143488,961.199183 749.922823,963.871316 749.49616,966.849022 C749.391322,967.582071 749.240162,968.328935 748.750921,968.94008 C747.80901,970.116859 746.19419,970.025838 745.622867,968.727155 C745.334361,968.071312 745.096242,967.421158 745.19539,966.692985 C745.279098,966.084278 745.333548,965.468257 745.465204,964.869303 C745.749647,963.583623 746.075536,962.307696 746.437185,960.806652" id="Arrow" transform="translate(736.439094, 964.553349) rotate(122.000000) translate(-736.439094, -964.553349) "></path>
            </g>
        </g>
    </g>
</svg>