<?xml version="1.0" encoding="UTF-8"?>
<svg width="18px" height="14px" viewBox="0 0 18 14" version="1.1" xmlns="http://www.w3.org/2000/svg" xmlns:xlink="http://www.w3.org/1999/xlink">
    <!-- Generator: Sketch 42 (36781) - http://www.bohemiancoding.com/sketch -->
    <title>Fill 1</title>
    <desc>Created with Sketch.</desc>
    <defs></defs>
    <g id="Page-1" stroke="none" stroke-width="1" fill="none" fill-rule="evenodd" opacity="0.3">
        <g id="Home-desktop" transform="translate(-392.000000, -5251.000000)" fill="#0D2B5C">
            <g id="COURSES" transform="translate(-12.000000, 4369.000000)">
                <g id="Arrows" transform="translate(373.000000, 882.000000)">
                    <path d="M48.6834716,6.63281749 C48.7568602,6.72471283 48.806956,6.83096682 48.8168475,6.95540842 C48.8174856,6.96817167 48.826739,6.97838226 48.8264199,6.99146458 C48.8264199,6.99465539 48.8286535,6.99688896 48.8286535,6.99976069 C48.8286535,7.00358966 48.8270581,7.00646139 48.826739,7.0096522 C48.8270581,7.01794831 48.82291,7.02401085 48.8225909,7.03166879 C48.8146139,7.18291321 48.7552648,7.31820357 48.6598596,7.4238194 C48.6518826,7.43243459 48.6557116,7.44615507 48.6474154,7.45445118 C48.6381621,7.46338545 48.6247607,7.45955648 48.6158264,7.46721442 C48.6078494,7.47487237 48.5941289,7.47327696 48.5851946,7.48029675 L41.6123165,13.8178845 C41.3694959,14.0607052 40.9757498,14.0607052 40.7329292,13.8178845 C40.4901085,13.5750638 40.4901085,13.181956 40.7329292,12.9397735 L46.5676452,7.6360083 L31.6365667,7.6360083 C31.2852585,7.6360083 31,7.35074984 31,6.99976069 C31,6.64877154 31.2852585,6.36383216 31.6365667,6.36383216 L46.5676452,6.36383216 L40.7329292,1.06070517 C40.4901085,0.817884493 40.4901085,0.425095724 40.7329292,0.181636886 C40.9757498,-0.0605456286 41.3694959,-0.0605456286 41.6123165,0.181636886 L48.5504148,6.48795469 C48.5606254,6.49529355 48.5657307,6.50773772 48.5756222,6.51539566 C48.5970006,6.53230696 48.6273133,6.52528717 48.6474154,6.5450702 C48.6713465,6.56995852 48.6636886,6.6056956 48.6834716,6.63281749" id="Fill-1"></path>
                </g>
            </g>
        </g>
    </g>
</svg>