<?xml version="1.0" encoding="utf-8"?>
<!-- Generator: Adobe Illustrator 21.1.0, SVG Export Plug-In . SVG Version: 6.00 Build 0)  -->
<svg version="1.1" id="Layer_1" xmlns="http://www.w3.org/2000/svg" xmlns:xlink="http://www.w3.org/1999/xlink" x="0px" y="0px"
	 viewBox="0 0 94.3 70.3" style="enable-background:new 0 0 94.3 70.3;" xml:space="preserve">
<style type="text/css">
	.st0{fill:#0034A0;}
</style>
<g id="CSXevW_1_">
	<g>
		<path class="st0" d="M74.4,39.6c-2.3-0.1-3.3-0.2-4.2-0.2c-8.6-0.1-21.9-5.2-13.2-27c3.3-8.4,13.9-9.9,20.1-8
			c6.8,2.1,11.6,9.2,12.2,17.4c1.2,16.1-3.2,26-13,38.2c-3.3,4.1-11.3,7.4-13.4,5.9c-3.2-2.2-0.3-7,2.8-11.5
			C69,49.5,72.5,44,74.4,39.6z"/>
		<path class="st0" d="M22.9,38.5c-2.2-0.1-3.7-0.1-5.2-0.3C8.6,37.3,3.2,29.6,5.2,20.6C6.9,13.1,10.4,7.7,18.8,5
			C27.5,2.3,37,6.7,38.6,15.6c2.7,15.3,0.2,31.3-10.1,42.5c-2.6,2.8-9.9,9.1-16.5,6.7c-3.7-1.3-1.8-6.6,1.1-8.9
			C18.8,51.6,20.5,45.2,22.9,38.5z"/>
	</g>
</g>
</svg>
