<?xml version="1.0" encoding="UTF-8"?>
<svg width="21px" height="21px" viewBox="0 0 21 21" version="1.1" xmlns="http://www.w3.org/2000/svg" xmlns:xlink="http://www.w3.org/1999/xlink">
    <!-- Generator: Sketch 42 (36781) - http://www.bohemiancoding.com/sketch -->
    <title>Fill 1</title>
    <desc>Created with Sketch.</desc>
    <defs></defs>
    <g id="Page-1" stroke="none" stroke-width="1" fill="none" fill-rule="evenodd">
        <g id="Home-desktop" transform="translate(-1441.000000, -8404.000000)">
            <g id="FOOTER" transform="translate(-91.000000, 8205.000000)">
                <rect id="Rectangle-8" fill="#F7F7F7" x="0" y="0" width="2052" height="242"></rect>
                <text id="Language" font-family="Domus-Semibold, Domus" font-size="16" font-weight="500" line-spacing="36" letter-spacing="0.300000012" fill="#0034A0">
                    <tspan x="1561.664" y="205">Language</tspan>
                </text>
                <path d="M1546.43611,209.498664 L1546.43611,209.498664 C1546.43611,210.995427 1546.31472,212.411806 1546.10212,213.698917 C1547.65662,213.929239 1548.98671,214.302281 1549.97657,214.773423 C1551.03763,213.279942 1551.68561,211.472803 1551.68561,209.498664 L1551.68561,209.498008 L1551.68561,209.498664 L1546.43611,209.498664 Z M1549.95164,204.182237 C1548.97884,204.668143 1547.65334,205.054309 1546.09752,205.292177 C1546.24746,206.199356 1546.35573,207.165591 1546.40363,208.18629 L1551.57143,208.18629 C1551.35784,206.703964 1550.78237,205.345985 1549.95164,204.182237 L1549.95164,204.182237 Z M1544.55844,200.562709 C1545.08929,201.434782 1545.53287,202.638885 1545.85703,204.057561 C1546.8085,203.944041 1547.66056,203.786556 1548.35645,203.592653 L1549.48345,203.592653 C1548.22718,202.107374 1546.52306,201.014822 1544.55844,200.562709 L1544.55844,200.562709 Z M1542.49899,200.311718 C1541.62069,200.311718 1540.85459,201.845227 1540.38148,204.168129 C1541.05899,204.215702 1541.7598,204.249496 1542.49899,204.249496 C1543.23851,204.249496 1543.93899,204.215702 1544.61684,204.168129 C1544.1434,201.845227 1543.37763,200.311718 1542.49899,200.311718 L1542.49899,200.311718 Z M1535.51487,203.592653 L1536.64154,203.592653 C1537.33775,203.786556 1538.18948,203.944041 1539.14096,204.057561 C1539.46544,202.638885 1539.90869,201.434782 1540.43988,200.562709 C1538.47493,201.014822 1536.77081,202.107374 1535.51487,203.592653 L1535.51487,203.592653 Z M1535.04635,204.182237 C1534.21594,205.345985 1533.64047,206.703964 1533.42655,208.18629 L1538.59435,208.18629 C1538.64258,207.165591 1538.75085,206.199356 1538.90046,205.292177 C1537.34464,205.054309 1536.01947,204.668143 1535.04635,204.182237 L1535.04635,204.182237 Z M1533.31237,209.498664 C1533.31237,211.472803 1533.96069,213.279942 1535.02174,214.773423 C1536.01127,214.302281 1537.34169,213.929239 1538.89587,213.698917 C1538.68359,212.411806 1538.56187,210.995427 1538.56187,209.498664 L1533.31237,209.498664 Z M1540.43988,218.433634 C1539.90804,217.560578 1539.4638,216.353522 1539.13833,214.932549 C1538.15339,215.046069 1537.2741,215.206835 1536.55591,215.404347 L1535.49321,215.404347 C1536.75506,216.891267 1538.47197,217.98185 1540.43988,218.433634 L1540.43988,218.433634 Z M1545.08601,208.18629 C1545.04598,207.210868 1544.95576,206.29844 1544.836,205.446381 C1544.08795,205.516921 1543.30938,205.560886 1542.49899,205.560886 C1541.6886,205.560886 1540.91036,205.516921 1540.16198,205.446381 C1540.04256,206.29844 1539.95233,207.210868 1539.91197,208.18629 L1545.08601,208.18629 Z M1545.12374,209.498664 L1545.12374,209.498664 L1539.87424,209.498664 C1539.87424,210.959664 1539.98087,212.321909 1540.15411,213.548322 C1540.90544,213.479423 1541.68598,213.435786 1542.49899,213.435786 C1543.31201,213.435786 1544.09254,213.479423 1544.84388,213.548322 C1545.01744,212.321909 1545.12374,210.959664 1545.12374,209.498664 L1545.12374,209.498664 Z M1542.49899,218.685282 C1543.3796,218.685282 1544.1539,217.155382 1544.63029,214.827559 C1543.94818,214.780641 1543.24278,214.747504 1542.49899,214.747504 C1541.75553,214.747504 1541.05013,214.780641 1540.36802,214.827559 C1540.84409,217.155382 1541.61872,218.685282 1542.49899,218.685282 L1542.49899,218.685282 Z M1549.5051,215.404347 L1548.44208,215.404347 C1547.72421,215.206835 1546.84492,215.046069 1545.85965,214.932549 C1545.53419,216.353522 1545.08995,217.560578 1544.55844,218.433634 C1546.52601,217.98185 1548.24325,216.891267 1549.5051,215.404347 L1549.5051,215.404347 Z M1542.49899,219.997 C1536.7006,219.997 1532,215.297061 1532,209.498664 C1532,203.700596 1536.7006,199 1542.49899,199 C1548.29739,199 1552.99798,203.700596 1552.99798,209.498664 C1552.99798,215.297061 1548.29739,219.997 1542.49899,219.997 L1542.49899,219.997 Z" id="Fill-1" fill="#0034A0"></path>
            </g>
        </g>
    </g>
</svg>