<svg id="Layer_1" data-name="Layer 1" xmlns="http://www.w3.org/2000/svg" viewBox="0 0 584 302"><defs><style>.cls-1{fill:#00349f;}</style></defs><title>fi_korjattu</title><path class="cls-1" d="M37.23,112.55c-5.79-2.56-7.85-6.62-5.81-12.56,3.05-8.89,6.18-17.76,10.4-26.19C47.21,63,52.69,52.32,58,41.52c2.22-4.5,4.77-8.9,4.44-14.3-.13-2.18.62-4.43,1-6.63.6-3.16,4.17-5.43,7.33-3.72,3.9,2.12,7.55,1.21,11.5,1.29,6.37.13,12.86,1.1,18.69,4.12a21.68,21.68,0,0,1,6.33,4.47A10.32,10.32,0,0,1,110,34.5a2.48,2.48,0,0,0,0,.53c2,15.4-11.71,27.07-23.32,28.91-7.26,1.15-14.67.74-21.77-3.25-1,2-2.1,3.77-2.94,5.65C57.65,75.87,53.47,85.45,49.13,95c-2.09,4.58-4.46,9-6.72,13.55A7.65,7.65,0,0,1,37.23,112.55Zm33.85-63.2c2.59.71,5.06,1.8,7.58,2,9.88.74,15.9-2.55,19.92-11,1.54-3.25,1.08-7.14-1.61-8.4-6.58-3.07-13.38-4.59-19.91-3.23Z"/><path class="cls-1" d="M215.67,63.39c2.33,2.45,4.58,4.91,6.94,7.27a17.46,17.46,0,0,0,3.29,2.58c4.31,2.6,8.67,5.1,13,7.65a5,5,0,0,1,2.47,4.36c0,1.41-2.16,3.67-3.92,3.75-3.5.17-7.15.58-10.49-.19a27.39,27.39,0,0,1-13.69-7.35c-5.64-5.76-11.46-11.37-15.57-19.08a15.64,15.64,0,0,0-1.82,2.47c-3.83,8.59-7.67,17.18-11.37,25.84-1.9,4.46-5.25,7.79-8.3,11.38a6.27,6.27,0,0,1-2.2,1.41c-2.05.94-4-.1-4.09-2.4a13.66,13.66,0,0,1,.87-5.07q6.34-16.86,12.88-33.64c3.57-9.11,7.22-18.26,13.65-25.81,3.94-4.63,8.93-7.89,15.38-7.58,4.35.2,8.81.23,13,1.29,5,1.28,9,4.06,10.17,10,1.66,8.57-.48,14.21-8.29,18.23C223.92,60.39,219.92,61.67,215.67,63.39Zm6.16-20.15c-2.62-.56-4.93-1.22-7.29-1.53-3.81-.5-6.75,1-9,4.63,3,2.56,6.53,1.75,9.53,1.28C217.5,47.23,220.52,46.54,221.84,43.24Z"/><path class="cls-1" d="M54,266A15.22,15.22,0,0,0,51.92,268c-1.9,2.59-3.67,5.27-5.57,7.85a21.55,21.55,0,0,1-2.73,3c-2.49,2.31-5.76,1.34-6.39-1.79a24.44,24.44,0,0,1-.51-3.14c-.09-1.32,0-2.66,0-4-1.21,0-1.35.73-1.66,1.32a101.68,101.68,0,0,1-7.38,12.41c-.89,1.22-1.59,2.58-2.47,3.81-1,1.46-2.09,2.92-4.38,3.33-.47-.38-1.39-.78-1.74-1.48a3.09,3.09,0,0,1,.55-3c2.81-4.45,5.65-8.87,8.35-13.38,1.46-2.44,2.61-5.08,4-7.56a21.6,21.6,0,0,1,2.86-4.18c2-2.12,4.76-1.45,5.63,1.33a46.64,46.64,0,0,1,1.13,5.46c.24,1.31.42,2.62.68,4.35l4.21-5.92a28,28,0,0,1,6.23-6.94,15.08,15.08,0,0,1,2.74-1.64A3,3,0,0,1,59.37,259c1.4,2.11,1.21,4.41.85,6.73-.72,4.64-2.93,8.75-4.83,12.95-1.72,3.81-3.73,7.49-5.61,11.23a3.2,3.2,0,0,1-3.22,1.91,3.45,3.45,0,0,1-2.76-2.61,5,5,0,0,1,.43-3.39c1.51-2.83,3-5.67,4.5-8.52q2.51-4.88,4.93-9.8a5.49,5.49,0,0,0,.26-1.55l.24-.37Z"/><path class="cls-1" d="M27,211.5c2.75-1.83,5.47-3.7,8.26-5.46a33.26,33.26,0,0,1,4.27-2.21,3.06,3.06,0,0,1,3.61.84,3.28,3.28,0,0,1-.77,3.88,6.46,6.46,0,0,1-.85.66l-12.67,8a3.15,3.15,0,0,0-.54.6c2.55,2.56,5.13,5.05,7.59,7.66,1.27,1.35,2.93,1.64,4.55,2.05.44.11,1-.24,1.5-.4a2.41,2.41,0,0,1,2.83.68,2.37,2.37,0,0,1-.41,2.94c-2.06,1.56-4.09,3.12-7,3.05A8.39,8.39,0,0,1,32,231.86c-3.32-2.66-5.88-6-8.67-9.13-.4-.45-.82-.89-1.4-1.51-1.17,2.71-2.2,5.27-3.37,7.77a50,50,0,0,1-2.83,5.14,3.22,3.22,0,0,1-5.54-.66,4.43,4.43,0,0,1,.16-3.89c1.16-2.41,2.17-4.89,3.38-7.28,2.68-5.25,5.11-10.62,8.25-15.63a19.68,19.68,0,0,0,1.43-4c.38-1.08.61-2.28,2.07-2.49a2.61,2.61,0,0,1,3.32,2.58,10.06,10.06,0,0,1-.89,5.75c-.45.86-.81,1.77-1.21,2.66Z"/><path class="cls-1" d="M51.1,137.19c-.24,4.32-1.8,8.22-3.48,12a165.65,165.65,0,0,0-6.38,16.13c-.76,2.36-1.6,4.7-2.47,7a4.27,4.27,0,0,1-2.31,2.8A3.06,3.06,0,0,1,32,172.51a14.11,14.11,0,0,1,.95-5.77c1.13-3.09,2.21-6.2,3.39-9.27,1-2.49,2-5,3-7.41,1.6-3.68,3.26-7.33,4.89-11a2.24,2.24,0,0,0,0-.68,7,7,0,0,0-3.11,0,56.12,56.12,0,0,1-13.32,1,5.22,5.22,0,0,1-2-.46,2.25,2.25,0,0,1-.44-3.92,5.05,5.05,0,0,1,2.16-1c6.83-1.15,13.66-2.31,20.51-3.32,4-.6,8-1.51,12.15-1.59a10.6,10.6,0,0,1,1.61,0,3.42,3.42,0,0,1,3.08,3.18,3.36,3.36,0,0,1-3,3.26c-3.17.42-6.36.76-9.53,1.16A7.16,7.16,0,0,0,51.1,137.19Z"/><path class="cls-1" d="M311.26,155.07c3.57-1,6.89-1.9,10.24-2.75a1.65,1.65,0,0,0,1.47-1.61c.09-.88.32-1.75.5-2.62a3.21,3.21,0,0,1,3.35-2.82A3.36,3.36,0,0,1,330,148c.81,3,.11,5.76-1.08,8.53-1.72,4-3.28,8.08-4.85,12.15a15,15,0,0,0-.53,2.61c-.43,2.27-1.78,3.3-4.19,3.18a3.42,3.42,0,0,1-3.42-3.41A11.81,11.81,0,0,1,317,164.3a40.29,40.29,0,0,0,1.63-4l-9.51,1.39c-1,3.88-3.08,7.45-3.52,11.61a3.54,3.54,0,0,1-3.3,3.32c-2.57.35-4.52-2.71-4-5.13a47.18,47.18,0,0,1,2.35-7.9c1.38-3.47,2.64-7,3.9-10.51a11.87,11.87,0,0,0,.63-2.86,15,15,0,0,1,1.93-5.51,2.56,2.56,0,0,1,2.85-1.49,3.07,3.07,0,0,1,2.23,2.44,5.51,5.51,0,0,1,0,1.61C311.92,149.75,311.61,152.21,311.26,155.07Z"/><path class="cls-1" d="M315.64,258.51c-.65,2.14-2.49,3.08-4.46,3.65a26.38,26.38,0,0,1-4.49.59c-2.47.27-4.94.51-7.47.77l-.46,6.19c.63-.09,1.3-.23,2-.26a7.32,7.32,0,0,1,2.59.08,2.38,2.38,0,0,1,.87,4.08,5.6,5.6,0,0,1-3.36,1.48c-1.92.33-3.87.47-5.89.69L291,283.6a7.85,7.85,0,0,0,4.18-.09,24.08,24.08,0,0,1,7.93-.88,4.65,4.65,0,0,1,2.21.69c1.34.94,1.44,1.73.72,3.24a4.78,4.78,0,0,1-2.13,2.31,25.54,25.54,0,0,1-15,2.93c-2.69-.3-6-3.09-6.11-6.53a10.38,10.38,0,0,1,1.22-5.66c2.21-3.87,4.1-7.92,6.85-11.47a10.16,10.16,0,0,0,1.31-2.59,7.21,7.21,0,0,1,1.73-3,3,3,0,0,0,.72-1.61,3.92,3.92,0,0,1,2.19-2.85c2.79-1.56,5.88-1.94,8.95-2.41.88-.13,1.76-.23,2.64-.37a9.08,9.08,0,0,1,4.48.38C314.24,256.21,315.38,256.84,315.64,258.51Z"/><path class="cls-1" d="M335.05,163.3a22.94,22.94,0,0,1,1.59-7.34c1-2.65,1.54-5.47,2.53-8.12a20.06,20.06,0,0,1,2.7-4.87,2.49,2.49,0,0,1,3.17-.66,2.71,2.71,0,0,1,1.65,2.54,5.49,5.49,0,0,1-.11,1.87c-1.43,4.1-1.83,8.48-3.57,12.51a9.49,9.49,0,0,0-.21,7.07c.65,1.82,1.92,2.56,3.71,2a9.72,9.72,0,0,0,5.33-3.86,43.09,43.09,0,0,0,5.06-9.69,65.63,65.63,0,0,1,3.73-8.25,8,8,0,0,1,2.28-2.59,3.38,3.38,0,0,1,5,.77c1.06,1.36.65,2.64-.08,3.94s-1.65,2.75-2.31,4.19c-2.19,4.76-3.87,9.75-6.76,14.2a18.43,18.43,0,0,1-10.27,8.11c-4.9,1.48-10.76-.77-12.42-6.33A46.72,46.72,0,0,1,335.05,163.3Z"/><path class="cls-1" d="M469.75,69.76c-1.44,4.77-2.94,9.73-4.42,14.69-.25.83-.38,1.7-.7,2.5-1.39,3.4-2.77,6.77-2.75,10.55a14.65,14.65,0,0,1-.71,3c-.82,3.71-2.93,5.67-5.85,5.41s-4.83-2.48-5-6.29A28.3,28.3,0,0,1,452,87.82c1.78-4.51,3.22-9.16,4.94-14.12L431.56,78c-4.89,6.4-10.16,13.61-18.2,18.48-.63-.56-1.75-1.09-1.77-1.66a7,7,0,0,1,.8-3.89c2.62-3.92,5.41-7.72,8.27-11.47C426.38,72,432.31,64.61,437.92,57a125.09,125.09,0,0,1,15.21-17.35,30.74,30.74,0,0,1,6.33-4.58c4.54-2.44,9.38-.51,11,4.32a25.72,25.72,0,0,1,1,6.16c.17,2.27,0,4.55,0,7.16,1.24.17,2.39.29,3.53.48a8.1,8.1,0,0,1,7,6.84c.29,2.85-2.09,6.62-5.22,7.81C474.67,68.66,472.42,69.06,469.75,69.76ZM461.06,45.2,447.5,58.86a49,49,0,0,0,12.06-3A3.26,3.26,0,0,0,461,53.41C461.19,51,461.06,48.61,461.06,45.2Z"/><path class="cls-1" d="M489.28,169.06a2.89,2.89,0,0,1-1.21-3.85,67.53,67.53,0,0,1,2.44-6.77c1.81-3.87,3.82-7.65,5.84-11.42a8.45,8.45,0,0,1,2.11-2.39,3.11,3.11,0,0,1,4.4-.1,6.36,6.36,0,0,1,2.76,5c.16,4.45.52,8.9.8,13.39a3.5,3.5,0,0,0,.67-.66A55.59,55.59,0,0,0,512,152.17a62.22,62.22,0,0,1,3.37-8.12,23.3,23.3,0,0,1,3.69-4.89,6.2,6.2,0,0,1,4.53-2,3.21,3.21,0,0,1,3.27,1.89,3.59,3.59,0,0,1-.46,4c-.89,1-1.77,2-2.69,3-2.1,2.21-3,5.08-4,7.81a50.37,50.37,0,0,1-7,12.28,15.12,15.12,0,0,1-3.8,3.35,3.51,3.51,0,0,1-4.48-.24,6.94,6.94,0,0,1-2.76-5.29c0-2.15-.08-4.31,0-6.45.13-2.85-.47-5.59-.78-8.52-1.46.49-1.83,1.66-2.3,2.66-1.87,3.94-3.55,8-5.53,11.84A49.81,49.81,0,0,1,489.28,169.06Z"/><path class="cls-1" d="M185,269.65c2-2.41,3.57-4.33,5.17-6.24.86-1,1.74-2,2.61-3.06,1.32-1.56,3-1.93,5-2,2.5-.12,3.62,1.88,3.54,4.26-.17,5.18-2.71,9.54-4.87,14-1.75,3.61-3.69,7.14-5.59,10.67a6.55,6.55,0,0,1-1.58,2.07,2.47,2.47,0,0,1-3.41.12,3.34,3.34,0,0,1-1.32-3.51,12.34,12.34,0,0,1,1-2.49c1.85-3.36,3.76-6.69,5.65-10,1.19-2.09,2.4-4.18,3.57-6.28a4,4,0,0,0,.55-2.07c-1.84,2.21-3.62,4.47-5.54,6.61a12.53,12.53,0,0,1-3.06,2.5,3.68,3.68,0,0,1-5.26-1.52c-.68-1.23-1.14-2.58-1.74-4-2.19,2.85-3.54,6.06-5.08,9.17-1.35,2.71-2.75,5.38-4.15,8.06a3.67,3.67,0,0,1-.69.82c-.59.6-1.24,1.08-2.13.58a1.91,1.91,0,0,1-1-2.25,17.1,17.1,0,0,1,.77-2.55c1.21-2.87,2.36-5.78,3.76-8.55,1.65-3.26,3.55-6.4,5.32-9.59.47-.85.86-1.75,1.33-2.61a13.5,13.5,0,0,1,1.23-2.06c1.26-1.58,2.74-1.59,4.08-.09a5.1,5.1,0,0,1,1.21,3.19C184.53,264.85,184.76,266.88,185,269.65Z"/><path class="cls-1" d="M461.91,213.22c-.8.7-1.57,1.43-2.41,2.09a14.88,14.88,0,0,1-2.42,1.65,4.51,4.51,0,0,1-6-1.79,15.45,15.45,0,0,1-1.07-2.43c-.35-.89-.66-1.81-1.08-3-2.66,2.73-5.35,5.05-6.95,8.28s-4,5.91-5.94,8.88a7.6,7.6,0,0,1-1.32,1.25c-1-.09-1.38-.63-1.33-1.43a8.44,8.44,0,0,1,.45-2.6c1.6-4,3.06-8,5.54-11.52,2.11-3,4.65-5.66,7.05-8.43a4.13,4.13,0,0,1,4.54-1.53,4.8,4.8,0,0,1,3.43,4.36c.15,1.31.44,2.61.67,3.92,1.38.36,1.84-.64,2.44-1.35,1.26-1.5,2.4-3.11,3.76-4.51a11,11,0,0,1,3-2.16c3-1.5,5.7.12,5.72,3.45a20.21,20.21,0,0,1-1.86,8.8q-3.19,6.76-6.5,13.47a17.57,17.57,0,0,1-1.94,2.89,3.13,3.13,0,0,1-3.75,1.08,3.3,3.3,0,0,1-1.81-4,4.88,4.88,0,0,1,.27-1c1.41-2.58,2.86-5.14,4.26-7.72,1.18-2.18,2.63-4.23,3.18-6.71l.29-.4Zm.8-1.49-.09.16.14,0Z"/><path class="cls-1" d="M113.93,161.81c-1.73,3.46-4.74,4.36-7.75,2.43-2.42-1.55-3.88-3.9-5.26-6.3-.61-1.07-1.17-2.17-1.84-3.43-1.08,4-2.49,7.81-2.43,11.9a6.32,6.32,0,0,1-.53,2.59,3.32,3.32,0,0,1-3.05,2.24,3.19,3.19,0,0,1-3.19-2,6.85,6.85,0,0,1-.56-3.37,59.26,59.26,0,0,1,2.12-10.42q2.28-7.66,4.67-15.28c.76-2.44,1.5-2.88,4.05-2.94a7.23,7.23,0,0,0,2.56-.55,5.54,5.54,0,0,1,4.91.12,48.26,48.26,0,0,1,4.57,2.73,3,3,0,0,1,1.3,2.8c0,.81,0,1.61,0,2.42a4.12,4.12,0,0,1-2.6,4c-2,.85-4.15,1.55-6.34,2.35,1.75,2.42,2.88,5.46,5.29,7.64.85.77,1.55,1.67,2.84,1.88C113.16,160.68,113.54,161.41,113.93,161.81ZM109.36,143c-1.07-.74-1.78-1.27-2.53-1.73a4.17,4.17,0,0,0-2.75-.41c-2.25.75-2.63,1.53-2.23,4.28a11.5,11.5,0,0,0,6-.64C108.36,144.37,108.7,143.71,109.36,143Z"/><path class="cls-1" d="M144.33,232.64c-1.64-.32-3.14-.52-4.6-.91-3.42-.91-4.94-3.57-5.87-6.68a14.65,14.65,0,0,1,.52-9.17c1.32-3.77,2.91-7.45,4.45-11.14a3.57,3.57,0,0,1,3.53-2.41,2.5,2.5,0,0,1,2.75,2,3.27,3.27,0,0,1,0,1.6c-.69,2.47-1.39,5-2.22,7.38-1,2.86-2.33,5.61-2.07,8.76a4.88,4.88,0,0,0,.12,1.33c.3.75.72,1.49,1.66,1.56a7.14,7.14,0,0,0,4.87-1,13.35,13.35,0,0,0,5.63-7.9,36.46,36.46,0,0,1,4.33-10.28,6,6,0,0,1,1.56-1.78,3.52,3.52,0,0,1,5.43,3.77,12.64,12.64,0,0,1-1.34,3.19,27.05,27.05,0,0,0-2.85,7.44c-1.72,6.45-6,10.64-11.91,13.24A20.1,20.1,0,0,1,144.33,232.64Z"/><path class="cls-1" d="M276.56,151.33c-2.53,1.42-3.61,3.58-4.86,5.6-2.58,4.17-5.09,8.39-7.69,12.55a11,11,0,0,1-1.67,1.74c-1.92-.66-2.09-1.95-1.79-3.36a8.33,8.33,0,0,1,.85-2.24c3.33-6.11,6.58-12.28,11-17.7a13.86,13.86,0,0,1,3-2.65,2.94,2.94,0,0,1,4.47,1.31,16.44,16.44,0,0,1,1.07,4.37c.19,1.5.06,3,.11,4.57.06,1.69.09,3.39.27,5.07s.54,3.33.89,5.44c.48-1.22.83-2,1.1-2.83,2.21-6.64,5.77-12.63,9.14-18.7a5.17,5.17,0,0,1,.84-1c1.24-1.28,2.72-1.66,3.84-1a3.52,3.52,0,0,1,1.71,4.29,17.11,17.11,0,0,1-1.14,2.69c-.82,1.58-1.76,3.11-2.56,4.69-2.1,4.13-4.1,8.31-6.25,12.41a43.38,43.38,0,0,1-3.17,5c-2.18,3.05-5.15,2.22-6.57-.54a28,28,0,0,1-2-6.31c-.81-3.26-.53-6.58-.57-9.88C276.55,153.62,276.56,152.48,276.56,151.33Z"/><path class="cls-1" d="M143.57,73.46c-4.65,1.18-9,2.32-13.3,3.34a18.83,18.83,0,0,1-5.15.7c-2.82-.14-4.39,1.05-5.89,3.4-3.84,6-8.07,11.81-12.05,17.75-2,3-4.5,5.27-8.06,6.11-1.22-.64-2.26-1.37-1.5-2.87,2.91-5.75,5.68-11.59,8.87-17.18,2.84-5,6.92-9.22,8.84-14.77a3.09,3.09,0,0,1,.9-1.27c4-3.37,6-8.15,8.71-12.41a69,69,0,0,1,13.21-14.88,19.69,19.69,0,0,1,7.33-3.81c4.56-1.33,9.34,2.25,10.68,7.15a35.52,35.52,0,0,1,.72,15.59,15.4,15.4,0,0,0-.47,3.08c.27,7.76-1.32,15.24-3.29,22.67q-2.53,9.57-5.17,19.1a4.8,4.8,0,0,1-4.33,3.94c-2.2.22-4.33,0-5.56-2.09s-2.06-4.1-1.62-6.45c.32-1.7.92-3.35,1.4-5,1.9-6.68,3.82-13.35,5.69-20A8.24,8.24,0,0,0,143.57,73.46ZM147.42,47c-5.28.9-12.5,8.36-15.14,15.55l14.21-4.88Z"/><path class="cls-1" d="M473.53,144.33l.82-.51c2.34-1.55,4.64-1,5.87,1.59a11.44,11.44,0,0,1,1,3.56,21.17,21.17,0,0,1-3.92,14.65,14.67,14.67,0,0,1-8.42,6.22c-7.16,2-13.1-4.5-13.06-9.81,0-4.28,1.75-7.61,4.09-10.75a18.24,18.24,0,0,1,7.22-5.84C469.58,142.37,471.75,141.73,473.53,144.33Zm-.52,3.32a21.54,21.54,0,0,0-8.7,8.79,6.15,6.15,0,0,0-.74,3.29,2.89,2.89,0,0,0,4.21,2.5,7.8,7.8,0,0,0,2.68-2.16C473,156.32,474.94,152.34,473,147.65Z"/><path class="cls-1" d="M244.39,146.38l-1,5.6c.72.52,1.42.2,2.19,0a3.63,3.63,0,0,1,3.34.33c1.76,1.31,1.75,3.32-.21,4.3a16.2,16.2,0,0,1-4.07,1.12c-1.21.24-2.46.31-3.71.45-.51,1.75-.92,3.38-1.46,5s-1.25,2.94-.85,4.71c2.26-.47,4.4-1,6.57-1.33a28,28,0,0,1,3.48-.22,2.08,2.08,0,0,1,2,1.49c.33.77-.2,1.4-.75,1.87a19.83,19.83,0,0,1-3.38,2.58c-3.09,1.6-6.28,3-9.92,2.78-3-.16-4.66-1.65-4.73-4.63,0-2,0-3.95,0-5.92a5.15,5.15,0,0,1,.29-1.83c1.61-3.86,2.67-7.93,4.61-11.67a18.58,18.58,0,0,0,1.54-5.07c.76-4,2.08-5.51,6-6.42a41.67,41.67,0,0,1,9.07-.71,5,5,0,0,1,3.3,1.59c1.1.94.81,3-.51,4a11,11,0,0,1-6.27,2C248.16,146.43,246.37,146.38,244.39,146.38Z"/><path class="cls-1" d="M65.2,204.43l.4-.37c2.25-2,4.47-1.89,6.42.4a7.79,7.79,0,0,1,2,5.39c-.18,4.49-1,8.88-3.79,12.56-2,2.62-4.15,5.17-7.63,6-5.93,1.42-10.72-.49-13.63-5.23a6.52,6.52,0,0,1-.73-2.52c-.13-1,0-2-.05-3a6.14,6.14,0,0,1,1.14-3.76,40.6,40.6,0,0,1,7.63-8.6,13.4,13.4,0,0,1,4-2.19,4.47,4.47,0,0,1,2.56.18A7.49,7.49,0,0,1,65.2,204.43ZM54.74,218.67c1.78,3.6,5.39,4.36,7.87,1.8A13.21,13.21,0,0,0,66.44,213c.25-1.88.51-3.9-1.38-5.17C60.21,210.32,57.36,214.44,54.74,218.67Z"/><path class="cls-1" d="M216.82,140.5a10.06,10.06,0,0,1,5.78,1.1c3.12,1.48,5.16,3.8,5,7.5-.06,1.87.22,3.75-.53,5.57a13.4,13.4,0,0,1-2.77,4.54,88.21,88.21,0,0,1-10.55,9.14,18,18,0,0,1-7.44,3.52,4.22,4.22,0,0,1-5-5,12.29,12.29,0,0,1,1-2.75c2.46-5.16,5-10.28,7.4-15.45a25.69,25.69,0,0,0,1.13-3.81,16.41,16.41,0,0,1,.59-2c.66-1.51,1.71-2.49,3.52-2.29C215.53,140.55,216.07,140.5,216.82,140.5Zm-7,23.12c.18,0,.4,0,.52,0a65.33,65.33,0,0,0,9.78-7.81,7.18,7.18,0,0,0,2.1-5.82,2.74,2.74,0,0,0-1.67-2.49,6,6,0,0,0-3.8-.43c-2.14,4.89-4.18,9.5-6.17,14.13a19.35,19.35,0,0,0-.71,2.5l-.27.37Z"/><path class="cls-1" d="M482,218.16l-1.95,3.9a8.65,8.65,0,0,0,4,0c2.1-.41,4.23-.74,6.14.45,1.48,4.43-2.45,6.86-5.82,7.27a45.61,45.61,0,0,1-8.6,0,5.5,5.5,0,0,1-5.23-5.7,7.11,7.11,0,0,1,1-2.73c2-3.5,3.91-7,6.08-10.4a15.67,15.67,0,0,0,2.36-5.62,4.17,4.17,0,0,1,3.45-3.57c2.57-.7,5.15-1.34,7.69-2.14a16.29,16.29,0,0,1,5.84-.5,5.48,5.48,0,0,1,2.49.79c1.82,1.13,1.85,2.59.1,3.81a12.92,12.92,0,0,1-5,1.89c-2.86.58-5.71,1.23-8.83,1.91l-.19,3.16a13.93,13.93,0,0,1,1.8.66,2.68,2.68,0,0,1,.83,4.28,7.37,7.37,0,0,1-2.63,1.73A21.7,21.7,0,0,1,482,218.16Z"/><path class="cls-1" d="M381.34,222.82c3.9.4,6.1-1.52,8-3.79,1.33-1.56,2.41-3.32,3.66-5,2.34-3,4.52-6.25,7.74-8.49a10.21,10.21,0,0,1,2.81-1.47,2.26,2.26,0,0,1,2.89,2.27c.13,1.76-.8,3.1-1.76,4.37-3.34,4.41-6.58,8.93-10.2,13.1-3.37,3.87-7.54,6.63-13.07,6-2.92-.33-5.25-1.66-6.41-4.55a6.69,6.69,0,0,1,0-5,41.59,41.59,0,0,1,4.93-9.46,12,12,0,0,0,2.27-4.2,4.39,4.39,0,0,1,.71-1.43,2.73,2.73,0,0,1,3-1.25,3,3,0,0,1,2.07,2.82c-.33,2.17-.48,4.35-1.68,6.37C384.55,216.21,383.11,219.37,381.34,222.82Z"/><path class="cls-1" d="M128.42,158.26c1.33-1.88,2.65-3.77,4-5.65,1.61-2.25,3.27-4.46,4.84-6.74,1.42-2,2.71-4.19,4.16-6.22a8.23,8.23,0,0,1,2.25-2.2c1.7-1.06,3.4-.83,4.39.34.69.82.6,2.69-.19,4a82.11,82.11,0,0,1-5.76,8.69c-2.88,3.74-5.47,7.71-8.26,11.52a15.1,15.1,0,0,1-3.76,4.13c-2.1,1.35-3.71,1.45-5.64,0a6.86,6.86,0,0,1-3-5.44,28.35,28.35,0,0,1,2-12,48.31,48.31,0,0,0,1.76-6.95c.23-.95.37-1.92.59-2.86.42-1.76,1.52-2.82,2.79-2.73a3.14,3.14,0,0,1,2.58,3,47.73,47.73,0,0,1-.25,5.07c-.25,3.68-1.8,7-2.59,10.58-.23,1-.31,2.08-.46,3.13Z"/><path class="cls-1" d="M396.21,149c.17,5.3-1.76,10-4.54,14.3-2.23,3.42-5.63,5.59-10,5.15-3.3-.33-6.26-1.52-7.66-4.95a5,5,0,0,1-.43-1.26,20.56,20.56,0,0,1,5.19-16.34,47.56,47.56,0,0,1,5.56-5,3,3,0,0,1,3.71-.49,5.08,5.08,0,0,0,2.26.52,5.93,5.93,0,0,1,5.89,5.67C396.26,147.38,396.21,148.19,396.21,149Zm-8-3c-1.47,1.47-2.94,2.8-4.23,4.28a15.64,15.64,0,0,0-3.92,8.91c-.21,2.19,1.37,3.26,3.42,2.5a5.8,5.8,0,0,0,3.31-2.6c1.69-3.25,3.17-6.58,2.92-10.42A3.33,3.33,0,0,0,388.26,145.95Z"/><path class="cls-1" d="M374.11,203.38c-1.15-.63-2.27-1.36-3.47-1.88-2.2-1-4.56-.77-6.88-.67a2.76,2.76,0,0,0-2.51,2.13,21.22,21.22,0,0,0-1,9.49,35.43,35.43,0,0,1,0,11.2c-.06.35-.11.71-.14,1.06-.37,3.92-2.81,7.36-6.22,8.2a9.05,9.05,0,0,1-9.85-3.25c-1.56-2-3.13-4.13-2.93-7s1.85-4.58,4.77-4.59h2.41a10.56,10.56,0,0,0-.61,1.28c-.2.66-.61,1.41-.45,2,.53,2,1.4,3.86,3.42,4.84a2.16,2.16,0,0,0,3-.74,1.92,1.92,0,0,0,.4-.69c.53-3,1.26-6,.83-9.21a28.57,28.57,0,0,1,.1-9.08,26.12,26.12,0,0,1,1.6-5.89,8.2,8.2,0,0,1,7-5.1,18.45,18.45,0,0,1,9.65,1.59,6.52,6.52,0,0,1,1.16.67C376.87,199.51,376.75,201.62,374.11,203.38Z"/><path class="cls-1" d="M216.72,278.05l-8.48,1.13c-1.19,2-2.46,4.23-3.84,6.41a7.76,7.76,0,0,1-1.8,1.91,1.73,1.73,0,0,1-2.44.09,2.56,2.56,0,0,1-1-2.8,12.8,12.8,0,0,1,.71-1.71c.39-.8.9-1.54,1.24-2.36,2.27-5.34,6.1-9.6,9.72-14,1.42-1.72,2.94-3.36,4.48-5a8.78,8.78,0,0,1,2.12-1.61,3.58,3.58,0,0,1,5.06,1.37,13,13,0,0,1,1.66,6.38,40.51,40.51,0,0,1-.43,4.76,28.86,28.86,0,0,1-2.23,8.73c-.57,1.4-1.26,2.75-1.91,4.11-.49,1-1,2.05-1.51,3.09-.78,1.66-2.53,2.62-3.85,2.06a3.14,3.14,0,0,1-1.66-4,25.44,25.44,0,0,1,1.59-3.65C214.91,281.35,215.78,279.8,216.72,278.05Zm-3.87-5.14c1.79-.46,3.78.6,5.36-.84-.41-1.61,1.47-3.32-.28-5.1Z"/><path class="cls-1" d="M298.51,216.27c-1.93-.1-3.59-.17-5.24-.28a2.28,2.28,0,0,0-2.24,1c-1.88,2.49-3.92,4.87-5.94,7.25a6.88,6.88,0,0,1-1.65,1.35,2.07,2.07,0,0,1-2.71-.12,2.51,2.51,0,0,1-.7-2.92,12.24,12.24,0,0,1,1.29-2c2.17-2.83,4.38-5.64,6.55-8.47,3.32-4.33,6.5-8.77,10.54-12.49a4.69,4.69,0,0,1,3.26-1.59,3.33,3.33,0,0,1,3.36,2.19,10.1,10.1,0,0,1,.65,3.38c.1,2-.2,4,.08,5.91a15.16,15.16,0,0,1-.44,5.41,30.31,30.31,0,0,1-1.5,5.37c-.56,1.39-.87,2.89-1.41,4.29a12.87,12.87,0,0,1-1.44,2.81,2.78,2.78,0,0,1-3.42.78,2.67,2.67,0,0,1-1.62-2.57,13.77,13.77,0,0,1,1.23-6.24C297.6,218.26,298.09,217.22,298.51,216.27Zm1-6.9c.25-1,1-1.89.54-3.28l-3.17,3.28Z"/><path class="cls-1" d="M196.9,220.69a18.63,18.63,0,0,1,1.5-7c.94-2.19,1.49-4.55,2.23-6.82a15.24,15.24,0,0,1,.93-2.48,2.46,2.46,0,0,1,2.88-1.4,2.75,2.75,0,0,1,2.09,2.53,27.08,27.08,0,0,1-.73,5.26,29.32,29.32,0,0,1-1.81,5.29c-.92,2-.73,4-.57,6.07.15,1.83,2.52,2.56,4.29,1.37a12.78,12.78,0,0,0,2.86-2.42,34.84,34.84,0,0,0,5.75-9.29c1-2.57,2.33-5,3.56-7.49.81-1.64,2-2.74,4-2.52a2.52,2.52,0,0,1,2.33,3.38,4.22,4.22,0,0,1-.17.51c-2.48,6.21-4.81,12.51-9.11,17.77a31.19,31.19,0,0,1-4.75,4.74,9.85,9.85,0,0,1-12,.33c-2.22-1.49-2.93-4-3.3-6.49A9.39,9.39,0,0,1,196.9,220.69Z"/><path class="cls-1" d="M309.25,50.52c1.16.62,1.94,1,2.69,1.44,3,1.76,3.44,3.66,1,6.17A23.13,23.13,0,0,1,309,60.89c-2.5,8.92-4.93,17.6-7.35,26.28a32.84,32.84,0,0,1-1.1,4,14,14,0,0,1-2.3,4c-1.65,1.8-3.81,1.74-5.58.06s-2.76-3.57-2-6.07c.67-2.33,1.28-4.68,2-7C294.33,76.7,296.07,71.25,298,65c-4.34,1.25-8,2.38-11.74,3.37-2.78.73-5.5,2-8.29,1.25-4.83,6.32-9.49,12.62-14.4,18.73A40.47,40.47,0,0,1,257.41,94a2.18,2.18,0,0,1-3.27-.25,2.21,2.21,0,0,1-.13-2.87c1.94-3.31,3.74-6.7,5.76-10,2.84-4.6,5.9-9.07,8.73-13.67,4.41-7.19,10.22-13.28,15.42-19.84,2.61-3.29,5.4-6.45,8.31-9.46a18.69,18.69,0,0,1,5.05-3.66c5.81-2.88,11.43.41,11.93,7C309.44,44.22,309.25,47.22,309.25,50.52Zm-8.72-8.62L289.36,54.7c4-1,8-1,11.17-3.22Z"/><path class="cls-1" d="M82.38,277.73c-2.44.27-4.57.47-6.68.77a2.36,2.36,0,0,0-1.31.8,32.33,32.33,0,0,0-2.07,2.79c-1.6,2.36-3.17,4.74-4.76,7.11a6.3,6.3,0,0,1-.88,1,2,2,0,0,1-2.38.62c-1.26-.58-2-1.47-1.67-2.71a11.91,11.91,0,0,1,1.62-3.61,161.34,161.34,0,0,1,9.86-13.66c1.89-2.26,3.75-4.54,5.65-6.8a17.31,17.31,0,0,1,1.5-1.54c2.65-2.46,4.85-1.14,6.19.63A7.54,7.54,0,0,1,89,267.63c0,2.87.17,5.75-.05,8.6a23.58,23.58,0,0,1-2.28,8.44c-.58,1.2-1.22,2.38-1.86,3.56-.88,1.63-2.28,2.33-3.69,1.85A3.56,3.56,0,0,1,78.84,286a6.63,6.63,0,0,1,1.06-2.43A17.41,17.41,0,0,0,82.38,277.73Zm1-9.59a24.7,24.7,0,0,0-3.66,4.63l3.66-.67Z"/><path class="cls-1" d="M75.1,145c-1.4,2.09-1.87,4.54-2.37,7.12a6.51,6.51,0,0,0,2.72,0c1.49-.17,2.58.32,2.9,1.25a2.79,2.79,0,0,1-1.19,3.26,9.83,9.83,0,0,1-3,1,18.46,18.46,0,0,1-3.07,0,84.57,84.57,0,0,0-3.73,9.06c2.6-.07,4.89.56,7.14-.41a2.64,2.64,0,0,1,1.06-.11,2,2,0,0,1,1.9,2.93A6.36,6.36,0,0,1,72,173.27a30.63,30.63,0,0,1-6.44,0c-4.3-.5-5.48-3.26-4.77-7.07a18.89,18.89,0,0,1,1.5-4.27,149,149,0,0,0,5.55-14.13,23.62,23.62,0,0,1,3-5.91c1.79-2.57,4.84-3.17,7.64-4.06a16.79,16.79,0,0,1,2.6-.53A4.83,4.83,0,0,1,85.87,139a2.08,2.08,0,0,1,0,2.91,4.8,4.8,0,0,1-3.17,1.82C80.2,144.12,77.68,144.59,75.1,145Z"/><path class="cls-1" d="M420.72,206.58a7.43,7.43,0,0,1,5.38,3.35,4.67,4.67,0,0,1,.81,2.19,17.63,17.63,0,0,1-4,13.75,12.73,12.73,0,0,1-7.72,4.46c-2.5.5-4.75-.63-6.77-2a11.49,11.49,0,0,1-2.83-2.85,6.7,6.7,0,0,1-1-6.32A20.45,20.45,0,0,1,411.28,209c1.54-1.23,3-2.59,4.42-3.91C417.93,203.11,419.57,203.53,420.72,206.58Zm-.53,7.82-2.27-2.53a41,41,0,0,0-4.09,3.91,18.76,18.76,0,0,0-2.47,4.41c-.57,1.34,0,2,1.19,2.86s3.46.37,4.76-1.22A11.7,11.7,0,0,0,420.19,214.4Z"/><path class="cls-1" d="M392.84,44.69c-2.81.54-5,.9-7.13,1.39-2.36.55-4.68,1.31-7.05,1.8a6.31,6.31,0,0,1-3.62,0,7.63,7.63,0,0,1-3.36-3,3.19,3.19,0,0,1,1.23-4.19,25.86,25.86,0,0,1,6.49-3.24c5.67-1.62,11.43-2.91,17.18-4.27q9.87-2.34,19.78-4.56a14.71,14.71,0,0,1,4.58-.63A4.85,4.85,0,0,1,425,31.62a4.08,4.08,0,0,1-1.35,4.74,15.43,15.43,0,0,1-3.5,2.15,45.41,45.41,0,0,1-5.91,2,14.77,14.77,0,0,0-10.59,9.28c-2.95,7.45-6.09,14.81-9.06,22.25-2.64,6.62-5.19,13.29-7.72,20-.49,1.29-.61,2.72-1.11,4-1.05,2.68-2.51,5.11-5.65,5.66-4.77.85-9.21-3.77-8.44-8.79a21.31,21.31,0,0,1,1.39-5c3.93-9.31,7.86-18.62,12-27.83,1.71-3.81,4-7.37,5.93-11.08C391.6,47.81,392,46.55,392.84,44.69Z"/><path class="cls-1" d="M160.3,147.42c1.36,0,2.43,0,3.5,0,2.23.05,3.29,1.69,2.26,3.58a3.27,3.27,0,0,1-2.49,1.86c-1.68.19-3.35.41-5,.58a2.41,2.41,0,0,0-2.26,1.56c-.74,1.9-1.55,3.79-2.46,6,1-.11,1.75-.22,2.5-.28,1.59-.13,3.19-.33,4.78-.3,1.14,0,1.5.76,1.16,1.89a8.39,8.39,0,0,1-7.41,5.65c-.72,0-1.44,0-2.15,0-2.94-.06-5-1.68-5.27-4.64a12.93,12.93,0,0,1,.82-7.09,69.76,69.76,0,0,1,5.42-10.13,75.77,75.77,0,0,0,4-7,3.2,3.2,0,0,1,3.18-2,9.27,9.27,0,0,0,2.81-.6c1.19-.35,2.36-.77,3.52-1.22a4.49,4.49,0,0,1,4.3.74c1.83,1.2,1.79,3.57-.2,4.46a22.72,22.72,0,0,1-6.06,1.94,4.43,4.43,0,0,0-4.1,3.2A17.25,17.25,0,0,1,160.3,147.42Z"/><path class="cls-1" d="M540.8,205c-1.5.19-2.54.34-3.58.45s-1.95.2-2.93.23A2.67,2.67,0,0,1,532.5,201a5.44,5.44,0,0,1,2.28-1.3c2.49-.63,5-1.16,7.53-1.62,3-.55,6.13-.95,9.17-1.51a3.89,3.89,0,0,1,3.72.9,3.09,3.09,0,0,1-.58,4.85,6,6,0,0,1-2.44,1c-2.13.19-3.42,1.55-4.47,3.09-1.61,2.34-3.08,4.8-4.49,7.27-2.21,3.87-4.28,7.82-6.48,11.69a28.18,28.18,0,0,1-2.47,3.47,2.67,2.67,0,0,1-3.15.83,3.24,3.24,0,0,1-1.92-3.22,9.54,9.54,0,0,1,1.66-4.45c3-5.16,6.07-10.28,9.11-15.41C540.19,206.28,540.36,205.87,540.8,205Z"/><path class="cls-1" d="M239.9,207.91c1.57,1.8,3.06,3.22,4.22,4.87,3,4.26,2.29,8.61-1.22,12.09a25.76,25.76,0,0,1-4.6,3.19,7.34,7.34,0,0,1-5,.71,4,4,0,0,1-3.48-3,3.86,3.86,0,0,1,.62-4c1.11-1.19,1.46-1.29,3-.53.32.16.63.34,1.21.65a35.07,35.07,0,0,0,3.38-2.28,1.8,1.8,0,0,0,.41-2.83,21,21,0,0,0-2.67-3c-.56-.56-1.28-1-1.88-1.5-3.13-2.8-2.48-6.15.21-8.58a23.15,23.15,0,0,1,9.83-5.17,12,12,0,0,1,7.34.15,4.9,4.9,0,0,1,1.22.54c1.68,1.22,1.81,2.93,0,4.1a6.07,6.07,0,0,1-2.81.66C246,204.24,242.91,205.85,239.9,207.91Z"/><path class="cls-1" d="M187.77,149.82a13.6,13.6,0,0,1-6-7.69,16.22,16.22,0,0,0-1.14-2.11,2.5,2.5,0,0,1,.31-3.19,2.24,2.24,0,0,1,3.17-.08,10.49,10.49,0,0,1,2.16,2.31c.9,1.22,1.65,2.54,2.5,3.79a6,6,0,0,0,1.12,1.16c1.41,1.18,2.29,1.19,3.37-.29,1.58-2.16,3.83-3.75,5-6.28a2.79,2.79,0,0,1,3.51-1.22,2.87,2.87,0,0,1,1.74,2.75,7,7,0,0,1-1.48,4.76c-1.45,2-2.89,4.09-4.5,6a58.26,58.26,0,0,0-8,12,22.65,22.65,0,0,1-3,4.09,3.57,3.57,0,0,1-4.79.68,3.44,3.44,0,0,1-1.08-4.73c1.83-3.36,3.84-6.63,5.79-9.93C186.79,151.16,187.27,150.53,187.77,149.82Z"/><path class="cls-1" d="M145.26,285.25a9.76,9.76,0,0,0,2.55,0c2.12-.71,4.27-.29,6.4-.41a3,3,0,0,1,3,1.89c.61,1.28,0,2.39-.95,3.37-1.93,2-4.46,2.6-7,2.81a60.51,60.51,0,0,1-7,0c-3.27-.11-5.22-2.22-5.35-5.47a9.23,9.23,0,0,1,1.57-5.82,34,34,0,0,0,1.79-3.59q3.58-6.9,7.2-13.77c.83-1.56,2.48-2.36,3.72-1.9a3.74,3.74,0,0,1,2.16,4.14,35.37,35.37,0,0,1-3.13,8.5C148.61,278.29,147,281.58,145.26,285.25Z"/><path class="cls-1" d="M110.57,275.94l-5.75.41c-1.62,2.9-3.84,5.69-5.16,9a9.36,9.36,0,0,1-1.27,2A2.11,2.11,0,0,1,96,288a1.51,1.51,0,0,1-1.09-1.91,27.51,27.51,0,0,1,1.3-4.86,43.94,43.94,0,0,1,2.56-4.69c2.45-4.35,4.86-8.73,7.37-13a14.61,14.61,0,0,1,2.37-2.89c2.29-2.28,5.23-1.72,6.44,1.31a14.24,14.24,0,0,1,1,4.66c.14,3.85.1,7.71,0,11.57a13.53,13.53,0,0,1-.61,3.12,31.63,31.63,0,0,1-1,3.29,11.08,11.08,0,0,1-1.18,2.36,2.18,2.18,0,0,1-2.55,1,3,3,0,0,1-2.17-2.49,10.5,10.5,0,0,1,.67-4.73C109.55,279.21,110,277.62,110.57,275.94Zm-.16-9.74a20.08,20.08,0,0,0-2.67,5.16l2.67-.79Z"/><path class="cls-1" d="M568.09,215.92c-1.3,0-2.36-.08-3.4,0a25.72,25.72,0,0,0-2.85.59c-1.41,2.2-2.68,4.46-4.23,6.51a20,20,0,0,1-3.5,3.26c-.33.27-1.22.37-1.43.15a2.34,2.34,0,0,1-.46-1.62,6,6,0,0,1,.6-1.75,40.34,40.34,0,0,1,8.2-13.32c2.87-2.94,5.93-5.7,8.94-8.49a4,4,0,0,1,2.94-1.08c1.32.06,2.86.9,3.09,2.13s.73,2.52.38,3.94-.71,3,.1,4.43a1.41,1.41,0,0,1-.58,1.88,7,7,0,0,0-2.23,3.85c-.79,2.53-2.24,4.82-2.74,7.49a3.5,3.5,0,0,1-1.6,2,2.34,2.34,0,0,1-3.49-2,13.71,13.71,0,0,1,1.6-6.67C567.6,216.87,567.8,216.51,568.09,215.92Zm-.19-6.22c2.63.19,3.16-.35,3-2.65Z"/><path class="cls-1" d="M506.45,221.82a5.76,5.76,0,0,0,3.11-4.32,5.08,5.08,0,0,0-.16-2.59c-.68-1.92-1-4-1.83-5.84-1.69-3.85,1.51-8.66,4.75-10.28a15.88,15.88,0,0,1,5.87-1.65,11.73,11.73,0,0,1,4.2.59c1.62.49,2.54,2.67,1.74,3.91a3,3,0,0,1-1.64,1.22c-1.29.33-2.65.33-4,.62a13,13,0,0,0-3.24,1.12c-1.56.83-1.8,1.74-1.23,3.54s1.11,3.75,1.75,5.6a7.27,7.27,0,0,1,.17,4.46c-.28,1-.25,2.14-.6,3.13-1.33,3.8-4.21,6.19-7.78,7.66a5.34,5.34,0,0,1-6.37-1.37c-2.24-2.44-1.63-5.7,1.38-7.07C504.45,219.72,505.08,219.91,506.45,221.82Z"/><path class="cls-1" d="M241,283.44l8.58-.83a9.74,9.74,0,0,1,1.07,0c1.32,0,2.55.36,3.1,1.66a3.64,3.64,0,0,1-1.49,4.24,13.32,13.32,0,0,1-3.67,1.54,60.13,60.13,0,0,1-7.35,1.18,18.75,18.75,0,0,1-3.95-.38c-3.92-.48-5.57-5.44-4-8.63,1.29-2.63,2.78-5.17,4.23-7.73,1.05-1.86,2.24-3.64,3.26-5.52a14.31,14.31,0,0,0,1-2.73c.13-.42.09-.9.22-1.31a3.13,3.13,0,0,1,2.76-2.16,2.77,2.77,0,0,1,2.5,2.12c.42,1.6,1,3.25.16,5-.89,1.93-1.59,4-2.5,5.88C243.67,278.33,242.3,280.89,241,283.44Z"/><path class="cls-1" d="M87.86,227.74c-4,.1-6.58-2-7.48-4.6a8.27,8.27,0,0,1-.16-5A27.58,27.58,0,0,1,82,214c1.27-2.74,2.59-5.46,3.87-8.2.45-1,.7-2.06,1.95-2.35,2.16-.5,3.71.93,3.22,3.2a27.59,27.59,0,0,1-1.66,5c-.81,1.88-1.85,3.66-2.77,5.49a15.25,15.25,0,0,0-1,2.19c-.56,1.77.42,3,2.28,3A3.7,3.7,0,0,0,91,220.56a50.67,50.67,0,0,0,4.31-6.74c1.22-2.67,2.66-5.24,4.11-7.79a8.89,8.89,0,0,1,2-2.43,1.83,1.83,0,0,1,2.46-.18,2.37,2.37,0,0,1,1.12,2.72,6.3,6.3,0,0,1-.48,1.52c-2.53,4.59-4.45,9.52-7.5,13.83A27.8,27.8,0,0,1,94,225.2,7.85,7.85,0,0,1,87.86,227.74Z"/><path class="cls-1" d="M265.36,281.5a11.15,11.15,0,0,0,3,0c2.29-.75,4.63-.25,6.94-.48a2.41,2.41,0,0,1,2.62,1.47c.46,1,0,2.11-1.13,3a26.42,26.42,0,0,1-3,2.21A9.12,9.12,0,0,1,270.3,289a43.7,43.7,0,0,1-7.52,0c-3-.26-5.63-3.45-5.79-6.49a7.61,7.61,0,0,1,1.45-5c1.89-2.7,3.55-5.56,5.23-8.4a11.53,11.53,0,0,0,.85-2.51c.1-.34.1-.71.22-1A3.43,3.43,0,0,1,268,263.3a3.19,3.19,0,0,1,2.88,2.44c.35,2,.6,4.1-.34,6.06-.5,1-1.1,2-1.65,3.06Z"/><path class="cls-1" d="M329.53,85.89a16.8,16.8,0,0,0,5.06-11.35,47.61,47.61,0,0,0-2.35-20.44c-1.59-4.45-1.43-8.71,1.65-12.32,3.8-4.45,8.64-7.12,14.74-6.45a6.4,6.4,0,0,1,5.67,4.76A6.1,6.1,0,0,1,351.83,47,7.87,7.87,0,0,1,349,48c-1,.23-2.07.2-3,.49a7.06,7.06,0,0,0-1.74,1.17,72.51,72.51,0,0,1,4,25.71c-.34,8.73-3.22,16.4-10.05,22.18a20.67,20.67,0,0,1-5.28,3.3,9.39,9.39,0,0,1-13.11-10.19,15.07,15.07,0,0,1,.94-3c1.58-4.2,3.57-4.81,7.51-2.33A10.8,10.8,0,0,0,329.53,85.89Z"/><path class="cls-1" d="M271.16,205c-2.62.36-4.91.63-7.18,1-2,.33-3.17-.09-3.54-1.42-.47-1.65.31-2.88,2.48-3.41,2.5-.61,5-1,7.57-1.5,2.87-.57,5.73-1.17,8.6-1.75a8.73,8.73,0,0,1,2.08-.36,2.43,2.43,0,0,1,2.25,1.64,2.47,2.47,0,0,1-.45,3A10.46,10.46,0,0,1,280,204a5.34,5.34,0,0,0-2.83,2.27,34.94,34.94,0,0,0-3.79,8.52,33,33,0,0,1-2.82,6.33c-1.12,2-2.13,4.1-3.2,6.15a2.81,2.81,0,0,1-3.1,1.61,2.32,2.32,0,0,1-2.24-2.24,7.25,7.25,0,0,1,.51-3.1c1.13-2.42,2.55-4.71,3.69-7.12s2.17-5.06,3.25-7.6C270,207.66,270.51,206.52,271.16,205Z"/><path class="cls-1" d="M407.92,163.87l4.57-.35c1.86-.15,3.72-.31,5.58-.42a3.31,3.31,0,0,1,1.3.24c2.42.9,2.78,2.62,1,4.52a6.13,6.13,0,0,1-4,1.86c-2.56.29-5.1.67-7.67.9a8.59,8.59,0,0,1-2.35-.35c-4-.79-5.23-4.15-4.65-7.79a8.4,8.4,0,0,1,1.17-3c2-3.27,4.14-6.45,6.16-9.71A40.56,40.56,0,0,0,411,146a4.64,4.64,0,0,1,2-2.4c.93-.47,1.81-.77,2.75-.06a2.33,2.33,0,0,1,.89,2.63,35.55,35.55,0,0,1-1.57,4.53c-.67,1.55-1.49,3-2.31,4.53C411.25,158,409.71,160.69,407.92,163.87Z"/><path class="cls-1" d="M113.33,219.24l4.63-.5c.53-.06,1.06-.12,1.6-.13a22.3,22.3,0,0,0,3.93,0,2.62,2.62,0,0,1,1.94.57,2,2,0,0,1-.16,3.43c-2.67,1.92-5.43,3.79-8.87,4a37.53,37.53,0,0,1-4.84,0,6.29,6.29,0,0,1-5.65-8.57,53.52,53.52,0,0,1,4.2-7.75,16.79,16.79,0,0,0,2.58-5.51,5.27,5.27,0,0,1,.51-1.5,2.45,2.45,0,0,1,4-.67,4.41,4.41,0,0,1,1.4,3.88,15.35,15.35,0,0,1-2.07,6.55C115.41,214.85,114.57,216.84,113.33,219.24Z"/><path class="cls-1" d="M180.47,207.3c-2-.42-4,1.29-6,.29-.55-2.74-.43-3,1.68-4.1,2.49-1.3,5.27-1.58,8-2.15a35.82,35.82,0,0,1,4.49-.59,4.45,4.45,0,0,1,1.82.3,2.3,2.3,0,0,1,.21,4.22c-.16.08-.31.26-.46.26-2.56,0-3.34,1.72-4.11,3.75-1.67,4.41-3.56,8.73-5.29,13.12-.71,1.8-1.83,3.47-1.82,5.55a3.94,3.94,0,0,1-.8,1.68,3.27,3.27,0,0,1-3.31,1.64c-1.39-.39-2.79-1.71-2.69-3a22.2,22.2,0,0,1,1-5.73,80.55,80.55,0,0,1,3.53-7.79C177.88,212.27,179.17,209.84,180.47,207.3Z"/><path class="cls-1" d="M436.46,160.85c1.38,1.4,2.79,1.23,4.23,1,2-.31,4-.62,6-.88a2.09,2.09,0,0,1,2.13,1.34,2.26,2.26,0,0,1-.54,2.69c-2.43,1.79-4.81,3.58-7.89,4.29-4.67,1.09-12.19-3.2-11.41-9.21a7.55,7.55,0,0,1,.85-2.76,53.05,53.05,0,0,0,4.68-10.43,7.28,7.28,0,0,1,1.15-2.08,2.23,2.23,0,0,1,2.57-1,2.73,2.73,0,0,1,2.07,2.24,17.38,17.38,0,0,1-.32,5.29,75.35,75.35,0,0,1-2.73,7.2C437,159.35,436.71,160.16,436.46,160.85Z"/><path class="cls-1" d="M136,263.65c-.31,1.29-.53,2.61-.95,3.87a132,132,0,0,1-7.29,17.78,12.48,12.48,0,0,1-2.16,3,2.68,2.68,0,0,1-3.43.4,3.81,3.81,0,0,1-1.83-3.62,10.67,10.67,0,0,1,.72-2c1.27-2.75,2.58-5.49,3.86-8.24,1.47-3.15,3-6.29,4.39-9.47.47-1,.69-2.21,1.12-3.27.67-1.64,2-2.67,3.1-2.52,1.35.18,2.3,1.74,2.3,3.75,0,.09,0,.18,0,.27Z"/></svg>