<?xml version="1.0" encoding="utf-8"?>
<!-- Generator: Adobe Illustrator 21.0.2, SVG Export Plug-In . SVG Version: 6.00 Build 0)  -->
<svg version="1.1" id="Layer_1" xmlns="http://www.w3.org/2000/svg" xmlns:xlink="http://www.w3.org/1999/xlink" x="0px" y="0px"
	 viewBox="0 0 584 240.4" style="enable-background:new 0 0 584 240.4;" xml:space="preserve">
<style type="text/css">
	.st0{fill:#00349F;}
</style>
<title>fi_korjattu</title>
<path class="st0" d="M37.2,112.5c-5.8-2.6-7.9-6.6-5.8-12.6c3.1-8.9,6.2-17.8,10.4-26.2C47.2,63,52.7,52.3,58,41.5
	c2.2-4.5,4.8-8.9,4.4-14.3c-0.1-2.2,0.6-4.4,1-6.6c0.6-3.2,4.2-5.4,7.3-3.7c3.9,2.1,7.6,1.2,11.5,1.3c6.4,0.1,12.9,1.1,18.7,4.1
	c2.4,1.1,4.5,2.6,6.3,4.5c1.9,2.1,2.9,4.9,2.7,7.8c0,0.2,0,0.4,0,0.5c2,15.4-11.7,27.1-23.3,28.9c-7.3,1.1-14.7,0.7-21.8-3.2
	c-1,2-2.1,3.8-2.9,5.6c-4.3,9.5-8.5,19.1-12.8,28.7c-2.1,4.6-4.5,9-6.7,13.6C41.4,110.6,39.5,112.1,37.2,112.5z M71.1,49.3
	c2.6,0.7,5.1,1.8,7.6,2c9.9,0.7,15.9-2.5,19.9-11c1.5-3.2,1.1-7.1-1.6-8.4c-6.6-3.1-13.4-4.6-19.9-3.2L71.1,49.3z"/>
<path class="st0" d="M215.7,63.4c2.3,2.4,4.6,4.9,6.9,7.3c1,1,2.1,1.9,3.3,2.6c4.3,2.6,8.7,5.1,13,7.7c1.5,0.9,2.5,2.6,2.5,4.4
	c0,1.4-2.2,3.7-3.9,3.8c-3.5,0.2-7.1,0.6-10.5-0.2c-5.2-1.1-9.9-3.6-13.7-7.3c-5.6-5.8-11.5-11.4-15.6-19.1
	c-0.7,0.8-1.3,1.6-1.8,2.5c-3.8,8.6-7.7,17.2-11.4,25.8c-1.9,4.5-5.2,7.8-8.3,11.4c-0.6,0.6-1.4,1.1-2.2,1.4c-2.1,0.9-4-0.1-4.1-2.4
	c0-1.7,0.3-3.5,0.9-5.1c4.2-11.2,8.5-22.5,12.9-33.6c3.6-9.1,7.2-18.3,13.6-25.8c3.9-4.6,8.9-7.9,15.4-7.6c4.4,0.2,8.8,0.2,13,1.3
	c5,1.3,9,4.1,10.2,10c1.7,8.6-0.5,14.2-8.3,18.2C223.9,60.4,219.9,61.7,215.7,63.4z M221.8,43.2c-2.6-0.6-4.9-1.2-7.3-1.5
	c-3.8-0.5-6.8,1-9,4.6c3,2.6,6.5,1.8,9.5,1.3C217.5,47.2,220.5,46.5,221.8,43.2L221.8,43.2z"/>
<path class="st0" d="M27,211.5c2.8-1.8,5.5-3.7,8.3-5.5c1.4-0.8,2.8-1.6,4.3-2.2c1.3-0.6,2.7-0.2,3.6,0.8c0.6,1.3,0.3,2.9-0.8,3.9
	c-0.3,0.2-0.5,0.5-0.8,0.7l-12.7,8c-0.2,0.2-0.4,0.4-0.5,0.6c2.5,2.6,5.1,5.1,7.6,7.7c1.3,1.4,2.9,1.6,4.5,2.1
	c0.4,0.1,1-0.2,1.5-0.4c1-0.4,2.1-0.2,2.8,0.7c0.6,1,0.4,2.2-0.4,2.9c-2.1,1.6-4.1,3.1-7,3.1c-2,0-3.9-0.7-5.4-1.9
	c-3.3-2.7-5.9-6-8.7-9.1c-0.4-0.4-0.8-0.9-1.4-1.5c-1.2,2.7-2.2,5.3-3.4,7.8c-0.8,1.8-1.8,3.5-2.8,5.1c-1.1,1.4-3.1,1.7-4.5,0.7
	c-0.5-0.3-0.8-0.8-1-1.3c-0.5-1.3-0.5-2.7,0.2-3.9c1.2-2.4,2.2-4.9,3.4-7.3c2.7-5.2,5.1-10.6,8.2-15.6c0.6-1.3,1.1-2.6,1.4-4
	c0.4-1.1,0.6-2.3,2.1-2.5c1.4-0.4,2.8,0.4,3.2,1.8c0.1,0.3,0.1,0.5,0.1,0.8c0.3,2,0,4-0.9,5.8c-0.5,0.9-0.8,1.8-1.2,2.7L27,211.5z"
	/>
<path class="st0" d="M51.1,137.2c-0.2,4.3-1.8,8.2-3.5,12c-2.4,5.3-4.5,10.6-6.4,16.1c-0.8,2.4-1.6,4.7-2.5,7
	c-0.3,1.2-1.2,2.3-2.3,2.8c-1.5,0.8-3.3,0.2-4.1-1.3c-0.2-0.4-0.3-0.8-0.3-1.3c-0.1-2,0.2-3.9,1-5.8c1.1-3.1,2.2-6.2,3.4-9.3
	c1-2.5,2-5,3-7.4c1.6-3.7,3.3-7.3,4.9-11c0-0.2,0-0.5,0-0.7c-1-0.2-2.1-0.2-3.1,0c-4.4,0.9-8.9,1.2-13.3,1c-0.7,0-1.4-0.2-2-0.5
	c-1.1-0.5-1.7-1.8-1.2-2.9c0.2-0.4,0.4-0.7,0.8-1c0.6-0.5,1.4-0.8,2.2-1c6.8-1.1,13.7-2.3,20.5-3.3c4-0.6,8-1.5,12.2-1.6
	c0.5,0,1.1,0,1.6,0c1.7,0.2,3,1.5,3.1,3.2c0,1.7-1.3,3.1-3,3.3c-3.2,0.4-6.4,0.8-9.5,1.2C51.9,136.8,51.5,137,51.1,137.2z"/>
<path class="st0" d="M311.3,153.4c3.6-1,6.9-1.9,10.2-2.8c0.8-0.1,1.5-0.8,1.5-1.6c0.1-0.9,0.3-1.8,0.5-2.6c0.2-1.7,1.7-2.9,3.4-2.8
	c1.6,0.1,2.9,1.2,3.2,2.7c0.8,3,0.1,5.8-1.1,8.5c-1.7,4-3.3,8.1-4.9,12.1c-0.3,0.9-0.4,1.7-0.5,2.6c-0.4,2.3-1.8,3.3-4.2,3.2
	c-1.9,0-3.4-1.5-3.4-3.4c-0.3-2.3,0.1-4.7,1.1-6.8c0.6-1.3,1.2-2.6,1.6-4l-9.5,1.4c-1,3.9-3.1,7.4-3.5,11.6
	c-0.1,1.8-1.5,3.2-3.3,3.3c-2.6,0.4-4.5-2.7-4-5.1c0.6-2.7,1.3-5.3,2.4-7.9c1.4-3.5,2.6-7,3.9-10.5c0.3-0.9,0.5-1.9,0.6-2.9
	c0.3-1.9,0.9-3.8,1.9-5.5c0.5-1.1,1.7-1.7,2.9-1.5c1.2,0.3,2,1.3,2.2,2.4c0.1,0.5,0.1,1.1,0,1.6C311.9,148,311.6,150.5,311.3,153.4z
	"/>
<path class="st0" d="M335,161.6c0.1-2.5,0.7-5,1.6-7.3c1-2.6,1.5-5.5,2.5-8.1c0.7-1.7,1.6-3.4,2.7-4.9c0.7-1,2.1-1.3,3.2-0.7
	c1,0.4,1.7,1.4,1.6,2.5c0.1,0.6,0,1.3-0.1,1.9c-1.4,4.1-1.8,8.5-3.6,12.5c-1,2.2-1.1,4.8-0.2,7.1c0.6,1.8,1.9,2.6,3.7,2
	c2.2-0.6,4.1-2,5.3-3.9c2.1-3,3.8-6.3,5.1-9.7c1.1-2.8,2.3-5.6,3.7-8.2c0.6-1,1.3-1.9,2.3-2.6c1.4-1.2,3.6-1,4.8,0.4
	c0.1,0.1,0.2,0.2,0.2,0.3c1.1,1.4,0.6,2.6-0.1,3.9s-1.6,2.8-2.3,4.2c-2.2,4.8-3.9,9.8-6.8,14.2c-2.3,3.9-6,6.8-10.3,8.1
	c-4.9,1.5-10.8-0.8-12.4-6.3C335.6,165.3,335.3,163.4,335,161.6z"/>
<path class="st0" d="M469.8,69.8c-1.4,4.8-2.9,9.7-4.4,14.7c-0.2,0.8-0.4,1.7-0.7,2.5c-1.4,3.4-2.8,6.8-2.8,10.6c-0.1,1-0.4,2-0.7,3
	c-0.8,3.7-2.9,5.7-5.9,5.4s-4.8-2.5-5-6.3c-0.3-4,0.3-8,1.7-11.8c1.8-4.5,3.2-9.2,4.9-14.1L431.6,78c-4.9,6.4-10.2,13.6-18.2,18.5
	c-0.6-0.6-1.8-1.1-1.8-1.7c-0.1-1.3,0.2-2.7,0.8-3.9c2.6-3.9,5.4-7.7,8.3-11.5c5.7-7.5,11.7-14.8,17.3-22.5
	c4.5-6.2,9.6-12,15.2-17.3c1.9-1.8,4-3.3,6.3-4.6c4.5-2.4,9.4-0.5,11,4.3c0.6,2,0.9,4.1,1,6.2c0.2,2.3,0,4.5,0,7.2
	c1.2,0.2,2.4,0.3,3.5,0.5c3.6,0.5,6.5,3.2,7,6.8c0.3,2.8-2.1,6.6-5.2,7.8C474.7,68.7,472.4,69.1,469.8,69.8z M461.1,45.2l-13.6,13.7
	c4.1-0.5,8.2-1.5,12.1-3c0.8-0.6,1.4-1.5,1.4-2.5C461.2,51,461.1,48.6,461.1,45.2z"/>
<path class="st0" d="M489.3,167.4c-1.4-0.7-1.9-2.5-1.2-3.9c0.7-2.3,1.5-4.6,2.4-6.8c1.8-3.9,3.8-7.6,5.8-11.4
	c0.5-0.9,1.3-1.7,2.1-2.4c1.2-1.2,3.2-1.3,4.4-0.1c0,0,0,0,0,0c1.7,1.1,2.7,3,2.8,5c0.2,4.4,0.5,8.9,0.8,13.4
	c0.3-0.2,0.5-0.4,0.7-0.7c2-3.2,3.6-6.6,4.9-10.1c0.9-2.8,2.1-5.5,3.4-8.1c1-1.8,2.3-3.4,3.7-4.9c1.2-1.3,2.8-2,4.5-2
	c1.4-0.1,2.7,0.6,3.3,1.9c0.7,1.3,0.5,2.9-0.5,4c-0.9,1-1.8,2-2.7,3c-2.1,2.2-3,5.1-4,7.8c-1.7,4.4-4.1,8.5-7,12.3
	c-1.1,1.3-2.4,2.5-3.8,3.4c-1.4,1-3.2,0.9-4.5-0.2c-1.7-1.3-2.7-3.2-2.8-5.3c0-2.1-0.1-4.3,0-6.4c0.1-2.9-0.5-5.6-0.8-8.5
	c-1.5,0.5-1.8,1.7-2.3,2.7c-1.9,3.9-3.5,8-5.5,11.8C491.9,163.7,490.7,165.6,489.3,167.4z"/>
<path class="st0" d="M461.9,213.2c-0.8,0.7-1.6,1.4-2.4,2.1c-0.8,0.6-1.6,1.2-2.4,1.6c-2.2,1.1-4.8,0.3-6-1.8
	c-0.4-0.8-0.8-1.6-1.1-2.4c-0.4-0.9-0.7-1.8-1.1-3c-2.7,2.7-5.4,5.1-7,8.3s-4,5.9-5.9,8.9c-0.4,0.5-0.8,0.9-1.3,1.2
	c-1-0.1-1.4-0.6-1.3-1.4c0-0.9,0.2-1.8,0.5-2.6c1.6-4,3.1-8,5.5-11.5c2.1-3,4.6-5.7,7-8.4c1-1.4,2.9-2,4.5-1.5
	c2,0.6,3.3,2.3,3.4,4.4c0.1,1.3,0.4,2.6,0.7,3.9c1.4,0.4,1.8-0.6,2.4-1.4c1.3-1.5,2.4-3.1,3.8-4.5c0.9-0.9,1.9-1.6,3-2.2
	c3-1.5,5.7,0.1,5.7,3.4c0,3-0.6,6-1.9,8.8c-2.1,4.5-4.3,9-6.5,13.5c-0.5,1-1.2,2-1.9,2.9c-0.8,1.2-2.4,1.6-3.8,1.1
	c-1.5-0.7-2.3-2.4-1.8-4c0.1-0.3,0.1-0.7,0.3-1c1.4-2.6,2.9-5.1,4.3-7.7C459.8,217.7,461.3,215.6,461.9,213.2l0.2-0.5L461.9,213.2z
	 M462.7,211.7l-0.1,0.2h0.1L462.7,211.7z"/>
<path class="st0" d="M113.9,161.8c-1.7,3.5-4.7,4.4-7.8,2.4c-2.4-1.6-3.9-3.9-5.3-6.3c-0.6-1.1-1.2-2.2-1.8-3.4
	c-1.1,4-2.5,7.8-2.4,11.9c0,0.9-0.2,1.8-0.5,2.6c-0.4,1.3-1.7,2.2-3.1,2.2c-1.4,0.1-2.7-0.7-3.2-2c-0.5-1.1-0.7-2.2-0.6-3.4
	c0.4-3.5,1.1-7,2.1-10.4c1.5-5.1,3.1-10.2,4.7-15.3c0.8-2.4,1.5-2.9,4.1-2.9c0.9,0,1.7-0.2,2.6-0.6c1.6-0.7,3.4-0.7,4.9,0.1
	c1.6,0.8,3.1,1.7,4.6,2.7c0.9,0.6,1.4,1.7,1.3,2.8c0,0.8,0,1.6,0,2.4c0.1,1.8-1,3.4-2.6,4c-2,0.9-4.2,1.6-6.3,2.4
	c1.8,2.4,2.9,5.5,5.3,7.6c0.8,0.8,1.6,1.7,2.8,1.9C113.2,160.7,113.5,161.4,113.9,161.8z M109.4,143c-1.1-0.7-1.8-1.3-2.5-1.7
	c-0.8-0.4-1.8-0.6-2.8-0.4c-2.2,0.8-2.6,1.5-2.2,4.3c2,0.3,4.1,0.1,6-0.6C108.4,144.4,108.7,143.7,109.4,143z"/>
<path class="st0" d="M144.3,232.6c-1.6-0.3-3.1-0.5-4.6-0.9c-3.4-0.9-4.9-3.6-5.9-6.7c-0.8-3-0.6-6.2,0.5-9.2
	c1.3-3.8,2.9-7.4,4.4-11.1c0.5-1.5,1.9-2.5,3.5-2.4c1.3-0.2,2.5,0.7,2.8,2c0.1,0.5,0.1,1.1,0,1.6c-0.7,2.5-1.4,5-2.2,7.4
	c-1,2.9-2.3,5.6-2.1,8.8c0,0.4,0,0.9,0.1,1.3c0.3,0.8,0.7,1.5,1.7,1.6c1.7,0.3,3.4-0.1,4.9-1c2.8-1.8,4.8-4.7,5.6-7.9
	c0.9-3.6,2.4-7.1,4.3-10.3c0.4-0.7,0.9-1.3,1.6-1.8c1.6-1.1,3.8-0.7,4.9,0.9c0.6,0.8,0.8,1.9,0.5,2.9c-0.3,1.1-0.7,2.2-1.3,3.2
	c-1.3,2.3-2.3,4.8-2.9,7.4c-1.7,6.4-6,10.6-11.9,13.2C147,232.1,145.7,232.4,144.3,232.6z"/>
<path class="st0" d="M276.6,149.6c-2.5,1.4-3.6,3.6-4.9,5.6c-2.6,4.2-5.1,8.4-7.7,12.6c-0.5,0.6-1.1,1.2-1.7,1.7
	c-1.9-0.7-2.1-1.9-1.8-3.4c0.2-0.8,0.5-1.5,0.9-2.2c3.3-6.1,6.6-12.3,11-17.7c0.9-1,1.9-1.9,3-2.6c1.3-1,3.2-0.7,4.1,0.6
	c0.1,0.2,0.3,0.4,0.4,0.7c0.6,1.4,0.9,2.9,1.1,4.4c0.2,1.5,0.1,3,0.1,4.6c0.1,1.7,0.1,3.4,0.3,5.1s0.5,3.3,0.9,5.4
	c0.5-1.2,0.8-2,1.1-2.8c2.2-6.6,5.8-12.6,9.1-18.7c0.2-0.4,0.5-0.7,0.8-1c1.2-1.3,2.7-1.7,3.8-1c1.6,0.8,2.3,2.6,1.7,4.3
	c-0.3,0.9-0.7,1.8-1.1,2.7c-0.8,1.6-1.8,3.1-2.6,4.7c-2.1,4.1-4.1,8.3-6.2,12.4c-0.9,1.7-2,3.4-3.2,5c-2.2,3.1-5.1,2.2-6.6-0.5
	c-0.9-2-1.6-4.1-2-6.3c-0.8-3.3-0.5-6.6-0.6-9.9C276.5,151.9,276.6,150.8,276.6,149.6z"/>
<path class="st0" d="M143.6,73.5c-4.6,1.2-9,2.3-13.3,3.3c-1.7,0.5-3.4,0.7-5.2,0.7c-2.8-0.1-4.4,1.1-5.9,3.4
	c-3.8,6-8.1,11.8-12.1,17.8c-2,3-4.5,5.3-8.1,6.1c-1.2-0.6-2.3-1.4-1.5-2.9c2.9-5.8,5.7-11.6,8.9-17.2c2.8-5,6.9-9.2,8.8-14.8
	c0.2-0.5,0.5-0.9,0.9-1.3c4-3.4,6-8.2,8.7-12.4c3.7-5.6,8.1-10.6,13.2-14.9c2.1-1.8,4.6-3.1,7.3-3.8c4.6-1.3,9.3,2.2,10.7,7.2
	c1.4,5.1,1.6,10.4,0.7,15.6c-0.3,1-0.4,2-0.5,3.1c0.3,7.8-1.3,15.2-3.3,22.7c-1.7,6.4-3.4,12.7-5.2,19.1c-0.4,2.1-2.2,3.8-4.3,3.9
	c-2.2,0.2-4.3,0-5.6-2.1s-2.1-4.1-1.6-6.4c0.3-1.7,0.9-3.3,1.4-5c1.9-6.7,3.8-13.3,5.7-20C143.6,74.9,143.6,74.2,143.6,73.5z
	 M147.4,47c-5.3,0.9-12.5,8.4-15.1,15.5l14.2-4.9L147.4,47z"/>
<path class="st0" d="M473.5,142.6l0.8-0.5c2.3-1.6,4.6-1,5.9,1.6c0.5,1.1,0.9,2.3,1,3.6c0.5,5.2-0.8,10.4-3.9,14.6
	c-1.9,3-4.9,5.3-8.4,6.2c-7.2,2-13.1-4.5-13.1-9.8c0-4.3,1.8-7.6,4.1-10.8c1.9-2.5,4.3-4.5,7.2-5.8
	C469.6,140.7,471.8,140,473.5,142.6z M473,145.9c-3.7,2-6.7,5.1-8.7,8.8c-0.5,1-0.8,2.1-0.7,3.3c0,1.6,1.4,2.9,3,2.8
	c0.4,0,0.9-0.1,1.3-0.3c1-0.5,2-1.2,2.7-2.2C473,154.6,474.9,150.6,473,145.9L473,145.9z"/>
<path class="st0" d="M244.4,146.4l-1,5.6c0.7,0.5,1.4,0.2,2.2,0c1.1-0.4,2.3-0.3,3.3,0.3c1.8,1.3,1.8,3.3-0.2,4.3
	c-1.3,0.5-2.7,0.9-4.1,1.1c-1.2,0.2-2.5,0.3-3.7,0.4c-0.5,1.8-0.9,3.4-1.5,5s-1.2,2.9-0.9,4.7c2.3-0.5,4.4-1,6.6-1.3
	c1.2-0.1,2.3-0.2,3.5-0.2c0.9,0,1.7,0.6,2,1.5c0.3,0.8-0.2,1.4-0.8,1.9c-1,1-2.2,1.8-3.4,2.6c-3.1,1.6-6.3,3-9.9,2.8
	c-3-0.2-4.7-1.6-4.7-4.6c0-2,0-3.9,0-5.9c0-0.6,0.1-1.2,0.3-1.8c1.6-3.9,2.7-7.9,4.6-11.7c0.8-1.6,1.3-3.3,1.5-5.1
	c0.8-4,2.1-5.5,6-6.4c3-0.6,6-0.8,9.1-0.7c1.3,0.1,2.4,0.7,3.3,1.6c1.1,0.9,0.8,3-0.5,4c-1.8,1.3-4,2-6.3,2
	C248.2,146.4,246.4,146.4,244.4,146.4z"/>
<path class="st0" d="M65.2,204.4l0.4-0.4c2.2-2,4.5-1.9,6.4,0.4c1.3,1.5,2,3.4,2,5.4c-0.2,4.5-1,8.9-3.8,12.6c-2,2.6-4.2,5.2-7.6,6
	c-5.9,1.4-10.7-0.5-13.6-5.2c-0.4-0.8-0.7-1.6-0.7-2.5c-0.1-1,0-2,0-3c0-1.3,0.4-2.7,1.1-3.8c2.1-3.2,4.7-6.1,7.6-8.6
	c1.2-1,2.6-1.7,4-2.2c0.9-0.2,1.7-0.1,2.6,0.2C64.1,203.6,64.7,204,65.2,204.4z M54.7,218.7c1.8,3.6,5.4,4.4,7.9,1.8
	c2.1-2,3.4-4.6,3.8-7.5c0.2-1.9,0.5-3.9-1.4-5.2C60.2,210.3,57.4,214.4,54.7,218.7z"/>
<path class="st0" d="M216.8,140.5c2-0.2,4,0.2,5.8,1.1c3.1,1.5,5.2,3.8,5,7.5c-0.1,1.9,0.2,3.8-0.5,5.6c-0.6,1.7-1.6,3.2-2.8,4.5
	c-3.3,3.3-6.8,6.4-10.6,9.1c-2.2,1.7-4.7,2.9-7.4,3.5c-2.3,0.5-4.5-1-5-3.3c-0.1-0.6-0.1-1.2,0-1.7c0.2-1,0.6-1.9,1-2.8
	c2.5-5.2,5-10.3,7.4-15.4c0.5-1.2,0.9-2.5,1.1-3.8c0.2-0.7,0.4-1.3,0.6-2c0.7-1.5,1.7-2.5,3.5-2.3
	C215.5,140.5,216.1,140.5,216.8,140.5z M209.8,163.6c0.2,0,0.4,0,0.5,0c3.5-2.3,6.8-4.9,9.8-7.8c1.5-1.5,2.3-3.7,2.1-5.8
	c0-1.1-0.7-2.1-1.7-2.5c-1.2-0.6-2.5-0.7-3.8-0.4c-2.1,4.9-4.2,9.5-6.2,14.1C210.3,162,210.1,162.9,209.8,163.6l-0.2,0.4
	L209.8,163.6z"/>
<path class="st0" d="M482,218.2l-2,3.9c1.3,0.3,2.7,0.3,4,0c2.1-0.4,4.2-0.7,6.1,0.4c1.5,4.4-2.5,6.9-5.8,7.3
	c-2.9,0.3-5.7,0.3-8.6,0c-3-0.1-5.3-2.7-5.2-5.7c0.1-1,0.5-1.9,1-2.7c2-3.5,3.9-7,6.1-10.4c1.1-1.7,1.9-3.6,2.4-5.6
	c0.2-1.8,1.6-3.3,3.5-3.6c2.6-0.7,5.1-1.3,7.7-2.1c1.9-0.5,3.9-0.7,5.8-0.5c0.9,0.1,1.7,0.3,2.5,0.8c1.8,1.1,1.9,2.6,0.1,3.8
	c-1.5,1-3.2,1.6-5,1.9c-2.9,0.6-5.7,1.2-8.8,1.9l-0.2,3.2c0.6,0.2,1.2,0.4,1.8,0.7c1.3,0.6,1.9,2.2,1.3,3.6
	c-0.1,0.3-0.3,0.5-0.5,0.7c-0.7,0.8-1.6,1.3-2.6,1.7C484.4,217.7,483.2,218,482,218.2z"/>
<path class="st0" d="M381.3,222.8c3.9,0.4,6.1-1.5,8-3.8c1.3-1.6,2.4-3.3,3.7-5c2.3-3,4.5-6.2,7.7-8.5c0.9-0.6,1.8-1.1,2.8-1.5
	c1.2-0.3,2.5,0.3,2.8,1.5c0.1,0.2,0.1,0.5,0.1,0.7c0.1,1.8-0.8,3.1-1.8,4.4c-3.3,4.4-6.6,8.9-10.2,13.1c-3.4,3.9-7.5,6.6-13.1,6
	c-2.9-0.3-5.2-1.7-6.4-4.6c-0.6-1.6-0.6-3.4,0-5c1.2-3.4,2.9-6.5,4.9-9.5c1-1.2,1.8-2.7,2.3-4.2c0.1-0.5,0.4-1,0.7-1.4
	c0.6-1,1.8-1.5,3-1.2c1.2,0.4,2.1,1.5,2.1,2.8c-0.3,2.2-0.5,4.4-1.7,6.4C384.5,216.2,383.1,219.4,381.3,222.8z"/>
<path class="st0" d="M128.4,158.3c1.3-1.9,2.6-3.8,4-5.6c1.6-2.2,3.3-4.5,4.8-6.7c1.4-2,2.7-4.2,4.2-6.2c0.6-0.9,1.4-1.6,2.2-2.2
	c1.7-1.1,3.4-0.8,4.4,0.3c0.7,0.8,0.6,2.7-0.2,4c-1.7,3-3.7,5.9-5.8,8.7c-2.9,3.7-5.5,7.7-8.3,11.5c-1,1.6-2.3,3-3.8,4.1
	c-2.1,1.4-3.7,1.4-5.6,0c-1.8-1.2-2.9-3.3-3-5.4c-0.2-4.1,0.5-8.2,2-12c0.8-2.3,1.3-4.6,1.8-6.9c0.2-0.9,0.4-1.9,0.6-2.9
	c0.4-1.8,1.5-2.8,2.8-2.7c1.5,0.3,2.5,1.5,2.6,3c0,1.7-0.1,3.4-0.2,5.1c-0.2,3.7-1.8,7-2.6,10.6c-0.2,1-0.3,2.1-0.5,3.1L128.4,158.3
	z"/>
<path class="st0" d="M396.2,147.3c0.2,5.3-1.8,10-4.5,14.3c-2.2,3.4-5.6,5.6-10,5.1c-3.3-0.3-6.3-1.5-7.7-4.9
	c-0.2-0.4-0.3-0.8-0.4-1.3c-0.7-5.9,1.2-11.9,5.2-16.3c1.7-1.8,3.6-3.5,5.6-5c1-1,2.5-1.2,3.7-0.5c0.7,0.3,1.5,0.5,2.3,0.5
	c3.2,0,5.8,2.5,5.9,5.7C396.3,145.7,396.2,146.5,396.2,147.3z M388.2,144.3c-1.5,1.5-2.9,2.8-4.2,4.3c-2.2,2.5-3.6,5.6-3.9,8.9
	c-0.2,2.2,1.4,3.3,3.4,2.5c1.4-0.4,2.6-1.3,3.3-2.6c1.7-3.2,3.2-6.6,2.9-10.4C389.7,145.9,389.2,144.9,388.2,144.3L388.2,144.3z"/>
<path class="st0" d="M374.1,203.4c-1.1-0.6-2.3-1.4-3.5-1.9c-2.2-1-4.6-0.8-6.9-0.7c-1.2,0.1-2.2,0.9-2.5,2.1c-1,3-1.4,6.3-1,9.5
	c0.6,3.7,0.6,7.5,0,11.2c-0.1,0.4-0.1,0.7-0.1,1.1c-0.4,3.9-2.8,7.4-6.2,8.2c-3.6,1.1-7.6-0.2-9.9-3.2c-1.6-2-3.1-4.1-2.9-7
	s1.9-4.6,4.8-4.6h2.4c-0.2,0.4-0.4,0.8-0.6,1.3c-0.2,0.7-0.6,1.4-0.5,2c0.5,2,1.4,3.9,3.4,4.8c1,0.6,2.3,0.3,3-0.7c0,0,0,0,0,0
	c0.2-0.2,0.3-0.4,0.4-0.7c0.5-3,1.3-6,0.8-9.2c-0.5-3-0.4-6.1,0.1-9.1c0.3-2,0.8-4,1.6-5.9c1.2-2.9,3.9-4.9,7-5.1
	c3.3-0.3,6.6,0.2,9.6,1.6c0.4,0.2,0.8,0.4,1.2,0.7C376.9,199.5,376.8,201.6,374.1,203.4z"/>
<path class="st0" d="M298.5,216.3c-1.9-0.1-3.6-0.2-5.2-0.3c-0.9-0.1-1.8,0.3-2.2,1c-1.9,2.5-3.9,4.9-5.9,7.2c-0.5,0.5-1,1-1.6,1.4
	c-0.8,0.6-2,0.6-2.7-0.1c-0.9-0.7-1.1-1.9-0.7-2.9c0.4-0.7,0.8-1.4,1.3-2c2.2-2.8,4.4-5.6,6.5-8.5c3.3-4.3,6.5-8.8,10.5-12.5
	c0.8-0.9,2-1.5,3.3-1.6c1.5-0.1,2.9,0.8,3.4,2.2c0.4,1.1,0.6,2.2,0.6,3.4c0.1,2-0.2,4,0.1,5.9c0.2,1.8,0,3.6-0.4,5.4
	c-0.3,1.8-0.8,3.6-1.5,5.4c-0.6,1.4-0.9,2.9-1.4,4.3c-0.4,1-0.8,1.9-1.4,2.8c-0.8,1-2.2,1.4-3.4,0.8c-1-0.4-1.7-1.5-1.6-2.6
	c-0.1-2.1,0.3-4.3,1.2-6.2C297.6,218.3,298.1,217.2,298.5,216.3z M299.5,209.4c0.2-1,1-1.9,0.5-3.3l-3.2,3.3H299.5z"/>
<path class="st0" d="M196.9,220.7c0-2.4,0.6-4.8,1.5-7c0.9-2.2,1.5-4.6,2.2-6.8c0.2-0.9,0.5-1.7,0.9-2.5c0.5-1.1,1.7-1.7,2.9-1.4
	c1.2,0.3,2,1.3,2.1,2.5c-0.1,1.8-0.3,3.5-0.7,5.3c-0.4,1.8-1,3.6-1.8,5.3c-0.9,2-0.7,4-0.6,6.1c0.1,1.8,2.5,2.6,4.3,1.4
	c1.1-0.7,2-1.5,2.9-2.4c2.4-2.8,4.3-5.9,5.8-9.3c1-2.6,2.3-5,3.6-7.5c0.8-1.6,2-2.7,4-2.5c1.4,0,2.5,1.2,2.5,2.6
	c0,0.3-0.1,0.6-0.2,0.8c0,0.2-0.1,0.3-0.2,0.5c-2.5,6.2-4.8,12.5-9.1,17.8c-1.4,1.7-3,3.3-4.8,4.7c-3.5,2.8-8.4,3-12,0.3
	c-2.2-1.5-2.9-4-3.3-6.5C196.9,221.6,196.9,221.1,196.9,220.7z"/>
<path class="st0" d="M309.2,50.5c1.2,0.6,1.9,1,2.7,1.4c3,1.8,3.4,3.7,1,6.2c-1.2,1.1-2.5,2-3.9,2.8c-2.5,8.9-4.9,17.6-7.4,26.3
	c-0.3,1.4-0.6,2.7-1.1,4c-0.5,1.5-1.3,2.8-2.3,4c-1.6,1.8-3.8,1.7-5.6,0.1s-2.8-3.6-2-6.1c0.7-2.3,1.3-4.7,2-7
	c1.7-5.5,3.4-10.9,5.3-17.2c-4.3,1.2-8,2.4-11.7,3.4c-2.8,0.7-5.5,2-8.3,1.2c-4.8,6.3-9.5,12.6-14.4,18.7c-1.9,2.1-3.9,4-6.2,5.6
	c-0.9,0.8-2.2,0.8-3.1,0c-0.1-0.1-0.1-0.1-0.2-0.2c-0.7-0.8-0.8-2-0.1-2.9c1.9-3.3,3.7-6.7,5.8-10c2.8-4.6,5.9-9.1,8.7-13.7
	c4.4-7.2,10.2-13.3,15.4-19.8c2.6-3.3,5.4-6.5,8.3-9.5c1.5-1.5,3.2-2.7,5-3.7c5.8-2.9,11.4,0.4,11.9,7
	C309.4,44.2,309.2,47.2,309.2,50.5z M300.5,41.9l-11.2,12.8c4-1,8-1,11.2-3.2V41.9z"/>
<path class="st0" d="M75.1,145c-1.4,2.1-1.9,4.5-2.4,7.1c0.9,0.2,1.8,0.2,2.7,0c1.5-0.2,2.6,0.3,2.9,1.2c0.4,1.2-0.1,2.6-1.2,3.3
	c-0.9,0.5-2,0.8-3,1c-1,0.1-2,0.1-3.1,0c-1.4,2.9-2.7,6-3.7,9.1c2.6-0.1,4.9,0.6,7.1-0.4c0.3-0.1,0.7-0.1,1.1-0.1
	c1.1-0.1,2.1,0.8,2.1,1.9c0,0.4-0.1,0.7-0.2,1.1c-0.8,2.3-3,4-5.5,4.2c-2.1,0.2-4.3,0.2-6.4,0c-4.3-0.5-5.5-3.3-4.8-7.1
	c0.3-1.5,0.8-2.9,1.5-4.3c2.1-4.6,3.9-9.3,5.5-14.1c0.7-2.1,1.7-4.1,3-5.9c1.8-2.6,4.8-3.2,7.6-4.1c0.9-0.2,1.7-0.4,2.6-0.5
	c1.8-0.4,3.6,0.3,4.8,1.7c0.8,0.8,0.8,2.1,0,2.9c-0.8,1-1.9,1.7-3.2,1.8C80.2,144.1,77.7,144.6,75.1,145z"/>
<path class="st0" d="M420.7,206.6c2.2,0.3,4.2,1.5,5.4,3.4c0.5,0.6,0.7,1.4,0.8,2.2c0.7,4.9-0.8,9.9-4,13.8c-2,2.4-4.7,4-7.7,4.5
	c-2.5,0.5-4.8-0.6-6.8-2c-1.1-0.8-2.1-1.7-2.8-2.9c-1.4-1.8-1.8-4.2-1-6.3c1.1-4,3.5-7.5,6.7-10.2c1.5-1.2,3-2.6,4.4-3.9
	C417.9,203.1,419.6,203.5,420.7,206.6z M420.2,214.4l-2.3-2.5c-1.5,1.2-2.8,2.5-4.1,3.9c-1,1.4-1.8,2.8-2.5,4.4
	c-0.6,1.3,0,2,1.2,2.9s3.5,0.4,4.8-1.2C419.1,219.8,420.1,217.1,420.2,214.4L420.2,214.4z"/>
<path class="st0" d="M392.8,44.7c-2.8,0.5-5,0.9-7.1,1.4c-2.4,0.5-4.7,1.3-7,1.8c-1.2,0.4-2.4,0.4-3.6,0c-1.4-0.6-2.6-1.7-3.4-3
	c-0.8-1.5-0.2-3.3,1.2-4.2c2-1.4,4.2-2.5,6.5-3.2c5.7-1.6,11.4-2.9,17.2-4.3c6.6-1.6,13.2-3.1,19.8-4.6c1.5-0.5,3-0.7,4.6-0.6
	c2,0.3,3.6,1.7,4.1,3.6c0.7,1.7,0.1,3.6-1.4,4.7c-1.1,0.9-2.2,1.6-3.5,2.2c-1.9,0.8-3.9,1.5-5.9,2c-4.9,1.1-8.9,4.6-10.6,9.3
	c-3,7.5-6.1,14.8-9.1,22.2c-2.6,6.6-5.2,13.3-7.7,20c-0.5,1.3-0.6,2.7-1.1,4c-1,2.7-2.5,5.1-5.6,5.7c-4.8,0.8-9.2-3.8-8.4-8.8
	c0.3-1.7,0.7-3.4,1.4-5c3.9-9.3,7.9-18.6,12-27.8c1.7-3.8,4-7.4,5.9-11.1C391.6,47.8,392,46.5,392.8,44.7z"/>
<path class="st0" d="M160.3,147.4c1.4,0,2.4,0,3.5,0c2.2,0.1,3.3,1.7,2.3,3.6c-0.5,1-1.4,1.7-2.5,1.9c-1.7,0.2-3.4,0.4-5,0.6
	c-1,0-1.9,0.6-2.3,1.6c-0.7,1.9-1.6,3.8-2.5,6c1-0.1,1.8-0.2,2.5-0.3c1.6-0.1,3.2-0.3,4.8-0.3c1.1,0,1.5,0.8,1.2,1.9
	c-1.1,3.2-4,5.4-7.4,5.6c-0.7,0-1.4,0-2.1,0c-2.9-0.1-5-1.7-5.3-4.6c-0.4-2.4-0.1-4.9,0.8-7.1c1.5-3.5,3.3-6.9,5.4-10.1
	c1.5-2.3,2.8-4.6,4-7c0.5-1.3,1.8-2.1,3.2-2c1-0.1,1.9-0.3,2.8-0.6c1.2-0.4,2.4-0.8,3.5-1.2c1.5-0.5,3.1-0.2,4.3,0.7
	c1.8,1.2,1.8,3.6-0.2,4.5c-1.9,0.9-4,1.6-6.1,1.9c-1.9,0.1-3.6,1.4-4.1,3.2C160.9,146.2,160.6,146.8,160.3,147.4z"/>
<path class="st0" d="M239.9,207.9c1.6,1.8,3.1,3.2,4.2,4.9c3,4.3,2.3,8.6-1.2,12.1c-1.4,1.2-3,2.3-4.6,3.2c-1.5,0.8-3.3,1.1-5,0.7
	c-1.7-0.2-3.1-1.4-3.5-3c-0.6-1.3-0.3-2.9,0.6-4c1.1-1.2,1.5-1.3,3-0.5c0.3,0.2,0.6,0.3,1.2,0.6c1.2-0.7,2.3-1.5,3.4-2.3
	c0.9-0.5,1.2-1.6,0.7-2.4c-0.1-0.1-0.2-0.3-0.3-0.4c-0.8-1.1-1.7-2.1-2.7-3c-0.6-0.6-1.3-1-1.9-1.5c-3.1-2.8-2.5-6.1,0.2-8.6
	c2.8-2.5,6.2-4.3,9.8-5.2c2.4-0.7,5-0.7,7.3,0.1c0.4,0.1,0.8,0.3,1.2,0.5c1.7,1.2,1.8,2.9,0,4.1c-0.9,0.4-1.8,0.7-2.8,0.7
	C246,204.2,242.9,205.8,239.9,207.9z"/>
<path class="st0" d="M187.8,149.8c-2.9-1.7-5-4.5-6-7.7c-0.3-0.7-0.7-1.4-1.1-2.1c-0.7-1-0.6-2.3,0.3-3.2c0.9-0.9,2.3-0.9,3.2-0.1
	c0,0,0,0,0,0c0.8,0.7,1.6,1.4,2.2,2.3c0.9,1.2,1.6,2.5,2.5,3.8c0.3,0.4,0.7,0.8,1.1,1.2c1.4,1.2,2.3,1.2,3.4-0.3
	c1.6-2.2,3.8-3.8,5-6.3c0.7-1.2,2.2-1.8,3.5-1.2c1.1,0.5,1.8,1.6,1.7,2.8c0.1,1.7-0.4,3.4-1.5,4.8c-1.4,2-2.9,4.1-4.5,6
	c-3.2,3.7-5.8,7.7-8,12c-0.8,1.5-1.9,2.8-3,4.1c-1.2,1.4-3.3,1.7-4.8,0.7c-1.6-1-2.1-3.1-1.1-4.7c1.8-3.4,3.8-6.6,5.8-9.9
	C186.8,151.2,187.3,150.5,187.8,149.8z"/>
<path class="st0" d="M568.1,215.9c-1.3,0-2.4-0.1-3.4,0c-1,0.1-1.9,0.3-2.8,0.6c-1.4,2.2-2.7,4.5-4.2,6.5c-1,1.2-2.2,2.3-3.5,3.3
	c-0.3,0.3-1.2,0.4-1.4,0.1c-0.3-0.5-0.5-1-0.5-1.6c0.1-0.6,0.3-1.2,0.6-1.8c1.8-4.9,4.6-9.5,8.2-13.3c2.9-2.9,5.9-5.7,8.9-8.5
	c0.8-0.7,1.9-1.1,2.9-1.1c1.3,0.1,2.9,0.9,3.1,2.1s0.7,2.5,0.4,3.9s-0.7,3,0.1,4.4c0.3,0.7,0.1,1.5-0.6,1.9c-1.1,1-1.9,2.4-2.2,3.9
	c-0.8,2.5-2.2,4.8-2.7,7.5c-0.3,0.8-0.8,1.6-1.6,2c-1.1,0.6-2.6,0.2-3.2-0.9c-0.2-0.3-0.3-0.7-0.3-1.1c0-2.3,0.5-4.6,1.6-6.7
	C567.6,216.9,567.8,216.5,568.1,215.9z M567.9,209.7c2.6,0.2,3.2-0.4,3-2.6L567.9,209.7z"/>
<path class="st0" d="M506.5,221.8c1.7-0.8,2.8-2.5,3.1-4.3c0.2-0.9,0.1-1.8-0.2-2.6c-0.7-1.9-1-4-1.8-5.8c-1.7-3.9,1.5-8.7,4.8-10.3
	c1.8-0.9,3.8-1.5,5.9-1.6c1.4-0.1,2.8,0.1,4.2,0.6c1.6,0.5,2.5,2.7,1.7,3.9c-0.4,0.6-1,1-1.6,1.2c-1.3,0.3-2.7,0.3-4,0.6
	c-1.1,0.2-2.2,0.6-3.2,1.1c-1.6,0.8-1.8,1.7-1.2,3.5s1.1,3.8,1.8,5.6c0.5,1.4,0.6,3,0.2,4.5c-0.3,1-0.2,2.1-0.6,3.1
	c-1.3,3.8-4.2,6.2-7.8,7.7c-2.2,1-4.8,0.5-6.4-1.4c-2.2-2.4-1.6-5.7,1.4-7.1C504.5,219.7,505.1,219.9,506.5,221.8z"/>
<path class="st0" d="M87.9,227.7c-4,0.1-6.6-2-7.5-4.6c-0.6-1.6-0.6-3.4-0.2-5c0.5-1.4,1.1-2.8,1.8-4.1c1.3-2.7,2.6-5.5,3.9-8.2
	c0.4-1,0.7-2.1,1.9-2.4c2.2-0.5,3.7,0.9,3.2,3.2c-0.4,1.7-0.9,3.4-1.7,5c-0.8,1.9-1.8,3.7-2.8,5.5c-0.4,0.7-0.7,1.4-1,2.2
	c-0.6,1.8,0.4,3,2.3,3c1.3,0,2.4-0.7,3.1-1.8c1.6-2.1,3.1-4.4,4.3-6.7c1.2-2.7,2.7-5.2,4.1-7.8c0.5-0.9,1.2-1.7,2-2.4
	c0.7-0.7,1.7-0.8,2.5-0.2c1,0.5,1.4,1.7,1.1,2.7c-0.1,0.5-0.3,1-0.5,1.5c-2.5,4.6-4.4,9.5-7.5,13.8c-0.9,1.3-1.9,2.6-3,3.7
	C92.4,226.9,90.2,227.8,87.9,227.7z"/>
<path class="st0" d="M329.5,85.9c3.1-3,4.9-7.1,5.1-11.3c0.7-6.9-0.1-13.9-2.4-20.4c-1.6-4.5-1.4-8.7,1.6-12.3
	c3.8-4.5,8.6-7.1,14.7-6.5c2.7,0.2,5,2.1,5.7,4.8c0.8,2.6-0.2,5.4-2.5,6.9c-0.9,0.5-1.8,0.9-2.8,1c-1,0.2-2.1,0.2-3,0.5
	c-0.6,0.3-1.2,0.7-1.7,1.2c2.9,8.3,4.2,17,4,25.7c-0.3,8.7-3.2,16.4-10,22.2c-1.6,1.4-3.4,2.5-5.3,3.3c-4.7,2.1-10.3,0-12.4-4.7
	c-0.8-1.7-1-3.6-0.7-5.5c0.2-1,0.5-2,0.9-3c1.6-4.2,3.6-4.8,7.5-2.3C328.7,85.5,329.1,85.7,329.5,85.9z"/>
<path class="st0" d="M271.2,205c-2.6,0.4-4.9,0.6-7.2,1c-2,0.3-3.2-0.1-3.5-1.4c-0.5-1.6,0.3-2.9,2.5-3.4c2.5-0.6,5-1,7.6-1.5
	c2.9-0.6,5.7-1.2,8.6-1.8c0.7-0.2,1.4-0.3,2.1-0.4c1,0,1.9,0.7,2.2,1.6c0.6,1,0.4,2.2-0.5,3c-0.9,0.8-1.9,1.4-3,1.8
	c-1.2,0.4-2.2,1.2-2.8,2.3c-1.6,2.7-2.9,5.5-3.8,8.5c-0.7,2.2-1.7,4.3-2.8,6.3c-1.1,2-2.1,4.1-3.2,6.1c-0.5,1.2-1.8,1.9-3.1,1.6
	c-1.2,0-2.2-1-2.2-2.2c-0.1-1.1,0.1-2.1,0.5-3.1c1.1-2.4,2.5-4.7,3.7-7.1s2.2-5.1,3.2-7.6C270,207.7,270.5,206.5,271.2,205z"/>
<path class="st0" d="M407.9,162.2l4.6-0.4c1.9-0.1,3.7-0.3,5.6-0.4c0.4,0,0.9,0.1,1.3,0.2c2.4,0.9,2.8,2.6,1,4.5
	c-1.1,1.1-2.5,1.8-4,1.9c-2.6,0.3-5.1,0.7-7.7,0.9c-0.8,0-1.6-0.1-2.4-0.4c-4-0.8-5.2-4.1-4.6-7.8c0.2-1.1,0.6-2.1,1.2-3
	c2-3.3,4.1-6.4,6.2-9.7c0.7-1.2,1.4-2.5,2-3.8c0.4-1,1.1-1.9,2-2.4c0.9-0.5,1.8-0.8,2.8-0.1c0.8,0.6,1.2,1.7,0.9,2.6
	c-0.4,1.5-0.9,3.1-1.6,4.5c-0.7,1.6-1.5,3-2.3,4.5C411.2,156.3,409.7,159,407.9,162.2z"/>
<path class="st0" d="M113.3,219.2l4.6-0.5c0.5-0.1,1.1-0.1,1.6-0.1c1.3,0.1,2.6,0.1,3.9,0c0.7-0.1,1.4,0.1,1.9,0.6
	c0.9,0.6,1.2,1.9,0.6,2.8c-0.2,0.3-0.4,0.5-0.7,0.7c-2.7,1.9-5.4,3.8-8.9,4c-1.6,0.1-3.2,0.1-4.8,0c-3.5-0.1-6.2-3-6.1-6.5
	c0-0.7,0.2-1.4,0.4-2.1c1.2-2.7,2.6-5.3,4.2-7.8c1.2-1.7,2.1-3.5,2.6-5.5c0.1-0.5,0.3-1,0.5-1.5c0.6-1.2,2-1.8,3.2-1.2
	c0.3,0.1,0.5,0.3,0.8,0.5c1.1,1,1.6,2.4,1.4,3.9c-0.2,2.3-0.9,4.6-2.1,6.6C115.4,214.8,114.6,216.8,113.3,219.2z"/>
<path class="st0" d="M180.5,207.3c-2-0.4-4,1.3-6,0.3c-0.6-2.7-0.4-3,1.7-4.1c2.5-1.3,5.3-1.6,8-2.1c1.5-0.3,3-0.5,4.5-0.6
	c0.6,0,1.2,0.1,1.8,0.3c1.2,0.4,1.8,1.8,1.4,3c-0.2,0.6-0.6,1-1.1,1.3c-0.2,0.1-0.3,0.3-0.5,0.3c-2.6,0-3.3,1.7-4.1,3.8
	c-1.7,4.4-3.6,8.7-5.3,13.1c-0.7,1.8-1.8,3.5-1.8,5.6c-0.1,0.6-0.4,1.2-0.8,1.7c-0.7,1.2-2,1.8-3.3,1.6c-1.4-0.4-2.8-1.7-2.7-3
	c0.1-1.9,0.4-3.9,1-5.7c1-2.7,2.2-5.3,3.5-7.8C177.9,212.3,179.2,209.8,180.5,207.3z"/>
<path class="st0" d="M436.5,159.1c1.4,1.4,2.8,1.2,4.2,1c2-0.3,4-0.6,6-0.9c0.9-0.1,1.8,0.5,2.1,1.3c0.4,0.9,0.2,2-0.5,2.7
	c-2.4,1.8-4.8,3.6-7.9,4.3c-4.7,1.1-12.2-3.2-11.4-9.2c0.1-1,0.4-1.9,0.9-2.8c1.9-3.3,3.5-6.8,4.7-10.4c0.3-0.8,0.7-1.5,1.1-2.1
	c0.5-0.9,1.6-1.3,2.6-1c1.1,0.3,1.9,1.1,2.1,2.2c0.2,1.8,0.1,3.6-0.3,5.3c-0.8,2.4-1.7,4.8-2.7,7.2
	C437,157.6,436.7,158.5,436.5,159.1z"/>
<path class="st0" d="M531.5,220.5c0.4,0.6,0.6,1.1,1,1.4c0.9,0.8,1.8,0.8,2.6,0c1.3-1.1,1.9-2.5,1.3-4.3c-0.6-1.7-1.2-3.3-1.9-5
	c-0.4-1.1-1-2.2-1.4-3.2c-1-2.2-0.7-4.5,0.3-6.6c1.3-2.8,4.4-6.4,8.9-5.6c1.3,0.3,2.6,0.8,3.9,1.4c0.9,0.4,1.3,1.4,1.6,2.4
	c0.3,1.1-0.1,1.8-0.8,2.3c-0.5,0.3-1.3,0.1-1.9,0.1c-0.3,0-0.5-0.2-0.8-0.3c-1.6-0.7-3.2-0.9-4.6,0.6c-1.5,1.5-1.4,3.2-0.7,5
	c0.4,0.9,0.9,1.8,1.3,2.7c1.3,2.8,2.2,5.7,2,8.9c-0.3,4.5-4.3,8.4-8.8,8.3c-2,0-3.5-0.7-4.2-2.6c-0.7-1.8-0.3-3.2,1.4-4.7
	C530.8,220.9,531,220.8,531.5,220.5z"/>
</svg>
