<?xml version="1.0" encoding="UTF-8"?>
<svg width="612px" height="226px" viewBox="0 0 612 226" version="1.1" xmlns="http://www.w3.org/2000/svg" xmlns:xlink="http://www.w3.org/1999/xlink">
    <!-- Generator: Sketch 42 (36781) - http://www.bohemiancoding.com/sketch -->
    <title>Best Helthcare education in the</title>
    <desc>Created with Sketch.</desc>
    <defs></defs>
    <g id="Page-1" stroke="none" stroke-width="1" fill="none" fill-rule="evenodd">
        <g id="Home-desktop" transform="translate(-461.000000, -442.000000)" fill="#0034A0">
            <g id="INTRO" transform="translate(360.000000, 128.000000)">
                <g id="Best-Helthcare-education-in-the" transform="translate(101.000000, 314.000000)">
                    <g id="The-best">
                        <path d="M484.45495,40.3052496 C482.655432,40.5188426 481.323426,40.7263906 479.983359,40.8210969 C477.555117,40.9943894 475.092618,41.4014252 472.694604,41.1596217 C469.278944,40.8130368 466.778158,37.9738614 466.755991,35.0500548 C466.737855,32.4143974 468.978689,29.6215677 472.086032,28.8316764 C479.707285,26.8891888 487.332568,24.9446862 495.002184,23.2601222 C501.817381,21.7609409 508.678927,20.501548 515.554578,19.377162 C517.366188,19.0789377 519.37528,19.3872371 521.164723,19.9252498 C524.749654,20.99523 525.811632,22.7059893 525.77939,26.4015519 C525.749163,30.064874 524.715397,31.7857084 521.053891,32.811358 C517.704731,33.7503614 514.224587,34.1352318 510.798852,34.7357104 C508.392777,35.1568514 505.990732,35.6767288 503.568536,35.8923368 C501.104022,36.1099599 499.951363,37.4962996 499.139262,39.9284392 C496.829914,46.8460326 494.377491,53.7132502 491.830356,60.5361373 C490.000611,65.438702 487.890761,70.2143199 485.97638,75.0806141 C484.541601,78.7237859 483.247883,82.4314386 481.839301,86.0887156 C480.751126,88.9077407 479.511816,91.5151878 476.561654,92.7624905 C472.144471,94.6304221 467.717212,92.2103727 467.231564,87.1304854 C467.001838,84.7527516 467.209397,82.1594097 467.864317,79.8783973 C468.946447,76.1102937 470.405407,72.4409265 471.965124,68.8622357 C475.767689,60.1371616 479.723406,51.4926887 483.602547,42.8059001 C483.880636,42.1893014 484.047892,41.5142668 484.45495,40.3052496" id="Fill-34"></path>
                        <path d="M351.298446,77.4750726 C355.467767,77.5133582 358.919699,77.6241847 362.37163,77.5536587 C369.876005,77.4025316 377.378365,77.1002773 384.880724,77.007586 C386.224821,76.9914658 387.637433,77.5173882 388.913016,78.0735361 C393.557909,80.0946099 394.480843,86.992053 390.273234,89.9319798 C388.026355,91.4996721 385.140677,92.128361 382.460543,92.7973505 C380.794024,93.2104314 378.972339,92.8598164 377.223199,92.9142222 C369.196904,93.180206 361.170608,93.468355 353.144312,93.748444 C349.928152,93.8612856 346.91149,92.9948233 344.056039,91.4795218 C339.955233,89.3012758 337.617673,85.9200577 337.702308,80.7434491 C337.784929,75.6373665 337.611627,70.5312839 339.435327,65.6569296 C339.755734,64.8005424 340.062035,63.8252685 339.993521,62.9366409 C339.76984,60.0269395 341.343663,58.235579 342.701866,55.9545666 C345.793088,50.7719129 348.420829,45.1882685 350.619344,39.4857374 C352.410802,34.8390813 354.706045,32.1873036 359.415423,32.3646262 C366.994357,32.6487452 374.327445,31.1253835 381.688745,29.5697814 C383.724035,29.1385653 385.860081,29.0337838 387.937689,29.118415 C391.740255,29.2735722 394.317616,31.441743 394.970521,34.7000444 C395.526699,37.4767539 393.848089,40.6201986 390.700443,42.3893937 C386.120034,44.9605703 381.082189,45.6114245 376.062479,46.2018279 C371.39945,46.7519307 366.718284,47.1146359 361.813437,47.5780925 C361.257259,49.1820553 360.658763,50.9069198 359.925253,53.0226999 C364.682994,52.9058283 369.098162,52.7587312 373.51333,52.7002953 C375.435771,52.676115 377.38038,52.6660398 379.280655,52.9400837 C381.662548,53.2846536 384.034366,55.7913493 384.245956,58.1025872 C384.491803,60.7765302 383.5064,63.085753 381.32602,64.28268 C379.34514,65.3707955 377.122442,66.3057688 374.938032,66.529437 C368.864406,67.1460357 362.754507,67.3555987 356.658714,67.7404692 C355.981627,67.7827848 355.310586,67.9500322 354.212336,68.1293697 C353.313584,71.0148908 352.396696,73.9507875 351.298446,77.4750726" id="Fill-22"></path>
                        <path d="M434.442444,42.1629045 C437.545757,46.7551548 440.757887,50.5837092 442.940282,55.0046821 C445.150889,59.4881209 445.463235,64.4370312 444.574559,69.7889473 C443.161947,78.3024434 432.223777,85.8547708 422.800991,83.8820577 C422.464463,83.8115317 422.160177,83.5838335 421.831709,83.4508416 C417.863902,81.862999 415.715765,78.9835231 416.048262,75.6869362 C416.362624,72.5555817 419.187848,69.9541797 423.058928,69.1824237 C424.771796,68.8418839 426.504815,68.5597799 428.171334,68.0378874 C431.240389,67.0747037 432.471639,64.6385341 431.198072,61.5031495 C430.44844,59.6573833 429.112403,58.0514054 427.881154,56.4816981 C425.85191,53.8944013 423.429714,51.625479 421.644301,48.8648898 C417.626116,42.6525565 419.29465,34.4574349 425.380368,30.8626238 C431.31898,27.3504289 437.73921,25.9419238 444.518135,27.287963 C447.478373,27.8743363 449.723237,29.5185997 450.738867,32.6640594 C451.953995,36.4281329 449.717192,40.1458608 446.19876,39.5030667 C441.684851,38.67892 438.10395,40.7725347 434.442444,42.1629045" id="Fill-36"></path>
                        <path d="M309.673146,69.7750436 C311.196591,74.6876835 310.926562,79.4693465 310.420763,84.1079424 C309.892796,88.9520713 307.289238,92.8189113 303.696246,95.8112289 C298.761173,99.9259174 293.17924,102.362087 287.05322,103.506623 C278.301475,105.142827 269.55376,106.571482 260.634758,106.79112 C256.141,106.901947 252.463373,104.981624 248.840154,102.791288 C245.664296,100.868951 244.316169,96.6837363 245.535327,92.3111241 C247.040636,86.9128623 248.807912,81.5730364 250.839171,76.3823226 C252.944991,70.998166 255.611018,65.8759632 257.833716,60.5421823 C260.550122,54.0215496 263.147635,47.440466 265.632301,40.8130368 C267.774393,35.1064757 269.980969,33.6778203 275.589099,34.6752595 C276.548304,34.846537 277.622373,34.638989 278.579564,34.3508399 C279.746329,34.0022399 280.882867,33.4682574 281.964996,32.8738239 C292.048748,27.3022697 302.319907,28.5354672 312.42381,32.3539465 C322.181109,36.043464 323.781129,43.9867069 321.890929,53.3344248 C320.329197,61.0600447 317.673245,64.2095345 309.673146,69.7750436 M263.760237,89.0991684 C264.989472,89.2865661 265.652452,89.5001591 266.309387,89.4699337 C274.124093,89.1132736 281.868269,88.0735188 289.473401,86.0967757 C291.28904,85.625259 293.044226,84.5452037 294.616034,83.4026824 C296.89717,81.7443138 297.537984,78.6713951 296.343007,75.2458464 C295.462392,72.7210155 295.458361,71.5381937 291.319268,71.6530503 C285.054203,71.8303729 278.863698,71.2903452 272.937177,67.8003156 C269.428821,74.7702997 266.488734,81.6637127 263.760237,89.0991684 M278.255127,54.0961057 C279.246575,54.1525265 279.970009,54.3923149 280.572535,54.1968571 C285.0804,52.713796 289.517734,53.4694318 293.947008,54.5474721 C295.123849,54.8336062 296.240235,55.4844604 297.423121,55.6557379 C302.565754,56.4012985 307.285208,55.2567622 308.923515,50.465024 C309.971387,47.4001655 309.675162,45.6027599 306.864044,44.6516664 C301.070521,42.6890285 295.198409,40.758631 289.159039,43.9564815 C287.295037,44.9418305 285.330277,45.7317217 283.365517,46.4752673 C280.262204,47.650029 278.432459,49.8181998 278.255127,54.0961057" id="Fill-1"></path>
                        <path d="M132.802538,51.3327434 C122.259335,52.6223617 111.929736,53.8857847 101.18905,55.1995834 C98.2429176,60.9545052 96.3184607,67.6101449 94.0836724,74.1247325 C93.4166616,76.0652051 92.8725743,78.0741887 92.0403222,79.928015 C90.8433301,82.599943 88.3647101,84.1031544 86.1742549,83.7767198 C83.8850579,83.4361799 81.4447255,80.7158912 81.4144984,77.8001448 C81.3842714,75.0153752 81.4769677,72.053283 82.3031744,69.4659863 C84.3505548,63.0541651 86.8956744,56.8317566 89.150614,50.4985215 C90.6498769,46.2810666 91.9798681,41.9971157 93.4086011,37.7534653 C94.1239751,35.6276101 94.6358202,33.3465976 95.7139192,31.4565008 C96.5784135,29.9432142 97.9930405,28.5568745 99.458046,27.7367579 C102.494859,26.0340587 105.128645,27.8314642 105.13469,31.5391169 C105.138721,33.580341 104.576497,35.61955 104.338711,37.6728642 C104.193621,38.9322571 104.1775,40.2097852 104.062637,42.1421977 C108.582592,41.5558244 112.689444,41.1467736 116.758008,40.4656939 C122.25732,39.5468408 127.712299,38.2874479 133.219672,37.4371058 C136.300818,36.961559 138.118473,35.6578355 139.204632,32.246392 C140.439912,28.3674618 142.176961,24.5248022 144.369431,21.1838847 C147.160398,16.9261291 152.649634,17.4036909 154.894498,21.7077921 C156.099551,24.0149999 155.680402,26.3907187 154.942862,28.8208433 C152.613362,36.5182527 150.304013,44.2277524 148.151846,51.9835977 C145.745771,60.658296 143.901919,69.4438209 143.47874,78.5638406 C143.351787,81.2821143 142.358323,84.0950943 141.239922,86.5876847 C139.774916,89.8520311 136.494271,91.4660691 133.878622,90.8333501 C130.79143,90.0817444 128.848837,87.3433205 128.661429,83.2709476 C128.248326,74.3242203 129.62668,65.6011613 131.565243,56.9486283 C131.964241,55.1653279 132.351147,53.3820275 132.802538,51.3327434" id="Fill-26"></path>
                        <path d="M182.357406,45.9941265 C189.001317,45.9860664 194.764612,45.8067288 200.513802,46.0344271 C203.808553,46.1654039 205.604041,48.1663274 205.926463,51.0699837 C206.373824,55.0678005 205.225195,57.2903771 201.761172,58.4852891 C199.951578,59.109948 198.023091,59.4766832 196.124831,59.6217653 C189.863796,60.093282 183.592686,60.4076264 177.105956,60.796527 C175.084773,64.8366594 173.702388,68.9594081 174.254536,73.7974918 C176.265644,76.4412094 179.239988,77.1908001 182.109544,77.6200012 C186.760483,78.3151861 191.473892,78.5569895 196.167149,78.8592438 C198.962145,79.0345513 201.777293,78.8451386 204.570275,79.0325363 C208.392992,79.2864299 211.518471,81.6742389 211.842909,84.3441518 C212.151225,86.8810729 209.487212,90.2401257 205.841827,91.316151 C203.175799,92.1040272 200.382818,92.6339797 197.626109,92.7609265 C193.081972,92.9664594 188.521714,92.7710017 183.969517,92.7085358 C177.871709,92.6259196 172.322018,90.5746204 167.191476,87.1148162 C163.052382,84.3219865 160.702731,80.1125916 160.434718,74.9863588 C160.24328,71.2847511 160.960669,67.5106024 161.41609,63.7888445 C161.732467,61.1894576 162.2161,58.6061908 162.774293,56.0531495 C163.044322,54.8098768 163.550121,53.5907845 164.130481,52.4684136 C165.400018,50.0080636 166.935554,47.6988407 168.096273,45.1861 C172.166852,36.3804248 176.563884,27.7863276 181.795183,19.7201679 C182.689904,18.3378582 183.711579,16.9998792 184.878344,15.8936285 C186.089442,14.7470772 187.556463,14.3239211 189.245149,14.9767904 C195.691576,17.475426 202.281078,16.5041821 208.850428,15.7384713 C212.65904,15.29718 216.461606,14.7652124 220.274247,14.382357 C221.658647,14.245335 223.095441,14.2614553 224.465734,14.4992286 C227.500533,15.0251511 229.705094,17.3484792 230.218954,20.3045262 C230.785208,23.5708876 229.306096,25.8317498 226.95443,27.465938 C224.092934,29.4567863 220.743774,30.2184672 217.47119,30.2144371 C211.574895,30.206377 205.73301,31.7760843 199.75611,30.4300452 C196.582267,29.716725 193.168623,30.2527226 189.738858,30.2224972 C187.240086,35.5623231 184.827966,40.7187815 182.357406,45.9941265" id="Fill-15"></path>
                        <path d="M68.7666849,17.7148114 C63.7066729,29.4120527 59.567579,41.0589183 52.8873958,51.3375795 C51.3961935,53.6306821 50.3987001,56.296565 49.1090117,58.7528849 C45.9230781,64.8241662 42.7653566,70.9115678 39.4726207,76.9163532 C36.5002919,82.3327502 31.95414,85.6797128 26.1082241,87.94259 C25.7213176,85.3855186 24.3953566,83.5296772 22.345961,82.107067 C21.4331034,81.472333 20.6230179,79.9630765 20.5303215,78.7802547 C20.1474453,73.9038854 19.5146919,68.8904941 21.427058,64.241823 C25.1873059,55.0956079 28.9616598,45.9514079 34.5959862,37.869128 C36.1577184,35.6304311 37.0443792,32.8577517 38.4670668,30.486063 C39.8675878,28.1546748 41.5522434,26.0247895 43.7366532,22.9176153 C39.3980606,23.4798083 35.9783711,23.7941528 32.6050297,24.3926163 C25.7414689,25.6157387 18.9141807,27.0746195 12.0465896,28.2574413 C9.81784677,28.6443268 7.50849838,28.5738008 5.23945275,28.5435753 C3.04899751,28.5113349 1.65855214,27.0584992 1.01572305,24.932644 C0.39707562,22.8793298 1.24544881,21.1061046 2.77090844,19.9736585 C4.33062541,18.813002 6.03140207,17.6402553 7.82890535,17.128438 C14.8899497,15.1194545 21.9691302,13.1245761 29.1228709,11.568974 C44.447997,8.24014663 59.8235015,5.16722793 75.1849001,2.02982832 C80.3315631,0.977983364 85.5064381,0.0409950396 90.7719942,0.528631974 C92.2954387,0.66968398 93.9518823,0.903427303 95.2576919,1.67518328 C98.5262461,3.60759576 98.9393494,7.74444958 95.9166421,10.0194169 C93.8410497,11.5790491 91.2616728,12.5946236 88.7729771,13.2233125 C82.020249,14.9260117 75.1929607,16.2962312 68.7666849,17.7148114" id="Fill-5"></path>
                    </g>
                    <g id="in/for-the-world" transform="translate(230.392858, 200.475417) rotate(1.000000) translate(-230.392858, -200.475417) translate(2.392858, 175.975417)">
                        <path d="M317.834067,36.4771103 C319.093041,33.5736375 319.666919,30.8162739 320.160721,28.0464375 C320.715915,24.9380557 321.087824,21.7913648 321.70174,18.6972375 C321.987345,17.2530739 322.518516,15.8151466 323.185816,14.5233285 C323.971451,13.0016557 325.229535,12.0243285 326.972524,12.0929285 C328.52244,12.1535103 329.987832,13.4025648 330.366858,15.0053103 C330.607086,16.0218375 330.228949,16.8931466 329.520721,17.4294739 C328.599847,18.1297285 328.337375,19.0625103 328.129178,20.1636739 C327.208303,25.0547648 326.307892,29.952983 325.225976,34.803983 C324.833603,36.5590739 324.122706,38.2954557 323.265003,39.850983 C321.122524,43.7326739 317.519101,44.3162194 314.34809,42.0078739 C311.637071,40.0336194 310.025763,37.3279285 309.441208,33.8676375 C309.304189,33.0524557 309.150265,32.2408375 308.943847,31.0960194 C307.599459,32.9535648 306.496189,34.6890557 305.19006,36.2232012 C303.890159,37.7484375 302.541322,39.3351466 300.940691,40.4274012 C297.759892,42.5967648 294.416273,40.8452375 293.586151,36.8548557 C293.207124,35.0338375 293.304105,33.2368739 293.45625,31.3909103 C293.764098,27.640183 294.2579,23.925983 295.221482,20.3178012 C296.02936,17.2878194 296.703778,14.165183 298.4352,11.5227466 C298.832911,10.9187103 299.276889,10.2915103 299.825854,9.87100118 C301.525246,8.57205573 304.023619,9.84071027 304.133056,12.0840194 C304.174873,12.9615648 304.009383,13.9388921 303.669505,14.7371466 C301.849999,19.0135103 300.640851,23.4618194 300.156835,28.1426557 C300.014478,29.5333648 299.811619,30.9187285 299.592744,32.6560012 C301.271672,31.4158557 302.089337,29.9004194 303.004873,28.5195103 C304.670455,26.0098194 306.22482,23.4128194 307.82901,20.8559103 C308.176896,20.3017648 308.514995,19.7387103 308.90114,19.2184194 C310.021314,17.7092194 311.594364,17.0713285 312.991246,17.6762557 C314.512691,18.3355285 315.192447,19.6576375 315.226257,21.4216375 C315.291208,24.7625466 315.41933,28.1025648 315.443352,31.4434739 C315.454029,33.0194921 315.845512,34.4093103 316.726349,35.6316375 C316.939885,35.9274194 317.312683,36.0886739 317.834067,36.4771103" id="Fill-1"></path>
                        <path d="M120.003741,26.0884909 C119.84092,31.1684545 117.814996,35.7504 114.834388,39.9483636 C112.791559,42.8268909 110.2487,44.9134 107.000281,45.8230182 C101.437665,47.3803273 95.1427985,44.0118 94.8055894,36.0809273 C94.5448973,29.9398909 96.8590951,25.0675091 101.430548,21.4530909 C102.674395,20.4686364 104.007217,19.6160364 105.243057,18.6217818 C106.863262,17.3192727 108.679209,17.1981091 110.536084,17.5473455 C111.24876,17.6818727 111.804844,17.6649455 112.477483,17.3477818 C114.833498,16.2350364 116.777567,16.8907455 118.266981,19.1768182 C119.569551,21.1769091 120.037551,22.9542727 120.003741,26.0884909 M113.127878,26.4421818 C113.066487,26.4306 113.005985,26.4181273 112.944593,26.4056545 C112.949932,25.8203273 113.032677,25.2198545 112.942814,24.6523455 C112.783551,23.6474 112.147392,23.1431455 111.167795,23.0674182 C110.291407,22.9988182 109.536023,23.1413636 108.841141,23.8656727 C107.729863,25.0238545 106.524274,26.0804727 105.328471,27.1397636 C103.19489,29.0276 101.979513,31.4945273 101.507954,34.3775091 C101.270395,35.8288 101.550662,37.2854364 102.702867,38.2128727 C103.777665,39.0779455 105.059772,39.0360727 106.163042,38.2458364 C107.309019,37.4253091 108.578669,36.6056727 109.365194,35.4439273 C110.584129,33.6434 111.513901,31.5925273 112.415202,29.5683818 C112.836046,28.6222364 112.900996,27.4898909 113.127878,26.4421818" id="Fill-15"></path>
                        <path d="M436.139129,18.6928721 C434.571418,18.9031266 433.445905,19.164163 432.315943,19.1864357 C429.744612,19.2354357 428.509661,17.1524903 429.705463,14.6490357 C430.176133,13.6636903 431.02138,12.7995085 431.866627,12.1331085 C433.599828,10.7637812 435.713836,10.3842539 437.77268,10.2292357 C441.169684,9.97265391 444.575585,10.226563 447.745707,11.7313085 C451.481699,13.5042175 454.426718,16.1867448 455.578034,20.6608903 C456.228429,23.1848357 455.729289,25.6348357 455.009494,28.0242539 C454.034346,31.2627085 452.297585,34.0129448 450.033213,36.3622721 C446.536559,39.9882721 442.527418,42.752763 438.011129,44.6503994 C436.692543,45.2045448 435.338368,45.4450903 433.933479,45.2963085 C430.725988,44.9568721 428.935844,42.8765994 428.798825,39.3869085 C428.683159,36.4727448 429.489258,33.7643812 430.524019,31.1602539 C431.681562,28.2514357 433.049083,25.4406175 434.334749,22.5923812 C434.873038,21.4003448 435.43268,20.2189994 436.139129,18.6928721 M442.61995,18.752563 C441.732886,21.0582357 440.978391,23.0511994 440.199874,25.0316903 C439.059235,27.9405085 437.863433,30.8252721 436.765501,33.7527994 C436.316186,34.9501812 436.058163,36.2313085 435.628422,37.7805994 C439.758566,35.8580175 443.165357,33.5184903 445.967129,30.2194539 C447.40138,28.5302903 448.385425,26.6050357 448.684376,24.2735266 C448.810718,23.2792721 448.687935,22.4097448 448.131851,21.6916721 C446.688703,19.8261085 444.867418,18.7507812 442.61995,18.752563" id="Fill-3"></path>
                        <path d="M382.949772,30.6131466 C383.615293,31.4889103 384.216753,32.2497466 384.783514,33.039983 C385.159871,33.5647285 385.572708,34.088583 385.816495,34.686383 C386.308517,35.8953466 386.36813,37.1292557 385.487293,38.2054739 C384.576206,39.3182194 383.148183,39.7449648 381.904335,39.0420375 C380.900715,38.4754194 379.950479,37.6985466 379.155947,36.8236739 C378.298244,35.8793103 377.622046,34.7344921 376.918267,33.6386739 C374.825613,30.3806194 374.8354,30.3726012 370.872525,29.1921466 C370.070875,30.7156012 369.223848,32.2925103 368.407962,33.8872375 C367.173901,36.2989285 365.969202,38.7284375 364.730692,41.1383466 C364.507369,41.5722194 364.20219,41.9588739 363.913027,42.349983 C363.242168,43.2587103 362.334639,43.359383 361.387962,43.0921103 C360.645035,42.8827466 359.983962,41.7334739 360.034677,40.6706194 C360.065818,40.0211466 360.26067,39.3618739 360.475985,38.7453648 C361.947605,34.5215648 363.470829,30.3236012 365.724525,26.4864557 C365.986997,26.0392194 366.126685,25.3915285 366.07686,24.8641103 C365.817057,22.1263466 366.293065,20.9619285 368.58413,20.4158012 C370.174084,20.0380557 371.059369,19.0331103 372.046084,17.820583 C374.827392,14.4066194 377.911209,11.4202921 382.028898,9.91465573 C385.338708,8.70391027 388.394943,9.32576482 391.404913,10.9285103 C394.458479,12.5553103 396.732639,17.6067648 394.393529,21.907183 C393.05092,24.3758921 391.168244,26.1862194 388.919886,27.5359466 C387.040768,28.6638375 385.037978,29.5485103 382.949772,30.6131466 M376.014297,22.4203466 C376.898692,23.6043648 377.864943,24.2110739 379.120358,24.0747648 C381.909673,23.7700739 384.530829,22.8996557 386.831681,21.1151648 C387.514997,20.5850739 388.180517,19.9712375 388.695673,19.261183 C389.526685,18.1128012 389.149438,16.7942557 387.921605,16.2579285 C386.126122,15.4739285 384.339536,15.4525466 382.569856,16.3933466 C379.958487,17.7804921 377.965483,19.9507466 376.014297,22.4203466" id="Fill-6"></path>
                        <path d="M236.02797,41.2426764 C238.121514,41.2613855 240.03978,41.2569309 241.958046,41.30504 C242.723217,41.3237491 243.507073,41.3629491 244.245552,41.5580582 C245.567697,41.9055127 246.863149,42.5638945 247.021522,44.1808945 C247.173666,45.7373127 245.978754,46.5649673 244.826548,47.07724 C243.340693,47.7391855 241.802343,48.4287491 240.231963,48.6621673 C237.797651,49.0247673 235.300168,49.2403673 232.896997,48.3129309 C230.231354,47.2839309 229.067583,45.3096764 228.910989,42.2502945 C228.720586,38.5236218 229.97689,35.3502036 231.874693,32.4324764 C233.608784,29.7686582 235.52883,27.2464945 237.352784,24.6503855 C238.846647,22.5228945 240.397453,20.4399491 241.31032,17.9008582 C242.038122,15.8731491 243.795347,15.4989673 245.474275,15.2388218 C247.376525,14.9421491 249.312586,14.9172036 251.226404,14.6971491 C253.134883,14.4770945 255.028237,14.11004 256.936716,13.90424 C258.316693,13.7563491 259.713575,13.6922036 261.09889,13.7287309 C262.340959,13.7616945 263.285856,14.4165127 263.800122,15.7225855 C264.357986,17.1373491 264.088396,18.48084 263.111468,19.4011491 C262.212837,20.2466218 261.073088,20.95044 259.93067,21.3014582 C257.637826,22.0070582 255.275583,22.3571855 252.860845,22.3750036 C250.6374,22.3919309 248.414845,22.6966218 246.112214,22.88104 C245.32302,24.5122945 244.502685,26.2076945 243.570244,28.1374036 C244.919081,28.3681491 246.186062,28.1846218 247.438807,28.2309491 C248.281385,28.26124 249.158662,28.2460945 249.952305,28.4991127 C251.426594,28.9695127 251.750457,29.8648764 251.140989,31.3696218 C250.393613,33.2164764 249.114176,34.3140764 247.217263,34.3506036 C245.129948,34.3898036 243.038183,34.3906945 240.952647,34.3007127 C239.825354,34.2508218 239.100221,34.6428218 238.483636,35.6976582 C237.536959,37.3200036 236.447925,38.8425673 236.02797,41.2426764" id="Fill-8"></path>
                        <path d="M143.623417,31.2669 C144.020238,33.4318091 144.434854,35.3704273 144.7169,37.3331 C144.905523,38.6418455 144.924208,39.9835545 144.989158,41.3119 C145.047881,42.5262091 144.591447,43.5436273 143.519318,43.8812818 C142.406261,44.2323 141.241599,44.2510091 140.273569,43.2193364 C139.453234,42.3462455 139.130261,41.2486455 138.901599,40.1082818 C138.545706,38.3202273 138.285014,36.5107909 137.931789,34.7200636 C137.631949,33.1975 137.116793,31.9903182 135.418291,31.5742636 C134.451151,31.3355 133.647721,30.3198636 132.676132,29.5821909 C130.726725,33.0371364 128.63585,36.4992091 127.197151,40.3773364 C126.712246,41.6816273 125.973767,42.8905909 125.246854,44.0683727 C124.871386,44.6795364 124.322421,45.2140818 123.753881,45.6221182 C122.865926,46.2591182 121.360497,46.1700273 120.730565,45.4492818 C120.005432,44.6189545 119.669113,43.6603364 120.170033,42.4789909 C120.972573,40.5849182 121.665675,38.6365 122.467325,36.7424273 C125.213934,30.2423545 128.76931,24.2795 132.920808,18.7407182 C135.18785,15.7160818 137.887303,13.1930273 141.312778,11.8245909 C143.560246,10.9265545 145.865546,10.3064818 148.29185,11.2668818 C150.877417,12.2905364 152.456694,14.6942091 152.650656,17.6974636 C153.035021,23.6086455 149.983234,27.1936636 145.757888,30.0436818 C145.431356,30.2637364 145.074573,30.4303364 144.732915,30.6245545 C144.393926,30.8169909 144.058497,31.0147727 143.623417,31.2669 M140.765592,25.6007182 C142.974801,25.1303182 144.533614,23.4001727 146.027478,21.5738091 C146.785531,20.6472636 147.075584,19.5469909 146.969706,18.3237727 C146.868276,17.1620273 146.343333,16.7655727 145.242732,17.0319545 C142.351987,17.7348818 140.050246,19.4766091 138.119523,21.8446455 C137.741386,22.3079182 137.4629,22.8683 137.211995,23.2674273 C138.479865,24.0995364 139.584915,24.8256273 140.765592,25.6007182" id="Fill-11"></path>
                        <path d="M349.086858,14.428803 C353.142265,13.6635121 354.191261,16.418203 355.054303,19.0873666 C355.836379,21.504403 355.761641,24.0506212 355.387063,26.5344757 C354.612105,31.686603 352.447383,36.1856939 349.403603,40.1725121 C347.812759,42.2563485 345.801961,43.8537485 343.467299,44.8622575 C341.328379,45.7870212 339.147641,45.7763303 336.908181,45.1304212 C333.406189,44.1210212 331.008356,40.5529303 330.832189,36.3496212 C330.656022,32.1097848 331.789543,28.2280939 333.816356,24.7018757 C335.626965,21.5489485 338.041702,18.9091848 340.994729,16.9723485 C343.520683,15.3170394 346.162303,13.8951485 349.086858,14.428803 M347.400813,20.5680575 C343.629231,22.5672575 340.646843,25.3709485 338.681421,29.3363848 C337.604843,31.5084212 337.100364,33.8532939 337.306782,36.3300212 C337.423337,37.7376575 338.112881,38.399603 339.384311,38.5011666 C340.541854,38.5929303 341.489421,38.1020394 342.336447,37.3180394 C345.791284,34.1205666 347.6099,29.9903121 348.087687,25.1615848 C348.232714,23.6915848 348.409771,22.1405121 347.400813,20.5680575" id="Fill-13"></path>
                        <path d="M38.8059194,47.1327436 C36.5949308,47.0819618 35.7069764,45.4988164 36.9437065,43.4666527 C37.9989308,41.7329436 39.2463376,40.0963436 40.6040715,38.6281255 C47.8393871,30.8086164 55.1681247,23.0906709 62.394543,15.2604709 C65.3991741,12.0041982 68.2427635,8.57330727 71.1255011,5.18785273 C71.7492046,4.45552545 72.1825049,3.53521636 72.783965,2.77794364 C73.4272426,1.96810727 74.0740791,1.09412545 74.8846266,0.523052727 C76.103562,-0.337565455 77.7753719,-0.0765290909 78.7754327,0.874961818 C79.7621475,1.81487091 80.1909992,3.60827091 79.5397141,5.02659818 C78.8902084,6.44047091 78.125927,7.82939818 77.2157293,9.05885273 C75.9122692,10.8192891 74.5038205,12.5084527 73.0108471,14.08358 C68.1324365,19.2321436 63.2104289,24.3299255 58.2777445,29.4179073 C53.2890068,34.5637982 48.2700183,39.6740527 43.2617065,44.79678 C42.0036228,46.0823618 40.6503376,47.1639255 38.8059194,47.1327436" id="Fill-17"></path>
                        <path d="M213.033066,30.2629345 C210.657477,30.6050436 208.320146,30.9418073 205.655393,31.3257891 C205.316405,32.2924255 204.947165,33.5450436 204.445355,34.7326255 C203.678405,36.5465164 203.003097,38.4494982 201.961218,40.0691709 C200.546541,42.2670436 197.378199,41.9748255 196.676199,39.6495527 C196.361233,38.6027345 196.344329,37.2467709 196.670861,36.2088618 C198.337332,30.9239891 199.959317,25.5999164 202.842944,20.8852255 C203.479104,19.8446436 204.115264,18.7969345 204.835948,17.8267345 C205.656283,16.7228982 206.807598,16.5331345 207.992724,16.9171164 C209.039941,17.2565527 209.868283,18.6900255 209.67788,20.1671527 C209.479469,21.7066436 208.966093,23.2006982 208.53991,24.9156982 C211.051629,24.1851527 213.607834,23.4421345 216.313515,22.6563527 C216.785074,21.5195527 217.26731,20.2990073 217.794922,19.1042982 C218.374138,17.7910982 219.127743,16.74428 220.545979,16.2845709 C221.726656,15.9023709 222.737393,16.1224255 223.540823,16.9144436 C224.383401,17.7456618 224.275743,18.85128 223.668055,19.8972073 C223.466975,20.2437709 223.2481,20.6589345 223.242762,21.04648 C223.185819,24.6635709 221.588747,27.7746255 220.494374,31.0513891 C219.630443,33.6350255 218.794983,36.2302436 217.923933,38.8112073 C217.689043,39.5043345 217.417675,40.1921164 217.080465,40.8317891 C216.39626,42.1244982 215.338367,42.7320982 213.973515,42.4443345 C212.530367,42.1387527 211.408412,40.7061709 211.318549,39.0802618 C211.218009,37.2414255 211.241142,35.4061527 211.88442,33.6457164 C212.299036,32.5106982 212.663827,31.3551891 213.033066,30.2629345" id="Fill-19"></path>
                        <path d="M97.3746068,16.6313127 C95.7134738,20.5236945 92.6216487,21.1651491 89.6001125,21.8466945 C87.9630023,22.2164218 86.2805156,22.3482764 84.8836335,22.5496218 C83.7545612,25.0575309 82.7162418,27.3623127 81.6263179,29.7829127 C83.1272989,29.8862582 84.6353977,29.9646582 86.1577323,29.6056218 C86.8259224,29.44704 87.5368198,29.3900218 88.2183559,29.4408036 C89.7762798,29.5539491 90.5405612,30.7620218 90.1624243,32.3888218 C89.6846373,34.4441491 87.9701202,35.8410945 85.6292304,35.9408764 C83.932508,36.0139309 82.2153217,36.0923309 80.5346144,35.89544 C78.8556867,35.6976582 77.9526068,36.4567127 77.3084395,37.9979855 C76.2923635,40.4301673 75.2104471,42.8284945 74.1543331,45.2401855 C73.8891924,45.8451127 73.6685384,46.4821127 73.3331087,47.0371491 C72.6231011,48.2086945 71.7289186,49.1067309 70.2839909,48.8269855 C69.1122114,48.6006945 67.910181,47.0353673 67.7927361,45.5707127 C67.6219072,43.4360945 68.0712228,41.4066036 68.9111316,39.5062945 C69.9432228,37.1712218 71.0411544,34.8655491 72.2031468,32.60264 C73.8891924,29.3178582 75.6882342,26.1025673 77.3627133,22.8115491 C77.6687817,22.2119673 77.7622038,21.3798582 77.6963635,20.6831673 C77.5210859,18.8309673 78.1848274,17.5703309 79.7507589,16.9270945 C80.8913977,16.4575855 82.0676259,16.0219309 83.2634281,15.7894036 C85.8294205,15.2869309 88.4203255,14.9421491 90.9969947,14.5029309 C92.7826905,14.2000218 94.5470327,14.0744036 96.1200821,15.2610945 C96.5943103,15.6174582 96.9502038,16.15824 97.3746068,16.6313127" id="Fill-21"></path>
                        <path d="M187.478398,17.3142836 C184.015554,16.7432109 180.798276,16.5864109 177.564094,16.6897564 C176.564033,16.7218291 175.555964,16.77172 174.895782,15.6375927 C173.852124,13.8433018 174.460702,11.78352 176.53912,11.0654473 C178.129075,10.5157564 179.835584,10.2467018 181.507394,10.1166291 C183.507516,9.95893818 185.527211,10.0417927 187.534451,10.0925745 C191.31671,10.1896836 195.063379,9.77808364 198.811827,9.30412 C199.879508,9.16870182 200.984557,9.16959273 202.051348,9.30144727 C203.828147,9.51793818 204.772154,10.7286836 204.743683,12.4160655 C204.725888,13.4477382 204.311272,14.22372 203.51585,14.6736291 C202.703523,15.1342291 201.841371,15.5787927 200.953417,15.7694473 C198.621424,16.2674655 196.26363,16.6256109 193.696748,17.0781927 C193.726109,17.0309745 193.546383,17.2100473 193.48855,17.4274291 C192.405744,21.4605745 190.683219,25.1836836 188.853037,28.8675927 C187.646557,31.2944291 186.610017,33.8210473 185.409767,36.2532291 C184.907957,37.2697564 184.242436,38.2176836 183.534208,39.0845382 C182.685402,40.1233382 181.596367,40.3567564 180.394337,39.7536109 C179.259037,39.1834291 178.911151,38.10632 178.908481,36.8857745 C178.906702,36.2354109 179.017919,35.53872 179.250139,34.9418109 C180.352519,32.1042655 181.398846,29.22752 182.686291,26.4879745 C184.116094,23.4446291 185.782565,20.5331382 187.478398,17.3142836" id="Fill-23"></path>
                        <path d="M35.7109802,28.4323836 C36.286638,25.6171109 36.7751019,22.9354745 37.4005848,20.2903655 C37.703984,19.0119109 38.1328357,17.7183109 38.750311,16.59042 C39.2361057,15.7039655 39.9968281,14.8647291 40.8189422,14.3497836 C42.4782958,13.3109836 44.3440677,14.2802927 44.7435582,16.2990927 C44.8841361,17.0109291 44.9428586,17.88402 44.6910639,18.5228018 C43.2835049,22.0819836 42.9320601,25.9360564 41.9115354,29.5959109 C41.5138243,31.0231473 41.0431551,32.4797836 40.3313681,33.74042 C38.7956875,36.4612564 36.3097711,37.6639836 33.4092388,34.7346745 C31.6626913,32.9706745 30.5692084,30.82002 29.8227217,28.4020927 C29.2417255,26.5231655 28.5842122,24.6736382 27.8056951,22.3465836 C27.190889,23.2143291 26.7825011,23.6580018 26.5173605,24.1863109 C24.9683338,27.2706382 23.486927,30.3950564 21.9120981,33.4633473 C21.0882046,35.0678745 20.1522046,36.6082564 19.2028586,38.1299291 C18.8718776,38.66002 18.3878624,39.1126018 17.8993985,39.4858927 C17.2908205,39.9527291 16.5407749,40.0329109 15.9473224,39.52242 C15.2684555,38.9370927 14.815581,38.1032018 15.0575886,37.1125109 C15.2524403,36.3115836 15.5522806,35.5266927 15.8983871,34.7854564 C17.8504631,30.6062018 19.782965,26.4162564 21.8266837,22.2895655 C22.5117787,20.9095473 23.3952844,19.5972382 24.3811095,18.4488564 C26.2620068,16.2581109 29.0246304,16.4567836 30.9517939,18.4675655 C32.6422882,20.2342382 33.354965,22.4971473 34.1325924,24.7707473 C34.5463186,25.97882 34.5881361,27.3980382 35.7109802,28.4323836" id="Fill-25"></path>
                        <path d="M406.969917,33.6738648 C408.881065,33.4894466 410.399841,33.3281921 411.922175,33.1990103 C414.14651,33.0101375 416.370844,32.7375194 418.598738,32.7009921 C420.509886,32.6707012 422.229742,33.368283 423.486936,35.1670285 C423.413978,37.0272466 422.381886,38.1186103 420.950305,38.9658648 C418.59073,40.3619194 415.977582,40.7334285 413.397354,41.0425739 C410.571559,41.3793375 407.710175,41.4007194 404.863027,41.4702103 C403.955498,41.4915921 403.023057,41.3089557 402.135103,41.0728648 C399.50327,40.3743921 398.061012,37.8379739 398.718525,34.9701375 C398.973879,33.8502648 399.394723,32.7384103 399.920555,31.7325739 C401.780989,28.1707194 403.753529,24.6774648 405.613962,21.1156103 C406.364898,19.6750103 406.962799,18.1364103 407.579384,16.6165194 C407.987772,15.6080103 408.343666,14.6725557 409.475407,14.2903557 C411.092054,13.7433375 412.555666,14.4026103 413.20962,16.1069194 C414.029955,18.2406466 413.457856,20.2647921 412.617057,22.1383739 C411.132981,25.4418648 409.460282,28.6464648 407.864989,31.8911557 C407.647894,32.3330466 407.423681,32.770483 406.969917,33.6738648" id="Fill-27"></path>
                        <path d="M-1.70530257e-13,36.2983091 C0.363011407,34.9343273 0.597011407,33.4260182 1.15398479,32.0754 C3.47707985,26.4421818 5.89092776,20.8544 8.29409886,15.2603818 C8.55034221,14.6643636 8.8839924,14.0736909 9.2941597,13.5926 C10.7791255,11.8490909 13.1226844,12.2001091 14.1049506,14.2955273 C14.6067605,15.3646182 14.8238555,16.4702364 14.4136882,17.6720727 C13.0817567,21.5724727 11.8450266,25.5120727 10.4472548,29.3839636 C9.43918631,32.1760727 8.23537643,34.8853273 7.11342205,37.6293273 C6.69969582,38.6396182 6.15250951,39.5046909 5.20138403,40.0508182 C2.97349049,41.3292727 1.11394677,40.5123091 0.358562738,37.8574 C0.224212928,37.3861091 0.136129278,36.8978909 -1.70530257e-13,36.2983091" id="Fill-29"></path>
                    </g>
                    <g id="Healthcare" transform="translate(2.000000, 124.000000)">
                        <path d="M250.074815,21.8120632 C251.281384,24.5156742 252.712631,26.7660936 254.562361,28.6988474 C255.040872,29.1977897 255.431914,29.8141301 255.789511,30.4261544 C256.704514,31.9937653 256.660779,33.1919173 255.701184,34.4479052 C254.876223,35.528659 253.295763,36.1087441 252.066897,35.5303854 C251.064425,35.058203 250.0731,34.4151027 249.26872,33.6183489 C246.69179,31.0683915 244.914952,27.8977775 243.610622,24.4000024 C242.909148,22.5207684 242.904861,22.5224948 240.805584,22.048586 C239.219979,23.9131453 238.152333,26.2369386 236.884877,28.4036255 C235.88755,30.109352 234.953681,31.8616924 234.019811,33.6105799 C233.487274,34.6093277 232.743781,35.2489751 231.673562,35.112586 C230.671089,34.9848292 230.292053,34.1535465 229.943888,33.1582517 C229.323024,31.3791514 229.924165,29.8029082 230.382953,28.2050845 C231.392286,24.6943611 233.119387,21.573814 234.968259,18.5231878 C237.498881,14.3486468 240.68124,10.8344705 244.264931,7.75363161 C246.365064,5.94863465 248.556098,4.26189909 250.764283,2.61487173 C252.344743,1.43484742 254.143877,0.966981155 256.072502,1.20264073 C257.752437,1.40808754 259.309743,2.78578967 259.386065,4.58647052 C259.494116,7.08808754 259.70936,9.7174614 259.155385,12.093048 C258.326994,15.6417532 256.210567,18.4377289 253.150837,20.2064705 C252.167231,20.7744705 251.144176,21.2561483 250.074815,21.8120632 M252.355891,9.97470152 C250.408401,11.6424462 248.458338,13.3093277 246.510848,14.9787988 C249.311598,14.5843064 251.564375,13.3723429 252.355891,9.97470152" id="Fill-1"></path>
                        <path d="M277.082586,11.3041495 C276.693259,12.5420097 276.339092,13.6702407 275.920609,15.0004657 C276.435995,14.9331343 276.844187,14.8847939 277.250665,14.8252316 C277.910977,14.729414 278.566143,14.597341 279.228169,14.5291465 C280.18605,14.429876 281.075327,14.6853897 281.506673,15.6806845 C281.975751,16.7666176 281.889139,17.8706784 281.184235,18.8849641 C279.984526,20.6114079 278.242847,21.3192498 276.44114,21.8587635 C275.305747,22.1980097 274.122332,22.3473471 272.860022,22.6019976 C272.106238,24.0401252 271.636302,25.6077362 271.778655,27.6259489 C272.984366,27.4325872 274.121474,27.1908851 275.268873,27.0769398 C276.890495,26.9163805 278.52155,26.7886237 280.149175,26.7739489 C280.707439,26.7687696 281.316297,27.0501799 281.817963,27.3635295 C282.99366,28.092952 283.286084,29.1452195 282.570889,30.4357362 C282.082087,31.3196754 281.468941,32.2433228 280.698863,32.7983745 C277.049999,35.4329277 273.026386,36.1476754 268.767806,35.1333897 C265.937899,34.4592134 264.064158,32.5532195 264.127616,28.4425568 C264.184214,24.7350188 265.183257,21.2734991 266.656524,17.9690857 C267.664142,15.7083076 268.691484,13.4501191 269.84317,11.2756632 C270.802766,9.46289726 271.842113,7.66825897 273.067549,6.07043526 C273.691843,5.25728024 274.748342,4.68582736 275.71051,4.36298237 C280.034264,2.91363283 284.365736,1.45996717 288.756379,0.292891185 C290.44832,-0.155120973 292.322061,-0.0014674772 294.086894,0.177219453 C295.269452,0.298070517 296.359395,1.02231368 296.63038,2.52431976 C296.931379,4.1946541 296.514611,5.2754079 294.975313,6.10841702 C293.655548,6.82316474 292.255173,7.4446845 290.828214,7.82363891 C286.582496,8.94841702 282.30505,9.9299003 278.041324,10.9769884 C277.688872,11.0641739 277.348425,11.212648 277.082586,11.3041495" id="Fill-3"></path>
                        <path d="M149.119612,17.6965666 C152.930553,17.0336122 156.437922,16.4250407 160.142527,15.7810772 C160.821705,13.9847125 161.527466,12.1287854 162.221222,10.267679 C162.417601,9.74284012 162.539372,9.18260912 162.769195,8.67848754 C163.455233,7.17475502 165.0194,6.39008632 166.525253,6.75263951 C167.796996,7.0599465 168.660546,8.28572158 168.526769,10.0777702 C168.396421,11.8327003 168.133154,13.6109374 167.671794,15.2959465 C166.78166,18.5451137 165.69772,21.7338553 164.719258,24.9562626 C164.254467,26.4884815 163.898585,28.0612717 163.405495,29.5805422 C162.772625,31.5262444 161.674107,32.2815635 159.835525,32.1831562 C157.97722,32.0856122 156.80581,30.8701957 156.682323,28.8278128 C156.630013,27.9386942 156.640303,27.0349009 156.731203,26.1526881 C156.819531,25.2868766 157.047638,24.4374663 157.249162,23.3972839 C153.469093,23.7546578 149.811653,24.1008097 145.881513,24.4719951 C144.758126,27.2438006 143.56785,30.1934298 142.365569,33.1361532 C142.094584,33.7956547 141.837319,34.4776 141.466001,35.0723599 C140.695924,36.3093568 139.522799,36.5519222 138.293076,36.2290772 C137.02219,35.8958736 136.180079,34.9195696 136.093467,33.4961167 C136.020575,32.3040073 136.093467,31.054062 136.355018,29.8982079 C136.656875,28.575752 137.146535,27.2800559 137.711659,26.0594602 C140.694209,19.6224146 143.706773,13.2052231 146.751924,6.80529605 C147.572597,5.07885228 148.465304,3.39643283 150.34076,2.67564255 C151.940086,2.06102857 152.996584,2.7723234 152.976861,4.61961824 C152.972573,5.02101641 152.933126,5.43708936 152.832793,5.82035988 C151.87234,9.46660912 150.998499,13.146524 149.374304,16.538986 C149.246529,16.8048584 149.237954,17.1363356 149.119612,17.6965666" id="Fill-5"></path>
                        <path d="M12.5592969,20.8965301 C15.2502809,20.3915453 17.5828099,19.954755 20.1031419,19.4817094 C20.430725,18.7022201 20.7668836,17.8182809 21.1682158,16.9688705 C22.0514897,15.0999951 22.9133249,13.2147185 23.8995044,11.411448 C24.2579593,10.7553994 24.8831114,10.1977581 25.4988304,9.80067599 C26.4472779,9.18865167 27.5166396,9.16793435 28.4522239,9.86282796 C29.4606997,10.6095149 29.8474536,11.7455149 29.6793743,13.0481167 C29.5979073,13.6817216 29.3835204,14.298062 29.1914298,14.9083599 C27.9428407,18.8817702 26.6230751,22.8292839 25.4525229,26.8285909 C24.7802057,29.1264875 24.3574348,31.5089799 23.7948837,33.8457216 C23.6473855,34.4603356 23.4801637,35.1025726 23.1765919,35.6334541 C22.5257134,36.7694541 21.6467273,37.7414419 20.3192438,37.6033264 C18.876849,37.4539891 17.9129657,36.4880438 17.3890042,34.9860377 C16.8367436,33.4072049 16.9087776,31.8042018 17.1617541,30.1960195 C17.3452693,29.027217 17.6179694,27.875679 17.8529374,26.7051502 C15.1825346,26.8268644 12.61418,26.9459891 9.9180508,27.0694298 C9.01762598,29.1428888 8.1000502,31.2500134 7.18418953,33.3597277 C6.64479218,34.6027672 6.13798164,35.8656608 5.55313427,37.0819404 C5.24698983,37.7198614 4.8559482,38.3318857 4.40830843,38.861904 C3.78315634,39.6008219 2.97706173,40.0937216 2.02346897,39.8304389 C0.912945016,39.5214055 0.196035347,38.6348766 0.0579702077,37.4358614 C-0.0595137931,36.4146699 0.00994755043,35.3287368 0.19174761,34.3118614 C0.388125976,33.2112535 0.727714767,32.1175514 1.14877057,31.0911805 C2.53885498,27.7013082 3.95809602,24.3252474 5.43136254,20.9776729 C7.07013571,17.254597 8.77065231,13.5660498 10.4660236,9.87318663 C10.7953218,9.15671246 11.1709276,8.44800729 11.6245702,7.82217143 C12.2274261,6.99002553 13.0875462,6.65077933 14.0231304,6.98311976 C14.9973044,7.32754529 15.7425131,8.1009921 15.8531367,9.2214541 C16.0040651,10.7415878 16.0409396,12.2772596 15.41493,13.7550954 C14.4561919,16.0176 13.5832086,18.3232657 12.5592969,20.8965301" id="Fill-7"></path>
                        <path d="M217.557559,23.4170517 C215.514023,23.398924 213.600835,23.3825228 211.534145,23.3635319 C210.649156,24.6505957 209.683558,25.9799574 208.793424,27.3662918 C207.471943,29.425076 206.207918,31.5261581 204.912164,33.6056596 C203.968004,35.1214772 202.748572,35.6842979 201.502555,35.1939878 C200.196511,34.6803708 199.586794,33.5435076 199.597942,31.712614 C199.604803,30.3668511 200.065306,29.2040912 200.691315,28.0724073 C203.155907,23.6147295 205.997819,19.4531368 209.013813,15.4279331 C210.569405,13.3536109 212.053819,11.2093678 213.706313,9.23086322 C215.101543,7.56052888 216.53622,5.83840122 218.223016,4.56514894 C222.574211,1.285769 225.669958,5.11761094 225.801162,8.73019453 C225.915216,11.879228 225.994968,15.0368936 225.360383,18.1772948 C224.610886,21.8779271 224.086067,25.6312158 223.393169,29.3456596 C223.139335,30.7060973 222.560491,31.9551793 221.56059,32.8926383 C220.192802,34.175386 218.020634,33.8974286 217.075617,32.2486748 C216.781478,31.735921 216.682003,31.0427538 216.63055,30.4169179 C216.463328,28.3719453 216.844079,26.3891246 217.340599,24.4287477 C217.414348,24.1387052 217.468374,23.8408936 217.557559,23.4170517 M219.096856,13.9095258 L218.75298,13.6799088 C218.000911,14.6950578 217.249699,15.7102067 216.174335,17.1638723 C217.379189,16.804772 218.117537,16.5846505 218.903051,16.3498541 C218.974227,15.4564195 219.036828,14.6838359 219.096856,13.9095258" id="Fill-10"></path>
                        <path d="M73.4569144,26.6347976 C70.431487,26.4543842 67.6976257,26.2912353 64.74852,26.115138 C64.3489029,26.6667368 63.8146508,27.4332778 63.2495271,28.1713325 C61.5387199,30.413983 59.842491,32.6695818 58.0853763,34.8690711 C57.3333072,35.8108462 55.4895802,35.9584571 54.5737195,35.288597 C53.6184116,34.5893872 53.1707719,33.1987368 53.5952579,31.8797337 C53.86024,31.0510407 54.2144071,30.2283903 54.6689073,29.5076 C55.8068727,27.7043295 57.1172052,26.0270894 58.1917122,24.1841106 C60.8372461,19.6470164 64.4003557,16.1259343 68.3296382,12.9872596 C70.251402,11.4533143 72.2006074,9.9590772 74.1686788,8.49505289 C75.2423282,7.69829909 76.3820087,7.23992827 77.7137799,7.91410456 C79.0001011,8.56497386 79.7238711,9.72255441 79.8319221,11.1166578 C80.1878043,15.7064085 80.578846,20.3082444 80.6002846,24.9074906 C80.6182931,28.8273812 79.3345446,32.5219708 77.868996,36.0767185 C77.3150204,37.420755 76.4540427,38.5835149 74.8984516,38.6871015 C73.0607275,38.809679 71.6586374,37.4941289 71.6432015,35.2402565 C71.6320534,33.7382505 72.0325281,32.2198432 72.3489631,30.7342383 C72.6319537,29.4048766 73.052152,28.1100438 73.4569144,26.6347976 M73.8916909,17.1704328 C72.6388141,18.1804024 71.6243355,18.9970103 70.314003,20.0535939 C71.7632582,20.0225179 72.8386227,20.3073812 73.8676796,19.8403781 C73.8753975,19.0116851 73.8814004,18.2960742 73.8916909,17.1704328" id="Fill-12"></path>
                        <path d="M47.0823565,16.668124 C46.4529167,17.8757714 45.9066589,18.9228596 45.2634983,20.1572669 C46.0695929,20.2323672 46.7136111,20.2556742 47.3464811,20.3609872 C48.0007898,20.4706164 48.6602438,20.6078687 49.2896836,20.8236742 C51.1411286,21.4590055 51.8494628,23.5195161 49.8470895,25.3081119 C48.8583373,26.1903246 47.7152265,26.7928535 46.3697345,26.7427866 C45.6253834,26.7151635 44.8784595,26.732428 44.1323932,26.7272486 C43.3897572,26.7212061 42.6471211,26.7143003 41.8170151,26.7065313 C41.0057752,27.958203 40.1027778,29.11751 39.8129267,30.8033824 C40.2228344,30.8879781 40.568426,31.0010602 40.9191629,31.0252304 C43.5912808,31.206507 46.2625411,31.3705191 48.934659,31.5379842 C50.281866,31.6225799 51.8280241,32.4219234 52.7799017,33.5596498 C52.3468403,34.3710784 51.9412203,35.2308474 51.4507032,36.026738 C50.6531841,37.3172547 49.3900167,37.8990663 48.0899747,38.2452182 C45.1708832,39.0203915 42.2123445,39.1541909 39.2452303,38.5352608 C38.3019281,38.3384462 37.3277542,38.2478079 36.4178964,37.9353216 C33.1652189,36.8191757 31.6559354,33.7961726 32.4174375,30.163735 C32.9062396,27.8321726 33.8975644,25.7595769 35.0912705,23.7905678 C36.5662521,21.3545556 38.0901139,18.9513459 39.5848191,16.5274188 C40.079624,15.722896 40.5598506,14.9468596 40.5032524,13.8626529 C40.4072071,11.9791027 41.4191131,10.7835404 42.9506929,10.2276255 C44.4908481,9.66825775 46.0858863,9.23319392 47.687785,8.94315137 C49.6601441,8.58750395 51.6573721,8.37687781 53.65117,8.21804498 C55.8104744,8.04540061 57.3309061,9.17794772 58.359963,11.2065191 C57.7382411,13.7176316 56.1526359,15.0625313 53.9701776,15.5234918 C51.9369326,15.9525131 49.8616678,16.1441483 47.8069841,16.4505921 C47.5908821,16.4825313 47.3824981,16.5757593 47.0823565,16.668124" id="Fill-14"></path>
                        <path d="M184.382049,38.1938565 C182.869336,38.257735 181.463815,37.9547441 180.039429,37.3211392 C176.957403,35.9512061 175.617914,33.3977957 175.473846,29.9664888 C175.298049,25.7669143 176.58094,21.9756438 178.630478,18.5184401 C182.085537,12.6856498 186.998427,8.68893252 192.707977,5.77987477 C193.24223,5.50709666 193.816786,5.27488997 194.394773,5.16094468 C195.87833,4.86917568 197.216104,5.2446772 198.275175,6.46440973 C199.339392,7.68932158 199.171313,9.25865897 197.77351,9.85514529 C193.282534,11.768045 189.800892,15.176045 186.500191,18.813662 C184.385479,21.1443611 182.852185,23.9273884 182.122412,27.1636073 C182.087252,27.3207137 181.985204,27.4614188 181.963765,27.617662 C181.565863,30.3445799 181.865147,30.6648353 183.90611,31.3856255 C185.477137,31.9415404 186.904954,31.994197 188.414237,31.1439234 C189.178312,30.7140389 190.102748,30.4749264 190.965441,30.4334918 C192.370961,30.364434 193.429175,31.3217471 193.797063,32.7072182 C194.163235,34.0857836 193.719883,35.4980146 192.568197,36.3267076 C192.08111,36.6771757 191.514271,36.9516802 190.949148,37.1079234 C188.793273,37.7026833 186.644259,38.401893 184.382049,38.1938565" id="Fill-16"></path>
                        <path d="M92.7718844,29.2716815 C94.3206151,30.3999125 95.9002175,29.9890188 97.4343699,29.8966541 C98.2456098,29.845724 99.0482742,29.608338 99.8595141,29.5867574 C100.983759,29.5574079 102.009386,29.4978456 102.989562,28.6613836 C104.365068,27.4899915 106.529518,28.6000948 106.978015,30.6252134 C107.510552,33.0292863 106.0673,35.6931891 103.830816,36.1852255 C101.000052,36.8076085 98.1495645,37.4722894 95.2802107,37.7062225 C93.0780288,37.8849094 90.8441177,37.4092742 88.8871944,36.0298456 C87.0014476,34.7022103 86.0521426,32.8885812 85.8840633,30.4119976 C85.5847792,26.0527271 87.0160259,22.2916693 89.0595615,18.738648 C90.4393553,16.3354383 91.9898011,14.0470371 93.4544922,11.7008 C94.0376244,10.7659307 94.5881699,9.80602796 95.1652993,8.86597933 C96.2560997,7.08687903 97.0681971,6.77439271 98.9719525,7.20773009 C100.117636,7.4684231 100.966608,9.03258116 100.892001,10.6925568 C100.853412,11.5592316 100.709344,12.498417 100.347459,13.2563258 C99.5293583,14.9793167 98.593774,16.6444717 97.6196001,18.2725082 C95.709842,21.465566 93.7254772,24.6120097 92.855924,28.3825629 C92.801041,28.6121799 92.8087589,28.8590614 92.7718844,29.2716815" id="Fill-18"></path>
                        <path d="M120.354041,12.1353459 C118.496593,12.446969 117.051625,12.6739964 115.614376,12.9364158 C113.985036,13.2325009 112.508339,12.4927198 112.12673,11.1581787 C111.644789,9.46799027 112.178183,7.83650091 113.757786,7.12693252 C115.45916,6.3647076 117.255722,5.81483526 119.049711,5.35301155 C123.73192,4.1479538 128.432138,3.0197228 133.13407,1.91652523 C134.066224,1.69813009 135.048974,1.63597812 136.003424,1.65928511 C137.338625,1.69208754 138.350531,2.55530942 138.661821,3.81388693 C138.991119,5.15447052 138.493742,6.27752219 137.493842,6.94220304 C136.304423,7.73464073 135.011242,8.40277447 133.690619,8.89135805 C132.154751,9.4610845 130.551995,9.8478079 128.955242,10.1853277 C127.635476,10.4658748 126.858538,11.2971574 126.411756,12.5963064 C125.660544,14.78889 125.008808,17.0272243 124.156406,19.1723307 C122.978136,22.1383611 121.762134,25.1000754 120.336032,27.9279903 C119.761475,29.0665799 118.708407,30.0679173 117.661342,30.7455465 C116.00113,31.8193945 114.324624,30.7386407 114.14454,28.6479173 C114.01162,27.098434 114.206283,25.6257775 114.888891,24.1798809 C116.688025,20.3704827 118.381681,16.5032486 120.354041,12.1353459" id="Fill-20"></path>
                    </g>
                    <g id="education" transform="translate(469.716186, 145.941718) rotate(2.000000) translate(-469.716186, -145.941718) translate(327.716186, 122.941718)">
                        <path d="M227.467812,7.52637311 C228.922839,7.39339832 230.132679,7.25757407 231.345359,7.17588956 C233.766932,7.01347035 235.363959,8.41350492 236.570012,10.5050084 C238.094145,13.1464576 238.257919,16.0595553 237.848012,19.0248932 C237.162625,23.983903 235.025999,28.2628418 232.385745,32.2957772 C230.710145,34.8555419 228.893492,37.2538372 226.485172,39.0575453 C222.567865,41.9905892 218.413892,42.4455529 214.156732,40.187831 C209.863599,37.9120624 207.779039,34.0462953 207.642719,28.836533 C207.542372,25.0182569 208.671745,21.6292994 210.489345,18.5024922 C213.202492,13.8360269 216.780892,10.0623923 221.062665,7.07045954 C222.219492,6.26121297 223.440692,5.98291573 224.797265,5.98291573 C226.084732,5.98291573 226.887505,6.79881104 227.467812,7.52637311 M224.608879,13.4086079 C222.890679,15.2493589 221.274719,16.7842679 219.878385,18.5262377 C217.937719,20.9463789 216.087932,23.4975952 215.477332,26.7488288 C215.272852,27.8363726 215.164932,29.0977335 215.469759,30.1178401 C216.427785,33.3206329 219.641719,34.3397897 222.272505,32.2872288 C226.420799,29.0502425 228.965439,24.5518953 230.515132,19.3459323 C230.940185,17.9193028 231.377545,16.4584797 230.568145,14.9596639 C228.641679,14.3460802 226.365892,15.6549321 224.608879,13.4086079" id="Fill-1"></path>
                        <path d="M268.132447,26.2212988 C269.08006,23.1704772 269.80994,20.8120743 270.544553,18.4546213 C271.956033,13.9239802 274.198687,9.89009498 276.86734,6.12215933 C277.976833,4.55685609 279.378847,3.56809354 281.316673,3.78750194 C282.79726,3.95562007 283.506313,4.73067313 283.60098,6.36341359 C283.675767,7.65421887 283.455193,8.89183424 282.728153,9.91194084 C278.686833,15.5861651 276.585233,22.2482021 274.388967,28.8731961 C274.031127,29.9521915 273.50478,30.9874952 272.932993,31.959161 C271.069007,35.1296599 267.87022,35.7973833 264.961113,33.0210597 C262.873713,31.0292873 261.661033,28.3887879 260.632953,25.6447581 C259.985433,23.915136 259.377673,22.169367 258.723527,20.4435442 C258.505793,19.869853 258.25114,19.2971115 257.922647,18.793707 C257.4531,18.0737435 256.807473,17.9692633 256.2319,18.5629007 C255.7633,19.0463591 255.349607,19.6314482 255.037207,20.2469315 C253.055833,24.1487917 251.1057,28.0686986 249.155567,31.9886054 C248.644367,33.0144109 248.118967,33.9879764 247.123073,34.5920618 C245.2127,35.7536916 242.961527,34.4932806 242.79018,32.1044835 C242.735273,31.3341795 242.854553,30.4869401 243.107313,29.7622275 C244.8293,24.8203144 247.185553,20.223186 249.826753,15.8055735 C250.48658,14.7028326 251.444607,13.7672599 252.388433,12.9171711 C255.532313,10.0857579 261.0457,10.4856321 263.185167,14.589804 C264.2691,16.6689598 265.122993,18.8905886 266.048833,21.0647264 C266.693513,22.5777896 267.28518,24.1164979 268.132447,26.2212988" id="Fill-3"></path>
                        <path d="M36.5347067,43.6788941 C32.6836667,43.6579981 30.71744,41.1884663 31.2968,36.9589181 C31.9111867,32.4757681 32.8597467,28.077152 34.3507467,23.825758 C35.3703067,20.919309 36.3198133,17.9843654 37.3384267,15.0779164 C37.6262133,14.2544226 37.9348267,13.3891366 38.4318267,12.7138146 C39.5545733,11.1903035 41.0398933,10.2889244 42.9142933,11.778242 C43.8458133,12.5191016 44.78964,12.7100154 45.8991333,12.5874886 C46.7937333,12.4868077 47.7072667,12.5267001 48.6084933,12.5770406 C53.55104,12.8524884 57.01016,17.9539712 55.8069467,23.0022641 C54.7911733,27.2660058 52.8145333,30.8819702 50.4800533,34.3279169 C48.3178667,37.5212115 45.6122933,40.1009224 42.387,42.0157594 C40.30528,43.2505253 38.8445733,43.6912418 36.5347067,43.6788941 M39.8802267,33.8606055 C44.1780933,30.7822391 46.9442533,26.5507914 48.5848267,21.1472658 C46.59872,20.4244528 44.8133067,20.4871409 42.9928667,21.1814593 C42.0073867,25.4793945 40.16328,29.4002511 39.8802267,33.8606055" id="Fill-6"></path>
                        <path d="M11.440656,23.5045289 C12.5264827,23.5140271 13.263936,23.4418408 13.9777227,23.5491704 C14.695296,23.6565001 15.4526293,23.81512 16.0821627,24.1770014 C18.0417627,25.3034878 18.100456,27.5384141 16.2298427,28.8463162 C14.5201627,30.0421394 12.519856,30.1532684 10.5896027,30.4933039 C10.0301227,30.5920852 9.45076267,30.5607411 8.70478933,30.5968343 C8.384816,31.468769 8.01466933,32.3435531 7.74676267,33.2525308 C7.498736,34.0912218 7.359576,34.9688554 7.11060267,36.1114888 C9.364616,37.2398749 11.6157893,38.1849457 14.2569893,37.6824909 C16.101096,37.3320074 17.984016,37.2085308 19.852736,37.0309145 C20.9328827,36.9283339 21.7763627,37.4193908 22.289456,38.4746408 C22.8214827,39.5669337 22.4617493,40.5585457 21.8672427,41.4475771 C20.1859627,43.958901 17.989696,45.5194552 15.0484027,45.6011397 C12.0900693,45.6828242 9.13268267,45.7198672 6.33054933,44.4452088 C5.42648267,44.0339368 4.51200267,43.6283637 3.65432267,43.1183104 C1.122936,41.6099964 -0.0140106667,39.3380271 0.000189333333,36.1219368 C0.0162826667,32.6123522 1.148496,29.4978926 2.355496,26.3976804 C3.309736,23.9480948 4.533776,21.6229356 5.641376,19.2436367 C5.825976,18.846612 6.10902933,18.4780818 6.200856,18.0592112 C6.757496,15.5279411 8.47758933,14.3368669 10.4930427,13.3196098 C13.553616,11.7752026 16.7211627,10.5793793 20.0070427,9.85086742 C21.5065627,9.51938026 23.113056,9.75778507 24.672216,9.74733705 C24.8322027,9.74638723 24.995976,9.8024266 25.1531227,9.8499176 C26.680096,10.3143795 27.9685093,11.6469769 28.0215227,12.8114561 C28.0783227,14.0386235 27.069176,15.1499128 25.2534693,15.7416506 C24.1600693,16.0987829 23.0344827,16.3314888 21.9297227,16.6477788 C19.4059093,17.369642 16.8716827,18.0573116 14.377216,18.8817553 C13.8357227,19.0612713 13.3339893,19.685303 13.0007627,20.2380982 C12.4677893,21.1204809 12.091016,22.1149423 11.440656,23.5045289" id="Fill-8"></path>
                        <path d="M145.343627,25.613794 C142.797093,26.0184173 140.31872,26.3698507 137.85928,26.8371621 C137.35944,26.9330939 136.79144,27.3567136 136.489453,27.8126271 C134.7722,30.4065854 133.075773,33.0204898 131.475907,35.7018315 C130.542493,37.2671347 128.98996,38.0070444 127.48476,37.3336221 C126.231373,36.7722785 125.386947,34.8773878 125.873533,33.2911885 C126.28344,31.9547918 126.789907,30.598449 127.511267,29.4387188 C129.899707,25.5985969 132.373347,21.8173637 135.45664,18.5699294 C138.940373,14.9026747 142.42032,11.229721 145.925827,7.58621176 C146.574293,6.91183962 147.291867,6.28970756 148.050147,5.76920624 C149.96052,4.45845474 151.904027,4.91531813 153.173507,6.93558511 C153.787893,7.91389964 153.997107,9.0175904 154.065267,10.2105642 C154.452453,16.9637839 153.350533,23.4909465 151.507373,29.8889335 C151.101253,31.2965666 150.382733,32.6405618 149.613093,33.8696288 C148.900253,35.0084629 147.73964,35.3000576 146.53548,34.7843054 C145.432613,34.3122449 144.84284,33.3244322 144.893013,32.0659208 C144.965907,30.2109224 145.184587,28.3644725 145.332267,26.5123236 C145.358773,26.1770372 145.341733,25.8370017 145.343627,25.613794 M147.456587,15.555201 C146.33952,16.6921354 145.46764,17.5783174 144.430093,18.6326175 C145.296293,18.9403592 145.95896,19.1740149 146.738067,19.4494627 C146.979467,18.1453599 147.182053,17.0445186 147.456587,15.555201" id="Fill-11"></path>
                        <path d="M174.76792,10.7450279 C172.0756,11.0375724 169.649293,11.2674289 167.23056,11.5770702 C166.10024,11.7223926 164.974653,11.9693458 163.868947,12.2694889 C162.093947,12.753897 161.500387,12.6579652 160.81784,11.5932171 C160.105947,10.4838274 160.179787,8.41701926 160.992027,7.32662598 C161.91124,6.09375971 163.184507,5.4450327 164.542027,5.06130545 C166.5944,4.47811601 168.6676,3.97376163 170.74648,3.51974771 C175.227053,2.53953354 179.71804,1.61535875 184.203347,0.662689364 C185.16516,0.457528259 186.11372,0.153585882 187.083107,0.0320089316 C189.647627,-0.289980024 191.64036,1.90600365 191.132,4.59589369 C190.98432,5.38139477 190.446613,6.25142982 189.847373,6.72064086 C189.077733,7.32187688 188.088467,7.64671529 187.152213,7.93166127 C185.58548,8.41037052 183.98656,8.76275371 182.26836,9.20157052 C181.116267,15.8522097 178.128587,21.8256272 175.934213,28.1181842 C175.58868,29.1097962 175.385147,30.1593472 175.099253,31.178504 C174.88436,31.93836 174.715853,32.72956 174.39872,33.4400253 C173.460573,35.5400771 172.307533,36.1356142 170.188893,35.725292 C168.716827,35.4384464 167.740813,34.0232147 167.578933,32.0038975 C167.322387,28.7982553 168.090133,25.8291182 169.350147,22.9796584 C170.947173,19.3693928 172.573547,15.7743244 174.183827,12.1716574 C174.360853,11.7765323 174.513267,11.3690596 174.76792,10.7450279" id="Fill-13"></path>
                        <path d="M72.243636,42.3682376 C69.5702493,42.5695994 67.1590893,41.9797612 64.9855427,40.2843327 C62.8763693,38.6392446 61.675996,36.5705368 61.2708227,33.6992311 C60.710396,29.7270842 61.4506893,26.1187183 63.0836893,22.6452268 C63.9782893,20.7427375 65.0111027,18.9162338 65.978596,17.0536369 C66.6024493,15.8521147 67.5245027,15.2945704 68.812916,15.3240148 C70.8425693,15.3696061 72.240796,17.1391207 71.607476,19.2363231 C70.9732093,21.3392244 70.1316227,23.3832369 69.2341827,25.3731096 C68.3111827,27.4190218 67.764956,29.490579 67.833116,31.7862938 C67.878556,33.3297512 68.483476,34.2833704 69.7851427,34.8257176 C72.3212627,35.8800177 74.6131427,35.4867922 76.634276,33.4950198 C78.6099693,31.5488388 79.883236,29.0394145 81.2956627,26.6354203 C83.2382227,23.330047 85.2489427,20.0731144 87.216116,16.7857877 C88.1997027,15.1406995 89.547756,14.4767754 91.3691427,14.473926 C93.026756,14.4701267 94.6758493,17.0346405 93.9592227,18.7595135 C93.6562893,19.4880254 93.3467293,20.2260354 92.947236,20.8956585 C90.3590493,25.2306366 87.7850627,29.5770126 85.1211427,33.857851 C84.1612227,35.3994088 83.0290093,36.8326871 81.8636627,38.204227 C79.2688493,41.2588479 76.1069827,42.8896887 72.243636,42.3682376" id="Fill-15"></path>
                        <path d="M96.872684,31.896093 C97.094204,27.0596099 98.403444,23.730491 100.603497,20.8734327 C102.716457,18.1284531 105.187257,15.7653011 108.066071,13.9644425 C110.294524,12.5720065 112.653617,11.9413261 115.096017,13.1675436 C115.942337,13.593063 116.794337,14.3054279 117.315951,15.1327211 C118.519164,17.0361602 117.249684,19.4866956 115.276831,19.2910327 C112.984951,19.0621261 111.517617,20.2209064 110.129804,21.7320699 C108.630284,23.3676598 107.005804,24.9776046 105.909564,26.9152373 C103.398057,31.3546956 103.921564,33.1593535 108.154111,35.2147638 C109.694337,35.9632219 111.215631,36.8342068 113.048377,36.7316262 C114.278097,36.6632392 115.135777,37.6652992 115.237071,38.7870365 C115.334577,39.8603331 114.625524,41.2233247 113.651404,41.532966 C112.167031,42.0031268 110.659937,42.4172483 109.140537,42.7278394 C103.722764,43.8353295 96.3368707,38.3083273 96.872684,31.896093" id="Fill-17"></path>
                        <path d="M204.189941,12.0621432 C203.502661,14.4233955 202.957381,16.8501855 202.096861,19.1345024 C200.731768,22.7609149 199.168821,26.2989941 197.660781,29.8608188 C197.101301,31.1848678 196.377101,32.3911391 194.921128,32.7007804 C192.318741,33.2526258 190.040115,30.8258359 190.509661,27.8889927 C190.717928,26.5915386 191.110795,25.2826868 191.647555,24.100161 C193.717915,19.5410253 195.876315,15.0284308 198.011995,10.5025389 C198.236355,10.0285787 198.468288,9.53182291 198.799621,9.14999529 C199.646888,8.16883131 200.739341,7.67682459 201.926461,8.12893887 C203.063408,8.56300658 203.843461,9.49193047 203.926768,10.9062123 C203.948541,11.2623948 203.924875,11.6214267 203.921088,11.9795089 C204.011021,12.0061038 204.100008,12.0345984 204.189941,12.0621432" id="Fill-19"></path>
                    </g>
                </g>
            </g>
        </g>
    </g>
</svg>