<?xml version="1.0" encoding="UTF-8"?>
<svg width="18px" height="14px" viewBox="0 0 18 14" version="1.1" xmlns="http://www.w3.org/2000/svg" xmlns:xlink="http://www.w3.org/1999/xlink">
    <!-- Generator: Sketch 42 (36781) - http://www.bohemiancoding.com/sketch -->
    <title>Fill 1</title>
    <desc>Created with Sketch.</desc>
    <defs></defs>
    <g id="Page-1" stroke="none" stroke-width="1" fill="none" fill-rule="evenodd">
        <g id="Home,-iPad-Portrait" transform="translate(-325.000000, -5271.000000)" fill="#FFFFFF">
            <g id="CONTACTS" transform="translate(-210.000000, 4595.000000)">
                <g id="Arrows" transform="translate(484.000000, 659.000000)">
                    <path d="M68.6834716,23.6328175 C68.7568602,23.7247128 68.806956,23.8309668 68.8168475,23.9554084 C68.8174856,23.9681717 68.826739,23.9783823 68.8264199,23.9914646 C68.8264199,23.9946554 68.8286535,23.996889 68.8286535,23.9997607 C68.8286535,24.0035897 68.8270581,24.0064614 68.826739,24.0096522 C68.8270581,24.0179483 68.82291,24.0240108 68.8225909,24.0316688 C68.8146139,24.1829132 68.7552648,24.3182036 68.6598596,24.4238194 C68.6518826,24.4324346 68.6557116,24.4461551 68.6474154,24.4544512 C68.6381621,24.4633854 68.6247607,24.4595565 68.6158264,24.4672144 C68.6078494,24.4748724 68.5941289,24.473277 68.5851946,24.4802967 L61.6123165,30.8178845 C61.3694959,31.0607052 60.9757498,31.0607052 60.7329292,30.8178845 C60.4901085,30.5750638 60.4901085,30.181956 60.7329292,29.9397735 L66.5676452,24.6360083 L51.6365667,24.6360083 C51.2852585,24.6360083 51,24.3507498 51,23.9997607 C51,23.6487715 51.2852585,23.3638322 51.6365667,23.3638322 L66.5676452,23.3638322 L60.7329292,18.0607052 C60.4901085,17.8178845 60.4901085,17.4250957 60.7329292,17.1816369 C60.9757498,16.9394544 61.3694959,16.9394544 61.6123165,17.1816369 L68.5504148,23.4879547 C68.5606254,23.4952936 68.5657307,23.5077377 68.5756222,23.5153957 C68.5970006,23.532307 68.6273133,23.5252872 68.6474154,23.5450702 C68.6713465,23.5699585 68.6636886,23.6056956 68.6834716,23.6328175" id="Fill-1"></path>
                </g>
            </g>
        </g>
    </g>
</svg>