<?xml version="1.0" encoding="UTF-8"?>
<svg width="18px" height="14px" viewBox="0 0 18 14" version="1.1" xmlns="http://www.w3.org/2000/svg" xmlns:xlink="http://www.w3.org/1999/xlink">
    <!-- Generator: Sketch 42 (36781) - http://www.bohemiancoding.com/sketch -->
    <title>Fill 1 Copy</title>
    <desc>Created with Sketch.</desc>
    <defs></defs>
    <g id="Page-1" stroke="none" stroke-width="1" fill="none" fill-rule="evenodd">
        <g id="Home,-iPad-Portrait" transform="translate(-294.000000, -5271.000000)" fill="#FFFFFF">
            <g id="CONTACTS" transform="translate(-210.000000, 4595.000000)">
                <g id="Arrows" transform="translate(484.000000, 659.000000)">
                    <path d="M37.6834716,23.6328175 C37.7568602,23.7247128 37.806956,23.8309668 37.8168475,23.9554084 C37.8174856,23.9681717 37.826739,23.9783823 37.8264199,23.9914646 C37.8264199,23.9946554 37.8286535,23.996889 37.8286535,23.9997607 C37.8286535,24.0035897 37.8270581,24.0064614 37.826739,24.0096522 C37.8270581,24.0179483 37.82291,24.0240108 37.8225909,24.0316688 C37.8146139,24.1829132 37.7552648,24.3182036 37.6598596,24.4238194 C37.6518826,24.4324346 37.6557116,24.4461551 37.6474154,24.4544512 C37.6381621,24.4633854 37.6247607,24.4595565 37.6158264,24.4672144 C37.6078494,24.4748724 37.5941289,24.473277 37.5851946,24.4802967 L30.6123165,30.8178845 C30.3694959,31.0607052 29.9757498,31.0607052 29.7329292,30.8178845 C29.4901085,30.5750638 29.4901085,30.181956 29.7329292,29.9397735 L35.5676452,24.6360083 L20.6365667,24.6360083 C20.2852585,24.6360083 20,24.3507498 20,23.9997607 C20,23.6487715 20.2852585,23.3638322 20.6365667,23.3638322 L35.5676452,23.3638322 L29.7329292,18.0607052 C29.4901085,17.8178845 29.4901085,17.4250957 29.7329292,17.1816369 C29.9757498,16.9394544 30.3694959,16.9394544 30.6123165,17.1816369 L37.5504148,23.4879547 C37.5606254,23.4952936 37.5657307,23.5077377 37.5756222,23.5153957 C37.5970006,23.532307 37.6273133,23.5252872 37.6474154,23.5450702 C37.6713465,23.5699585 37.6636886,23.6056956 37.6834716,23.6328175" id="Fill-1-Copy" transform="translate(28.914327, 24.000000) scale(-1, 1) translate(-28.914327, -24.000000) "></path>
                </g>
            </g>
        </g>
    </g>
</svg>