<?xml version="1.0" encoding="UTF-8"?>
<svg width="20px" height="20px" viewBox="0 0 20 20" version="1.1" xmlns="http://www.w3.org/2000/svg" xmlns:xlink="http://www.w3.org/1999/xlink">
    <!-- Generator: Sketch 42 (36781) - http://www.bohemiancoding.com/sketch -->
    <title>Fill 1</title>
    <desc>Created with Sketch.</desc>
    <defs></defs>
    <g id="Page-1" stroke="none" stroke-width="1" fill="none" fill-rule="evenodd">
        <g id="Home-desktop-Wide" transform="translate(-1517.000000, -283.000000)" fill="#FFFFFF">
            <g id="CLOSE" transform="translate(1499.000000, 265.000000)">
                <path d="M28.9933391,27.9997769 L37.7941493,36.8005871 C38.0689738,37.0754117 38.0689738,37.5201278 37.7941493,37.7938816 C37.5203955,38.0687061 37.0756794,38.0687061 36.8008548,37.7938816 L28.0000446,28.9930714 L19.1992344,37.7938816 C18.9247668,38.0687061 18.4800507,38.0687061 18.205583,37.7938816 C17.9314723,37.5201278 17.9314723,37.0754117 18.205583,36.8005871 L27.0071071,27.9997769 L18.205583,19.1993236 C17.9314723,18.9252129 17.9314723,18.4801399 18.205583,18.2063861 C18.4800507,17.9312046 18.9247668,17.9312046 19.1992344,18.2063861 L28.0000446,27.0068394 L36.8008548,18.2063861 C37.0756794,17.9312046 37.5203955,17.9312046 37.7941493,18.2063861 C38.0689738,18.4801399 38.0689738,18.9252129 37.7941493,19.1993236 L28.9933391,27.9997769 Z" id="Fill-1"></path>
            </g>
        </g>
    </g>
</svg>