<?xml version="1.0" encoding="utf-8"?>
<!-- Generator: Adobe Illustrator 21.1.0, SVG Export Plug-In . SVG Version: 6.00 Build 0)  -->
<svg version="1.1" id="Layer_1" xmlns="http://www.w3.org/2000/svg" xmlns:xlink="http://www.w3.org/1999/xlink" x="0px" y="0px"
	 viewBox="0 0 841.9 139.3" style="enable-background:new 0 0 841.9 139.3;" xml:space="preserve">
<style type="text/css">
	.st0{fill:#233F95;}
</style>
<g id="YjBwWt_1_">
	<g>
		<path class="st0" d="M23.6,36.8c-3.9,5.9-7.8,11.8-11.7,17.7c-0.5,0.8-1.1,1.7-1.8,2.4c-0.6,0.6-1.3,1.2-2.1,1.6
			c-2.1,1-5.1,0.1-4.8-3.1c0.1-1,0.4-2.1,0.9-3.1c3.1-5.8,6.7-11.3,10.7-16.6c1.5-2.1,3-4.2,4.6-6.1c1.1-1.3,2.5-2.6,3.9-3.6
			c1.9-1.4,4-1.1,5.8,0.6c1.9,1.8,2.5,4.2,2.6,6.7c0.1,4.4,0.4,8.9-0.4,13.3c-0.3,1.5,0,3.1,0.2,4.8c1-2.4,2-4.9,3-7.3
			c2.4-5.9,4.8-11.8,7.2-17.7c1.8-4.3,4.5-8.1,7.6-11.5c1.1-1.2,2.5-2.2,3.9-3.1c1.6-1,3.4-0.8,4.4,0.2c1.2,1.2,1.6,2.7,0.8,4.3
			c-0.9,1.7-2,3.4-3.2,4.9c-2.6,3.2-4.6,6.8-6.4,10.6c-3.6,7.8-6.5,15.8-9.7,23.7c-0.8,2-2,3.9-3.2,5.6c-1.1,1.5-2.5,2.6-4.5,3.2
			c-1.8,0.5-3.2,0.1-4.4-0.9c-1.7-1.3-2.9-3-3.3-5.4c-0.5-3.7-0.5-7.4-0.1-11.2c0.3-3.2,0.1-6.5,0.1-9.7
			C23.9,37,23.7,36.9,23.6,36.8z"/>
		<path class="st0" d="M693.9,25.5c0.4-0.5,0.7-0.9,1.1-1.4c2.1-2.8,4.1-5.6,6.2-8.3c2-2.6,4.4-4.8,7.4-6.3c3-1.5,6.1,0.3,6.3,3.7
			c0.2,2.9-0.2,5.7-1.1,8.4c-2.7,7.8-5.4,15.6-8.1,23.4c-0.6,1.8-1.1,3.6-1.6,5.4c-0.3,0.9-0.6,1.9-1.1,2.7c-1,2-3,3-4.8,2.6
			c-1.9-0.4-3.5-2.2-3.5-4.3c-0.1-1.2,0.1-2.4,0.4-3.5c1.2-5.1,3.2-9.9,5.1-14.7c1.1-2.6,2.1-5.3,3.2-7.9c0.1-0.2,0.1-0.5,0.1-1.3
			c-1.4,1.9-2.4,3.4-3.6,4.8c-1.6,1.9-3.1,3.8-4.9,5.5c-2.9,2.8-6.6,1.6-7.5-2.4c-0.3-1.5-0.4-3.1-0.5-4.7c-0.1-1.2,0-2.3-0.5-3.6
			c-0.4,0.7-1,1.4-1.3,2.1c-1.8,4.2-3.8,8.4-5.3,12.8c-1.4,3.8-3.1,7.4-5.5,10.7c-0.4,0.6-0.8,1.1-1.4,1.5c-2,1.5-4.3,0.5-4.5-2
			c-0.1-1.1,0-2.5,0.5-3.4c3.4-6.3,4.8-13.3,7.9-19.7c1.9-4,3.9-8,7-11.2c0.7-0.8,1.7-1.4,2.6-2c2.4-1.6,5.6-0.1,6.4,2.6
			C693.6,18.4,694.4,21.7,693.9,25.5z"/>
		<path class="st0" d="M328.4,16.1c-2.7-0.5-5.2,0-7.7,0.7c-4.9,1.4-9.5,3.3-13.9,5.8c-3,1.7-6.1,3-9.4,4c-2-2.3-2.1-4.2-0.1-6.5
			c2.3-2.8,5.2-4.8,8.3-6.6c4.3-2.5,8.8-4.4,13.6-5.6c6.5-1.6,13.1-1.5,19.6,0.5c2.2,0.7,4.3,2,6.2,3.4c2.4,1.6,3.2,3.9,2.7,6.9
			c-0.7,4.1-3.3,7-6.5,9.1c-3.3,2.1-7,3.6-11.1,3.7c-1.2,0-2.2,0.4-2.6,1.6c-2.2,6-5.9,11.1-9.2,16.5c-0.7,1.2-1.4,2.4-2.1,3.5
			c-0.7,1-1.5,2.1-2.4,2.9c-1.4,1.2-2.7,1.2-4.1,0.2c-1.2-0.8-2.1-2.7-1.5-4.1c1.1-2.7,2.4-5.4,3.8-8c1.7-3,3.8-5.8,5.6-8.7
			c1.3-2.1,2.2-4.4,3.4-6.5c1.5-2.7,3.1-5.3,4.6-7.9C326.4,19.4,327.4,17.8,328.4,16.1z M334.5,16.5c-1.2,2.9-2.4,5.8-3.8,9.2
			c4.6-1.3,8.1-3.1,10.3-7C338.9,17.6,337,16.6,334.5,16.5z"/>
		<path class="st0" d="M358.8,108.9c-2.1,0.3-3.9,0.8-5.8,0.9c-1.7,0.1-2.8,0.8-3.6,2.2c-1.4,2.2-2.8,4.5-4.3,6.7
			c-1.5,2.1-3.2,4-4.9,6c-0.6,0.6-1.4,1.1-2.2,1.3c-2.2,0.8-4.1-0.5-4.3-2.9c-0.1-1.4,0-2.8,0.7-4c1.1-1.8,2.2-3.5,3.3-5.2
			c2.7-4.2,5.3-8.5,8.2-12.6c3.2-4.6,6.8-9,10.2-13.4c1.4-1.9,2.8-3.9,5-4.9c1.5-0.8,3-1.7,5-1.1c3.1,0.9,4.1,3.4,4.3,6.1
			c0.2,2.3-0.1,4.7-0.3,7.1c-0.3,2.9-0.9,5.8-1.2,8.7c-0.6,5.3-2.3,10.3-4,15.4c-0.8,2.2-1.5,4.5-2.5,6.6c-0.6,1.2-1.5,2.4-2.6,3.1
			c-2.4,1.8-5.6,0.1-5.8-2.9c-0.1-2.1,0.9-3.8,1.5-5.7c1-3.3,2.2-6.5,3.2-9.8C358.8,109.9,358.8,109.5,358.8,108.9z M362.2,93.6
			c-1.7,2.2-3.2,4.2-4.9,6.5c1.7-0.2,2.9-0.4,4.1-0.6C361.6,97.6,362.4,95.9,362.2,93.6z"/>
		<path class="st0" d="M654,100.4c-1.2,0.7-1.3,1.9-1.7,2.8c-1.2,3-2.4,6-3.8,8.9c-0.5,1.1-1.4,2.2-2.3,3c-0.9,0.9-2,1.5-3.5,0.8
			c-1.5-0.6-2.1-1.8-2.2-3.2c-0.1-0.7-0.1-1.4,0.2-2c3-7.4,4.7-15.2,8.7-22.2c1-1.7,2-3.4,3.3-4.8c2.2-2.3,5.7-1.7,7.1,1.2
			c1,2.1,1.3,4.3,1.4,6.6c0.1,1.7,0,3.3,0.5,5.1c0.3-0.8,0.6-1.5,0.7-2.3c1.6-7.1,4.9-13.5,8.9-19.5c1.2-1.9,3-2.6,4.8-2.1
			c3,0.8,4.4,3.6,3.3,6.7c-0.4,1-0.9,2-1.4,2.9c-3.3,5.2-5.4,10.9-7.3,16.7c-1.4,4.4-3.4,8.6-5.3,12.8c-0.3,0.8-0.8,1.6-1.4,2.2
			c-2.1,2.4-4.8,2.3-6.8-0.3c-0.6-0.8-0.9-1.7-1.3-2.6C654.6,107.7,654.1,104.1,654,100.4z"/>
		<path class="st0" d="M749.3,24.4c-1,2.9-2.1,5.7-3,8.6c-1.4,4.5-3.2,8.9-5.8,12.8c-1.1,1.6-2.1,2.1-3.3,1.6
			c-1.1-0.5-2-2.2-1.8-3.7c0.1-0.9,0.4-1.7,0.7-2.5c1.6-3.6,2.7-7.3,3.7-11.2c1.1-4.4,2.7-8.7,5.4-12.4c0.9-1.2,1.9-2.4,3-3.3
			c3.3-2.6,6.5-1.2,8,1.9c0.5,1,0.7,2.3,0.7,3.4c0.1,3.7,0.1,7.3,0,11c-0.1,3-0.3,6.1-0.5,9.1c0,0.5,0,1,0.1,1.7
			c1.3-1,1.7-2.4,2.2-3.6c1.7-4.5,3.3-9,4.8-13.6c1.5-4.3,3.7-8.2,6.3-12c0.4-0.6,1-1.2,1.6-1.7c1.8-1.5,3.4-1.6,5.1-0.4
			c1.7,1.2,2.3,3.3,1.4,5.3c-0.8,1.7-1.7,3.3-2.7,4.9c-1.8,2.6-2.9,5.6-4,8.5c-2.2,6-4.5,12-8.2,17.2c-0.6,0.9-1.3,1.8-2.1,2.5
			c-2.3,2.1-4.7,2.2-7.3,0.5c-1.8-1.2-3.1-2.8-3.6-4.9c-0.7-3.2-0.9-6.3-0.5-9.6c0.4-3.3,0.1-6.7,0.1-10
			C749.6,24.5,749.4,24.4,749.3,24.4z"/>
		<path class="st0" d="M555,89.4c4-1.8,8-3.5,12-5.2c0.6-0.3,1.3-0.5,2-0.5c2.3-0.2,3.4,0.5,4.1,2.5c0.5,1.4-0.3,3.4-1.7,4.4
			c-0.7,0.5-1.6,0.8-2.4,1.2c-4.7,2.3-9.3,4.7-14.2,7.1c0.3,6.9,1.7,13.3,6,18.8c1,1.3,2.2,2.2,3.9,2.3c1.3,0.1,2,1.1,2.1,2.1
			c0.1,1.2-0.5,1.9-1.4,2.4c-1.1,0.6-2.3,1.2-3.5,1.7c-1.8,0.7-3.5,0-5-0.9c-2.4-1.3-3.9-3.6-5.3-5.9c-1.6-2.7-2.8-5.6-3.4-8.8
			c-0.1-0.7-0.5-1.3-0.8-2.2c-1.8,3.9-3.4,7.6-5.1,11.3c-0.6,1.3-1.1,2.5-1.8,3.8c-0.7,1.2-1.5,2.3-3.1,2.5
			c-2.4,0.2-4.2-0.9-4.5-4.3c-0.1-1.3,0.3-2.7,0.8-4c1.2-3,2.5-6,3.9-8.9c3-6.4,5.9-12.9,9-19.3c1-2,2.2-4,3.2-6
			c0.7-1.3,1.7-1.9,3.2-1.6c1.1,0.2,2.4,1.7,2.4,3C555.4,86.4,555.2,87.8,555,89.4z"/>
		<path class="st0" d="M825.3,34.5c-2.6-0.3-5-0.1-7.6,0.7c-0.9,1.6-1.8,3.3-2.7,5c-1.9,3.7-4.6,6.7-7.6,9.4
			c-0.5,0.5-1.1,0.8-1.7,1.1c-1,0.5-2.2,0.6-3-0.3c-0.9-0.9-1.3-2-0.9-3.2c0.3-0.7,0.7-1.4,1.2-2.1c2.8-4.1,5.3-8.3,7.4-12.8
			c2.4-5,5.6-9.6,9.6-13.4c2.4-2.3,5.3-4,8.1-5.9c0.8-0.5,1.8-0.7,2.8-0.8c2.5-0.4,4.6,0.7,5.2,3.1c0.6,2.2,0.7,4.5,0.5,6.7
			c-0.2,1.4-0.4,2.7-0.6,4c2.8,2.9,2.8,3.7-0.2,5.8c-1.1,0.8-1.7,1.6-2.1,3c-1.1,4.6-2.5,9.1-3.6,13.6c-0.5,1.8-0.6,3.7-1.1,5.5
			c-0.3,1.3-0.6,2.7-2,3.5c-1.6,0.9-3.4,0.6-4.4-0.9c-0.8-1.4-1.4-2.9-1.1-4.5c0.6-3.2,1.3-6.3,2-9.5
			C823.9,39.9,824.6,37.3,825.3,34.5z M828.4,22.8c-1.3,1-3.1,1.3-3.7,3.4c1.4-0.4,2.5-0.6,3.6-0.9
			C828.3,24.3,828.3,23.5,828.4,22.8z"/>
		<path class="st0" d="M251.5,37.5c-0.9,1.7-1.5,2.8-2.1,3.9c-1.7,3.2-3.2,6.5-5,9.7c-0.8,1.5-1.9,2-3.1,1.6c-1.3-0.4-2.2-2.1-2-3.6
			c0-0.2,0.1-0.4,0.2-0.5c2.4-5.9,4.5-12,8.1-17.4c0.4-0.6,0.9-1.1,1.4-1.5c1.9-1.6,5-2.2,6.8,1c0.8,1.5,1.5,3.2,1.8,4.9
			c0.8,4,1.4,8.1,2.1,12.6c0.4-1.1,0.7-1.8,0.9-2.6c2.1-7.5,3.8-15.1,7.7-21.9c2.2-3.8,4.6-7.3,6.9-11c1.1-1.7,2.6-2.3,4.5-2.1
			c1.9,0.1,3.3,1.5,3.5,3.4c0.2,1.6-0.1,3.1-1.1,4.5c-1.8,2.8-3.6,5.6-5.3,8.5c-2.2,3.6-3.6,7.6-5,11.6c-1,3.1-1.9,6.2-3.1,9.2
			c-0.8,2.2-1.9,4.3-3,6.4c-0.8,1.5-2.1,2.6-3.7,3.3c-2.5,1.2-4.5,0.7-6.3-1.4c-1.3-1.6-2-3.6-2.3-5.7c-0.5-3.3-0.8-6.6-1.3-9.9
			C252.2,39.6,251.9,38.9,251.5,37.5z"/>
		<path class="st0" d="M380.9,32.2c-0.4,6.8,2.2,11.5,6.9,15.2c1.3,1,2.7,2,4,3c0.8,0.7,1.5,1.5,2.2,2.3c-1.6,3-4.1,3.9-7.3,2.7
			c-3.4-1.4-6-3.8-8.2-6.6c-1.3-1.6-2.2-3.5-3.5-5.4c-0.5,1.1-0.9,2.2-1.4,3.3c-1.4,3.5-2.5,7.2-4.8,10.4c-0.9,1.3-1.7,2.6-3.2,3.4
			c-1.7,0.9-3.5,0.2-3.8-1.8c-0.2-1.1-0.1-2.5,0.3-3.5c3-6.5,5-13.4,7.6-20.1c0.9-2.2,2.4-4.1,3.1-6.4c1.1-3.7,3.8-6.1,6.4-8.6
			c1.7-1.7,3.3-3.4,5.1-5c1.4-1.3,3-2.2,5-2.3c1.8-0.1,3.3,0.6,4.4,1.9c2.9,3.4,4.3,9.4,1.7,14.1c-1.7,3.1-4.2,4.9-7.9,4.9
			C385.3,33.8,383.1,34,380.9,32.2z M383.8,26.3c1.2,1.1,2.6,1.1,4,1c1.1,0,2-0.7,2.3-1.6c0.4-1.7,0.7-3.5-0.7-5.1
			C387,22.1,385.7,24.5,383.8,26.3z"/>
		<path class="st0" d="M203.6,89.4c-0.4-2.9,1.3-4.8,3.4-6.2c2.8-2,5.7-4,9.2-4.5c2-0.3,4.2-0.5,6.2-0.2c2,0.3,3.6,1.5,4.7,3.3
			c2.6,4.1,1.8,10.2-0.7,13.4c-3,3.8-6.6,6.9-11.5,7.9c-3.1,0.7-6.3,1-9.2-1.4c-0.3,0.9-0.6,1.8-1,2.7c-1.8,4.8-3.6,9.6-5.4,14.3
			c-0.4,1.1-0.7,2.3-1.1,3.3c-0.6,1.4-1.5,2.6-2.8,3.3c-2.7,1.5-5.6,0.1-6-2.9c-0.3-2.1,0.4-4.1,1-6.1c1-3.8,2.7-7.4,4.4-11
			c1.9-4.3,4.1-8.5,5.4-13.1C200.6,90.6,201.8,89.7,203.6,89.4z M206.7,94.8c1.4-0.2,2.6-0.4,3.7-0.4c3.3,0,5.8-1.4,8-3.7
			c1.1-1.2,1.6-2.4,1-3.9c-3.4-0.1-7,1.4-12.9,5.3C206.6,92.9,206.6,93.7,206.7,94.8z"/>
		<path class="st0" d="M234.5,26.8c-0.7,5.6-0.4,11.4-2.2,16.9c-2,6.1-5.9,10.4-11.8,12.9c-3.2,1.4-6.5,1.3-9.8,0.1
			c-4.3-1.6-6.9-6.1-5.7-11.3c0.9-3.8,2-7.6,3.4-11.3c2.2-5.6,5.9-10.2,10.7-13.9c1.5-1.2,3.3-2.2,5-3.1c2-1,3.8-0.6,5.5,0.8
			c0.8,0.7,1.7,1.3,2.6,1.9c1.6,1.1,2.2,2.7,2.3,4.6C234.6,25.2,234.5,26,234.5,26.8z M226,25.4c-2.6,1.5-4.4,3.6-6.1,5.7
			c-3.8,4.6-5.4,10.2-6.6,15.8c-0.4,1.8,0.6,2.8,2.5,2.8c0.7,0,1.4-0.2,2-0.4c4.2-1.9,6.7-5.2,7.3-9.7c0.6-4.3,0.8-8.6,1.2-12.9
			C226.1,26.4,226,26,226,25.4z"/>
		<path class="st0" d="M138.6,114.2c-2.8-0.8-4.5,0.5-6.1,2.5c-3.1,3.7-6.4,7.2-9.7,10.8c-0.7,0.7-1.5,1.3-2.4,1.7
			c-1.4,0.8-2.8,0.5-3.8-0.5c-1-0.9-1.3-2.3-0.8-3.6c0.4-1.1,1-2.2,1.7-3.1c4.4-5.4,8.9-10.8,13.2-16.3c3-3.8,5.8-7.7,8.8-11.5
			c1.7-2.2,3.5-4.3,6-5.6c3.6-1.9,6.8,0,7,4.1c0.2,3.4-0.6,6.6-1.5,9.8c-1.4,5.1-3,10.1-4.6,15.2c-0.7,2.3-1.4,4.7-2.2,7
			c-0.4,1.1-0.8,2.2-1.4,3.2c-0.6,1-1.4,1.9-2.7,2.1c-3.3,0.5-5.5-1.9-4.6-5.3c0.7-2.9,1.6-5.7,2.4-8.5
			C138.1,115.6,138.4,114.9,138.6,114.2z"/>
		<path class="st0" d="M204.4,26.2c-0.5,4.6-0.7,9.2-1.4,13.8c-0.9,6-4,10.9-8.8,14.6c-2.6,2-5.7,3.5-9,3.3c-5.4-0.3-8.7-3.5-9-8.7
			c-0.2-4.6,0.9-8.9,2.7-13.2c2.6-6.3,6.3-11.8,11.5-16.2c1.4-1.2,3-2.2,4.6-3.2c1.5-0.9,3.3-0.9,4.9-0.6c2.3,0.4,4,2.7,4.1,5.4
			c0.1,1.6,0,3.2,0,4.7C204.3,26.2,204.4,26.2,204.4,26.2z M196,25.9c-5.3,4.3-9.2,12.1-10.8,18c-0.5,2-1,3.9-0.3,6.3
			c1.2-0.3,2.4-0.5,3.4-1c3.2-1.7,5.2-4.5,6.2-7.9c0.5-1.7,0.8-3.4,1-5.2C195.8,32.8,195.9,29.4,196,25.9z"/>
		<path class="st0" d="M519.4,122.4c-5.2,0.1-10.4-3.1-11.7-8.4c-0.7-2.7-0.7-5.8-0.2-8.5c1.3-6.9,4.7-12.9,9.7-17.9
			c0.9-0.9,1.9-1.7,3-2.4c1.6-1,3.3-1.2,5-0.1c1.1,0.8,2.2,1.5,3.7,1.5c1.4,0.1,2.6,1,3.2,2.3c1.1,2.2,2.2,4.4,1.4,7
			c-0.1,0.5-0.1,1-0.1,1.5c0,6.1-1.9,11.8-4.4,17.3c-0.8,1.8-2.2,3.5-3.6,5C524,121.7,521.9,122.6,519.4,122.4z M523.5,94.5
			c-1,1.3-2.2,2.5-3.1,3.9c-2.2,3.3-3.8,6.9-4.1,10.9c-0.2,2.6,0.2,2.9,3.2,3.9C523.1,107.6,524.2,101.4,523.5,94.5z"/>
		<path class="st0" d="M480.2,88.7c-0.2,0.8-0.4,1.7-0.7,2.5c-1,2.7-1.9,5.4-3.1,7.9c-2.3,4.9-4.8,9.7-7.2,14.6
			c-1.7,3.5-4,6.6-6.5,9.5c-5.4,6.1-13.2,2.7-14.9-2.4c-0.7-2-1-4.1-0.7-6.3c0.5-3.9,1.1-7.7,2-11.6c1.2-5.2,3.2-10.1,6.1-14.6
			c0.4-0.6,0.8-1.1,1.3-1.6c0.8-0.9,1.8-1.5,2.9-1c1.2,0.5,2.1,1.4,2.3,2.9c0.1,1.4-0.1,2.8-0.8,4c-2.9,5.3-4.2,11.2-5.4,17.1
			c-0.5,2.4-0.7,4.9-1,7.3c-0.1,0.8,0.1,1.7,1.1,1.8c0.6,0,1.4-0.4,1.7-0.8c1.4-2,2.8-4.1,3.9-6.3c2-4,3.9-8.2,5.8-12.3
			c1.7-3.7,3.3-7.4,5.1-11c0.5-0.9,1.2-1.8,2-2.6c1.2-1.2,2.7-1.5,4.3-0.8C479.9,85.6,480.2,87,480.2,88.7z"/>
		<path class="st0" d="M239.1,96.2c-0.6,2-1.1,3.8-1.7,5.9c1.1,0,2,0.1,2.9,0c2.3-0.2,3.8,0.8,4.3,3c-0.7,3.2-3.2,3.8-5.8,4.1
			c-1.2,0.2-2.4,0.1-3.6,0.1c-1,0-1.8,0.4-2.2,1.2c-1.2,2.6-2.7,5-3.3,7.9c1.5,0.5,2.7-0.5,4-0.5c1.5-0.1,3-0.4,4.4-0.2
			c2.3,0.3,3,1.9,1.8,3.9c-2.5,3.8-5.8,6.4-10.5,6.7c-1.7,0.1-3.6,0-5.2-0.5c-2.9-0.8-4.3-2.8-4.5-5.8c-0.4-4.1,1-7.8,2.7-11.3
			c1.8-3.7,3.9-7.3,5.9-10.9c1.6-3,3.5-6,4-9.4c0.1-0.6,0.4-1.1,0.7-1.6c0.8-1.7,2.1-2.6,3.8-1.9c1.3,0.5,2.3,0.1,3.4-0.2
			c2.6-1,5.3-1.2,8.1-1.1c1.5,0,2.6,0.7,3.7,1.6c1.9,1.5,1.6,4.9-0.5,6.1c-1.4,0.8-3,1.4-4.6,1.8C244.2,95.4,241.7,95.8,239.1,96.2z
			"/>
		<path class="st0" d="M267.1,102.7c1.6,0,3,0,4.4,0c1.8,0,2.6,1.1,3.2,2.6c0.5,1.4-0.2,2.5-1.1,3.1c-1.1,0.9-2.5,1.6-3.9,2
			c-1.8,0.5-3.7,0.5-5.8,0.8c-0.8,2.2-1.7,4.4-2.6,6.7c1.1,0.6,2,0.2,3,0.1c1.6-0.2,3.1-0.2,4.7-0.3c0.1,0,0.2,0,0.3,0
			c1.8,0.3,3.4,1.2,3.7,2.9c0.3,1.5-0.8,2.8-1.8,3.9c-0.4,0.4-0.9,0.7-1.5,1c-4.5,2.4-9,3.7-14.1,1.9c-2.9-1.1-4.1-3.2-4.5-6
			c-0.3-2.5,0.1-4.9,1.1-7.2c1.4-3.2,2.8-6.3,4.2-9.4c1.9-4.3,4-8.6,5.1-13.2c0.6-2.4,2.3-3.9,4.2-5.2c2.8-1.9,6.1-2.8,9.4-3
			c1.2-0.1,2.7,0.2,3.9,1.2c2.9,2.6,2.2,5-0.4,6.9c-0.9,0.6-1.9,1-3,1.3c-1.8,0.6-3.6,1.1-5.3,1.8c-0.6,0.2-1.3,0.7-1.4,1.3
			C268.3,97.9,267.8,100.1,267.1,102.7z"/>
		<path class="st0" d="M561.6,34.2c-2.9,0.8-5.3,1.4-7.7,2.2c-0.7,0.3-1.4,1-1.9,1.7c-1.8,2.4-3.5,5-5.4,7.4c-1.9,2.3-4,4.3-6.1,6.4
			c-0.4,0.4-1,0.6-1.4,0.8c-1.3-0.2-2.1-0.9-2.4-2c-0.3-1.1-0.2-2.1,0.4-3.1c0.1-0.2,0.1-0.4,0.3-0.5c6.1-7.8,10.7-16.5,16.4-24.5
			c2.6-3.7,5.9-6.6,10.2-8.3c0.9-0.4,1.9-0.6,2.8-0.6c2.1-0.1,3.4,0.8,4.1,2.7c0.8,2.1,0.9,4.3,0.5,6.4c-1.3,6.4-2.6,12.9-4.1,19.3
			c-0.6,2.6-1.4,5.1-2.2,7.6c-0.3,0.9-0.8,1.8-1.4,2.5c-1.3,1.5-2.7,1.7-4.2,0.9c-1.3-0.7-2.3-2.8-1.9-4.3c0.9-3.3,1.8-6.6,2.8-9.9
			C560.7,37.5,561.1,36.1,561.6,34.2z M564.3,22.8c-2,0.6-3.2,1.8-4.2,3.5c3.2,0.3,3.2,0.3,3.9-2.4
			C564.1,23.5,564.2,23.2,564.3,22.8z"/>
		<path class="st0" d="M74.8,40.1c-2.9,0.8-5.3,1.4-7.6,2.2c-0.8,0.3-1.5,1.3-2,2.1c-3.4,4.7-6.7,9.5-10.1,14.2
			c-0.6,0.8-1.5,1.6-2.4,2.1c-1.8,1-3.9-0.2-4.2-2.2c-0.2-1.2,0-2.3,0.8-3.4c2.6-3.6,5-7.3,7.5-11c0.3-0.4,0.5-0.9,0.8-1.2
			c0.9-0.9,1.2-2,0.9-3.3c-0.4-1.8,0.5-3.1,2.2-3.8c1.7-0.7,2.8-2,3.8-3.6c2.3-3.5,4.8-7,7.2-10.5c0.9-1.3,2.2-2.2,3.8-2.5
			c2.6-0.4,4.3,0.9,5.6,2.9c0.9,1.4,1.3,3.1,1.5,4.7c0.4,3.7,0.7,7.5-0.3,11.2c-0.7,2.4-1.8,4.6-2.7,6.9c-1.3,3.3-2.5,6.6-3.9,9.9
			c-0.4,1-1,1.9-1.6,2.8c-0.9,1.1-2.4,1.4-3.5,0.8c-1.1-0.6-2-2.2-1.6-3.4c0.9-3,1.9-6,3-8.9C72.7,44.3,73.7,42.5,74.8,40.1z
			 M72.8,31.2c1.6,0,2.8,0,4.3,0c-0.5-1.8,0.6-3.6-1.1-5.2C75,27.8,74,29.4,72.8,31.2z"/>
		<path class="st0" d="M634.9,51c-5.3,0-9-3.5-8.3-9.9c0.7-6.9,3.2-13,7.3-18.4c2.1-2.7,4.7-5.1,7.1-7.5c0.5-0.5,1.3-0.8,2-1.2
			c1.3-0.6,2.6-1.2,3.8-2.1c2.5-1.9,5.6-0.6,6.2,2.3c0.3,1.6,0.7,3.2,0.2,4.9c-0.2,0.5-0.1,1.2-0.1,1.8c-0.1,5.2-1.1,10.3-3,15.2
			c-1.8,4.7-4.4,8.8-8.3,12.1C639.8,49.9,637.6,51.1,634.9,51z M644.7,22.8c-5.8,5.7-9.4,12.3-10.6,20.4c2.3,0.4,3.5-0.8,4.6-2.3
			c3.2-4.2,4.8-9,5.4-14.1C644.2,25.5,644.5,24.2,644.7,22.8z"/>
		<path class="st0" d="M174.4,105.9c0.1,0.8,0.2,1.5,0.4,2.1c0.7,2.3,1.4,4.7,2.3,7c0.7,1.8,1.8,3.5,2.8,5.2
			c0.2,0.3,0.5,0.6,0.8,0.9c0.8,1.3,1.6,2.5,0.5,4.1c-0.9,1.3-2.8,1.9-4.6,1.5c-4-1-5.9-4.1-7.3-7.6c-1.2-2.9-1.9-6-2.8-9.1
			c-0.3,0.4-0.7,0.8-0.9,1.3c-2.1,4.8-5.1,9.1-8.3,13.2c-0.5,0.6-0.9,1.3-1.3,1.9c-0.5,0.7-1.3,0.9-2.1,0.7
			c-0.9-0.3-1.4-0.9-1.3-1.8c0.1-1.3,0.2-2.6,0.6-3.7c0.8-2,1.8-3.9,2.9-5.8c3.2-5.5,5.4-11.6,8.2-17.3c1.5-3.1,3.4-6,5.9-8.4
			c2.3-2.2,5.1-3.4,8.4-2.7c4.7,1.1,6.7,6.2,5.9,10.2c-0.8,3.8-3.2,6.2-6.8,7.4C176.6,105.4,175.5,105.6,174.4,105.9z M176.8,94.2
			c-2.2,0.6-3.4,2-4.2,4.2c1.8,0.3,3.4,0.5,4.5-1C177.9,96.4,178.1,95.4,176.8,94.2z"/>
		<path class="st0" d="M426.1,89.4c-4.4,0.3-8.6,0.6-12.8,1c-0.8,0.1-1.5,0.3-2.3,0.4c-1.8,0.3-3.6-0.7-4-2.2
			c-0.4-1.4,0.6-3.2,2.5-3.7c1.6-0.5,3.2-0.8,4.9-1.1c6-1.1,12.1-1.8,18.2-2c3.3-0.1,6.6-0.7,10-0.9c1.2-0.1,2.5,0.3,3.8,0.4
			c1.4,0.2,1.9,1.3,2.2,2.5c0.3,1.2,0.1,2.5-1.1,3.1c-0.9,0.5-2,0.9-3,1c-2.7,0.3-5.5,0.5-8.2,0.6c-1.3,0.1-2.1,0.6-2.8,1.8
			c-4.3,7.6-8.8,15.2-13.1,22.8c-2.3,4.1-4.2,8.5-5.6,13c-0.3,1-0.8,2-1.5,2.9c-1.4,1.8-2.9,1.3-4.2-0.2c-0.6-0.7-0.8-1.8-0.9-2.7
			c-0.3-3,0.3-5.9,1.4-8.6c1.7-4.2,3.6-8.3,6.2-12c3.3-4.8,6.5-9.6,9.8-14.4C425.8,90.4,425.9,90,426.1,89.4z"/>
		<path class="st0" d="M114.8,92.9c-3.1,0.4-5.4,0.7-7.8,1c-3.6,0.5-7.2,1.1-10.8,1.6c-0.8,0.1-1.5,0.3-2.3,0.5
			c-1,0.3-1.7-0.1-2.2-1c-0.5-0.9-0.2-1.8,0.4-2.4c0.7-0.6,1.5-1,2.3-1.2c3.8-1,7.6-2.1,11.4-2.9c5.6-1.2,11.3-2.6,17-3.1
			c2.1-0.2,4.3-0.6,6.4-1c0.1,0,0.2,0,0.3,0c1.8-0.1,3.5,1.1,3.8,2.6c0.3,1.6-0.8,3.2-2.6,3.8c-1.1,0.3-2.3,0.5-3.5,0.6
			c-2.6,0.2-4.5,1.4-5.8,3.6c-1.4,2.5-2.8,5-4.2,7.4c-3.2,5.5-6.3,11.1-9.6,16.6c-2.5,4.1-4.6,8.5-6.4,13c-0.4,1-0.9,2-1.6,2.8
			c-0.7,0.8-1.7,1.6-2.8,1.1c-1.1-0.5-2-1.3-2.1-2.6c-0.1-1-0.2-2,0-3c0.5-2.5,0.9-5,2.1-7.3c3.4-6.8,7.3-13.3,11.4-19.7
			C110.4,100,112.4,96.8,114.8,92.9z"/>
		<path class="st0" d="M410.5,46.5c1.5,0.7,2.4,0.3,2.9-0.8c1.2-2.7,2.6-5.3,3.6-8.1c1.9-5.8,3.6-11.6,5.4-17.4c0.3-1,0.7-2,1.2-3
			c0.8-1.5,2.5-2.2,4-1.9c1.4,0.3,2.6,1.8,2.5,3.5c-0.1,1.9-0.3,3.8-0.8,5.5c-1.7,6-3.2,12.1-5.8,17.9c-1.3,2.9-2.6,5.7-4.3,8.4
			c-2,3-5,4.6-8.7,3.9c-3.3-0.6-6.1-2.2-7.4-5.7c-0.3-0.8-0.4-1.7-0.5-2.6c-0.3-5.1,0.4-10,2.1-14.8c1.5-4.3,3-8.5,4.6-12.7
			c0.2-0.5,0.5-1.1,0.9-1.5c1.1-1.3,3.2-1.3,4.4,0.1c1.1,1.3,1.4,2.8,1,4.4c-0.9,3.3-1.8,6.6-2.7,9.9c-1.1,4-2.3,7.9-2.4,12.1
			C410.4,44.6,410.5,45.6,410.5,46.5z"/>
		<path class="st0" d="M524.6,35.5c1.2-1.9,2.5-3.7,3.7-5.6c3-4.7,5.9-9.6,9-14.2c1.1-1.7,2.7-3.1,4.2-4.5c1.4-1.2,3.5-1.2,4.6-0.2
			c1.3,1.2,1.6,3.1,0.4,4.8c-2,2.9-4.2,5.7-6.1,8.7c-2.8,4.3-5.4,8.7-8.1,13.1c-2.1,3.4-4.2,6.9-6.4,10.3c-0.6,0.9-1.3,1.7-2,2.5
			c-1.2,1.3-2.6,1.9-4.5,1.4c-2.1-0.6-3.3-2.1-3.5-3.9c-0.3-2.6-0.3-5.4,0.2-8c1.5-8.2,5-15.7,9.5-22.7c0.7-1.1,1.3-2.2,2-3.3
			c1.1-1.5,2.1-1.9,3.2-1.4c0.8,0.4,1.6,2.1,1.3,3.3c-0.5,1.9-1.1,3.8-1.9,5.5c-1.8,4-4,7.9-5.2,12.2
			C524.8,34.2,524.7,34.9,524.6,35.5c-0.1,0.3-0.3,0.6-0.5,0.9c0.1,0.1,0.2,0.1,0.3,0.2C524.5,36.2,524.5,35.9,524.6,35.5z"/>
		<path class="st0" d="M328.8,92.7c-3.2,0.8-6.4,1.7-9.6,2.5c-0.8,0.2-1.5,0.5-2.3,0.5c-1.1,0-2-0.7-2.5-1.8c-0.4-1-0.4-2,0.4-2.7
			c1.2-1.1,2.3-2.3,3.7-2.9c5.1-2.3,10.3-4.3,15.9-5.1c1.6-0.2,3.3-0.6,4.9-0.9c1.7-0.3,3.3-0.3,4.9,0.4c1.5,0.6,2.5,1.5,2.6,3.2
			c0.1,1.6-0.8,3.1-2.3,3.8c-0.6,0.3-1.3,0.6-2,0.6c-1.8,0-2.7,1.1-3.4,2.4c-1.9,3.5-3.9,7.1-5.6,10.7c-2.3,4.8-4.3,9.7-6.5,14.6
			c-0.7,1.5-1.4,3-2.3,4.4c-0.3,0.6-0.9,1-1.5,1.4c-3,1.9-6.2,0.2-6.2-3.3c0-1.7,0.5-3.5,1.1-5.1c2.9-7.6,6.5-14.8,10.5-21.8
			C328.9,93.3,328.9,93.1,328.8,92.7z"/>
		<path class="st0" d="M483,118.4c3.4-0.6,6.2-1.2,9.1-1.6c2.6-0.3,5.3-0.5,7.9-0.4c1.3,0.1,2.5,0.9,3.8,1.5c-1,3.2-3.1,5.1-5.8,6.3
			c-4.9,2-10,3.6-15.4,3.5c-1.1,0-2.1-0.3-3.2-0.4c-4.6-0.5-7.1-4.6-5.8-9.4c0.8-2.9,1.9-5.8,3.1-8.6c2.1-4.6,4.4-9,6.6-13.5
			c1.2-2.5,2.4-4.9,3.7-7.4c0.4-0.7,0.7-1.4,1.2-2c1.6-1.9,3.6-1.8,4.9,0.3c0.6,1,1,2,0.7,3.3c-0.7,3.8-2.2,7.3-3.7,10.8
			c-2.1,5-4.2,10-6.3,14.9C483.6,116.4,483.4,117.1,483,118.4z"/>
		<path class="st0" d="M496.2,51.1c-5.7,0-9.7-3.9-9.7-9.6c0-8.6,2.6-16.4,7.5-23.5c0.4-0.6,1-1.2,1.6-1.8c0.8-0.8,1.7-1,2.7-0.6
			c1,0.4,1.7,1.5,1.4,2.7c-0.3,1.4-0.9,2.8-1.4,4.2c-1,2.5-2.2,4.8-3.1,7.3c-1.3,3.7-2.1,7.6-2.1,11.5c0,1.4,0.4,2.6,1.7,3.1
			c1.3,0.6,3,0,4-1.2c1.6-2.1,2.5-4.4,3.3-6.9c1.2-3.8,2.4-7.7,3.6-11.5c1.1-3.3,2.3-6.5,4.6-9.2c0.6-0.7,1.4-1.4,2.2-1.8
			c1.2-0.5,2.6-0.3,3.6,0.7c0.9,1,1.7,2.2,1.2,3.7c-0.4,1.1-0.8,2.2-1.3,3.3c-1.9,3.7-3.1,7.6-4.5,11.5c-1.7,4.7-3.3,9.5-6.5,13.5
			C502.6,49.3,500.2,51.3,496.2,51.1z"/>
		<path class="st0" d="M356.8,32.1c1.8-0.1,3.2-0.2,4.7-0.1c1.6,0.1,2,0.7,2.1,2.3c0,1.6-0.6,2.8-2,3.7c-1.8,1.1-3.6,2-5.7,2.3
			c-0.8,0.1-1.5,0.3-2.3,0.6c-0.4,0.2-1,0.5-1.1,0.8c-1.3,3.7-3.7,6.9-4.1,11.1c2.3,0,4.5,0.1,6.8,0c1.2-0.1,1.9,0.3,2.2,1.6
			c-1.3,1.5-2,3.7-4,4.8c-3.4,1.9-6.9,1.9-10.2,0.5c-3-1.2-4.3-5.1-3.1-9c1-3.3,2.3-6.5,3.6-9.6c1.1-2.7,2.4-5.4,3.7-8
			c2.4-5,5.2-9.8,9.3-13.6c3.1-2.9,6.9-4.1,11-4.2c0.6,0,1.2,0.1,1.7,0.4c2.1,1.1,2.3,3.2,0.6,4.8c-0.4,0.4-0.9,0.7-1.5,1
			c-1.2,0.6-2.5,1.1-3.8,1.6c-1.6,0.6-3.8,0.8-4.8,2c-1.3,1.3-1.6,3.5-2.4,5.3C357.3,30.9,357.1,31.5,356.8,32.1z"/>
		<path class="st0" d="M617.6,15.1c-2.8,0.4-5,0.8-7.3,1.1c-3.1,0.4-6.3,0.6-9.4,0.9c-0.4,0-0.8,0-1.2,0c-1-0.1-1.6-0.8-1.9-1.6
			c-0.3-0.9,0.2-1.6,0.9-2c1.2-0.6,2.5-1.3,3.8-1.6c5.3-1.3,10.7-2.5,16.1-3.5c2.4-0.5,4.9-0.5,7.3-0.8c2-0.2,3.9-0.5,5.9-0.5
			c1,0,2.2,0.2,3.1,0.7c2.1,1.2,2.1,3.8,0,5c-0.8,0.5-1.9,0.6-2.8,0.7c-1.7,0.2-3.5,0.5-5.3,0.5c-1.6,0-2.2,1-2.8,2.2
			c-2.4,5.2-5,10.3-7.3,15.5c-2.5,5.6-4.7,11.2-7,16.9c-0.3,0.8-0.7,1.6-1.2,2.3c-1,1.4-2.5,2.2-3.7,1.8c-1.8-0.5-2.4-2-2.4-3.6
			c-0.1-2.5,0.6-4.9,1.4-7.2c3.4-8.6,7.7-16.8,12.4-24.8C616.4,16.6,616.8,16.1,617.6,15.1z"/>
		<path class="st0" d="M796.9,17.5c-1.9,0.4-3.5,0.6-5,0.9c-1.3,0.3-2.7,0.7-4,0.9c-1.3,0.3-2.4-0.3-3-1.3c-0.8-1.1-0.5-2.1,0.1-3
			c0.6-0.8,1.4-1.5,2.2-1.8c3-1.2,6-2.3,9.1-3.2c4-1.1,8-1.9,11.8-3.6c0.6-0.3,1.3-0.5,2-0.6c1.9-0.3,3.6,0.6,4.3,2.4
			c0.7,1.7,0.1,3.6-1.5,4.6c-0.8,0.5-1.7,1-2.7,1.2c-2,0.5-3.4,1.8-4.5,3.6c-2.5,3.8-4.3,8-5.9,12.2c-2.3,6.1-4.4,12.2-6.5,18.3
			c-0.5,1.5-1.4,2.8-2.6,3.9c-0.9,0.8-2,1-3,0.6c-1.2-0.5-2.3-1.4-2.2-2.9c0.1-1.7,0.1-3.4,0.5-5c2.4-9,5.8-17.5,10.2-25.7
			C796.4,18.8,796.5,18.4,796.9,17.5z"/>
		<path class="st0" d="M291.6,102.5c0.5-3.1-0.9-6.4-1.5-9.8c-0.6-3.4,0-6.5,1.7-9.4c1.9-3.2,5.6-5,9.9-4.2c1,0.2,1.9,0.5,2.8,0.8
			c2,0.5,3.1,2,3.7,3.8c0.9,2.8-1,4.9-3.9,4.4c-1.2-0.2-2.3-0.4-3.5-0.4c-1.8,0-2.9,1.2-2.6,3c0.1,1,0.2,2,0.6,2.9
			c1.4,3.1,1.1,6.4,1.1,9.6c0,0.4,0,0.8,0,1.2c0.6,4.7-1.3,8.6-4,12.3c-2.3,3.2-5.1,5.8-8.8,7.3c-1.9,0.8-3.9,1.1-6,0.5
			c-3-0.9-4.7-5.2-2.9-7.8c0.8-1.2,1.9-2,3.5-1.8c2.7,0.3,4.8-1,6.5-2.9c0.9-1,1.8-2.1,2.5-3.3c0.5-0.8,0.7-1.8,0.8-2.8
			C291.7,105.1,291.6,104,291.6,102.5z"/>
		<path class="st0" d="M594.2,90.9c-2.3,0.6-3.6,1.7-3.8,3.9c-0.1,0.7-0.2,1.6,0,2.2c0.7,2.1,1.4,4.3,2.3,6.3
			c1.3,3.1,1.7,6.3,1.3,9.5c-0.2,1.4-0.8,2.8-1.5,4.1c-2.6,4.5-9.5,7.1-14.4,5.4c-3-1-4.6-3.6-4.2-6.6c0.3-2.8,2.8-4.4,5.3-3.2
			c1.7,0.8,3.2,0.8,4.8,0.2c0.8-0.3,1.2-0.9,1.3-1.8c0.1-2-0.4-3.9-1.2-5.7c-1-2.4-2.2-4.9-2.7-7.4c-1.2-5.8,1.3-14,9.5-16.1
			c1.9-0.5,3.6-0.4,5.5,0.1c2.6,0.6,3.8,2.3,4,4.5c0.2,2.1-0.8,4-2.6,5.3c-0.4,0.3-1.1,0.4-1.6,0.2
			C595.5,91.7,594.9,91.2,594.2,90.9z"/>
		<path class="st0" d="M164.4,24.8c-3.8,0.3-7.1,2.2-10.6,1.8c-1.3-1.8-1.3-2.5-0.1-3.8c0.5-0.6,1.2-1,1.9-1.4
			c6.2-3.9,12.8-6.4,20.3-6.2c0.9,0,1.8,0.2,2.6,0.5c1.7,0.7,2.2,1.7,2.1,3.5c-0.1,1.4-1.2,2.7-2.7,3.1c-0.9,0.3-1.9,0.5-2.9,0.5
			c-1.5,0-2,0.8-2.4,2.1c-1.8,5.6-3.7,11.1-5.7,16.7c-1.2,3.5-2.4,7-3.8,10.5c-0.4,1.1-1.2,2-2,2.9c-1.2,1.4-2.7,1.5-4.3,0.9
			c-1.5-0.5-2.3-1.8-2.5-3.4c-0.2-1.9,0.4-3.7,1-5.5c1.2-3.6,2.5-7.2,3.9-10.8C160.8,32.7,162.5,29,164.4,24.8z"/>
		<path class="st0" d="M131.8,24.7c-1.9,0.1-3.6,0.2-5.2,0.3c-1.6,0.1-3.1,0.4-4.7,0.4c-1.5,0-2.3-0.7-2.8-2.1
			c-0.3-1,0.2-2.5,1.4-3.2c1.3-0.7,2.6-1.4,4-1.7c4.7-0.9,9.5-1.7,14.2-2.5c1.9-0.3,3.9-0.5,5.9-0.7c0.4,0,0.8,0,1.2,0
			c1.9,0.1,3.1,1,3.3,2.4c0.3,1.9-0.6,3.6-2.5,4.2c-0.9,0.3-1.9,0.6-2.9,0.6c-2,0-3.1,1.2-3.7,2.8c-0.8,1.9-1.5,3.8-2.2,5.8
			c-1.2,2.9-2.3,5.8-3.6,8.7c-1.4,3.3-2.9,6.5-4.3,9.7c-0.4,0.8-0.7,1.6-1.2,2.4c-0.7,1.1-1.7,1.9-3,2.2c-3.4,0.6-4.5-2-4.5-4.7
			c0-1.3,0.5-2.7,1-4c1.2-2.9,2.5-5.8,3.9-8.6c1.7-3.5,3.5-7.1,5.2-10.6C131.4,25.8,131.5,25.5,131.8,24.7z"/>
		<path class="st0" d="M451.1,12.4c2.1-0.2,4.1,0.3,6,1.3c0.4,0.2,0.9,0.4,1.3,0.8c0.9,0.8,1.6,1.8,1.4,3.1
			c-0.3,1.3-1.2,2.3-2.6,2.6c-1.7,0.3-3.5,0.4-5.3,0.6c-3.3,0.4-6.2,1.7-8.3,4.5c-0.7,1-1.1,2.1-1.1,3.3c0.1,1.9,0.3,3.7,0.4,5.6
			c0.2,3.7,0.5,7.6-0.6,11.2c-1.5,5.3-5.4,8.3-10.6,9.7c-1.7,0.5-4.7-0.8-5.4-2.8c-0.6-1.7-0.2-3.4,1.4-4.3c0.8-0.5,1.8-0.8,2.7-1.2
			c3.2-1.2,4.9-3.2,4.9-6.6c0-3.6-0.4-7.3-0.5-10.9c-0.2-5.9,1.8-10.8,7.1-14C444.8,13.7,447.7,12.1,451.1,12.4z"/>
		<path class="st0" d="M471.3,24c-2.9,0.4-5.1,0.8-7.3,1.1c-1.6,0.3-3.1-0.3-3.6-1.3c-0.5-1.3-0.1-3,1.3-3.8
			c1.6-0.9,3.3-1.7,5.1-2.3c5.3-1.7,10.6-3.4,16.1-4.4c1.9-0.3,3.9,0.6,4.6,2.3c0.7,1.5,0,3.7-1.7,4.5c-1.6,0.8-3.3,1.3-5,1.7
			c-1.1,0.2-1.7,0.6-2.1,1.7c-1,3.1-2.2,6.1-3.4,9.1c-1.8,4.5-3.7,8.9-5.5,13.3c-0.8,1.9-1.5,3.8-2.4,5.7c-0.6,1.4-1.1,3-2.5,3.9
			c-0.9,0.6-2,1.2-3,0.6c-1.1-0.6-2.2-1.5-2.1-3c0.2-1.7,0.4-3.5,1-5.2c1.2-3.4,2.7-6.8,4.1-10.1C466.9,33.4,469,29,471.3,24z"/>
		<path class="st0" d="M98.6,31.3c-0.7-0.6-1.3-1.2-2-1.8c-2.1-2-3.6-4.5-4.6-7.1c-0.8-2.1,0-3.4,2-4.2c1.4-0.5,2.5,0.1,3.5,0.9
			c0.8,0.6,1.4,1.4,2,2.2c0.7,0.8,1.2,1.7,1.9,2.7c1.8-1.3,2.5-3.1,3.6-4.7c0.6-0.9,1.1-1.9,1.9-2.6c1.9-1.8,4.7-1,5.7,1.4
			c1.1,2.4,0.3,4.7-0.7,6.8c-1.2,2.6-2.6,5.1-4,7.6c-3.3,5.9-6.8,11.7-9.3,18.1c-0.5,1.3-1.1,2.5-1.8,3.7c-1.1,2-3.1,2.7-5,2
			c-1.6-0.7-2.7-2.8-2.2-4.7c0.5-2.2,1.2-4.4,2-6.4c1.8-4.4,3.8-8.6,6.5-12.6C98.4,32.1,98.4,31.7,98.6,31.3z"/>
		<path class="st0" d="M31.3,113c-2.7-0.4-5.9-0.8-9.1-1.5c-1.2-0.2-2.4-0.9-2.4-2.6c0-1.3,0.4-2.2,1.6-2.9c2.2-1.2,4.6-1.2,6.9-1.5
			c4.2-0.5,8.4-0.8,12.6-1.2c2.6-0.2,5.3-0.5,7.9-0.6c4-0.2,8.1-0.4,12.1-0.6c2.1-0.1,3.8,0.6,5.2,2.3c0.8,0.9,0.9,1.9,0.5,3
			c-0.8,1.9-2.2,3.1-4.1,3.4c-1.9,0.4-3.9,0.5-5.9,0.6c-6.4,0.3-12.8,0.5-19.2,0.8C35.5,112.4,33.7,112.7,31.3,113z"/>
		<path class="st0" d="M672.7,15.8c0,3.5-1.1,6.8-2.4,10c-2.1,5.1-4.3,10.1-6.4,15.2c-1.2,3-2.1,6.1-3.3,9.2
			c-0.5,1.3-1.1,2.5-1.9,3.7c-0.9,1.4-2.4,1.6-4,1.3c-1.3-0.3-2.4-1.8-2.5-3.3c-0.1-1.9,0-3.7,0.6-5.5c1.5-4.7,3.3-9.2,5.4-13.7
			c2.9-6.2,5.7-12.5,8.6-18.8c0.3-0.7,0.7-1.4,1.2-2c0.6-0.7,1.3-1.4,2.3-1.1c1.1,0.3,1.9,1.1,2.2,2.2
			C672.7,13.8,672.6,14.8,672.7,15.8z"/>
		<path class="st0" d="M710.6,48.7c0.1-0.3,0.3-1,0.5-1.7c3.3-10.6,8.1-20.4,13.6-30c0.7-1.2,1.4-2.4,2.2-3.5c1.1-1.6,2.6-2.3,4-1.7
			c1.5,0.7,2.2,2,2.2,3.5c0,0.6-0.1,1.2-0.2,1.7c-0.4,1.3-0.8,2.6-1.4,3.9c-2.8,6.4-5.8,12.7-8.6,19.1c-1.2,2.8-2.3,5.6-3.4,8.4
			c-0.5,1.2-1,2.4-1.8,3.4c-1.2,1.7-2.9,2.3-4.3,1.7C711.6,52.9,710.6,51.3,710.6,48.7z"/>
		<path class="st0" d="M622.1,82c2.5,1.4,3.2,2.8,2.6,5.3c-1,4.7-3.2,9.1-5,13.5c-2,4.7-3.9,9.4-6,14.1c-0.4,1-0.9,2-1.6,2.8
			c-1.8,1.8-3.9,1.3-5-1c-0.9-1.7-0.7-3.6-0.3-5.2c0.9-3.2,1.8-6.5,3.2-9.5c2.5-5.3,5.4-10.5,8.2-15.7c0.2-0.4,0.7-0.8,0.8-1.3
			C619.3,83.3,620.4,82.5,622.1,82z"/>
		<path class="st0" d="M623,113.4c0.6-2.1,0.9-4.3,1.7-6.2c2.6-6.6,5.5-13.1,9.6-18.9c0.8-1.2,1.4-2.6,2.1-3.9
			c0.2-0.3,0.4-0.7,0.6-1c1.1-1.3,2.6-1.2,3.4,0.3c1,1.7,0.9,3.6,0.3,5.4c-0.5,1.7-1.2,3.3-1.9,4.9c-2.9,6.9-6.5,13.5-8.6,20.7
			c-0.3,0.9-0.9,1.8-1.5,2.5c-1.6,1.7-3.8,1.4-4.9-0.6C623.4,115.6,623.3,114.5,623,113.4z"/>
		<path class="st0" d="M89.7,5.8c3-0.2,4.8,3.3,3.3,5.6c-0.9,1.3-2.1,2.4-3.4,3.3c-1.2,0.8-2.6,0.7-3.8-0.3
			c-1.1-1.1-1.7-2.4-1.2-3.9C85.3,7.7,87.5,5.7,89.7,5.8z"/>
		<path class="st0" d="M76.1,6.5c2.8-0.1,4.6,2.5,3.5,4.9c-0.4,0.9-0.9,1.8-1.6,2.5c-1.7,1.9-3.7,1.9-5.5,0.3
			c-1.5-1.4-1.6-3.9-0.4-5.6C73.2,7.2,74.7,6.8,76.1,6.5z"/>
		<path class="st0" d="M207.6,6.5c-0.1,2.1-2.2,4.2-4,4c-2.2-0.2-4.1-2.2-4.1-4.4c0-2,2.3-4,4.4-3.9C205.9,2.4,207.7,4.5,207.6,6.5z
			"/>
		<path class="st0" d="M241.7,6.3c-0.1,3-3.6,5.1-6.1,3.7c-1.5-0.9-2.1-2.6-1.3-4.3c0.4-0.8,1-1.7,1.8-2.3c1-0.9,2.3-1.6,3.7-0.8
			C241.3,3.4,241.8,4.5,241.7,6.3z"/>
		<path class="st0" d="M227.3,10.6c-1.8,0.1-3.5-1.7-3.4-3.6c0-2,1.9-4,3.9-4.1c1.8-0.1,3.2,1.3,3.3,3.3
			C231.1,8.6,229.5,10.6,227.3,10.6z"/>
		<path class="st0" d="M197.7,5.5c0,2.1-1.5,3.9-3.5,4c-2,0.1-3.8-1.6-3.6-3.4c0.2-1.9,2.3-4,3.9-3.8C196.2,2.4,197.7,3.8,197.7,5.5
			z"/>
	</g>
</g>
</svg>
